  0
SECTION
  2
HEADER
  9
$ANGBASE
  50
0.0
  9
$ANGDIR
  70
1
  9
$MEASUREMENT
  70
1
  0
ENDSEC
  0
SECTION
  2
TABLES
  0
TABLE
  2
LTYPE
  70
4
  0
LTYPE
  5
40F
  2
CONTINUOUS
  70
0
  3
Solid line
  72
65
  73
0
  40
0.0
  0
LTYPE
  5
410
  2
DASHDOT
 70
0
  3
Dash Dot ____ _ ____ _
 72
65
 73
4
 40
2.0
 49
1.25
 49
-0.25
 49
0.25
 49
-0.25
  0
LTYPE
  5
411
  2
DASHED
 70
0
  3
Dashed __ __ __ __ __
 72
65
 73
2
 40
0.75
 49
0.5
 49
-0.25
  0
LTYPE
  5
43B
  2
DOTTED
 70
0
  3
Dotted .  .  .  .
 72
65
 73
2
 40
0.2
 49
0.0
 49
-0.2
  0
ENDTAB
  0
TABLE
  2
STYLE
  70
4
  0
STYLE
  2
KICAD
  70
0
  40
0
  41
1
  42
1
  50
0
  71
0
  3
isocp.shx
  0
STYLE
  2
KICADB
  70
0
  40
0
  41
1
  42
1
  50
0
  71
0
  3
isocp.shx
  0
STYLE
  2
KICADI
  70
0
  40
0
  41
1
  42
1
  50
15
  71
0
  3
isocp.shx
  0
STYLE
  2
KICADBI
  70
0
  40
0
  41
1
  42
1
  50
15
  71
0
  3
isocp.shx
  0
ENDTAB
  0
TABLE
  2
LAYER
  70
1
  0
LAYER
  2
BLACK
  70
0
  62
7
  6
CONTINUOUS
  0
ENDTAB
  0
ENDSEC
  0
SECTION
  2
ENTITIES
0
LINE
8
BLACK
6
CONTINUOUS
10
150.432
20
-90.6529
11
150.408
21
-90.6291
0
LINE
8
BLACK
6
CONTINUOUS
10
150.408
20
-90.6291
11
150.397
21
-90.6017
0
LINE
8
BLACK
6
CONTINUOUS
10
150.397
20
-90.6017
11
150.394
21
-90.5937
0
LINE
8
BLACK
6
CONTINUOUS
10
150.394
20
-90.5937
11
150.394
21
-90.5937
0
LINE
8
BLACK
6
CONTINUOUS
10
150.394
20
-90.5937
11
150.408
21
-90.5583
0
LINE
8
BLACK
6
CONTINUOUS
10
150.408
20
-90.5583
11
150.408
21
-90.5583
0
LINE
8
BLACK
6
CONTINUOUS
10
150.408
20
-90.5583
11
150.432
21
-90.5345
0
LINE
8
BLACK
6
CONTINUOUS
10
150.432
20
-90.5345
11
150.432
21
-90.5345
0
LINE
8
BLACK
6
CONTINUOUS
10
150.432
20
-90.5345
11
150.467
21
-90.5199
0
LINE
8
BLACK
6
CONTINUOUS
10
150.467
20
-90.5199
11
150.467
21
-90.5199
0
LINE
8
BLACK
6
CONTINUOUS
10
150.467
20
-90.5199
11
150.473
21
-90.5223
0
LINE
8
BLACK
6
CONTINUOUS
10
150.473
20
-90.5223
11
150.503
21
-90.5345
0
LINE
8
BLACK
6
CONTINUOUS
10
150.503
20
-90.5345
11
150.527
21
-90.5583
0
LINE
8
BLACK
6
CONTINUOUS
10
150.527
20
-90.5583
11
150.541
21
-90.5937
0
LINE
8
BLACK
6
CONTINUOUS
10
150.541
20
-90.5937
11
150.527
21
-90.6291
0
LINE
8
BLACK
6
CONTINUOUS
10
150.527
20
-90.6291
11
150.527
21
-90.6291
0
LINE
8
BLACK
6
CONTINUOUS
10
150.527
20
-90.6291
11
150.527
21
-90.6291
0
LINE
8
BLACK
6
CONTINUOUS
10
150.527
20
-90.6291
11
150.503
21
-90.6529
0
LINE
8
BLACK
6
CONTINUOUS
10
150.503
20
-90.6529
11
150.503
21
-90.6529
0
LINE
8
BLACK
6
CONTINUOUS
10
150.503
20
-90.6529
11
150.48
21
-90.6622
0
LINE
8
BLACK
6
CONTINUOUS
10
150.48
20
-90.6622
11
150.467
21
-90.6675
0
LINE
8
BLACK
6
CONTINUOUS
10
150.467
20
-90.6675
11
150.467
21
-90.6675
0
LINE
8
BLACK
6
CONTINUOUS
10
150.467
20
-90.6675
11
150.432
21
-90.6529
0
LINE
8
BLACK
6
CONTINUOUS
10
152.884
20
-90.0822
11
152.898
21
-90.1175
0
LINE
8
BLACK
6
CONTINUOUS
10
152.898
20
-90.1175
11
152.898
21
-90.6175
0
LINE
8
BLACK
6
CONTINUOUS
10
152.898
20
-90.6175
11
152.884
21
-90.6529
0
LINE
8
BLACK
6
CONTINUOUS
10
152.884
20
-90.6529
11
152.848
21
-90.6675
0
LINE
8
BLACK
6
CONTINUOUS
10
152.848
20
-90.6675
11
152.813
21
-90.6529
0
LINE
8
BLACK
6
CONTINUOUS
10
152.813
20
-90.6529
11
152.798
21
-90.6175
0
LINE
8
BLACK
6
CONTINUOUS
10
152.798
20
-90.6175
11
152.798
21
-90.4294
0
LINE
8
BLACK
6
CONTINUOUS
10
152.798
20
-90.4294
11
152.755
21
-90.4294
0
LINE
8
BLACK
6
CONTINUOUS
10
152.755
20
-90.4294
11
152.604
21
-90.6462
0
LINE
8
BLACK
6
CONTINUOUS
10
152.604
20
-90.6462
11
152.571
21
-90.6668
0
LINE
8
BLACK
6
CONTINUOUS
10
152.571
20
-90.6668
11
152.534
21
-90.6585
0
LINE
8
BLACK
6
CONTINUOUS
10
152.534
20
-90.6585
11
152.513
21
-90.6262
0
LINE
8
BLACK
6
CONTINUOUS
10
152.513
20
-90.6262
11
152.522
21
-90.5888
0
LINE
8
BLACK
6
CONTINUOUS
10
152.522
20
-90.5888
11
152.637
21
-90.4242
0
LINE
8
BLACK
6
CONTINUOUS
10
152.637
20
-90.4242
11
152.635
21
-90.4241
0
LINE
8
BLACK
6
CONTINUOUS
10
152.635
20
-90.4241
11
152.588
21
-90.4003
0
LINE
8
BLACK
6
CONTINUOUS
10
152.588
20
-90.4003
11
152.582
21
-90.3941
0
LINE
8
BLACK
6
CONTINUOUS
10
152.582
20
-90.3941
11
152.575
21
-90.391
0
LINE
8
BLACK
6
CONTINUOUS
10
152.575
20
-90.391
11
152.551
21
-90.3672
0
LINE
8
BLACK
6
CONTINUOUS
10
152.551
20
-90.3672
11
152.548
21
-90.3596
0
LINE
8
BLACK
6
CONTINUOUS
10
152.548
20
-90.3596
11
152.542
21
-90.3542
0
LINE
8
BLACK
6
CONTINUOUS
10
152.542
20
-90.3542
11
152.518
21
-90.3065
0
LINE
8
BLACK
6
CONTINUOUS
10
152.518
20
-90.3065
11
152.517
21
-90.2949
0
LINE
8
BLACK
6
CONTINUOUS
10
152.517
20
-90.2949
11
152.513
21
-90.2842
0
LINE
8
BLACK
6
CONTINUOUS
10
152.513
20
-90.2842
11
152.513
21
-90.2128
0
LINE
8
BLACK
6
CONTINUOUS
10
152.513
20
-90.2128
11
152.517
21
-90.202
0
LINE
8
BLACK
6
CONTINUOUS
10
152.517
20
-90.202
11
152.518
21
-90.1904
0
LINE
8
BLACK
6
CONTINUOUS
10
152.518
20
-90.1904
11
152.542
21
-90.1428
0
LINE
8
BLACK
6
CONTINUOUS
10
152.542
20
-90.1428
11
152.548
21
-90.1374
0
LINE
8
BLACK
6
CONTINUOUS
10
152.548
20
-90.1374
11
152.551
21
-90.1298
0
LINE
8
BLACK
6
CONTINUOUS
10
152.551
20
-90.1298
11
152.575
21
-90.106
0
LINE
8
BLACK
6
CONTINUOUS
10
152.575
20
-90.106
11
152.582
21
-90.1028
0
LINE
8
BLACK
6
CONTINUOUS
10
152.582
20
-90.1028
11
152.588
21
-90.0966
0
LINE
8
BLACK
6
CONTINUOUS
10
152.588
20
-90.0966
11
152.635
21
-90.0728
0
LINE
8
BLACK
6
CONTINUOUS
10
152.635
20
-90.0728
11
152.647
21
-90.072
0
LINE
8
BLACK
6
CONTINUOUS
10
152.647
20
-90.072
11
152.658
21
-90.0675
0
LINE
8
BLACK
6
CONTINUOUS
10
152.658
20
-90.0675
11
152.848
21
-90.0675
0
LINE
8
BLACK
6
CONTINUOUS
10
152.848
20
-90.0675
11
152.884
21
-90.0822
0
LINE
8
BLACK
6
CONTINUOUS
10
152.67
20
-90.1675
11
152.64
21
-90.1824
0
LINE
8
BLACK
6
CONTINUOUS
10
152.64
20
-90.1824
11
152.627
21
-90.1948
0
LINE
8
BLACK
6
CONTINUOUS
10
152.627
20
-90.1948
11
152.613
21
-90.2246
0
LINE
8
BLACK
6
CONTINUOUS
10
152.613
20
-90.2246
11
152.613
21
-90.2724
0
LINE
8
BLACK
6
CONTINUOUS
10
152.613
20
-90.2724
11
152.627
21
-90.3022
0
LINE
8
BLACK
6
CONTINUOUS
10
152.627
20
-90.3022
11
152.64
21
-90.3145
0
LINE
8
BLACK
6
CONTINUOUS
10
152.64
20
-90.3145
11
152.67
21
-90.3294
0
LINE
8
BLACK
6
CONTINUOUS
10
152.67
20
-90.3294
11
152.798
21
-90.3294
0
LINE
8
BLACK
6
CONTINUOUS
10
152.798
20
-90.3294
11
152.798
21
-90.1675
0
LINE
8
BLACK
6
CONTINUOUS
10
152.798
20
-90.1675
11
152.67
21
-90.1675
0
LINE
8
BLACK
6
CONTINUOUS
10
152.311
20
-90.2386
11
152.323
21
-90.2395
0
LINE
8
BLACK
6
CONTINUOUS
10
152.323
20
-90.2395
11
152.371
21
-90.2633
0
LINE
8
BLACK
6
CONTINUOUS
10
152.371
20
-90.2633
11
152.396
21
-90.2922
0
LINE
8
BLACK
6
CONTINUOUS
10
152.396
20
-90.2922
11
152.393
21
-90.3304
0
LINE
8
BLACK
6
CONTINUOUS
10
152.393
20
-90.3304
11
152.364
21
-90.3554
0
LINE
8
BLACK
6
CONTINUOUS
10
152.364
20
-90.3554
11
152.326
21
-90.3527
0
LINE
8
BLACK
6
CONTINUOUS
10
152.326
20
-90.3527
11
152.289
21
-90.3342
0
LINE
8
BLACK
6
CONTINUOUS
10
152.289
20
-90.3342
11
152.217
21
-90.3342
0
LINE
8
BLACK
6
CONTINUOUS
10
152.217
20
-90.3342
11
152.195
21
-90.3453
0
LINE
8
BLACK
6
CONTINUOUS
10
152.195
20
-90.3453
11
152.184
21
-90.3674
0
LINE
8
BLACK
6
CONTINUOUS
10
152.184
20
-90.3674
11
152.184
21
-90.3723
0
LINE
8
BLACK
6
CONTINUOUS
10
152.184
20
-90.3723
11
152.193
21
-90.377
0
LINE
8
BLACK
6
CONTINUOUS
10
152.193
20
-90.377
11
152.301
21
-90.377
0
LINE
8
BLACK
6
CONTINUOUS
10
152.301
20
-90.377
11
152.311
21
-90.3815
0
LINE
8
BLACK
6
CONTINUOUS
10
152.311
20
-90.3815
11
152.323
21
-90.3823
0
LINE
8
BLACK
6
CONTINUOUS
10
152.323
20
-90.3823
11
152.371
21
-90.4061
0
LINE
8
BLACK
6
CONTINUOUS
10
152.371
20
-90.4061
11
152.381
21
-90.4181
0
LINE
8
BLACK
6
CONTINUOUS
10
152.381
20
-90.4181
11
152.393
21
-90.4285
0
LINE
8
BLACK
6
CONTINUOUS
10
152.393
20
-90.4285
11
152.417
21
-90.4761
0
LINE
8
BLACK
6
CONTINUOUS
10
152.417
20
-90.4761
11
152.418
21
-90.4877
0
LINE
8
BLACK
6
CONTINUOUS
10
152.418
20
-90.4877
11
152.422
21
-90.4985
0
LINE
8
BLACK
6
CONTINUOUS
10
152.422
20
-90.4985
11
152.422
21
-90.5461
0
LINE
8
BLACK
6
CONTINUOUS
10
152.422
20
-90.5461
11
152.418
21
-90.5568
0
LINE
8
BLACK
6
CONTINUOUS
10
152.418
20
-90.5568
11
152.417
21
-90.5684
0
LINE
8
BLACK
6
CONTINUOUS
10
152.417
20
-90.5684
11
152.393
21
-90.6161
0
LINE
8
BLACK
6
CONTINUOUS
10
152.393
20
-90.6161
11
152.381
21
-90.6265
0
LINE
8
BLACK
6
CONTINUOUS
10
152.381
20
-90.6265
11
152.371
21
-90.6384
0
LINE
8
BLACK
6
CONTINUOUS
10
152.371
20
-90.6384
11
152.323
21
-90.6622
0
LINE
8
BLACK
6
CONTINUOUS
10
152.323
20
-90.6622
11
152.311
21
-90.6631
0
LINE
8
BLACK
6
CONTINUOUS
10
152.311
20
-90.6631
11
152.301
21
-90.6675
0
LINE
8
BLACK
6
CONTINUOUS
10
152.301
20
-90.6675
11
152.182
21
-90.6675
0
LINE
8
BLACK
6
CONTINUOUS
10
152.182
20
-90.6675
11
152.171
21
-90.6631
0
LINE
8
BLACK
6
CONTINUOUS
10
152.171
20
-90.6631
11
152.159
21
-90.6622
0
LINE
8
BLACK
6
CONTINUOUS
10
152.159
20
-90.6622
11
152.154
21
-90.6594
0
LINE
8
BLACK
6
CONTINUOUS
10
152.154
20
-90.6594
11
152.134
21
-90.6675
0
LINE
8
BLACK
6
CONTINUOUS
10
152.134
20
-90.6675
11
152.099
21
-90.6529
0
LINE
8
BLACK
6
CONTINUOUS
10
152.099
20
-90.6529
11
152.084
21
-90.6175
0
LINE
8
BLACK
6
CONTINUOUS
10
152.084
20
-90.6175
11
152.084
21
-90.3556
0
LINE
8
BLACK
6
CONTINUOUS
10
152.084
20
-90.3556
11
152.088
21
-90.3449
0
LINE
8
BLACK
6
CONTINUOUS
10
152.088
20
-90.3449
11
152.089
21
-90.3333
0
LINE
8
BLACK
6
CONTINUOUS
10
152.089
20
-90.3333
11
152.113
21
-90.2856
0
LINE
8
BLACK
6
CONTINUOUS
10
152.113
20
-90.2856
11
152.125
21
-90.2752
0
LINE
8
BLACK
6
CONTINUOUS
10
152.125
20
-90.2752
11
152.135
21
-90.2633
0
LINE
8
BLACK
6
CONTINUOUS
10
152.135
20
-90.2633
11
152.183
21
-90.2395
0
LINE
8
BLACK
6
CONTINUOUS
10
152.183
20
-90.2395
11
152.195
21
-90.2386
0
LINE
8
BLACK
6
CONTINUOUS
10
152.195
20
-90.2386
11
152.205
21
-90.2342
0
LINE
8
BLACK
6
CONTINUOUS
10
152.205
20
-90.2342
11
152.301
21
-90.2342
0
LINE
8
BLACK
6
CONTINUOUS
10
152.301
20
-90.2342
11
152.311
21
-90.2386
0
LINE
8
BLACK
6
CONTINUOUS
10
152.184
20
-90.477
11
152.184
21
-90.5628
0
LINE
8
BLACK
6
CONTINUOUS
10
152.184
20
-90.5628
11
152.193
21
-90.5675
0
LINE
8
BLACK
6
CONTINUOUS
10
152.193
20
-90.5675
11
152.289
21
-90.5675
0
LINE
8
BLACK
6
CONTINUOUS
10
152.289
20
-90.5675
11
152.311
21
-90.5564
0
LINE
8
BLACK
6
CONTINUOUS
10
152.311
20
-90.5564
11
152.322
21
-90.5343
0
LINE
8
BLACK
6
CONTINUOUS
10
152.322
20
-90.5343
11
152.322
21
-90.5103
0
LINE
8
BLACK
6
CONTINUOUS
10
152.322
20
-90.5103
11
152.311
21
-90.4881
0
LINE
8
BLACK
6
CONTINUOUS
10
152.311
20
-90.4881
11
152.289
21
-90.477
0
LINE
8
BLACK
6
CONTINUOUS
10
152.289
20
-90.477
11
152.184
21
-90.477
0
LINE
8
BLACK
6
CONTINUOUS
10
150.788
20
-90.0822
11
150.803
21
-90.1175
0
LINE
8
BLACK
6
CONTINUOUS
10
150.803
20
-90.1175
11
150.803
21
-90.2342
0
LINE
8
BLACK
6
CONTINUOUS
10
150.803
20
-90.2342
11
150.824
21
-90.2342
0
LINE
8
BLACK
6
CONTINUOUS
10
150.824
20
-90.2342
11
150.86
21
-90.2488
0
LINE
8
BLACK
6
CONTINUOUS
10
150.86
20
-90.2488
11
150.874
21
-90.2842
0
LINE
8
BLACK
6
CONTINUOUS
10
150.874
20
-90.2842
11
150.86
21
-90.3195
0
LINE
8
BLACK
6
CONTINUOUS
10
150.86
20
-90.3195
11
150.824
21
-90.3342
0
LINE
8
BLACK
6
CONTINUOUS
10
150.824
20
-90.3342
11
150.803
21
-90.3342
0
LINE
8
BLACK
6
CONTINUOUS
10
150.803
20
-90.3342
11
150.803
21
-90.5461
0
LINE
8
BLACK
6
CONTINUOUS
10
150.803
20
-90.5461
11
150.799
21
-90.5568
0
LINE
8
BLACK
6
CONTINUOUS
10
150.799
20
-90.5568
11
150.798
21
-90.5684
0
LINE
8
BLACK
6
CONTINUOUS
10
150.798
20
-90.5684
11
150.774
21
-90.6161
0
LINE
8
BLACK
6
CONTINUOUS
10
150.774
20
-90.6161
11
150.762
21
-90.6265
0
LINE
8
BLACK
6
CONTINUOUS
10
150.762
20
-90.6265
11
150.752
21
-90.6384
0
LINE
8
BLACK
6
CONTINUOUS
10
150.752
20
-90.6384
11
150.704
21
-90.6622
0
LINE
8
BLACK
6
CONTINUOUS
10
150.704
20
-90.6622
11
150.692
21
-90.6631
0
LINE
8
BLACK
6
CONTINUOUS
10
150.692
20
-90.6631
11
150.682
21
-90.6675
0
LINE
8
BLACK
6
CONTINUOUS
10
150.682
20
-90.6675
11
150.634
21
-90.6675
0
LINE
8
BLACK
6
CONTINUOUS
10
150.634
20
-90.6675
11
150.599
21
-90.6529
0
LINE
8
BLACK
6
CONTINUOUS
10
150.599
20
-90.6529
11
150.584
21
-90.6175
0
LINE
8
BLACK
6
CONTINUOUS
10
150.584
20
-90.6175
11
150.599
21
-90.5822
0
LINE
8
BLACK
6
CONTINUOUS
10
150.599
20
-90.5822
11
150.634
21
-90.5675
0
LINE
8
BLACK
6
CONTINUOUS
10
150.634
20
-90.5675
11
150.67
21
-90.5675
0
LINE
8
BLACK
6
CONTINUOUS
10
150.67
20
-90.5675
11
150.692
21
-90.5564
0
LINE
8
BLACK
6
CONTINUOUS
10
150.692
20
-90.5564
11
150.703
21
-90.5343
0
LINE
8
BLACK
6
CONTINUOUS
10
150.703
20
-90.5343
11
150.703
21
-90.3342
0
LINE
8
BLACK
6
CONTINUOUS
10
150.703
20
-90.3342
11
150.634
21
-90.3342
0
LINE
8
BLACK
6
CONTINUOUS
10
150.634
20
-90.3342
11
150.599
21
-90.3195
0
LINE
8
BLACK
6
CONTINUOUS
10
150.599
20
-90.3195
11
150.584
21
-90.2842
0
LINE
8
BLACK
6
CONTINUOUS
10
150.584
20
-90.2842
11
150.599
21
-90.2488
0
LINE
8
BLACK
6
CONTINUOUS
10
150.599
20
-90.2488
11
150.634
21
-90.2342
0
LINE
8
BLACK
6
CONTINUOUS
10
150.634
20
-90.2342
11
150.703
21
-90.2342
0
LINE
8
BLACK
6
CONTINUOUS
10
150.703
20
-90.2342
11
150.703
21
-90.1175
0
LINE
8
BLACK
6
CONTINUOUS
10
150.703
20
-90.1175
11
150.718
21
-90.0822
0
LINE
8
BLACK
6
CONTINUOUS
10
150.718
20
-90.0822
11
150.753
21
-90.0675
0
LINE
8
BLACK
6
CONTINUOUS
10
150.753
20
-90.0675
11
150.788
21
-90.0822
0
LINE
8
BLACK
6
CONTINUOUS
10
151.931
20
-90.0822
11
151.946
21
-90.1175
0
LINE
8
BLACK
6
CONTINUOUS
10
151.946
20
-90.1175
11
151.946
21
-90.6175
0
LINE
8
BLACK
6
CONTINUOUS
10
151.946
20
-90.6175
11
151.931
21
-90.6529
0
LINE
8
BLACK
6
CONTINUOUS
10
151.931
20
-90.6529
11
151.896
21
-90.6675
0
LINE
8
BLACK
6
CONTINUOUS
10
151.896
20
-90.6675
11
151.876
21
-90.6594
0
LINE
8
BLACK
6
CONTINUOUS
10
151.876
20
-90.6594
11
151.871
21
-90.6622
0
LINE
8
BLACK
6
CONTINUOUS
10
151.871
20
-90.6622
11
151.859
21
-90.6631
0
LINE
8
BLACK
6
CONTINUOUS
10
151.859
20
-90.6631
11
151.848
21
-90.6675
0
LINE
8
BLACK
6
CONTINUOUS
10
151.848
20
-90.6675
11
151.753
21
-90.6675
0
LINE
8
BLACK
6
CONTINUOUS
10
151.753
20
-90.6675
11
151.742
21
-90.6631
0
LINE
8
BLACK
6
CONTINUOUS
10
151.742
20
-90.6631
11
151.731
21
-90.6622
0
LINE
8
BLACK
6
CONTINUOUS
10
151.731
20
-90.6622
11
151.683
21
-90.6384
0
LINE
8
BLACK
6
CONTINUOUS
10
151.683
20
-90.6384
11
151.678
21
-90.6322
0
LINE
8
BLACK
6
CONTINUOUS
10
151.678
20
-90.6322
11
151.67
21
-90.6291
0
LINE
8
BLACK
6
CONTINUOUS
10
151.67
20
-90.6291
11
151.646
21
-90.6053
0
LINE
8
BLACK
6
CONTINUOUS
10
151.646
20
-90.6053
11
151.643
21
-90.5977
0
LINE
8
BLACK
6
CONTINUOUS
10
151.643
20
-90.5977
11
151.637
21
-90.5923
0
LINE
8
BLACK
6
CONTINUOUS
10
151.637
20
-90.5923
11
151.613
21
-90.5446
0
LINE
8
BLACK
6
CONTINUOUS
10
151.613
20
-90.5446
11
151.612
21
-90.533
0
LINE
8
BLACK
6
CONTINUOUS
10
151.612
20
-90.533
11
151.608
21
-90.5223
0
LINE
8
BLACK
6
CONTINUOUS
10
151.608
20
-90.5223
11
151.608
21
-90.3794
0
LINE
8
BLACK
6
CONTINUOUS
10
151.608
20
-90.3794
11
151.612
21
-90.3687
0
LINE
8
BLACK
6
CONTINUOUS
10
151.612
20
-90.3687
11
151.613
21
-90.3571
0
LINE
8
BLACK
6
CONTINUOUS
10
151.613
20
-90.3571
11
151.637
21
-90.3094
0
LINE
8
BLACK
6
CONTINUOUS
10
151.637
20
-90.3094
11
151.643
21
-90.304
0
LINE
8
BLACK
6
CONTINUOUS
10
151.643
20
-90.304
11
151.646
21
-90.2964
0
LINE
8
BLACK
6
CONTINUOUS
10
151.646
20
-90.2964
11
151.67
21
-90.2726
0
LINE
8
BLACK
6
CONTINUOUS
10
151.67
20
-90.2726
11
151.678
21
-90.2695
0
LINE
8
BLACK
6
CONTINUOUS
10
151.678
20
-90.2695
11
151.683
21
-90.2633
0
LINE
8
BLACK
6
CONTINUOUS
10
151.683
20
-90.2633
11
151.731
21
-90.2395
0
LINE
8
BLACK
6
CONTINUOUS
10
151.731
20
-90.2395
11
151.742
21
-90.2386
0
LINE
8
BLACK
6
CONTINUOUS
10
151.742
20
-90.2386
11
151.753
21
-90.2342
0
LINE
8
BLACK
6
CONTINUOUS
10
151.753
20
-90.2342
11
151.846
21
-90.2342
0
LINE
8
BLACK
6
CONTINUOUS
10
151.846
20
-90.2342
11
151.846
21
-90.1175
0
LINE
8
BLACK
6
CONTINUOUS
10
151.846
20
-90.1175
11
151.861
21
-90.0822
0
LINE
8
BLACK
6
CONTINUOUS
10
151.861
20
-90.0822
11
151.896
21
-90.0675
0
LINE
8
BLACK
6
CONTINUOUS
10
151.896
20
-90.0675
11
151.931
21
-90.0822
0
LINE
8
BLACK
6
CONTINUOUS
10
151.765
20
-90.3342
11
151.735
21
-90.3491
0
LINE
8
BLACK
6
CONTINUOUS
10
151.735
20
-90.3491
11
151.723
21
-90.3614
0
LINE
8
BLACK
6
CONTINUOUS
10
151.723
20
-90.3614
11
151.708
21
-90.3912
0
LINE
8
BLACK
6
CONTINUOUS
10
151.708
20
-90.3912
11
151.708
21
-90.5105
0
LINE
8
BLACK
6
CONTINUOUS
10
151.708
20
-90.5105
11
151.723
21
-90.5403
0
LINE
8
BLACK
6
CONTINUOUS
10
151.723
20
-90.5403
11
151.735
21
-90.5526
0
LINE
8
BLACK
6
CONTINUOUS
10
151.735
20
-90.5526
11
151.765
21
-90.5675
0
LINE
8
BLACK
6
CONTINUOUS
10
151.765
20
-90.5675
11
151.837
21
-90.5675
0
LINE
8
BLACK
6
CONTINUOUS
10
151.837
20
-90.5675
11
151.846
21
-90.5628
0
LINE
8
BLACK
6
CONTINUOUS
10
151.846
20
-90.5628
11
151.846
21
-90.3389
0
LINE
8
BLACK
6
CONTINUOUS
10
151.846
20
-90.3389
11
151.836
21
-90.3342
0
LINE
8
BLACK
6
CONTINUOUS
10
151.836
20
-90.3342
11
151.765
21
-90.3342
0
LINE
8
BLACK
6
CONTINUOUS
10
151.027
20
-90.2488
11
151.041
21
-90.2842
0
LINE
8
BLACK
6
CONTINUOUS
10
151.041
20
-90.2842
11
151.041
21
-90.6175
0
LINE
8
BLACK
6
CONTINUOUS
10
151.041
20
-90.6175
11
151.027
21
-90.6529
0
LINE
8
BLACK
6
CONTINUOUS
10
151.027
20
-90.6529
11
150.991
21
-90.6675
0
LINE
8
BLACK
6
CONTINUOUS
10
150.991
20
-90.6675
11
150.956
21
-90.6529
0
LINE
8
BLACK
6
CONTINUOUS
10
150.956
20
-90.6529
11
150.941
21
-90.6175
0
LINE
8
BLACK
6
CONTINUOUS
10
150.941
20
-90.6175
11
150.941
21
-90.2842
0
LINE
8
BLACK
6
CONTINUOUS
10
150.941
20
-90.2842
11
150.956
21
-90.2488
0
LINE
8
BLACK
6
CONTINUOUS
10
150.956
20
-90.2488
11
150.991
21
-90.2342
0
LINE
8
BLACK
6
CONTINUOUS
10
150.991
20
-90.2342
11
151.027
21
-90.2488
0
LINE
8
BLACK
6
CONTINUOUS
10
151.479
20
-90.0822
11
151.494
21
-90.1175
0
LINE
8
BLACK
6
CONTINUOUS
10
151.494
20
-90.1175
11
151.494
21
-90.6175
0
LINE
8
BLACK
6
CONTINUOUS
10
151.494
20
-90.6175
11
151.479
21
-90.6529
0
LINE
8
BLACK
6
CONTINUOUS
10
151.479
20
-90.6529
11
151.444
21
-90.6675
0
LINE
8
BLACK
6
CONTINUOUS
10
151.444
20
-90.6675
11
151.424
21
-90.6594
0
LINE
8
BLACK
6
CONTINUOUS
10
151.424
20
-90.6594
11
151.418
21
-90.6622
0
LINE
8
BLACK
6
CONTINUOUS
10
151.418
20
-90.6622
11
151.407
21
-90.6631
0
LINE
8
BLACK
6
CONTINUOUS
10
151.407
20
-90.6631
11
151.396
21
-90.6675
0
LINE
8
BLACK
6
CONTINUOUS
10
151.396
20
-90.6675
11
151.301
21
-90.6675
0
LINE
8
BLACK
6
CONTINUOUS
10
151.301
20
-90.6675
11
151.29
21
-90.6631
0
LINE
8
BLACK
6
CONTINUOUS
10
151.29
20
-90.6631
11
151.278
21
-90.6622
0
LINE
8
BLACK
6
CONTINUOUS
10
151.278
20
-90.6622
11
151.231
21
-90.6384
0
LINE
8
BLACK
6
CONTINUOUS
10
151.231
20
-90.6384
11
151.225
21
-90.6322
0
LINE
8
BLACK
6
CONTINUOUS
10
151.225
20
-90.6322
11
151.218
21
-90.6291
0
LINE
8
BLACK
6
CONTINUOUS
10
151.218
20
-90.6291
11
151.194
21
-90.6053
0
LINE
8
BLACK
6
CONTINUOUS
10
151.194
20
-90.6053
11
151.191
21
-90.5977
0
LINE
8
BLACK
6
CONTINUOUS
10
151.191
20
-90.5977
11
151.185
21
-90.5923
0
LINE
8
BLACK
6
CONTINUOUS
10
151.185
20
-90.5923
11
151.161
21
-90.5446
0
LINE
8
BLACK
6
CONTINUOUS
10
151.161
20
-90.5446
11
151.16
21
-90.533
0
LINE
8
BLACK
6
CONTINUOUS
10
151.16
20
-90.533
11
151.155
21
-90.5223
0
LINE
8
BLACK
6
CONTINUOUS
10
151.155
20
-90.5223
11
151.155
21
-90.3794
0
LINE
8
BLACK
6
CONTINUOUS
10
151.155
20
-90.3794
11
151.16
21
-90.3687
0
LINE
8
BLACK
6
CONTINUOUS
10
151.16
20
-90.3687
11
151.161
21
-90.3571
0
LINE
8
BLACK
6
CONTINUOUS
10
151.161
20
-90.3571
11
151.185
21
-90.3094
0
LINE
8
BLACK
6
CONTINUOUS
10
151.185
20
-90.3094
11
151.191
21
-90.304
0
LINE
8
BLACK
6
CONTINUOUS
10
151.191
20
-90.304
11
151.194
21
-90.2964
0
LINE
8
BLACK
6
CONTINUOUS
10
151.194
20
-90.2964
11
151.218
21
-90.2726
0
LINE
8
BLACK
6
CONTINUOUS
10
151.218
20
-90.2726
11
151.225
21
-90.2695
0
LINE
8
BLACK
6
CONTINUOUS
10
151.225
20
-90.2695
11
151.231
21
-90.2633
0
LINE
8
BLACK
6
CONTINUOUS
10
151.231
20
-90.2633
11
151.278
21
-90.2395
0
LINE
8
BLACK
6
CONTINUOUS
10
151.278
20
-90.2395
11
151.29
21
-90.2386
0
LINE
8
BLACK
6
CONTINUOUS
10
151.29
20
-90.2386
11
151.301
21
-90.2342
0
LINE
8
BLACK
6
CONTINUOUS
10
151.301
20
-90.2342
11
151.394
21
-90.2342
0
LINE
8
BLACK
6
CONTINUOUS
10
151.394
20
-90.2342
11
151.394
21
-90.1175
0
LINE
8
BLACK
6
CONTINUOUS
10
151.394
20
-90.1175
11
151.408
21
-90.0822
0
LINE
8
BLACK
6
CONTINUOUS
10
151.408
20
-90.0822
11
151.444
21
-90.0675
0
LINE
8
BLACK
6
CONTINUOUS
10
151.444
20
-90.0675
11
151.479
21
-90.0822
0
LINE
8
BLACK
6
CONTINUOUS
10
151.312
20
-90.3342
11
151.283
21
-90.3491
0
LINE
8
BLACK
6
CONTINUOUS
10
151.283
20
-90.3491
11
151.27
21
-90.3614
0
LINE
8
BLACK
6
CONTINUOUS
10
151.27
20
-90.3614
11
151.255
21
-90.3912
0
LINE
8
BLACK
6
CONTINUOUS
10
151.255
20
-90.3912
11
151.255
21
-90.5105
0
LINE
8
BLACK
6
CONTINUOUS
10
151.255
20
-90.5105
11
151.27
21
-90.5403
0
LINE
8
BLACK
6
CONTINUOUS
10
151.27
20
-90.5403
11
151.283
21
-90.5526
0
LINE
8
BLACK
6
CONTINUOUS
10
151.283
20
-90.5526
11
151.312
21
-90.5675
0
LINE
8
BLACK
6
CONTINUOUS
10
151.312
20
-90.5675
11
151.384
21
-90.5675
0
LINE
8
BLACK
6
CONTINUOUS
10
151.384
20
-90.5675
11
151.394
21
-90.5628
0
LINE
8
BLACK
6
CONTINUOUS
10
151.394
20
-90.5628
11
151.394
21
-90.3389
0
LINE
8
BLACK
6
CONTINUOUS
10
151.394
20
-90.3389
11
151.384
21
-90.3342
0
LINE
8
BLACK
6
CONTINUOUS
10
151.384
20
-90.3342
11
151.312
21
-90.3342
0
LINE
8
BLACK
6
CONTINUOUS
10
150.478
20
-90.0718
11
150.503
21
-90.0822
0
LINE
8
BLACK
6
CONTINUOUS
10
150.503
20
-90.0822
11
150.503
21
-90.0822
0
LINE
8
BLACK
6
CONTINUOUS
10
150.503
20
-90.0822
11
150.503
21
-90.0822
0
LINE
8
BLACK
6
CONTINUOUS
10
150.503
20
-90.0822
11
150.527
21
-90.106
0
LINE
8
BLACK
6
CONTINUOUS
10
150.527
20
-90.106
11
150.527
21
-90.108
0
LINE
8
BLACK
6
CONTINUOUS
10
150.527
20
-90.108
11
150.529
21
-90.109
0
LINE
8
BLACK
6
CONTINUOUS
10
150.529
20
-90.109
11
150.535
21
-90.1254
0
LINE
8
BLACK
6
CONTINUOUS
10
150.535
20
-90.1254
11
150.541
21
-90.1413
0
LINE
8
BLACK
6
CONTINUOUS
10
150.541
20
-90.1413
11
150.54
21
-90.1434
0
LINE
8
BLACK
6
CONTINUOUS
10
150.54
20
-90.1434
11
150.541
21
-90.1455
0
LINE
8
BLACK
6
CONTINUOUS
10
150.541
20
-90.1455
11
150.517
21
-90.4312
0
LINE
8
BLACK
6
CONTINUOUS
10
150.517
20
-90.4312
11
150.51
21
-90.4448
0
LINE
8
BLACK
6
CONTINUOUS
10
150.51
20
-90.4448
11
150.506
21
-90.4593
0
LINE
8
BLACK
6
CONTINUOUS
10
150.506
20
-90.4593
11
150.504
21
-90.4604
0
LINE
8
BLACK
6
CONTINUOUS
10
150.504
20
-90.4604
11
150.503
21
-90.4624
0
LINE
8
BLACK
6
CONTINUOUS
10
150.503
20
-90.4624
11
150.501
21
-90.4632
0
LINE
8
BLACK
6
CONTINUOUS
10
150.501
20
-90.4632
11
150.5
21
-90.4652
0
LINE
8
BLACK
6
CONTINUOUS
10
150.5
20
-90.4652
11
150.485
21
-90.4699
0
LINE
8
BLACK
6
CONTINUOUS
10
150.485
20
-90.4699
11
150.472
21
-90.4769
0
LINE
8
BLACK
6
CONTINUOUS
10
150.472
20
-90.4769
11
150.469
21
-90.4762
0
LINE
8
BLACK
6
CONTINUOUS
10
150.469
20
-90.4762
11
150.467
21
-90.477
0
LINE
8
BLACK
6
CONTINUOUS
10
150.467
20
-90.477
11
150.465
21
-90.4762
0
LINE
8
BLACK
6
CONTINUOUS
10
150.465
20
-90.4762
11
150.463
21
-90.4769
0
LINE
8
BLACK
6
CONTINUOUS
10
150.463
20
-90.4769
11
150.45
21
-90.4699
0
LINE
8
BLACK
6
CONTINUOUS
10
150.45
20
-90.4699
11
150.435
21
-90.4652
0
LINE
8
BLACK
6
CONTINUOUS
10
150.435
20
-90.4652
11
150.434
21
-90.4632
0
LINE
8
BLACK
6
CONTINUOUS
10
150.434
20
-90.4632
11
150.432
21
-90.4624
0
LINE
8
BLACK
6
CONTINUOUS
10
150.432
20
-90.4624
11
150.431
21
-90.4604
0
LINE
8
BLACK
6
CONTINUOUS
10
150.431
20
-90.4604
11
150.429
21
-90.4593
0
LINE
8
BLACK
6
CONTINUOUS
10
150.429
20
-90.4593
11
150.425
21
-90.4448
0
LINE
8
BLACK
6
CONTINUOUS
10
150.425
20
-90.4448
11
150.418
21
-90.4312
0
LINE
8
BLACK
6
CONTINUOUS
10
150.418
20
-90.4312
11
150.394
21
-90.1455
0
LINE
8
BLACK
6
CONTINUOUS
10
150.394
20
-90.1455
11
150.394
21
-90.1434
0
LINE
8
BLACK
6
CONTINUOUS
10
150.394
20
-90.1434
11
150.394
21
-90.1413
0
LINE
8
BLACK
6
CONTINUOUS
10
150.394
20
-90.1413
11
150.4
21
-90.1254
0
LINE
8
BLACK
6
CONTINUOUS
10
150.4
20
-90.1254
11
150.405
21
-90.109
0
LINE
8
BLACK
6
CONTINUOUS
10
150.405
20
-90.109
11
150.407
21
-90.108
0
LINE
8
BLACK
6
CONTINUOUS
10
150.407
20
-90.108
11
150.408
21
-90.106
0
LINE
8
BLACK
6
CONTINUOUS
10
150.408
20
-90.106
11
150.432
21
-90.0822
0
LINE
8
BLACK
6
CONTINUOUS
10
150.432
20
-90.0822
11
150.467
21
-90.0675
0
LINE
8
BLACK
6
CONTINUOUS
10
150.467
20
-90.0675
11
150.467
21
-90.0675
0
LINE
8
BLACK
6
CONTINUOUS
10
150.467
20
-90.0675
11
150.478
21
-90.0718
0
LINE
8
BLACK
6
CONTINUOUS
10
151.027
20
-90.0822
11
151.05
21
-90.106
0
LINE
8
BLACK
6
CONTINUOUS
10
151.05
20
-90.106
11
151.055
21
-90.1177
0
LINE
8
BLACK
6
CONTINUOUS
10
151.055
20
-90.1177
11
151.062
21
-90.1333
0
LINE
8
BLACK
6
CONTINUOUS
10
151.062
20
-90.1333
11
151.065
21
-90.1413
0
LINE
8
BLACK
6
CONTINUOUS
10
151.065
20
-90.1413
11
151.05
21
-90.1767
0
LINE
8
BLACK
6
CONTINUOUS
10
151.05
20
-90.1767
11
151.05
21
-90.1767
0
LINE
8
BLACK
6
CONTINUOUS
10
151.05
20
-90.1767
11
151.027
21
-90.2005
0
LINE
8
BLACK
6
CONTINUOUS
10
151.027
20
-90.2005
11
151.027
21
-90.2005
0
LINE
8
BLACK
6
CONTINUOUS
10
151.027
20
-90.2005
11
150.991
21
-90.2151
0
LINE
8
BLACK
6
CONTINUOUS
10
150.991
20
-90.2151
11
150.991
21
-90.2151
0
LINE
8
BLACK
6
CONTINUOUS
10
150.991
20
-90.2151
11
150.977
21
-90.2091
0
LINE
8
BLACK
6
CONTINUOUS
10
150.977
20
-90.2091
11
150.956
21
-90.2005
0
LINE
8
BLACK
6
CONTINUOUS
10
150.956
20
-90.2005
11
150.932
21
-90.1767
0
LINE
8
BLACK
6
CONTINUOUS
10
150.932
20
-90.1767
11
150.917
21
-90.1413
0
LINE
8
BLACK
6
CONTINUOUS
10
150.917
20
-90.1413
11
150.932
21
-90.106
0
LINE
8
BLACK
6
CONTINUOUS
10
150.932
20
-90.106
11
150.932
21
-90.106
0
LINE
8
BLACK
6
CONTINUOUS
10
150.932
20
-90.106
11
150.956
21
-90.0822
0
LINE
8
BLACK
6
CONTINUOUS
10
150.956
20
-90.0822
11
150.956
21
-90.0822
0
LINE
8
BLACK
6
CONTINUOUS
10
150.956
20
-90.0822
11
150.956
21
-90.0822
0
LINE
8
BLACK
6
CONTINUOUS
10
150.956
20
-90.0822
11
150.981
21
-90.0718
0
LINE
8
BLACK
6
CONTINUOUS
10
150.981
20
-90.0718
11
150.991
21
-90.0675
0
LINE
8
BLACK
6
CONTINUOUS
10
150.991
20
-90.0675
11
150.991
21
-90.0675
0
LINE
8
BLACK
6
CONTINUOUS
10
150.991
20
-90.0675
11
151.027
21
-90.0822
0
LINE
8
BLACK
6
CONTINUOUS
10
150.645
20
-89.4336
11
150.656
21
-89.4345
0
LINE
8
BLACK
6
CONTINUOUS
10
150.656
20
-89.4345
11
150.704
21
-89.4583
0
LINE
8
BLACK
6
CONTINUOUS
10
150.704
20
-89.4583
11
150.729
21
-89.4872
0
LINE
8
BLACK
6
CONTINUOUS
10
150.729
20
-89.4872
11
150.726
21
-89.5254
0
LINE
8
BLACK
6
CONTINUOUS
10
150.726
20
-89.5254
11
150.697
21
-89.5504
0
LINE
8
BLACK
6
CONTINUOUS
10
150.697
20
-89.5504
11
150.659
21
-89.5477
0
LINE
8
BLACK
6
CONTINUOUS
10
150.659
20
-89.5477
11
150.622
21
-89.5292
0
LINE
8
BLACK
6
CONTINUOUS
10
150.622
20
-89.5292
11
150.551
21
-89.5292
0
LINE
8
BLACK
6
CONTINUOUS
10
150.551
20
-89.5292
11
150.528
21
-89.5403
0
LINE
8
BLACK
6
CONTINUOUS
10
150.528
20
-89.5403
11
150.517
21
-89.5624
0
LINE
8
BLACK
6
CONTINUOUS
10
150.517
20
-89.5624
11
150.517
21
-89.5673
0
LINE
8
BLACK
6
CONTINUOUS
10
150.517
20
-89.5673
11
150.527
21
-89.572
0
LINE
8
BLACK
6
CONTINUOUS
10
150.527
20
-89.572
11
150.634
21
-89.572
0
LINE
8
BLACK
6
CONTINUOUS
10
150.634
20
-89.572
11
150.645
21
-89.5765
0
LINE
8
BLACK
6
CONTINUOUS
10
150.645
20
-89.5765
11
150.656
21
-89.5773
0
LINE
8
BLACK
6
CONTINUOUS
10
150.656
20
-89.5773
11
150.704
21
-89.6011
0
LINE
8
BLACK
6
CONTINUOUS
10
150.704
20
-89.6011
11
150.714
21
-89.6131
0
LINE
8
BLACK
6
CONTINUOUS
10
150.714
20
-89.6131
11
150.726
21
-89.6235
0
LINE
8
BLACK
6
CONTINUOUS
10
150.726
20
-89.6235
11
150.75
21
-89.6711
0
LINE
8
BLACK
6
CONTINUOUS
10
150.75
20
-89.6711
11
150.751
21
-89.6827
0
LINE
8
BLACK
6
CONTINUOUS
10
150.751
20
-89.6827
11
150.755
21
-89.6935
0
LINE
8
BLACK
6
CONTINUOUS
10
150.755
20
-89.6935
11
150.755
21
-89.7411
0
LINE
8
BLACK
6
CONTINUOUS
10
150.755
20
-89.7411
11
150.751
21
-89.7518
0
LINE
8
BLACK
6
CONTINUOUS
10
150.751
20
-89.7518
11
150.75
21
-89.7634
0
LINE
8
BLACK
6
CONTINUOUS
10
150.75
20
-89.7634
11
150.726
21
-89.8111
0
LINE
8
BLACK
6
CONTINUOUS
10
150.726
20
-89.8111
11
150.714
21
-89.8215
0
LINE
8
BLACK
6
CONTINUOUS
10
150.714
20
-89.8215
11
150.704
21
-89.8334
0
LINE
8
BLACK
6
CONTINUOUS
10
150.704
20
-89.8334
11
150.656
21
-89.8572
0
LINE
8
BLACK
6
CONTINUOUS
10
150.656
20
-89.8572
11
150.645
21
-89.8581
0
LINE
8
BLACK
6
CONTINUOUS
10
150.645
20
-89.8581
11
150.634
21
-89.8625
0
LINE
8
BLACK
6
CONTINUOUS
10
150.634
20
-89.8625
11
150.515
21
-89.8625
0
LINE
8
BLACK
6
CONTINUOUS
10
150.515
20
-89.8625
11
150.504
21
-89.8581
0
LINE
8
BLACK
6
CONTINUOUS
10
150.504
20
-89.8581
11
150.493
21
-89.8572
0
LINE
8
BLACK
6
CONTINUOUS
10
150.493
20
-89.8572
11
150.487
21
-89.8544
0
LINE
8
BLACK
6
CONTINUOUS
10
150.487
20
-89.8544
11
150.467
21
-89.8625
0
LINE
8
BLACK
6
CONTINUOUS
10
150.467
20
-89.8625
11
150.432
21
-89.8479
0
LINE
8
BLACK
6
CONTINUOUS
10
150.432
20
-89.8479
11
150.417
21
-89.8125
0
LINE
8
BLACK
6
CONTINUOUS
10
150.417
20
-89.8125
11
150.417
21
-89.5506
0
LINE
8
BLACK
6
CONTINUOUS
10
150.417
20
-89.5506
11
150.422
21
-89.5399
0
LINE
8
BLACK
6
CONTINUOUS
10
150.422
20
-89.5399
11
150.423
21
-89.5282
0
LINE
8
BLACK
6
CONTINUOUS
10
150.423
20
-89.5282
11
150.446
21
-89.4806
0
LINE
8
BLACK
6
CONTINUOUS
10
150.446
20
-89.4806
11
150.458
21
-89.4702
0
LINE
8
BLACK
6
CONTINUOUS
10
150.458
20
-89.4702
11
150.469
21
-89.4583
0
LINE
8
BLACK
6
CONTINUOUS
10
150.469
20
-89.4583
11
150.516
21
-89.4345
0
LINE
8
BLACK
6
CONTINUOUS
10
150.516
20
-89.4345
11
150.528
21
-89.4336
0
LINE
8
BLACK
6
CONTINUOUS
10
150.528
20
-89.4336
11
150.539
21
-89.4292
0
LINE
8
BLACK
6
CONTINUOUS
10
150.539
20
-89.4292
11
150.634
21
-89.4292
0
LINE
8
BLACK
6
CONTINUOUS
10
150.634
20
-89.4292
11
150.645
21
-89.4336
0
LINE
8
BLACK
6
CONTINUOUS
10
150.517
20
-89.672
11
150.517
21
-89.7578
0
LINE
8
BLACK
6
CONTINUOUS
10
150.517
20
-89.7578
11
150.527
21
-89.7625
0
LINE
8
BLACK
6
CONTINUOUS
10
150.527
20
-89.7625
11
150.622
21
-89.7625
0
LINE
8
BLACK
6
CONTINUOUS
10
150.622
20
-89.7625
11
150.644
21
-89.7514
0
LINE
8
BLACK
6
CONTINUOUS
10
150.644
20
-89.7514
11
150.655
21
-89.7293
0
LINE
8
BLACK
6
CONTINUOUS
10
150.655
20
-89.7293
11
150.655
21
-89.7053
0
LINE
8
BLACK
6
CONTINUOUS
10
150.655
20
-89.7053
11
150.644
21
-89.6831
0
LINE
8
BLACK
6
CONTINUOUS
10
150.644
20
-89.6831
11
150.622
21
-89.672
0
LINE
8
BLACK
6
CONTINUOUS
10
150.622
20
-89.672
11
150.517
21
-89.672
0
LINE
8
BLACK
6
CONTINUOUS
10
151.907
20
-89.4336
11
151.918
21
-89.4345
0
LINE
8
BLACK
6
CONTINUOUS
10
151.918
20
-89.4345
11
151.966
21
-89.4583
0
LINE
8
BLACK
6
CONTINUOUS
10
151.966
20
-89.4583
11
151.976
21
-89.4702
0
LINE
8
BLACK
6
CONTINUOUS
10
151.976
20
-89.4702
11
151.988
21
-89.4806
0
LINE
8
BLACK
6
CONTINUOUS
10
151.988
20
-89.4806
11
152.012
21
-89.5282
0
LINE
8
BLACK
6
CONTINUOUS
10
152.012
20
-89.5282
11
152.013
21
-89.5399
0
LINE
8
BLACK
6
CONTINUOUS
10
152.013
20
-89.5399
11
152.017
21
-89.5506
0
LINE
8
BLACK
6
CONTINUOUS
10
152.017
20
-89.5506
11
152.017
21
-89.7411
0
LINE
8
BLACK
6
CONTINUOUS
10
152.017
20
-89.7411
11
152.013
21
-89.7518
0
LINE
8
BLACK
6
CONTINUOUS
10
152.013
20
-89.7518
11
152.012
21
-89.7634
0
LINE
8
BLACK
6
CONTINUOUS
10
152.012
20
-89.7634
11
151.988
21
-89.8111
0
LINE
8
BLACK
6
CONTINUOUS
10
151.988
20
-89.8111
11
151.976
21
-89.8215
0
LINE
8
BLACK
6
CONTINUOUS
10
151.976
20
-89.8215
11
151.966
21
-89.8334
0
LINE
8
BLACK
6
CONTINUOUS
10
151.966
20
-89.8334
11
151.918
21
-89.8572
0
LINE
8
BLACK
6
CONTINUOUS
10
151.918
20
-89.8572
11
151.907
21
-89.8581
0
LINE
8
BLACK
6
CONTINUOUS
10
151.907
20
-89.8581
11
151.896
21
-89.8625
0
LINE
8
BLACK
6
CONTINUOUS
10
151.896
20
-89.8625
11
151.801
21
-89.8625
0
LINE
8
BLACK
6
CONTINUOUS
10
151.801
20
-89.8625
11
151.79
21
-89.8581
0
LINE
8
BLACK
6
CONTINUOUS
10
151.79
20
-89.8581
11
151.778
21
-89.8572
0
LINE
8
BLACK
6
CONTINUOUS
10
151.778
20
-89.8572
11
151.731
21
-89.8334
0
LINE
8
BLACK
6
CONTINUOUS
10
151.731
20
-89.8334
11
151.706
21
-89.8045
0
LINE
8
BLACK
6
CONTINUOUS
10
151.706
20
-89.8045
11
151.708
21
-89.7663
0
LINE
8
BLACK
6
CONTINUOUS
10
151.708
20
-89.7663
11
151.737
21
-89.7413
0
LINE
8
BLACK
6
CONTINUOUS
10
151.737
20
-89.7413
11
151.775
21
-89.744
0
LINE
8
BLACK
6
CONTINUOUS
10
151.775
20
-89.744
11
151.812
21
-89.7625
0
LINE
8
BLACK
6
CONTINUOUS
10
151.812
20
-89.7625
11
151.884
21
-89.7625
0
LINE
8
BLACK
6
CONTINUOUS
10
151.884
20
-89.7625
11
151.906
21
-89.7514
0
LINE
8
BLACK
6
CONTINUOUS
10
151.906
20
-89.7514
11
151.917
21
-89.7293
0
LINE
8
BLACK
6
CONTINUOUS
10
151.917
20
-89.7293
11
151.917
21
-89.6868
0
LINE
8
BLACK
6
CONTINUOUS
10
151.917
20
-89.6868
11
151.719
21
-89.6473
0
LINE
8
BLACK
6
CONTINUOUS
10
151.719
20
-89.6473
11
151.707
21
-89.6392
0
LINE
8
BLACK
6
CONTINUOUS
10
151.707
20
-89.6392
11
151.694
21
-89.6336
0
LINE
8
BLACK
6
CONTINUOUS
10
151.694
20
-89.6336
11
151.692
21
-89.6288
0
LINE
8
BLACK
6
CONTINUOUS
10
151.692
20
-89.6288
11
151.688
21
-89.626
0
LINE
8
BLACK
6
CONTINUOUS
10
151.688
20
-89.626
11
151.685
21
-89.6117
0
LINE
8
BLACK
6
CONTINUOUS
10
151.685
20
-89.6117
11
151.679
21
-89.5982
0
LINE
8
BLACK
6
CONTINUOUS
10
151.679
20
-89.5982
11
151.679
21
-89.5506
0
LINE
8
BLACK
6
CONTINUOUS
10
151.679
20
-89.5506
11
151.684
21
-89.5399
0
LINE
8
BLACK
6
CONTINUOUS
10
151.684
20
-89.5399
11
151.685
21
-89.5283
0
LINE
8
BLACK
6
CONTINUOUS
10
151.685
20
-89.5283
11
151.708
21
-89.4806
0
LINE
8
BLACK
6
CONTINUOUS
10
151.708
20
-89.4806
11
151.72
21
-89.4702
0
LINE
8
BLACK
6
CONTINUOUS
10
151.72
20
-89.4702
11
151.731
21
-89.4583
0
LINE
8
BLACK
6
CONTINUOUS
10
151.731
20
-89.4583
11
151.778
21
-89.4345
0
LINE
8
BLACK
6
CONTINUOUS
10
151.778
20
-89.4345
11
151.79
21
-89.4336
0
LINE
8
BLACK
6
CONTINUOUS
10
151.79
20
-89.4336
11
151.801
21
-89.4292
0
LINE
8
BLACK
6
CONTINUOUS
10
151.801
20
-89.4292
11
151.896
21
-89.4292
0
LINE
8
BLACK
6
CONTINUOUS
10
151.896
20
-89.4292
11
151.907
21
-89.4336
0
LINE
8
BLACK
6
CONTINUOUS
10
151.812
20
-89.5292
11
151.79
21
-89.5403
0
LINE
8
BLACK
6
CONTINUOUS
10
151.79
20
-89.5403
11
151.782
21
-89.5577
0
LINE
8
BLACK
6
CONTINUOUS
10
151.782
20
-89.5577
11
151.917
21
-89.5849
0
LINE
8
BLACK
6
CONTINUOUS
10
151.917
20
-89.5849
11
151.917
21
-89.5624
0
LINE
8
BLACK
6
CONTINUOUS
10
151.917
20
-89.5624
11
151.906
21
-89.5403
0
LINE
8
BLACK
6
CONTINUOUS
10
151.906
20
-89.5403
11
151.884
21
-89.5292
0
LINE
8
BLACK
6
CONTINUOUS
10
151.884
20
-89.5292
11
151.812
21
-89.5292
0
LINE
8
BLACK
6
CONTINUOUS
10
152.384
20
-89.2772
11
152.398
21
-89.3125
0
LINE
8
BLACK
6
CONTINUOUS
10
152.398
20
-89.3125
11
152.398
21
-89.8125
0
LINE
8
BLACK
6
CONTINUOUS
10
152.398
20
-89.8125
11
152.384
21
-89.8479
0
LINE
8
BLACK
6
CONTINUOUS
10
152.384
20
-89.8479
11
152.348
21
-89.8625
0
LINE
8
BLACK
6
CONTINUOUS
10
152.348
20
-89.8625
11
152.313
21
-89.8479
0
LINE
8
BLACK
6
CONTINUOUS
10
152.313
20
-89.8479
11
152.298
21
-89.8125
0
LINE
8
BLACK
6
CONTINUOUS
10
152.298
20
-89.8125
11
152.298
21
-89.7085
0
LINE
8
BLACK
6
CONTINUOUS
10
152.298
20
-89.7085
11
152.198
21
-89.8425
0
LINE
8
BLACK
6
CONTINUOUS
10
152.198
20
-89.8425
11
152.165
21
-89.862
0
LINE
8
BLACK
6
CONTINUOUS
10
152.165
20
-89.862
11
152.128
21
-89.8525
0
LINE
8
BLACK
6
CONTINUOUS
10
152.128
20
-89.8525
11
152.108
21
-89.8196
0
LINE
8
BLACK
6
CONTINUOUS
10
152.108
20
-89.8196
11
152.118
21
-89.7825
0
LINE
8
BLACK
6
CONTINUOUS
10
152.118
20
-89.7825
11
152.235
21
-89.6267
0
LINE
8
BLACK
6
CONTINUOUS
10
152.235
20
-89.6267
11
152.122
21
-89.5145
0
LINE
8
BLACK
6
CONTINUOUS
10
152.122
20
-89.5145
11
152.108
21
-89.4792
0
LINE
8
BLACK
6
CONTINUOUS
10
152.108
20
-89.4792
11
152.122
21
-89.4438
0
LINE
8
BLACK
6
CONTINUOUS
10
152.122
20
-89.4438
11
152.158
21
-89.4292
0
LINE
8
BLACK
6
CONTINUOUS
10
152.158
20
-89.4292
11
152.193
21
-89.4438
0
LINE
8
BLACK
6
CONTINUOUS
10
152.193
20
-89.4438
11
152.298
21
-89.5489
0
LINE
8
BLACK
6
CONTINUOUS
10
152.298
20
-89.5489
11
152.298
21
-89.3125
0
LINE
8
BLACK
6
CONTINUOUS
10
152.298
20
-89.3125
11
152.313
21
-89.2772
0
LINE
8
BLACK
6
CONTINUOUS
10
152.313
20
-89.2772
11
152.348
21
-89.2625
0
LINE
8
BLACK
6
CONTINUOUS
10
152.348
20
-89.2625
11
152.384
21
-89.2772
0
LINE
8
BLACK
6
CONTINUOUS
10
152.74
20
-89.4336
11
152.752
21
-89.4345
0
LINE
8
BLACK
6
CONTINUOUS
10
152.752
20
-89.4345
11
152.799
21
-89.4583
0
LINE
8
BLACK
6
CONTINUOUS
10
152.799
20
-89.4583
11
152.805
21
-89.4645
0
LINE
8
BLACK
6
CONTINUOUS
10
152.805
20
-89.4645
11
152.812
21
-89.4676
0
LINE
8
BLACK
6
CONTINUOUS
10
152.812
20
-89.4676
11
152.836
21
-89.4914
0
LINE
8
BLACK
6
CONTINUOUS
10
152.836
20
-89.4914
11
152.839
21
-89.499
0
LINE
8
BLACK
6
CONTINUOUS
10
152.839
20
-89.499
11
152.845
21
-89.5044
0
LINE
8
BLACK
6
CONTINUOUS
10
152.845
20
-89.5044
11
152.869
21
-89.5521
0
LINE
8
BLACK
6
CONTINUOUS
10
152.869
20
-89.5521
11
152.87
21
-89.5637
0
LINE
8
BLACK
6
CONTINUOUS
10
152.87
20
-89.5637
11
152.874
21
-89.5744
0
LINE
8
BLACK
6
CONTINUOUS
10
152.874
20
-89.5744
11
152.874
21
-89.7173
0
LINE
8
BLACK
6
CONTINUOUS
10
152.874
20
-89.7173
11
152.87
21
-89.728
0
LINE
8
BLACK
6
CONTINUOUS
10
152.87
20
-89.728
11
152.869
21
-89.7396
0
LINE
8
BLACK
6
CONTINUOUS
10
152.869
20
-89.7396
11
152.845
21
-89.7873
0
LINE
8
BLACK
6
CONTINUOUS
10
152.845
20
-89.7873
11
152.839
21
-89.7926
0
LINE
8
BLACK
6
CONTINUOUS
10
152.839
20
-89.7926
11
152.836
21
-89.8003
0
LINE
8
BLACK
6
CONTINUOUS
10
152.836
20
-89.8003
11
152.812
21
-89.8241
0
LINE
8
BLACK
6
CONTINUOUS
10
152.812
20
-89.8241
11
152.805
21
-89.8272
0
LINE
8
BLACK
6
CONTINUOUS
10
152.805
20
-89.8272
11
152.799
21
-89.8334
0
LINE
8
BLACK
6
CONTINUOUS
10
152.799
20
-89.8334
11
152.752
21
-89.8572
0
LINE
8
BLACK
6
CONTINUOUS
10
152.752
20
-89.8572
11
152.74
21
-89.8581
0
LINE
8
BLACK
6
CONTINUOUS
10
152.74
20
-89.8581
11
152.729
21
-89.8625
0
LINE
8
BLACK
6
CONTINUOUS
10
152.729
20
-89.8625
11
152.658
21
-89.8625
0
LINE
8
BLACK
6
CONTINUOUS
10
152.658
20
-89.8625
11
152.647
21
-89.8581
0
LINE
8
BLACK
6
CONTINUOUS
10
152.647
20
-89.8581
11
152.635
21
-89.8572
0
LINE
8
BLACK
6
CONTINUOUS
10
152.635
20
-89.8572
11
152.588
21
-89.8334
0
LINE
8
BLACK
6
CONTINUOUS
10
152.588
20
-89.8334
11
152.582
21
-89.8272
0
LINE
8
BLACK
6
CONTINUOUS
10
152.582
20
-89.8272
11
152.575
21
-89.8241
0
LINE
8
BLACK
6
CONTINUOUS
10
152.575
20
-89.8241
11
152.551
21
-89.8003
0
LINE
8
BLACK
6
CONTINUOUS
10
152.551
20
-89.8003
11
152.548
21
-89.7926
0
LINE
8
BLACK
6
CONTINUOUS
10
152.548
20
-89.7926
11
152.542
21
-89.7873
0
LINE
8
BLACK
6
CONTINUOUS
10
152.542
20
-89.7873
11
152.518
21
-89.7396
0
LINE
8
BLACK
6
CONTINUOUS
10
152.518
20
-89.7396
11
152.517
21
-89.728
0
LINE
8
BLACK
6
CONTINUOUS
10
152.517
20
-89.728
11
152.513
21
-89.7173
0
LINE
8
BLACK
6
CONTINUOUS
10
152.513
20
-89.7173
11
152.513
21
-89.5744
0
LINE
8
BLACK
6
CONTINUOUS
10
152.513
20
-89.5744
11
152.517
21
-89.5637
0
LINE
8
BLACK
6
CONTINUOUS
10
152.517
20
-89.5637
11
152.518
21
-89.5521
0
LINE
8
BLACK
6
CONTINUOUS
10
152.518
20
-89.5521
11
152.542
21
-89.5044
0
LINE
8
BLACK
6
CONTINUOUS
10
152.542
20
-89.5044
11
152.548
21
-89.499
0
LINE
8
BLACK
6
CONTINUOUS
10
152.548
20
-89.499
11
152.551
21
-89.4914
0
LINE
8
BLACK
6
CONTINUOUS
10
152.551
20
-89.4914
11
152.575
21
-89.4676
0
LINE
8
BLACK
6
CONTINUOUS
10
152.575
20
-89.4676
11
152.582
21
-89.4645
0
LINE
8
BLACK
6
CONTINUOUS
10
152.582
20
-89.4645
11
152.588
21
-89.4583
0
LINE
8
BLACK
6
CONTINUOUS
10
152.588
20
-89.4583
11
152.635
21
-89.4345
0
LINE
8
BLACK
6
CONTINUOUS
10
152.635
20
-89.4345
11
152.647
21
-89.4336
0
LINE
8
BLACK
6
CONTINUOUS
10
152.647
20
-89.4336
11
152.658
21
-89.4292
0
LINE
8
BLACK
6
CONTINUOUS
10
152.658
20
-89.4292
11
152.729
21
-89.4292
0
LINE
8
BLACK
6
CONTINUOUS
10
152.729
20
-89.4292
11
152.74
21
-89.4336
0
LINE
8
BLACK
6
CONTINUOUS
10
152.67
20
-89.5292
11
152.64
21
-89.5441
0
LINE
8
BLACK
6
CONTINUOUS
10
152.64
20
-89.5441
11
152.627
21
-89.5564
0
LINE
8
BLACK
6
CONTINUOUS
10
152.627
20
-89.5564
11
152.613
21
-89.5862
0
LINE
8
BLACK
6
CONTINUOUS
10
152.613
20
-89.5862
11
152.613
21
-89.7055
0
LINE
8
BLACK
6
CONTINUOUS
10
152.613
20
-89.7055
11
152.627
21
-89.7353
0
LINE
8
BLACK
6
CONTINUOUS
10
152.627
20
-89.7353
11
152.64
21
-89.7476
0
LINE
8
BLACK
6
CONTINUOUS
10
152.64
20
-89.7476
11
152.67
21
-89.7625
0
LINE
8
BLACK
6
CONTINUOUS
10
152.67
20
-89.7625
11
152.717
21
-89.7625
0
LINE
8
BLACK
6
CONTINUOUS
10
152.717
20
-89.7625
11
152.747
21
-89.7476
0
LINE
8
BLACK
6
CONTINUOUS
10
152.747
20
-89.7476
11
152.76
21
-89.7353
0
LINE
8
BLACK
6
CONTINUOUS
10
152.76
20
-89.7353
11
152.774
21
-89.7055
0
LINE
8
BLACK
6
CONTINUOUS
10
152.774
20
-89.7055
11
152.774
21
-89.5862
0
LINE
8
BLACK
6
CONTINUOUS
10
152.774
20
-89.5862
11
152.76
21
-89.5564
0
LINE
8
BLACK
6
CONTINUOUS
10
152.76
20
-89.5564
11
152.747
21
-89.5441
0
LINE
8
BLACK
6
CONTINUOUS
10
152.747
20
-89.5441
11
152.717
21
-89.5292
0
LINE
8
BLACK
6
CONTINUOUS
10
152.717
20
-89.5292
11
152.67
21
-89.5292
0
LINE
8
BLACK
6
CONTINUOUS
10
150.955
20
-89.2772
11
150.97
21
-89.3125
0
LINE
8
BLACK
6
CONTINUOUS
10
150.97
20
-89.3125
11
150.97
21
-89.4292
0
LINE
8
BLACK
6
CONTINUOUS
10
150.97
20
-89.4292
11
151.063
21
-89.4292
0
LINE
8
BLACK
6
CONTINUOUS
10
151.063
20
-89.4292
11
151.073
21
-89.4336
0
LINE
8
BLACK
6
CONTINUOUS
10
151.073
20
-89.4336
11
151.085
21
-89.4345
0
LINE
8
BLACK
6
CONTINUOUS
10
151.085
20
-89.4345
11
151.133
21
-89.4583
0
LINE
8
BLACK
6
CONTINUOUS
10
151.133
20
-89.4583
11
151.138
21
-89.4645
0
LINE
8
BLACK
6
CONTINUOUS
10
151.138
20
-89.4645
11
151.146
21
-89.4676
0
LINE
8
BLACK
6
CONTINUOUS
10
151.146
20
-89.4676
11
151.169
21
-89.4914
0
LINE
8
BLACK
6
CONTINUOUS
10
151.169
20
-89.4914
11
151.173
21
-89.499
0
LINE
8
BLACK
6
CONTINUOUS
10
151.173
20
-89.499
11
151.179
21
-89.5044
0
LINE
8
BLACK
6
CONTINUOUS
10
151.179
20
-89.5044
11
151.203
21
-89.5521
0
LINE
8
BLACK
6
CONTINUOUS
10
151.203
20
-89.5521
11
151.203
21
-89.5637
0
LINE
8
BLACK
6
CONTINUOUS
10
151.203
20
-89.5637
11
151.208
21
-89.5744
0
LINE
8
BLACK
6
CONTINUOUS
10
151.208
20
-89.5744
11
151.208
21
-89.7173
0
LINE
8
BLACK
6
CONTINUOUS
10
151.208
20
-89.7173
11
151.203
21
-89.728
0
LINE
8
BLACK
6
CONTINUOUS
10
151.203
20
-89.728
11
151.203
21
-89.7396
0
LINE
8
BLACK
6
CONTINUOUS
10
151.203
20
-89.7396
11
151.179
21
-89.7873
0
LINE
8
BLACK
6
CONTINUOUS
10
151.179
20
-89.7873
11
151.173
21
-89.7926
0
LINE
8
BLACK
6
CONTINUOUS
10
151.173
20
-89.7926
11
151.169
21
-89.8003
0
LINE
8
BLACK
6
CONTINUOUS
10
151.169
20
-89.8003
11
151.146
21
-89.8241
0
LINE
8
BLACK
6
CONTINUOUS
10
151.146
20
-89.8241
11
151.138
21
-89.8272
0
LINE
8
BLACK
6
CONTINUOUS
10
151.138
20
-89.8272
11
151.133
21
-89.8334
0
LINE
8
BLACK
6
CONTINUOUS
10
151.133
20
-89.8334
11
151.085
21
-89.8572
0
LINE
8
BLACK
6
CONTINUOUS
10
151.085
20
-89.8572
11
151.073
21
-89.8581
0
LINE
8
BLACK
6
CONTINUOUS
10
151.073
20
-89.8581
11
151.063
21
-89.8625
0
LINE
8
BLACK
6
CONTINUOUS
10
151.063
20
-89.8625
11
150.967
21
-89.8625
0
LINE
8
BLACK
6
CONTINUOUS
10
150.967
20
-89.8625
11
150.957
21
-89.8581
0
LINE
8
BLACK
6
CONTINUOUS
10
150.957
20
-89.8581
11
150.945
21
-89.8572
0
LINE
8
BLACK
6
CONTINUOUS
10
150.945
20
-89.8572
11
150.939
21
-89.8544
0
LINE
8
BLACK
6
CONTINUOUS
10
150.939
20
-89.8544
11
150.92
21
-89.8625
0
LINE
8
BLACK
6
CONTINUOUS
10
150.92
20
-89.8625
11
150.884
21
-89.8479
0
LINE
8
BLACK
6
CONTINUOUS
10
150.884
20
-89.8479
11
150.87
21
-89.8125
0
LINE
8
BLACK
6
CONTINUOUS
10
150.87
20
-89.8125
11
150.87
21
-89.3125
0
LINE
8
BLACK
6
CONTINUOUS
10
150.87
20
-89.3125
11
150.884
21
-89.2772
0
LINE
8
BLACK
6
CONTINUOUS
10
150.884
20
-89.2772
11
150.92
21
-89.2625
0
LINE
8
BLACK
6
CONTINUOUS
10
150.92
20
-89.2625
11
150.955
21
-89.2772
0
LINE
8
BLACK
6
CONTINUOUS
10
150.979
20
-89.5292
11
150.97
21
-89.5339
0
LINE
8
BLACK
6
CONTINUOUS
10
150.97
20
-89.5339
11
150.97
21
-89.7578
0
LINE
8
BLACK
6
CONTINUOUS
10
150.97
20
-89.7578
11
150.979
21
-89.7625
0
LINE
8
BLACK
6
CONTINUOUS
10
150.979
20
-89.7625
11
151.051
21
-89.7625
0
LINE
8
BLACK
6
CONTINUOUS
10
151.051
20
-89.7625
11
151.081
21
-89.7476
0
LINE
8
BLACK
6
CONTINUOUS
10
151.081
20
-89.7476
11
151.093
21
-89.7353
0
LINE
8
BLACK
6
CONTINUOUS
10
151.093
20
-89.7353
11
151.108
21
-89.7055
0
LINE
8
BLACK
6
CONTINUOUS
10
151.108
20
-89.7055
11
151.108
21
-89.5862
0
LINE
8
BLACK
6
CONTINUOUS
10
151.108
20
-89.5862
11
151.093
21
-89.5564
0
LINE
8
BLACK
6
CONTINUOUS
10
151.093
20
-89.5564
11
151.081
21
-89.5441
0
LINE
8
BLACK
6
CONTINUOUS
10
151.081
20
-89.5441
11
151.051
21
-89.5292
0
LINE
8
BLACK
6
CONTINUOUS
10
151.051
20
-89.5292
11
150.979
21
-89.5292
0
LINE
8
BLACK
6
CONTINUOUS
10
153.336
20
-89.2772
11
153.351
21
-89.3125
0
LINE
8
BLACK
6
CONTINUOUS
10
153.351
20
-89.3125
11
153.351
21
-89.8125
0
LINE
8
BLACK
6
CONTINUOUS
10
153.351
20
-89.8125
11
153.336
21
-89.8479
0
LINE
8
BLACK
6
CONTINUOUS
10
153.336
20
-89.8479
11
153.301
21
-89.8625
0
LINE
8
BLACK
6
CONTINUOUS
10
153.301
20
-89.8625
11
153.265
21
-89.8479
0
LINE
8
BLACK
6
CONTINUOUS
10
153.265
20
-89.8479
11
153.251
21
-89.8125
0
LINE
8
BLACK
6
CONTINUOUS
10
153.251
20
-89.8125
11
153.251
21
-89.6244
0
LINE
8
BLACK
6
CONTINUOUS
10
153.251
20
-89.6244
11
153.11
21
-89.6244
0
LINE
8
BLACK
6
CONTINUOUS
10
153.11
20
-89.6244
11
153.099
21
-89.62
0
LINE
8
BLACK
6
CONTINUOUS
10
153.099
20
-89.62
11
153.088
21
-89.6191
0
LINE
8
BLACK
6
CONTINUOUS
10
153.088
20
-89.6191
11
153.04
21
-89.5953
0
LINE
8
BLACK
6
CONTINUOUS
10
153.04
20
-89.5953
11
153.035
21
-89.5891
0
LINE
8
BLACK
6
CONTINUOUS
10
153.035
20
-89.5891
11
153.027
21
-89.586
0
LINE
8
BLACK
6
CONTINUOUS
10
153.027
20
-89.586
11
153.003
21
-89.5622
0
LINE
8
BLACK
6
CONTINUOUS
10
153.003
20
-89.5622
11
153
21
-89.5546
0
LINE
8
BLACK
6
CONTINUOUS
10
153
20
-89.5546
11
152.994
21
-89.5492
0
LINE
8
BLACK
6
CONTINUOUS
10
152.994
20
-89.5492
11
152.97
21
-89.5015
0
LINE
8
BLACK
6
CONTINUOUS
10
152.97
20
-89.5015
11
152.969
21
-89.4899
0
LINE
8
BLACK
6
CONTINUOUS
10
152.969
20
-89.4899
11
152.965
21
-89.4792
0
LINE
8
BLACK
6
CONTINUOUS
10
152.965
20
-89.4792
11
152.965
21
-89.4078
0
LINE
8
BLACK
6
CONTINUOUS
10
152.965
20
-89.4078
11
152.969
21
-89.397
0
LINE
8
BLACK
6
CONTINUOUS
10
152.969
20
-89.397
11
152.97
21
-89.3854
0
LINE
8
BLACK
6
CONTINUOUS
10
152.97
20
-89.3854
11
152.994
21
-89.3378
0
LINE
8
BLACK
6
CONTINUOUS
10
152.994
20
-89.3378
11
153
21
-89.3324
0
LINE
8
BLACK
6
CONTINUOUS
10
153
20
-89.3324
11
153.003
21
-89.3248
0
LINE
8
BLACK
6
CONTINUOUS
10
153.003
20
-89.3248
11
153.027
21
-89.301
0
LINE
8
BLACK
6
CONTINUOUS
10
153.027
20
-89.301
11
153.035
21
-89.2978
0
LINE
8
BLACK
6
CONTINUOUS
10
153.035
20
-89.2978
11
153.04
21
-89.2916
0
LINE
8
BLACK
6
CONTINUOUS
10
153.04
20
-89.2916
11
153.088
21
-89.2678
0
LINE
8
BLACK
6
CONTINUOUS
10
153.088
20
-89.2678
11
153.099
21
-89.267
0
LINE
8
BLACK
6
CONTINUOUS
10
153.099
20
-89.267
11
153.11
21
-89.2625
0
LINE
8
BLACK
6
CONTINUOUS
10
153.11
20
-89.2625
11
153.301
21
-89.2625
0
LINE
8
BLACK
6
CONTINUOUS
10
153.301
20
-89.2625
11
153.336
21
-89.2772
0
LINE
8
BLACK
6
CONTINUOUS
10
153.122
20
-89.3625
11
153.092
21
-89.3774
0
LINE
8
BLACK
6
CONTINUOUS
10
153.092
20
-89.3774
11
153.08
21
-89.3898
0
LINE
8
BLACK
6
CONTINUOUS
10
153.08
20
-89.3898
11
153.065
21
-89.4196
0
LINE
8
BLACK
6
CONTINUOUS
10
153.065
20
-89.4196
11
153.065
21
-89.4674
0
LINE
8
BLACK
6
CONTINUOUS
10
153.065
20
-89.4674
11
153.08
21
-89.4972
0
LINE
8
BLACK
6
CONTINUOUS
10
153.08
20
-89.4972
11
153.092
21
-89.5095
0
LINE
8
BLACK
6
CONTINUOUS
10
153.092
20
-89.5095
11
153.122
21
-89.5244
0
LINE
8
BLACK
6
CONTINUOUS
10
153.122
20
-89.5244
11
153.251
21
-89.5244
0
LINE
8
BLACK
6
CONTINUOUS
10
153.251
20
-89.5244
11
153.251
21
-89.3625
0
LINE
8
BLACK
6
CONTINUOUS
10
153.251
20
-89.3625
11
153.122
21
-89.3625
  0
ENDSEC
  0
EOF
