%TF.GenerationSoftware,KiCad,Pcbnew,6.0.11+dfsg-1~bpo11+1*%
%TF.CreationDate,2023-07-13T21:39:36-04:00*%
%TF.ProjectId,Pop-In RP2040,506f702d-496e-4205-9250-323034302e6b,rev?*%
%TF.SameCoordinates,PX5f5e100PY5f5e100*%
%TF.FileFunction,Copper,L3,Inr*%
%TF.FilePolarity,Positive*%
%FSLAX46Y46*%
G04 Gerber Fmt 4.6, Leading zero omitted, Abs format (unit mm)*
G04 Created by KiCad (PCBNEW 6.0.11+dfsg-1~bpo11+1) date 2023-07-13 21:39:36*
%MOMM*%
%LPD*%
G01*
G04 APERTURE LIST*
G04 Aperture macros list*
%AMRoundRect*
0 Rectangle with rounded corners*
0 $1 Rounding radius*
0 $2 $3 $4 $5 $6 $7 $8 $9 X,Y pos of 4 corners*
0 Add a 4 corners polygon primitive as box body*
4,1,4,$2,$3,$4,$5,$6,$7,$8,$9,$2,$3,0*
0 Add four circle primitives for the rounded corners*
1,1,$1+$1,$2,$3*
1,1,$1+$1,$4,$5*
1,1,$1+$1,$6,$7*
1,1,$1+$1,$8,$9*
0 Add four rect primitives between the rounded corners*
20,1,$1+$1,$2,$3,$4,$5,0*
20,1,$1+$1,$4,$5,$6,$7,0*
20,1,$1+$1,$6,$7,$8,$9,0*
20,1,$1+$1,$8,$9,$2,$3,0*%
G04 Aperture macros list end*
%TA.AperFunction,CastellatedPad*%
%ADD10RoundRect,0.225000X-0.675000X-0.225000X0.675000X-0.225000X0.675000X0.225000X-0.675000X0.225000X0*%
%TD*%
%TA.AperFunction,CastellatedPad*%
%ADD11RoundRect,0.225000X0.225000X-0.675000X0.225000X0.675000X-0.225000X0.675000X-0.225000X-0.675000X0*%
%TD*%
%TA.AperFunction,CastellatedPad*%
%ADD12RoundRect,0.225000X0.675000X0.225000X-0.675000X0.225000X-0.675000X-0.225000X0.675000X-0.225000X0*%
%TD*%
%TA.AperFunction,ViaPad*%
%ADD13C,0.300000*%
%TD*%
%TA.AperFunction,ViaPad*%
%ADD14C,0.400000*%
%TD*%
G04 APERTURE END LIST*
D10*
%TO.N,io0*%
%TO.C,REF\u002A\u002A*%
X-9005378Y9525000D03*
%TO.N,io1*%
X-9005378Y8255000D03*
%TO.N,io2*%
X-9005378Y6985000D03*
%TO.N,io3*%
X-9005378Y5715000D03*
%TO.N,io4*%
X-9005378Y4445000D03*
%TO.N,io5*%
X-9005378Y3175000D03*
%TO.N,io6*%
X-9005378Y1905000D03*
%TO.N,io7*%
X-9005378Y635000D03*
%TO.N,io8*%
X-9005378Y-635000D03*
%TO.N,io9*%
X-9005378Y-1905000D03*
%TO.N,io10*%
X-9005378Y-3175000D03*
%TO.N,io11*%
X-9005378Y-4445000D03*
%TO.N,io12*%
X-9005378Y-5715000D03*
%TO.N,io13*%
X-9005378Y-6985000D03*
%TO.N,io14*%
X-9005378Y-8255000D03*
%TO.N,io15*%
X-9005378Y-9525000D03*
D11*
%TO.N,GND*%
X-6985000Y-11034588D03*
%TO.N,+3V3*%
X-5715000Y-11034588D03*
%TO.N,ADC_REF*%
X-4445000Y-11034588D03*
%TO.N,N/C*%
X-3175000Y-11034588D03*
%TO.N,SWCLK*%
X-1905000Y-11034588D03*
%TO.N,SWDIO*%
X-635000Y-11034588D03*
%TO.N,Reset*%
X635000Y-11034588D03*
%TO.N,BootMode*%
X1905000Y-11034588D03*
%TO.N,USB_D+*%
X3175000Y-11034588D03*
%TO.N,USB_D-*%
X4445000Y-11034588D03*
%TO.N,+3V3*%
X5715000Y-11034588D03*
%TO.N,GND*%
X6985000Y-11034588D03*
D12*
%TO.N,io16*%
X8974622Y-9525000D03*
%TO.N,io17*%
X8974622Y-8255000D03*
%TO.N,io18*%
X8974622Y-6985000D03*
%TO.N,io19*%
X8974622Y-5715000D03*
%TO.N,io20*%
X8974622Y-4445000D03*
%TO.N,io21*%
X8974622Y-3175000D03*
%TO.N,io22*%
X8974622Y-1905000D03*
%TO.N,io23*%
X8974622Y-635000D03*
%TO.N,io24*%
X8974622Y635000D03*
%TO.N,io25*%
X8974622Y1905000D03*
%TO.N,io26*%
X8974622Y3175000D03*
%TO.N,io27*%
X8974622Y4445000D03*
%TO.N,io28*%
X8974622Y5715000D03*
%TO.N,io29*%
X8974622Y6985000D03*
%TO.N,N/C*%
X8974622Y8255000D03*
X8974622Y9525000D03*
%TD*%
D13*
%TO.N,io24*%
X4895280Y5740361D03*
D14*
%TO.N,GND*%
X-4932780Y-7943690D03*
X2070907Y9818108D03*
X5401569Y-7644144D03*
D13*
X2573111Y-1683514D03*
D14*
X-2539683Y9854222D03*
X-4335767Y3735537D03*
X4921047Y1811368D03*
D13*
%TO.N,+3V3*%
X5370770Y-2869859D03*
X-5279555Y-2863165D03*
X573669Y-6196778D03*
X6474322Y7034187D03*
X-4360333Y7088877D03*
X284622Y3785378D03*
X-3358646Y1319482D03*
D14*
X2234622Y8629437D03*
D13*
X3513775Y1319482D03*
X-5083516Y7989879D03*
X2157741Y3854688D03*
X2882257Y8524792D03*
%TO.N,Net-(C16-Pad1)*%
X-3212786Y-8812745D03*
%TO.N,Net-(C17-Pad1)*%
X-707832Y-7433164D03*
%TO.N,Net-(LED1-Pad2)*%
X4194886Y5692423D03*
X4705027Y7019927D03*
%TD*%
%TA.AperFunction,Conductor*%
%TO.N,+3V3*%
G36*
X7968178Y10787394D02*
G01*
X7979651Y10784756D01*
X7990526Y10787217D01*
X8001673Y10787197D01*
X8001671Y10786190D01*
X8011573Y10786803D01*
X8126280Y10775504D01*
X8145314Y10771718D01*
X8276638Y10731880D01*
X8294561Y10724456D01*
X8415589Y10659764D01*
X8431723Y10648983D01*
X8537807Y10561923D01*
X8551524Y10548206D01*
X8604017Y10484243D01*
X8638584Y10442123D01*
X8649365Y10425988D01*
X8705393Y10321168D01*
X8716149Y10260936D01*
X8689448Y10205885D01*
X8635487Y10177042D01*
X8618083Y10175500D01*
X8266134Y10175500D01*
X8262290Y10174891D01*
X8262288Y10174891D01*
X8174191Y10160938D01*
X8174190Y10160938D01*
X8166496Y10159719D01*
X8159557Y10156183D01*
X8159556Y10156183D01*
X8053341Y10102064D01*
X8053339Y10102063D01*
X8046402Y10098528D01*
X7951094Y10003220D01*
X7889903Y9883126D01*
X7874122Y9783488D01*
X7874122Y9266512D01*
X7889903Y9166874D01*
X7951094Y9046780D01*
X8037870Y8960004D01*
X8065647Y8905487D01*
X8056076Y8845055D01*
X8037870Y8819996D01*
X7951094Y8733220D01*
X7889903Y8613126D01*
X7874122Y8513488D01*
X7874122Y7996512D01*
X7874731Y7992668D01*
X7874731Y7992666D01*
X7885406Y7925270D01*
X7889903Y7896874D01*
X7893439Y7889935D01*
X7893439Y7889934D01*
X7943884Y7790931D01*
X7951094Y7776780D01*
X8037870Y7690004D01*
X8065647Y7635487D01*
X8056076Y7575055D01*
X8037870Y7549996D01*
X7951094Y7463220D01*
X7947559Y7456283D01*
X7947558Y7456281D01*
X7897811Y7358646D01*
X7889903Y7343126D01*
X7888684Y7335432D01*
X7888684Y7335431D01*
X7874731Y7247334D01*
X7874122Y7243488D01*
X7874122Y6726512D01*
X7874731Y6722668D01*
X7874731Y6722666D01*
X7888183Y6637736D01*
X7889903Y6626874D01*
X7893439Y6619935D01*
X7893439Y6619934D01*
X7939739Y6529066D01*
X7951094Y6506780D01*
X8037870Y6420004D01*
X8065647Y6365487D01*
X8056076Y6305055D01*
X8037870Y6279996D01*
X7951094Y6193220D01*
X7947559Y6186283D01*
X7947558Y6186281D01*
X7900544Y6094011D01*
X7889903Y6073126D01*
X7888684Y6065432D01*
X7888684Y6065431D01*
X7881690Y6021271D01*
X7874122Y5973488D01*
X7874122Y5456512D01*
X7874731Y5452668D01*
X7874731Y5452666D01*
X7884446Y5391331D01*
X7889903Y5356874D01*
X7893439Y5349935D01*
X7893439Y5349934D01*
X7915288Y5307054D01*
X7951094Y5236780D01*
X8037870Y5150004D01*
X8065647Y5095487D01*
X8056076Y5035055D01*
X8037870Y5009996D01*
X7951094Y4923220D01*
X7889903Y4803126D01*
X7874122Y4703488D01*
X7874122Y4186512D01*
X7889903Y4086874D01*
X7893439Y4079935D01*
X7893439Y4079934D01*
X7947477Y3973879D01*
X7951094Y3966780D01*
X8037870Y3880004D01*
X8065647Y3825487D01*
X8056076Y3765055D01*
X8037870Y3739996D01*
X7951094Y3653220D01*
X7947559Y3646283D01*
X7947558Y3646281D01*
X7929191Y3610233D01*
X7889903Y3533126D01*
X7874122Y3433488D01*
X7874122Y2916512D01*
X7889903Y2816874D01*
X7893439Y2809935D01*
X7893439Y2809934D01*
X7940141Y2718277D01*
X7951094Y2696780D01*
X8037870Y2610004D01*
X8065647Y2555487D01*
X8056076Y2495055D01*
X8037870Y2469996D01*
X7951094Y2383220D01*
X7889903Y2263126D01*
X7874122Y2163488D01*
X7874122Y1646512D01*
X7889903Y1546874D01*
X7893439Y1539935D01*
X7893439Y1539934D01*
X7901270Y1524566D01*
X7951094Y1426780D01*
X8037870Y1340004D01*
X8065647Y1285487D01*
X8056076Y1225055D01*
X8037870Y1199996D01*
X7951094Y1113220D01*
X7889903Y993126D01*
X7888684Y985432D01*
X7888684Y985431D01*
X7882578Y946879D01*
X7874122Y893488D01*
X7874122Y376512D01*
X7889903Y276874D01*
X7951094Y156780D01*
X8037870Y70004D01*
X8065647Y15487D01*
X8056076Y-44945D01*
X8037870Y-70004D01*
X7951094Y-156780D01*
X7947559Y-163717D01*
X7947558Y-163719D01*
X7895249Y-266381D01*
X7889903Y-276874D01*
X7874122Y-376512D01*
X7874122Y-893488D01*
X7889903Y-993126D01*
X7951094Y-1113220D01*
X8037870Y-1199996D01*
X8065647Y-1254513D01*
X8056076Y-1314945D01*
X8037870Y-1340004D01*
X7951094Y-1426780D01*
X7947559Y-1433717D01*
X7947558Y-1433719D01*
X7895249Y-1536381D01*
X7889903Y-1546874D01*
X7874122Y-1646512D01*
X7874122Y-2163488D01*
X7889903Y-2263126D01*
X7951094Y-2383220D01*
X8037870Y-2469996D01*
X8065647Y-2524513D01*
X8056076Y-2584945D01*
X8037870Y-2610004D01*
X7951094Y-2696780D01*
X7947559Y-2703717D01*
X7947558Y-2703719D01*
X7895249Y-2806381D01*
X7889903Y-2816874D01*
X7874122Y-2916512D01*
X7874122Y-3433488D01*
X7889903Y-3533126D01*
X7951094Y-3653220D01*
X8037870Y-3739996D01*
X8065647Y-3794513D01*
X8056076Y-3854945D01*
X8037870Y-3880004D01*
X7951094Y-3966780D01*
X7889903Y-4086874D01*
X7888684Y-4094568D01*
X7888684Y-4094569D01*
X7879059Y-4155339D01*
X7874122Y-4186512D01*
X7874122Y-4703488D01*
X7889903Y-4803126D01*
X7951094Y-4923220D01*
X8037870Y-5009996D01*
X8065647Y-5064513D01*
X8056076Y-5124945D01*
X8037870Y-5150004D01*
X7951094Y-5236780D01*
X7889903Y-5356874D01*
X7874122Y-5456512D01*
X7874122Y-5973488D01*
X7874731Y-5977332D01*
X7874731Y-5977334D01*
X7875526Y-5982350D01*
X7889903Y-6073126D01*
X7893439Y-6080065D01*
X7893439Y-6080066D01*
X7899137Y-6091248D01*
X7951094Y-6193220D01*
X8037870Y-6279996D01*
X8065647Y-6334513D01*
X8056076Y-6394945D01*
X8037870Y-6420004D01*
X7951094Y-6506780D01*
X7889903Y-6626874D01*
X7874122Y-6726512D01*
X7874122Y-7243488D01*
X7874731Y-7247332D01*
X7874731Y-7247334D01*
X7886494Y-7321600D01*
X7889903Y-7343126D01*
X7893439Y-7350065D01*
X7893439Y-7350066D01*
X7935780Y-7433164D01*
X7951094Y-7463220D01*
X8037870Y-7549996D01*
X8065647Y-7604513D01*
X8056076Y-7664945D01*
X8037870Y-7690004D01*
X7951094Y-7776780D01*
X7947559Y-7783717D01*
X7947558Y-7783719D01*
X7893439Y-7889934D01*
X7889903Y-7896874D01*
X7888684Y-7904568D01*
X7888684Y-7904569D01*
X7876148Y-7983720D01*
X7874122Y-7996512D01*
X7874122Y-8513488D01*
X7874731Y-8517332D01*
X7874731Y-8517334D01*
X7888483Y-8604158D01*
X7889903Y-8613126D01*
X7893439Y-8620065D01*
X7893439Y-8620066D01*
X7939660Y-8710779D01*
X7951094Y-8733220D01*
X8037870Y-8819996D01*
X8065647Y-8874513D01*
X8056076Y-8934945D01*
X8037870Y-8960004D01*
X7951094Y-9046780D01*
X7947559Y-9053717D01*
X7947558Y-9053719D01*
X7898376Y-9150245D01*
X7889903Y-9166874D01*
X7874122Y-9266512D01*
X7874122Y-9783488D01*
X7889903Y-9883126D01*
X7951094Y-10003220D01*
X8046402Y-10098528D01*
X8053339Y-10102063D01*
X8053341Y-10102064D01*
X8159556Y-10156183D01*
X8166496Y-10159719D01*
X8174190Y-10160938D01*
X8174191Y-10160938D01*
X8262288Y-10174891D01*
X8262290Y-10174891D01*
X8266134Y-10175500D01*
X8622265Y-10175500D01*
X8680456Y-10194407D01*
X8716420Y-10243907D01*
X8717001Y-10303240D01*
X8716096Y-10306225D01*
X8708671Y-10324150D01*
X8643981Y-10445181D01*
X8633199Y-10461318D01*
X8546141Y-10567402D01*
X8532422Y-10581122D01*
X8426331Y-10668192D01*
X8410208Y-10678964D01*
X8289176Y-10743660D01*
X8271255Y-10751084D01*
X8214576Y-10768279D01*
X8139923Y-10790926D01*
X8120890Y-10794712D01*
X8102513Y-10796523D01*
X8006581Y-10805974D01*
X7996714Y-10806450D01*
X7985844Y-10806431D01*
X7974976Y-10803932D01*
X7964101Y-10806393D01*
X7963850Y-10806450D01*
X7962982Y-10806646D01*
X7941132Y-10809088D01*
X7734500Y-10809088D01*
X7676309Y-10790181D01*
X7640345Y-10740681D01*
X7635500Y-10710088D01*
X7635500Y-10326100D01*
X7632352Y-10306225D01*
X7620938Y-10234157D01*
X7620938Y-10234156D01*
X7619719Y-10226462D01*
X7583910Y-10156183D01*
X7562064Y-10113307D01*
X7562063Y-10113305D01*
X7558528Y-10106368D01*
X7463220Y-10011060D01*
X7456283Y-10007525D01*
X7456281Y-10007524D01*
X7350066Y-9953405D01*
X7350065Y-9953405D01*
X7343126Y-9949869D01*
X7335432Y-9948650D01*
X7335431Y-9948650D01*
X7247334Y-9934697D01*
X7247332Y-9934697D01*
X7243488Y-9934088D01*
X6726512Y-9934088D01*
X6722668Y-9934697D01*
X6722666Y-9934697D01*
X6634569Y-9948650D01*
X6634568Y-9948650D01*
X6626874Y-9949869D01*
X6619935Y-9953405D01*
X6619934Y-9953405D01*
X6513719Y-10007524D01*
X6513717Y-10007525D01*
X6506780Y-10011060D01*
X6501274Y-10016566D01*
X6501270Y-10016569D01*
X6419651Y-10098189D01*
X6365135Y-10125967D01*
X6304702Y-10116396D01*
X6279643Y-10098190D01*
X6198431Y-10016978D01*
X6185981Y-10007933D01*
X6178971Y-10004361D01*
X6167719Y-10002579D01*
X6165000Y-10007915D01*
X6165000Y-10710088D01*
X6146093Y-10768279D01*
X6096593Y-10804243D01*
X6066000Y-10809088D01*
X5364000Y-10809088D01*
X5305809Y-10790181D01*
X5269845Y-10740681D01*
X5265000Y-10710088D01*
X5265000Y-10012922D01*
X5261479Y-10002087D01*
X5255492Y-10002087D01*
X5244019Y-10007933D01*
X5231566Y-10016980D01*
X5150358Y-10098189D01*
X5095842Y-10125967D01*
X5035409Y-10116396D01*
X5010350Y-10098190D01*
X4923220Y-10011060D01*
X4916283Y-10007525D01*
X4916281Y-10007524D01*
X4810066Y-9953405D01*
X4810065Y-9953405D01*
X4803126Y-9949869D01*
X4795432Y-9948650D01*
X4795431Y-9948650D01*
X4707334Y-9934697D01*
X4707332Y-9934697D01*
X4703488Y-9934088D01*
X4186512Y-9934088D01*
X4182668Y-9934697D01*
X4182666Y-9934697D01*
X4094569Y-9948650D01*
X4094568Y-9948650D01*
X4086874Y-9949869D01*
X4079935Y-9953405D01*
X4079934Y-9953405D01*
X3973719Y-10007524D01*
X3973717Y-10007525D01*
X3966780Y-10011060D01*
X3880004Y-10097836D01*
X3825487Y-10125613D01*
X3765055Y-10116042D01*
X3739996Y-10097836D01*
X3653220Y-10011060D01*
X3646283Y-10007525D01*
X3646281Y-10007524D01*
X3540066Y-9953405D01*
X3540065Y-9953405D01*
X3533126Y-9949869D01*
X3525432Y-9948650D01*
X3525431Y-9948650D01*
X3437334Y-9934697D01*
X3437332Y-9934697D01*
X3433488Y-9934088D01*
X2916512Y-9934088D01*
X2912668Y-9934697D01*
X2912666Y-9934697D01*
X2824569Y-9948650D01*
X2824568Y-9948650D01*
X2816874Y-9949869D01*
X2809935Y-9953405D01*
X2809934Y-9953405D01*
X2703719Y-10007524D01*
X2703717Y-10007525D01*
X2696780Y-10011060D01*
X2610004Y-10097836D01*
X2555487Y-10125613D01*
X2495055Y-10116042D01*
X2469996Y-10097836D01*
X2383220Y-10011060D01*
X2376283Y-10007525D01*
X2376281Y-10007524D01*
X2270066Y-9953405D01*
X2270065Y-9953405D01*
X2263126Y-9949869D01*
X2255432Y-9948650D01*
X2255431Y-9948650D01*
X2167334Y-9934697D01*
X2167332Y-9934697D01*
X2163488Y-9934088D01*
X1646512Y-9934088D01*
X1642668Y-9934697D01*
X1642666Y-9934697D01*
X1554569Y-9948650D01*
X1554568Y-9948650D01*
X1546874Y-9949869D01*
X1539935Y-9953405D01*
X1539934Y-9953405D01*
X1433719Y-10007524D01*
X1433717Y-10007525D01*
X1426780Y-10011060D01*
X1340004Y-10097836D01*
X1285487Y-10125613D01*
X1225055Y-10116042D01*
X1199996Y-10097836D01*
X1113220Y-10011060D01*
X1106283Y-10007525D01*
X1106281Y-10007524D01*
X1000066Y-9953405D01*
X1000065Y-9953405D01*
X993126Y-9949869D01*
X985432Y-9948650D01*
X985431Y-9948650D01*
X897334Y-9934697D01*
X897332Y-9934697D01*
X893488Y-9934088D01*
X376512Y-9934088D01*
X372668Y-9934697D01*
X372666Y-9934697D01*
X284569Y-9948650D01*
X284568Y-9948650D01*
X276874Y-9949869D01*
X269935Y-9953405D01*
X269934Y-9953405D01*
X163719Y-10007524D01*
X163717Y-10007525D01*
X156780Y-10011060D01*
X70004Y-10097836D01*
X15487Y-10125613D01*
X-44945Y-10116042D01*
X-70004Y-10097836D01*
X-156780Y-10011060D01*
X-163717Y-10007525D01*
X-163719Y-10007524D01*
X-269934Y-9953405D01*
X-269935Y-9953405D01*
X-276874Y-9949869D01*
X-284568Y-9948650D01*
X-284569Y-9948650D01*
X-372666Y-9934697D01*
X-372668Y-9934697D01*
X-376512Y-9934088D01*
X-893488Y-9934088D01*
X-897332Y-9934697D01*
X-897334Y-9934697D01*
X-985431Y-9948650D01*
X-985432Y-9948650D01*
X-993126Y-9949869D01*
X-1000065Y-9953405D01*
X-1000066Y-9953405D01*
X-1106281Y-10007524D01*
X-1106283Y-10007525D01*
X-1113220Y-10011060D01*
X-1199996Y-10097836D01*
X-1254513Y-10125613D01*
X-1314945Y-10116042D01*
X-1340004Y-10097836D01*
X-1426780Y-10011060D01*
X-1433717Y-10007525D01*
X-1433719Y-10007524D01*
X-1539934Y-9953405D01*
X-1539935Y-9953405D01*
X-1546874Y-9949869D01*
X-1554568Y-9948650D01*
X-1554569Y-9948650D01*
X-1642666Y-9934697D01*
X-1642668Y-9934697D01*
X-1646512Y-9934088D01*
X-2163488Y-9934088D01*
X-2167332Y-9934697D01*
X-2167334Y-9934697D01*
X-2255431Y-9948650D01*
X-2255432Y-9948650D01*
X-2263126Y-9949869D01*
X-2270065Y-9953405D01*
X-2270066Y-9953405D01*
X-2376281Y-10007524D01*
X-2376283Y-10007525D01*
X-2383220Y-10011060D01*
X-2469996Y-10097836D01*
X-2524513Y-10125613D01*
X-2584945Y-10116042D01*
X-2610004Y-10097836D01*
X-2696780Y-10011060D01*
X-2703717Y-10007525D01*
X-2703719Y-10007524D01*
X-2809934Y-9953405D01*
X-2809935Y-9953405D01*
X-2816874Y-9949869D01*
X-2824568Y-9948650D01*
X-2824569Y-9948650D01*
X-2912666Y-9934697D01*
X-2912668Y-9934697D01*
X-2916512Y-9934088D01*
X-3433488Y-9934088D01*
X-3437332Y-9934697D01*
X-3437334Y-9934697D01*
X-3525431Y-9948650D01*
X-3525432Y-9948650D01*
X-3533126Y-9949869D01*
X-3540065Y-9953405D01*
X-3540066Y-9953405D01*
X-3646281Y-10007524D01*
X-3646283Y-10007525D01*
X-3653220Y-10011060D01*
X-3739996Y-10097836D01*
X-3794513Y-10125613D01*
X-3854945Y-10116042D01*
X-3880004Y-10097836D01*
X-3966780Y-10011060D01*
X-3973717Y-10007525D01*
X-3973719Y-10007524D01*
X-4079934Y-9953405D01*
X-4079935Y-9953405D01*
X-4086874Y-9949869D01*
X-4094568Y-9948650D01*
X-4094569Y-9948650D01*
X-4182666Y-9934697D01*
X-4182668Y-9934697D01*
X-4186512Y-9934088D01*
X-4703488Y-9934088D01*
X-4707332Y-9934697D01*
X-4707334Y-9934697D01*
X-4795431Y-9948650D01*
X-4795432Y-9948650D01*
X-4803126Y-9949869D01*
X-4810065Y-9953405D01*
X-4810066Y-9953405D01*
X-4916281Y-10007524D01*
X-4916283Y-10007525D01*
X-4923220Y-10011060D01*
X-4928726Y-10016566D01*
X-4928730Y-10016569D01*
X-5010349Y-10098189D01*
X-5064865Y-10125967D01*
X-5125298Y-10116396D01*
X-5150357Y-10098190D01*
X-5231569Y-10016978D01*
X-5244019Y-10007933D01*
X-5251029Y-10004361D01*
X-5262281Y-10002579D01*
X-5265000Y-10007915D01*
X-5265000Y-10710088D01*
X-5283907Y-10768279D01*
X-5333407Y-10804243D01*
X-5364000Y-10809088D01*
X-6066000Y-10809088D01*
X-6124191Y-10790181D01*
X-6160155Y-10740681D01*
X-6165000Y-10710088D01*
X-6165000Y-10012922D01*
X-6168521Y-10002087D01*
X-6174508Y-10002087D01*
X-6185981Y-10007933D01*
X-6198434Y-10016980D01*
X-6279642Y-10098189D01*
X-6334158Y-10125967D01*
X-6394591Y-10116396D01*
X-6419650Y-10098190D01*
X-6506780Y-10011060D01*
X-6513717Y-10007525D01*
X-6513719Y-10007524D01*
X-6619934Y-9953405D01*
X-6619935Y-9953405D01*
X-6626874Y-9949869D01*
X-6634568Y-9948650D01*
X-6634569Y-9948650D01*
X-6722666Y-9934697D01*
X-6722668Y-9934697D01*
X-6726512Y-9934088D01*
X-7243488Y-9934088D01*
X-7247332Y-9934697D01*
X-7247334Y-9934697D01*
X-7335431Y-9948650D01*
X-7335432Y-9948650D01*
X-7343126Y-9949869D01*
X-7350065Y-9953405D01*
X-7350066Y-9953405D01*
X-7456281Y-10007524D01*
X-7456283Y-10007525D01*
X-7463220Y-10011060D01*
X-7558528Y-10106368D01*
X-7562063Y-10113305D01*
X-7562064Y-10113307D01*
X-7583910Y-10156183D01*
X-7619719Y-10226462D01*
X-7620938Y-10234156D01*
X-7620938Y-10234157D01*
X-7632352Y-10306225D01*
X-7635500Y-10326100D01*
X-7635500Y-10710088D01*
X-7654407Y-10768279D01*
X-7703907Y-10804243D01*
X-7734500Y-10809088D01*
X-7966996Y-10809088D01*
X-7989181Y-10806570D01*
X-8000654Y-10803932D01*
X-8011528Y-10806393D01*
X-8022677Y-10806373D01*
X-8022675Y-10805363D01*
X-8032576Y-10805979D01*
X-8147278Y-10794680D01*
X-8166313Y-10790894D01*
X-8297633Y-10751056D01*
X-8315563Y-10743628D01*
X-8436583Y-10678939D01*
X-8452719Y-10668157D01*
X-8505756Y-10624630D01*
X-8558796Y-10581099D01*
X-8572516Y-10567379D01*
X-8581623Y-10556281D01*
X-8659572Y-10461298D01*
X-8670353Y-10445163D01*
X-8704266Y-10381713D01*
X-8735040Y-10324138D01*
X-8742468Y-10306202D01*
X-8743369Y-10303231D01*
X-8742163Y-10242058D01*
X-8705231Y-10193276D01*
X-8648630Y-10175500D01*
X-8296890Y-10175500D01*
X-8293046Y-10174891D01*
X-8293044Y-10174891D01*
X-8204947Y-10160938D01*
X-8204946Y-10160938D01*
X-8197252Y-10159719D01*
X-8190312Y-10156183D01*
X-8084097Y-10102064D01*
X-8084095Y-10102063D01*
X-8077158Y-10098528D01*
X-7981850Y-10003220D01*
X-7920659Y-9883126D01*
X-7904878Y-9783488D01*
X-7904878Y-9266512D01*
X-7920659Y-9166874D01*
X-7929132Y-9150245D01*
X-7978314Y-9053719D01*
X-7978315Y-9053717D01*
X-7981850Y-9046780D01*
X-8068626Y-8960004D01*
X-8096403Y-8905487D01*
X-8086832Y-8845055D01*
X-8068626Y-8819996D01*
X-8061375Y-8812745D01*
X-3567655Y-8812745D01*
X-3550286Y-8922406D01*
X-3499881Y-9021332D01*
X-3421373Y-9099840D01*
X-3414436Y-9103375D01*
X-3414434Y-9103376D01*
X-3329387Y-9146709D01*
X-3322447Y-9150245D01*
X-3314753Y-9151464D01*
X-3314752Y-9151464D01*
X-3220482Y-9166395D01*
X-3212786Y-9167614D01*
X-3205090Y-9166395D01*
X-3110820Y-9151464D01*
X-3110819Y-9151464D01*
X-3103125Y-9150245D01*
X-3096185Y-9146709D01*
X-3011138Y-9103376D01*
X-3011136Y-9103375D01*
X-3004199Y-9099840D01*
X-2925691Y-9021332D01*
X-2875286Y-8922406D01*
X-2857917Y-8812745D01*
X-2875286Y-8703084D01*
X-2878822Y-8696144D01*
X-2922155Y-8611097D01*
X-2922156Y-8611095D01*
X-2925691Y-8604158D01*
X-3004199Y-8525650D01*
X-3011136Y-8522115D01*
X-3011138Y-8522114D01*
X-3096185Y-8478781D01*
X-3103125Y-8475245D01*
X-3110819Y-8474026D01*
X-3110820Y-8474026D01*
X-3205090Y-8459095D01*
X-3212786Y-8457876D01*
X-3220482Y-8459095D01*
X-3314752Y-8474026D01*
X-3314753Y-8474026D01*
X-3322447Y-8475245D01*
X-3329387Y-8478781D01*
X-3414434Y-8522114D01*
X-3414436Y-8522115D01*
X-3421373Y-8525650D01*
X-3499881Y-8604158D01*
X-3503416Y-8611095D01*
X-3503417Y-8611097D01*
X-3546750Y-8696144D01*
X-3550286Y-8703084D01*
X-3567655Y-8812745D01*
X-8061375Y-8812745D01*
X-7981850Y-8733220D01*
X-7970415Y-8710779D01*
X-7924195Y-8620066D01*
X-7924195Y-8620065D01*
X-7920659Y-8613126D01*
X-7919238Y-8604158D01*
X-7905487Y-8517334D01*
X-7905487Y-8517332D01*
X-7904878Y-8513488D01*
X-7904878Y-7996512D01*
X-7906904Y-7983720D01*
X-7913244Y-7943690D01*
X-5338272Y-7943690D01*
X-5337053Y-7951387D01*
X-5330744Y-7991218D01*
X-5318426Y-8068994D01*
X-5314890Y-8075933D01*
X-5314890Y-8075934D01*
X-5278999Y-8146373D01*
X-5260830Y-8182032D01*
X-5171122Y-8271740D01*
X-5164185Y-8275275D01*
X-5164183Y-8275276D01*
X-5065024Y-8325800D01*
X-5058084Y-8329336D01*
X-5050390Y-8330555D01*
X-5050389Y-8330555D01*
X-4940477Y-8347963D01*
X-4932780Y-8349182D01*
X-4925083Y-8347963D01*
X-4815171Y-8330555D01*
X-4815170Y-8330555D01*
X-4807476Y-8329336D01*
X-4800536Y-8325800D01*
X-4701377Y-8275276D01*
X-4701375Y-8275275D01*
X-4694438Y-8271740D01*
X-4604730Y-8182032D01*
X-4586560Y-8146373D01*
X-4550670Y-8075934D01*
X-4550670Y-8075933D01*
X-4547134Y-8068994D01*
X-4534815Y-7991218D01*
X-4528507Y-7951387D01*
X-4527288Y-7943690D01*
X-4535802Y-7889934D01*
X-4545915Y-7826081D01*
X-4545915Y-7826080D01*
X-4547134Y-7818386D01*
X-4559009Y-7795080D01*
X1599864Y-7795080D01*
X1618266Y-7899443D01*
X1622596Y-7906943D01*
X1662310Y-7975730D01*
X1671252Y-7991218D01*
X1752432Y-8059336D01*
X1760570Y-8062298D01*
X1760572Y-8062299D01*
X1797446Y-8075719D01*
X1852014Y-8095580D01*
X1957986Y-8095580D01*
X2012554Y-8075719D01*
X2049428Y-8062299D01*
X2049430Y-8062298D01*
X2057568Y-8059336D01*
X2138748Y-7991218D01*
X2147690Y-7975730D01*
X2187404Y-7906943D01*
X2191734Y-7899443D01*
X2210136Y-7795080D01*
X2822707Y-7795080D01*
X2841109Y-7899443D01*
X2845439Y-7906943D01*
X2885153Y-7975730D01*
X2894095Y-7991218D01*
X2975275Y-8059336D01*
X2983413Y-8062298D01*
X2983415Y-8062299D01*
X3020289Y-8075719D01*
X3074857Y-8095580D01*
X3180829Y-8095580D01*
X3235397Y-8075719D01*
X3272271Y-8062299D01*
X3272273Y-8062298D01*
X3280411Y-8059336D01*
X3361591Y-7991218D01*
X3370533Y-7975730D01*
X3410247Y-7906943D01*
X3414577Y-7899443D01*
X3423501Y-7848835D01*
X4134125Y-7848835D01*
X4152527Y-7953198D01*
X4205513Y-8044973D01*
X4286693Y-8113091D01*
X4294831Y-8116053D01*
X4294833Y-8116054D01*
X4331707Y-8129474D01*
X4386275Y-8149335D01*
X4492247Y-8149335D01*
X4546815Y-8129474D01*
X4583689Y-8116054D01*
X4583691Y-8116053D01*
X4591829Y-8113091D01*
X4673009Y-8044973D01*
X4725995Y-7953198D01*
X4744397Y-7848835D01*
X4725995Y-7744472D01*
X4699885Y-7699247D01*
X4677338Y-7660195D01*
X4673009Y-7652697D01*
X4662816Y-7644144D01*
X4996077Y-7644144D01*
X4997296Y-7651841D01*
X5004899Y-7699842D01*
X5015923Y-7769448D01*
X5019459Y-7776387D01*
X5019459Y-7776388D01*
X5052027Y-7840305D01*
X5073519Y-7882486D01*
X5163227Y-7972194D01*
X5170164Y-7975729D01*
X5170166Y-7975730D01*
X5269325Y-8026254D01*
X5276265Y-8029790D01*
X5283959Y-8031009D01*
X5283960Y-8031009D01*
X5393872Y-8048417D01*
X5401569Y-8049636D01*
X5409266Y-8048417D01*
X5519178Y-8031009D01*
X5519179Y-8031009D01*
X5526873Y-8029790D01*
X5533813Y-8026254D01*
X5632972Y-7975730D01*
X5632974Y-7975729D01*
X5639911Y-7972194D01*
X5729619Y-7882486D01*
X5751112Y-7840305D01*
X5783679Y-7776388D01*
X5783679Y-7776387D01*
X5787215Y-7769448D01*
X5798240Y-7699842D01*
X5805842Y-7651841D01*
X5807061Y-7644144D01*
X5803237Y-7620000D01*
X5788434Y-7526535D01*
X5788434Y-7526534D01*
X5787215Y-7518840D01*
X5758875Y-7463220D01*
X5733155Y-7412741D01*
X5733154Y-7412739D01*
X5729619Y-7405802D01*
X5639911Y-7316094D01*
X5632974Y-7312559D01*
X5632972Y-7312558D01*
X5533813Y-7262034D01*
X5533812Y-7262034D01*
X5526873Y-7258498D01*
X5519179Y-7257279D01*
X5519178Y-7257279D01*
X5409266Y-7239871D01*
X5401569Y-7238652D01*
X5393872Y-7239871D01*
X5283960Y-7257279D01*
X5283959Y-7257279D01*
X5276265Y-7258498D01*
X5269326Y-7262034D01*
X5269325Y-7262034D01*
X5170166Y-7312558D01*
X5170164Y-7312559D01*
X5163227Y-7316094D01*
X5073519Y-7405802D01*
X5069984Y-7412739D01*
X5069983Y-7412741D01*
X5044263Y-7463220D01*
X5015923Y-7518840D01*
X5014704Y-7526534D01*
X5014704Y-7526535D01*
X4999901Y-7620000D01*
X4996077Y-7644144D01*
X4662816Y-7644144D01*
X4591829Y-7584579D01*
X4583691Y-7581617D01*
X4583689Y-7581616D01*
X4528638Y-7561580D01*
X4492247Y-7548335D01*
X4386275Y-7548335D01*
X4349884Y-7561580D01*
X4294833Y-7581616D01*
X4294831Y-7581617D01*
X4286693Y-7584579D01*
X4205513Y-7652697D01*
X4201184Y-7660195D01*
X4178638Y-7699247D01*
X4152527Y-7744472D01*
X4134125Y-7848835D01*
X3423501Y-7848835D01*
X3432979Y-7795080D01*
X3414577Y-7690717D01*
X3409240Y-7681472D01*
X3365920Y-7606440D01*
X3361591Y-7598942D01*
X3280411Y-7530824D01*
X3272273Y-7527862D01*
X3272271Y-7527861D01*
X3228416Y-7511900D01*
X3180829Y-7494580D01*
X3074857Y-7494580D01*
X3027270Y-7511900D01*
X2983415Y-7527861D01*
X2983413Y-7527862D01*
X2975275Y-7530824D01*
X2894095Y-7598942D01*
X2889766Y-7606440D01*
X2846447Y-7681472D01*
X2841109Y-7690717D01*
X2822707Y-7795080D01*
X2210136Y-7795080D01*
X2191734Y-7690717D01*
X2186397Y-7681472D01*
X2143077Y-7606440D01*
X2138748Y-7598942D01*
X2057568Y-7530824D01*
X2049430Y-7527862D01*
X2049428Y-7527861D01*
X2005573Y-7511900D01*
X1957986Y-7494580D01*
X1852014Y-7494580D01*
X1804427Y-7511900D01*
X1760572Y-7527861D01*
X1760570Y-7527862D01*
X1752432Y-7530824D01*
X1671252Y-7598942D01*
X1666923Y-7606440D01*
X1623604Y-7681472D01*
X1618266Y-7690717D01*
X1599864Y-7795080D01*
X-4559009Y-7795080D01*
X-4568533Y-7776388D01*
X-4601194Y-7712287D01*
X-4601195Y-7712285D01*
X-4604730Y-7705348D01*
X-4694438Y-7615640D01*
X-4701375Y-7612105D01*
X-4701377Y-7612104D01*
X-4800536Y-7561580D01*
X-4800537Y-7561580D01*
X-4807476Y-7558044D01*
X-4815170Y-7556825D01*
X-4815171Y-7556825D01*
X-4925083Y-7539417D01*
X-4932780Y-7538198D01*
X-4940477Y-7539417D01*
X-5050389Y-7556825D01*
X-5050390Y-7556825D01*
X-5058084Y-7558044D01*
X-5065023Y-7561580D01*
X-5065024Y-7561580D01*
X-5164183Y-7612104D01*
X-5164185Y-7612105D01*
X-5171122Y-7615640D01*
X-5260830Y-7705348D01*
X-5264365Y-7712285D01*
X-5264366Y-7712287D01*
X-5297027Y-7776388D01*
X-5318426Y-7818386D01*
X-5319645Y-7826080D01*
X-5319645Y-7826081D01*
X-5329758Y-7889934D01*
X-5338272Y-7943690D01*
X-7913244Y-7943690D01*
X-7919440Y-7904569D01*
X-7919440Y-7904568D01*
X-7920659Y-7896874D01*
X-7924195Y-7889934D01*
X-7978314Y-7783719D01*
X-7978315Y-7783717D01*
X-7981850Y-7776780D01*
X-8068626Y-7690004D01*
X-8096403Y-7635487D01*
X-8086832Y-7575055D01*
X-8068626Y-7549996D01*
X-7981850Y-7463220D01*
X-7966535Y-7433164D01*
X-1062701Y-7433164D01*
X-1061482Y-7440860D01*
X-1052973Y-7494580D01*
X-1045332Y-7542825D01*
X-1041796Y-7549765D01*
X-1005866Y-7620281D01*
X-994927Y-7641751D01*
X-916419Y-7720259D01*
X-909482Y-7723794D01*
X-909480Y-7723795D01*
X-852157Y-7753002D01*
X-817493Y-7770664D01*
X-809799Y-7771883D01*
X-809798Y-7771883D01*
X-715528Y-7786814D01*
X-707832Y-7788033D01*
X-700136Y-7786814D01*
X-605866Y-7771883D01*
X-605865Y-7771883D01*
X-598171Y-7770664D01*
X-563507Y-7753002D01*
X-506184Y-7723795D01*
X-506182Y-7723794D01*
X-499245Y-7720259D01*
X-420737Y-7641751D01*
X-409797Y-7620281D01*
X-373868Y-7549765D01*
X-370332Y-7542825D01*
X-362690Y-7494580D01*
X-354182Y-7440860D01*
X-352963Y-7433164D01*
X-370332Y-7323503D01*
X-403453Y-7258498D01*
X-417201Y-7231516D01*
X-417202Y-7231514D01*
X-420737Y-7224577D01*
X-499245Y-7146069D01*
X-506182Y-7142534D01*
X-506184Y-7142533D01*
X-591231Y-7099200D01*
X-598171Y-7095664D01*
X-605865Y-7094445D01*
X-605866Y-7094445D01*
X-700136Y-7079514D01*
X-707832Y-7078295D01*
X-715528Y-7079514D01*
X-809798Y-7094445D01*
X-809799Y-7094445D01*
X-817493Y-7095664D01*
X-824433Y-7099200D01*
X-909480Y-7142533D01*
X-909482Y-7142534D01*
X-916419Y-7146069D01*
X-994927Y-7224577D01*
X-998462Y-7231514D01*
X-998463Y-7231516D01*
X-1012211Y-7258498D01*
X-1045332Y-7323503D01*
X-1062701Y-7433164D01*
X-7966535Y-7433164D01*
X-7924195Y-7350066D01*
X-7924195Y-7350065D01*
X-7920659Y-7343126D01*
X-7917249Y-7321600D01*
X-7905487Y-7247334D01*
X-7905487Y-7247332D01*
X-7904878Y-7243488D01*
X-7904878Y-6726512D01*
X-7920659Y-6626874D01*
X-7981850Y-6506780D01*
X-8068626Y-6420004D01*
X-8096403Y-6365487D01*
X-8086832Y-6305055D01*
X-8068626Y-6279996D01*
X-7981850Y-6193220D01*
X-7929892Y-6091248D01*
X-7924195Y-6080066D01*
X-7924195Y-6080065D01*
X-7920659Y-6073126D01*
X-7906281Y-5982350D01*
X-7905487Y-5977334D01*
X-7905487Y-5977332D01*
X-7904878Y-5973488D01*
X-7904878Y-5793710D01*
X1548298Y-5793710D01*
X1566700Y-5898073D01*
X1619686Y-5989848D01*
X1700866Y-6057966D01*
X1709004Y-6060928D01*
X1709006Y-6060929D01*
X1721376Y-6065431D01*
X1800448Y-6094210D01*
X1906420Y-6094210D01*
X1985492Y-6065431D01*
X1997862Y-6060929D01*
X1997864Y-6060928D01*
X2006002Y-6057966D01*
X2087182Y-5989848D01*
X2140168Y-5898073D01*
X2158570Y-5793710D01*
X2140168Y-5689347D01*
X2087182Y-5597572D01*
X2006002Y-5529454D01*
X1997864Y-5526492D01*
X1997862Y-5526491D01*
X1960988Y-5513071D01*
X1906420Y-5493210D01*
X1800448Y-5493210D01*
X1745880Y-5513071D01*
X1709006Y-5526491D01*
X1709004Y-5526492D01*
X1700866Y-5529454D01*
X1619686Y-5597572D01*
X1566700Y-5689347D01*
X1548298Y-5793710D01*
X-7904878Y-5793710D01*
X-7904878Y-5456512D01*
X-7920659Y-5356874D01*
X-7981850Y-5236780D01*
X-8068626Y-5150004D01*
X-8096403Y-5095487D01*
X-8086832Y-5035055D01*
X-8068626Y-5009996D01*
X-7981850Y-4923220D01*
X-7920659Y-4803126D01*
X-7904878Y-4703488D01*
X-7904878Y-4186512D01*
X-7909815Y-4155339D01*
X-7919440Y-4094569D01*
X-7919440Y-4094568D01*
X-7920659Y-4086874D01*
X-7934604Y-4059506D01*
X-828217Y-4059506D01*
X-809815Y-4163869D01*
X-756829Y-4255644D01*
X-675649Y-4323762D01*
X-667511Y-4326724D01*
X-667509Y-4326725D01*
X-630635Y-4340145D01*
X-576067Y-4360006D01*
X-470095Y-4360006D01*
X-415527Y-4340145D01*
X-378653Y-4326725D01*
X-378651Y-4326724D01*
X-370513Y-4323762D01*
X-289333Y-4255644D01*
X-287220Y-4251984D01*
X-237441Y-4220882D01*
X-176405Y-4225154D01*
X-139987Y-4251614D01*
X-137660Y-4255644D01*
X-56480Y-4323762D01*
X-48342Y-4326724D01*
X-48340Y-4326725D01*
X-11466Y-4340145D01*
X43102Y-4360006D01*
X149074Y-4360006D01*
X203642Y-4340145D01*
X240516Y-4326725D01*
X240518Y-4326724D01*
X248656Y-4323762D01*
X329836Y-4255644D01*
X382822Y-4163869D01*
X401224Y-4059506D01*
X835717Y-4059506D01*
X854119Y-4163869D01*
X907105Y-4255644D01*
X988285Y-4323762D01*
X996423Y-4326724D01*
X996425Y-4326725D01*
X1033299Y-4340145D01*
X1087867Y-4360006D01*
X1193839Y-4360006D01*
X1248407Y-4340145D01*
X1285281Y-4326725D01*
X1285283Y-4326724D01*
X1293421Y-4323762D01*
X1365696Y-4263116D01*
X1422426Y-4240195D01*
X1481794Y-4254997D01*
X1492966Y-4263115D01*
X1565243Y-4323762D01*
X1573381Y-4326724D01*
X1573383Y-4326725D01*
X1610257Y-4340145D01*
X1664825Y-4360006D01*
X1770797Y-4360006D01*
X1825365Y-4340145D01*
X1862239Y-4326725D01*
X1862241Y-4326724D01*
X1870379Y-4323762D01*
X1951559Y-4255644D01*
X2004545Y-4163869D01*
X2022947Y-4059506D01*
X2004545Y-3955143D01*
X1951559Y-3863368D01*
X1870379Y-3795250D01*
X1862241Y-3792288D01*
X1862239Y-3792287D01*
X1825365Y-3778867D01*
X1770797Y-3759006D01*
X1664825Y-3759006D01*
X1610257Y-3778867D01*
X1573383Y-3792287D01*
X1573381Y-3792288D01*
X1565243Y-3795250D01*
X1547665Y-3810000D01*
X1492968Y-3855896D01*
X1436238Y-3878817D01*
X1376870Y-3864015D01*
X1365696Y-3855896D01*
X1310999Y-3810000D01*
X1293421Y-3795250D01*
X1285283Y-3792288D01*
X1285281Y-3792287D01*
X1248407Y-3778867D01*
X1193839Y-3759006D01*
X1087867Y-3759006D01*
X1033299Y-3778867D01*
X996425Y-3792287D01*
X996423Y-3792288D01*
X988285Y-3795250D01*
X907105Y-3863368D01*
X854119Y-3955143D01*
X835717Y-4059506D01*
X401224Y-4059506D01*
X382822Y-3955143D01*
X329836Y-3863368D01*
X248656Y-3795250D01*
X240518Y-3792288D01*
X240516Y-3792287D01*
X203642Y-3778867D01*
X149074Y-3759006D01*
X43102Y-3759006D01*
X-11466Y-3778867D01*
X-48340Y-3792287D01*
X-48342Y-3792288D01*
X-56480Y-3795250D01*
X-137660Y-3863368D01*
X-139773Y-3867028D01*
X-189552Y-3898130D01*
X-250588Y-3893858D01*
X-287006Y-3867398D01*
X-289333Y-3863368D01*
X-370513Y-3795250D01*
X-378651Y-3792288D01*
X-378653Y-3792287D01*
X-415527Y-3778867D01*
X-470095Y-3759006D01*
X-576067Y-3759006D01*
X-630635Y-3778867D01*
X-667509Y-3792287D01*
X-667511Y-3792288D01*
X-675649Y-3795250D01*
X-756829Y-3863368D01*
X-809815Y-3955143D01*
X-828217Y-4059506D01*
X-7934604Y-4059506D01*
X-7981850Y-3966780D01*
X-8068626Y-3880004D01*
X-8096403Y-3825487D01*
X-8086832Y-3765055D01*
X-8068626Y-3739996D01*
X-7981850Y-3653220D01*
X-7920659Y-3533126D01*
X-7904878Y-3433488D01*
X-7904878Y-3222861D01*
X-2820514Y-3222861D01*
X-2819010Y-3231391D01*
X-2811313Y-3275042D01*
X-2802112Y-3327224D01*
X-2749126Y-3418999D01*
X-2667946Y-3487117D01*
X-2659808Y-3490079D01*
X-2659806Y-3490080D01*
X-2622932Y-3503500D01*
X-2568364Y-3523361D01*
X-2462392Y-3523361D01*
X-2407824Y-3503500D01*
X-2370950Y-3490080D01*
X-2370948Y-3490079D01*
X-2362810Y-3487117D01*
X-2281630Y-3418999D01*
X-2228644Y-3327224D01*
X-2219443Y-3275042D01*
X-2211746Y-3231391D01*
X-2210242Y-3222861D01*
X-2228644Y-3118498D01*
X-2281630Y-3026723D01*
X-2362810Y-2958605D01*
X-2370948Y-2955643D01*
X-2370950Y-2955642D01*
X-2407824Y-2942222D01*
X-2462392Y-2922361D01*
X-2568364Y-2922361D01*
X-2622932Y-2942222D01*
X-2659806Y-2955642D01*
X-2659808Y-2955643D01*
X-2667946Y-2958605D01*
X-2749126Y-3026723D01*
X-2802112Y-3118498D01*
X-2820514Y-3222861D01*
X-7904878Y-3222861D01*
X-7904878Y-2916512D01*
X-7904952Y-2916042D01*
X-1538266Y-2916042D01*
X-1537047Y-2923738D01*
X-1530642Y-2964174D01*
X-1520897Y-3025703D01*
X-1517361Y-3032643D01*
X-1477437Y-3110998D01*
X-1470492Y-3124629D01*
X-1391984Y-3203137D01*
X-1385047Y-3206672D01*
X-1385045Y-3206673D01*
X-1299998Y-3250006D01*
X-1293058Y-3253542D01*
X-1285364Y-3254761D01*
X-1285363Y-3254761D01*
X-1191093Y-3269692D01*
X-1183397Y-3270911D01*
X-1175701Y-3269692D01*
X-1081431Y-3254761D01*
X-1081430Y-3254761D01*
X-1073736Y-3253542D01*
X-1066796Y-3250006D01*
X-981749Y-3206673D01*
X-981747Y-3206672D01*
X-974810Y-3203137D01*
X-935901Y-3164228D01*
X-881384Y-3136451D01*
X-820952Y-3146022D01*
X-795893Y-3164228D01*
X-756984Y-3203137D01*
X-750047Y-3206672D01*
X-750045Y-3206673D01*
X-664998Y-3250006D01*
X-658058Y-3253542D01*
X-650364Y-3254761D01*
X-650363Y-3254761D01*
X-556093Y-3269692D01*
X-548397Y-3270911D01*
X-540701Y-3269692D01*
X-446431Y-3254761D01*
X-446430Y-3254761D01*
X-438736Y-3253542D01*
X-431796Y-3250006D01*
X-346749Y-3206673D01*
X-346747Y-3206672D01*
X-339810Y-3203137D01*
X-300901Y-3164228D01*
X-246384Y-3136451D01*
X-185952Y-3146022D01*
X-160893Y-3164228D01*
X-121984Y-3203137D01*
X-115047Y-3206672D01*
X-115045Y-3206673D01*
X-29998Y-3250006D01*
X-23058Y-3253542D01*
X-15364Y-3254761D01*
X-15363Y-3254761D01*
X78907Y-3269692D01*
X86603Y-3270911D01*
X94299Y-3269692D01*
X188569Y-3254761D01*
X188570Y-3254761D01*
X196264Y-3253542D01*
X203204Y-3250006D01*
X288251Y-3206673D01*
X288253Y-3206672D01*
X295190Y-3203137D01*
X334099Y-3164228D01*
X388616Y-3136451D01*
X449048Y-3146022D01*
X474107Y-3164228D01*
X513016Y-3203137D01*
X519953Y-3206672D01*
X519955Y-3206673D01*
X605002Y-3250006D01*
X611942Y-3253542D01*
X619636Y-3254761D01*
X619637Y-3254761D01*
X713907Y-3269692D01*
X721603Y-3270911D01*
X729299Y-3269692D01*
X823569Y-3254761D01*
X823570Y-3254761D01*
X831264Y-3253542D01*
X838204Y-3250006D01*
X923251Y-3206673D01*
X923253Y-3206672D01*
X930190Y-3203137D01*
X969099Y-3164228D01*
X1023616Y-3136451D01*
X1084048Y-3146022D01*
X1109107Y-3164228D01*
X1148016Y-3203137D01*
X1154953Y-3206672D01*
X1154955Y-3206673D01*
X1240002Y-3250006D01*
X1246942Y-3253542D01*
X1254636Y-3254761D01*
X1254637Y-3254761D01*
X1348907Y-3269692D01*
X1356603Y-3270911D01*
X1364299Y-3269692D01*
X1458569Y-3254761D01*
X1458570Y-3254761D01*
X1466264Y-3253542D01*
X1473204Y-3250006D01*
X1558251Y-3206673D01*
X1558253Y-3206672D01*
X1565190Y-3203137D01*
X1643698Y-3124629D01*
X1650644Y-3110998D01*
X1690567Y-3032643D01*
X1694103Y-3025703D01*
X1703849Y-2964174D01*
X1710253Y-2923738D01*
X1711472Y-2916042D01*
X1704116Y-2869596D01*
X1702765Y-2861066D01*
X6769980Y-2861066D01*
X6788382Y-2965429D01*
X6841368Y-3057204D01*
X6905477Y-3110998D01*
X6913453Y-3117690D01*
X6922548Y-3125322D01*
X6930686Y-3128284D01*
X6930688Y-3128285D01*
X6953125Y-3136451D01*
X7022130Y-3161566D01*
X7128102Y-3161566D01*
X7197107Y-3136451D01*
X7219544Y-3128285D01*
X7219546Y-3128284D01*
X7227684Y-3125322D01*
X7236780Y-3117690D01*
X7244755Y-3110998D01*
X7308864Y-3057204D01*
X7361850Y-2965429D01*
X7380252Y-2861066D01*
X7361850Y-2756703D01*
X7333243Y-2707153D01*
X7313193Y-2672426D01*
X7308864Y-2664928D01*
X7227684Y-2596810D01*
X7219546Y-2593848D01*
X7219544Y-2593847D01*
X7177492Y-2578542D01*
X7128102Y-2560566D01*
X7022130Y-2560566D01*
X6972740Y-2578542D01*
X6930688Y-2593847D01*
X6930686Y-2593848D01*
X6922548Y-2596810D01*
X6841368Y-2664928D01*
X6837039Y-2672426D01*
X6816990Y-2707153D01*
X6788382Y-2756703D01*
X6769980Y-2861066D01*
X1702765Y-2861066D01*
X1695322Y-2814076D01*
X1695322Y-2814075D01*
X1694103Y-2806381D01*
X1690567Y-2799441D01*
X1647234Y-2714394D01*
X1647233Y-2714392D01*
X1643698Y-2707455D01*
X1604789Y-2668546D01*
X1577012Y-2614029D01*
X1586583Y-2553597D01*
X1604789Y-2528538D01*
X1643698Y-2489629D01*
X1649355Y-2478528D01*
X1690567Y-2397643D01*
X1694103Y-2390703D01*
X1711472Y-2281042D01*
X1694103Y-2171381D01*
X1643698Y-2072455D01*
X1604789Y-2033546D01*
X1577012Y-1979029D01*
X1586583Y-1918597D01*
X1604789Y-1893538D01*
X1643698Y-1854629D01*
X1694103Y-1755703D01*
X1705537Y-1683514D01*
X2218242Y-1683514D01*
X2235611Y-1793175D01*
X2239147Y-1800115D01*
X2269729Y-1860135D01*
X2286016Y-1892101D01*
X2364524Y-1970609D01*
X2371461Y-1974144D01*
X2371463Y-1974145D01*
X2438864Y-2008487D01*
X2463450Y-2021014D01*
X2471144Y-2022233D01*
X2471145Y-2022233D01*
X2565415Y-2037164D01*
X2573111Y-2038383D01*
X2580807Y-2037164D01*
X2675077Y-2022233D01*
X2675078Y-2022233D01*
X2682772Y-2021014D01*
X2707358Y-2008487D01*
X2774759Y-1974145D01*
X2774761Y-1974144D01*
X2781698Y-1970609D01*
X2860206Y-1892101D01*
X2876494Y-1860135D01*
X2907075Y-1800115D01*
X2910611Y-1793175D01*
X2927980Y-1683514D01*
X2910611Y-1573853D01*
X2907075Y-1566913D01*
X2863742Y-1481866D01*
X2863741Y-1481864D01*
X2860206Y-1474927D01*
X2781698Y-1396419D01*
X2774761Y-1392884D01*
X2774759Y-1392883D01*
X2689712Y-1349550D01*
X2682772Y-1346014D01*
X2675078Y-1344795D01*
X2675077Y-1344795D01*
X2597886Y-1332569D01*
X2573111Y-1328645D01*
X2548336Y-1332569D01*
X2471145Y-1344795D01*
X2471144Y-1344795D01*
X2463450Y-1346014D01*
X2456510Y-1349550D01*
X2371463Y-1392883D01*
X2371461Y-1392884D01*
X2364524Y-1396419D01*
X2286016Y-1474927D01*
X2282481Y-1481864D01*
X2282480Y-1481866D01*
X2239147Y-1566913D01*
X2235611Y-1573853D01*
X2218242Y-1683514D01*
X1705537Y-1683514D01*
X1711472Y-1646042D01*
X1694103Y-1536381D01*
X1674103Y-1497129D01*
X1647234Y-1444394D01*
X1647233Y-1444392D01*
X1643698Y-1437455D01*
X1604789Y-1398546D01*
X1577012Y-1344029D01*
X1586583Y-1283597D01*
X1604789Y-1258538D01*
X1643698Y-1219629D01*
X1649355Y-1208528D01*
X1690567Y-1127643D01*
X1694103Y-1120703D01*
X1711472Y-1011042D01*
X1694103Y-901381D01*
X1643698Y-802455D01*
X1604789Y-763546D01*
X1577012Y-709029D01*
X1586583Y-648597D01*
X1604789Y-623538D01*
X1643698Y-584629D01*
X1694103Y-485703D01*
X1711472Y-376042D01*
X1694103Y-266381D01*
X1643698Y-167455D01*
X1565190Y-88947D01*
X1558253Y-85412D01*
X1558251Y-85411D01*
X1473204Y-42078D01*
X1466264Y-38542D01*
X1458570Y-37323D01*
X1458569Y-37323D01*
X1364299Y-22392D01*
X1356603Y-21173D01*
X1348907Y-22392D01*
X1254637Y-37323D01*
X1254636Y-37323D01*
X1246942Y-38542D01*
X1240002Y-42078D01*
X1154955Y-85411D01*
X1154953Y-85412D01*
X1148016Y-88947D01*
X1109107Y-127856D01*
X1054590Y-155633D01*
X994158Y-146062D01*
X969099Y-127856D01*
X930190Y-88947D01*
X923253Y-85412D01*
X923251Y-85411D01*
X838204Y-42078D01*
X831264Y-38542D01*
X823570Y-37323D01*
X823569Y-37323D01*
X729299Y-22392D01*
X721603Y-21173D01*
X713907Y-22392D01*
X619637Y-37323D01*
X619636Y-37323D01*
X611942Y-38542D01*
X605002Y-42078D01*
X519955Y-85411D01*
X519953Y-85412D01*
X513016Y-88947D01*
X474107Y-127856D01*
X419590Y-155633D01*
X359158Y-146062D01*
X334099Y-127856D01*
X295190Y-88947D01*
X288253Y-85412D01*
X288251Y-85411D01*
X203204Y-42078D01*
X196264Y-38542D01*
X188570Y-37323D01*
X188569Y-37323D01*
X94299Y-22392D01*
X86603Y-21173D01*
X78907Y-22392D01*
X-15363Y-37323D01*
X-15364Y-37323D01*
X-23058Y-38542D01*
X-29998Y-42078D01*
X-115045Y-85411D01*
X-115047Y-85412D01*
X-121984Y-88947D01*
X-160893Y-127856D01*
X-215410Y-155633D01*
X-275842Y-146062D01*
X-300901Y-127856D01*
X-339810Y-88947D01*
X-346747Y-85412D01*
X-346749Y-85411D01*
X-431796Y-42078D01*
X-438736Y-38542D01*
X-446430Y-37323D01*
X-446431Y-37323D01*
X-540701Y-22392D01*
X-548397Y-21173D01*
X-556093Y-22392D01*
X-650363Y-37323D01*
X-650364Y-37323D01*
X-658058Y-38542D01*
X-664998Y-42078D01*
X-750045Y-85411D01*
X-750047Y-85412D01*
X-756984Y-88947D01*
X-795893Y-127856D01*
X-850410Y-155633D01*
X-910842Y-146062D01*
X-935901Y-127856D01*
X-974810Y-88947D01*
X-981747Y-85412D01*
X-981749Y-85411D01*
X-1066796Y-42078D01*
X-1073736Y-38542D01*
X-1081430Y-37323D01*
X-1081431Y-37323D01*
X-1175701Y-22392D01*
X-1183397Y-21173D01*
X-1191093Y-22392D01*
X-1285363Y-37323D01*
X-1285364Y-37323D01*
X-1293058Y-38542D01*
X-1299998Y-42078D01*
X-1385045Y-85411D01*
X-1385047Y-85412D01*
X-1391984Y-88947D01*
X-1470492Y-167455D01*
X-1520897Y-266381D01*
X-1538266Y-376042D01*
X-1520897Y-485703D01*
X-1470492Y-584629D01*
X-1431583Y-623538D01*
X-1403806Y-678055D01*
X-1413377Y-738487D01*
X-1431583Y-763546D01*
X-1470492Y-802455D01*
X-1520897Y-901381D01*
X-1538266Y-1011042D01*
X-1520897Y-1120703D01*
X-1517361Y-1127643D01*
X-1476148Y-1208528D01*
X-1470492Y-1219629D01*
X-1431583Y-1258538D01*
X-1403806Y-1313055D01*
X-1413377Y-1373487D01*
X-1431583Y-1398546D01*
X-1470492Y-1437455D01*
X-1474027Y-1444392D01*
X-1474028Y-1444394D01*
X-1500897Y-1497129D01*
X-1520897Y-1536381D01*
X-1538266Y-1646042D01*
X-1520897Y-1755703D01*
X-1470492Y-1854629D01*
X-1431583Y-1893538D01*
X-1403806Y-1948055D01*
X-1413377Y-2008487D01*
X-1431583Y-2033546D01*
X-1470492Y-2072455D01*
X-1520897Y-2171381D01*
X-1538266Y-2281042D01*
X-1520897Y-2390703D01*
X-1517361Y-2397643D01*
X-1476148Y-2478528D01*
X-1470492Y-2489629D01*
X-1431583Y-2528538D01*
X-1403806Y-2583055D01*
X-1413377Y-2643487D01*
X-1431583Y-2668546D01*
X-1470492Y-2707455D01*
X-1474027Y-2714392D01*
X-1474028Y-2714394D01*
X-1517361Y-2799441D01*
X-1520897Y-2806381D01*
X-1522116Y-2814075D01*
X-1522116Y-2814076D01*
X-1530910Y-2869596D01*
X-1538266Y-2916042D01*
X-7904952Y-2916042D01*
X-7920659Y-2816874D01*
X-7926005Y-2806381D01*
X-7978314Y-2703719D01*
X-7978315Y-2703717D01*
X-7981850Y-2696780D01*
X-8068626Y-2610004D01*
X-8096403Y-2555487D01*
X-8088478Y-2505449D01*
X-7046015Y-2505449D01*
X-7027613Y-2609812D01*
X-7023283Y-2617312D01*
X-6995792Y-2664928D01*
X-6974627Y-2701587D01*
X-6893447Y-2769705D01*
X-6885309Y-2772667D01*
X-6885307Y-2772668D01*
X-6848433Y-2786088D01*
X-6793865Y-2805949D01*
X-6687893Y-2805949D01*
X-6633325Y-2786088D01*
X-6596451Y-2772668D01*
X-6596449Y-2772667D01*
X-6588311Y-2769705D01*
X-6507131Y-2701587D01*
X-6485966Y-2664928D01*
X-6458475Y-2617312D01*
X-6454145Y-2609812D01*
X-6435743Y-2505449D01*
X-6454145Y-2401086D01*
X-6460139Y-2390703D01*
X-6502802Y-2316809D01*
X-6507131Y-2309311D01*
X-6588311Y-2241193D01*
X-6596449Y-2238231D01*
X-6596451Y-2238230D01*
X-6633325Y-2224810D01*
X-6687893Y-2204949D01*
X-6793865Y-2204949D01*
X-6848433Y-2224810D01*
X-6885307Y-2238230D01*
X-6885309Y-2238231D01*
X-6893447Y-2241193D01*
X-6974627Y-2309311D01*
X-6978956Y-2316809D01*
X-7021618Y-2390703D01*
X-7027613Y-2401086D01*
X-7046015Y-2505449D01*
X-8088478Y-2505449D01*
X-8086832Y-2495055D01*
X-8068626Y-2469996D01*
X-7981850Y-2383220D01*
X-7920659Y-2263126D01*
X-7904878Y-2163488D01*
X-7904878Y-1646512D01*
X-7920659Y-1546874D01*
X-7926005Y-1536381D01*
X-7978314Y-1433719D01*
X-7978315Y-1433717D01*
X-7981850Y-1426780D01*
X-8068626Y-1340004D01*
X-8096403Y-1285487D01*
X-8086832Y-1225055D01*
X-8068626Y-1199996D01*
X-7981850Y-1113220D01*
X-7920659Y-993126D01*
X-7904878Y-893488D01*
X-7904878Y-376512D01*
X-7920659Y-276874D01*
X-7926005Y-266381D01*
X-7978314Y-163719D01*
X-7978315Y-163717D01*
X-7981850Y-156780D01*
X-8068626Y-70004D01*
X-8096403Y-15487D01*
X-8086832Y44945D01*
X-8068626Y70004D01*
X-7981850Y156780D01*
X-7920659Y276874D01*
X-7904878Y376512D01*
X-7904878Y766165D01*
X-1640514Y766165D01*
X-1622112Y661802D01*
X-1569126Y570027D01*
X-1487946Y501909D01*
X-1479808Y498947D01*
X-1479806Y498946D01*
X-1442932Y485526D01*
X-1388364Y465665D01*
X-1282392Y465665D01*
X-1227824Y485526D01*
X-1190950Y498946D01*
X-1190948Y498947D01*
X-1182810Y501909D01*
X-1101630Y570027D01*
X-1063697Y635729D01*
X-1018227Y676670D01*
X-957377Y683066D01*
X-904389Y652473D01*
X-892223Y635729D01*
X-854290Y570027D01*
X-773110Y501909D01*
X-764972Y498947D01*
X-764970Y498946D01*
X-728096Y485526D01*
X-673528Y465665D01*
X-567556Y465665D01*
X-512988Y485526D01*
X-476114Y498946D01*
X-476112Y498947D01*
X-467974Y501909D01*
X-386794Y570027D01*
X-333808Y661802D01*
X-315406Y766165D01*
X417706Y766165D01*
X436108Y661802D01*
X489094Y570027D01*
X570274Y501909D01*
X578412Y498947D01*
X578414Y498946D01*
X615288Y485526D01*
X669856Y465665D01*
X775828Y465665D01*
X830396Y485526D01*
X867270Y498946D01*
X867272Y498947D01*
X875410Y501909D01*
X956590Y570027D01*
X965495Y585451D01*
X1010965Y626392D01*
X1071815Y632788D01*
X1124803Y602195D01*
X1136969Y585451D01*
X1145874Y570027D01*
X1227054Y501909D01*
X1235192Y498947D01*
X1235194Y498946D01*
X1272068Y485526D01*
X1326636Y465665D01*
X1432608Y465665D01*
X1487176Y485526D01*
X1524050Y498946D01*
X1524052Y498947D01*
X1532190Y501909D01*
X1613370Y570027D01*
X1666356Y661802D01*
X1684758Y766165D01*
X1666356Y870528D01*
X1613370Y962303D01*
X1532190Y1030421D01*
X1524052Y1033383D01*
X1524050Y1033384D01*
X1487176Y1046804D01*
X1432608Y1066665D01*
X1326636Y1066665D01*
X1272068Y1046804D01*
X1235194Y1033384D01*
X1235192Y1033383D01*
X1227054Y1030421D01*
X1145874Y962303D01*
X1141545Y954805D01*
X1136969Y946879D01*
X1091499Y905938D01*
X1030649Y899542D01*
X977661Y930135D01*
X965495Y946879D01*
X960919Y954805D01*
X956590Y962303D01*
X875410Y1030421D01*
X867272Y1033383D01*
X867270Y1033384D01*
X830396Y1046804D01*
X775828Y1066665D01*
X669856Y1066665D01*
X615288Y1046804D01*
X578414Y1033384D01*
X578412Y1033383D01*
X570274Y1030421D01*
X489094Y962303D01*
X436108Y870528D01*
X417706Y766165D01*
X-315406Y766165D01*
X-333808Y870528D01*
X-386794Y962303D01*
X-467974Y1030421D01*
X-476112Y1033383D01*
X-476114Y1033384D01*
X-512988Y1046804D01*
X-567556Y1066665D01*
X-673528Y1066665D01*
X-728096Y1046804D01*
X-764970Y1033384D01*
X-764972Y1033383D01*
X-773110Y1030421D01*
X-854290Y962303D01*
X-858619Y954805D01*
X-892223Y896601D01*
X-937693Y855660D01*
X-998543Y849264D01*
X-1051531Y879857D01*
X-1063697Y896601D01*
X-1097301Y954805D01*
X-1101630Y962303D01*
X-1182810Y1030421D01*
X-1190948Y1033383D01*
X-1190950Y1033384D01*
X-1227824Y1046804D01*
X-1282392Y1066665D01*
X-1388364Y1066665D01*
X-1442932Y1046804D01*
X-1479806Y1033384D01*
X-1479808Y1033383D01*
X-1487946Y1030421D01*
X-1569126Y962303D01*
X-1622112Y870528D01*
X-1640514Y766165D01*
X-7904878Y766165D01*
X-7904878Y893488D01*
X-7913334Y946879D01*
X-7919440Y985431D01*
X-7919440Y985432D01*
X-7920659Y993126D01*
X-7981850Y1113220D01*
X-8068626Y1199996D01*
X-8096403Y1254513D01*
X-8086832Y1314945D01*
X-8068626Y1340004D01*
X-7981850Y1426780D01*
X-7932025Y1524566D01*
X-7924195Y1539934D01*
X-7924195Y1539935D01*
X-7920659Y1546874D01*
X-7909014Y1620399D01*
X2733854Y1620399D01*
X2752256Y1516036D01*
X2805242Y1424261D01*
X2886422Y1356143D01*
X2894560Y1353181D01*
X2894562Y1353180D01*
X2930765Y1340004D01*
X2986004Y1319899D01*
X3091976Y1319899D01*
X3147215Y1340004D01*
X3183418Y1353180D01*
X3183420Y1353181D01*
X3191558Y1356143D01*
X3272738Y1424261D01*
X3325724Y1516036D01*
X3344126Y1620399D01*
X3325724Y1724762D01*
X3275722Y1811368D01*
X4515555Y1811368D01*
X4535401Y1686064D01*
X4592997Y1573026D01*
X4682705Y1483318D01*
X4689642Y1479783D01*
X4689644Y1479782D01*
X4780048Y1433719D01*
X4795743Y1425722D01*
X4803437Y1424503D01*
X4803438Y1424503D01*
X4913350Y1407095D01*
X4921047Y1405876D01*
X4928744Y1407095D01*
X5038656Y1424503D01*
X5038657Y1424503D01*
X5046351Y1425722D01*
X5062046Y1433719D01*
X5152450Y1479782D01*
X5152452Y1479783D01*
X5159389Y1483318D01*
X5249097Y1573026D01*
X5306693Y1686064D01*
X5326539Y1811368D01*
X5314462Y1887618D01*
X5307912Y1928977D01*
X5307912Y1928978D01*
X5306693Y1936672D01*
X5249097Y2049710D01*
X5159389Y2139418D01*
X5152452Y2142953D01*
X5152450Y2142954D01*
X5053291Y2193478D01*
X5053290Y2193478D01*
X5046351Y2197014D01*
X5038657Y2198233D01*
X5038656Y2198233D01*
X4928744Y2215641D01*
X4921047Y2216860D01*
X4913350Y2215641D01*
X4803438Y2198233D01*
X4803437Y2198233D01*
X4795743Y2197014D01*
X4788804Y2193478D01*
X4788803Y2193478D01*
X4689644Y2142954D01*
X4689642Y2142953D01*
X4682705Y2139418D01*
X4592997Y2049710D01*
X4535401Y1936672D01*
X4534182Y1928978D01*
X4534182Y1928977D01*
X4527632Y1887618D01*
X4515555Y1811368D01*
X3275722Y1811368D01*
X3272738Y1816537D01*
X3191558Y1884655D01*
X3183420Y1887617D01*
X3183418Y1887618D01*
X3146544Y1901038D01*
X3091976Y1920899D01*
X2986004Y1920899D01*
X2931436Y1901038D01*
X2894562Y1887618D01*
X2894560Y1887617D01*
X2886422Y1884655D01*
X2805242Y1816537D01*
X2752256Y1724762D01*
X2733854Y1620399D01*
X-7909014Y1620399D01*
X-7904878Y1646512D01*
X-7904878Y2163488D01*
X-7920659Y2263126D01*
X-7981850Y2383220D01*
X-8068626Y2469996D01*
X-8096403Y2524513D01*
X-8086832Y2584945D01*
X-8068626Y2610004D01*
X-7981850Y2696780D01*
X-7970896Y2718277D01*
X-7924195Y2809934D01*
X-7924195Y2809935D01*
X-7922067Y2814110D01*
X-1495943Y2814110D01*
X-1477541Y2709747D01*
X-1424555Y2617972D01*
X-1343375Y2549854D01*
X-1335237Y2546892D01*
X-1335235Y2546891D01*
X-1317073Y2540281D01*
X-1243793Y2513610D01*
X-1137821Y2513610D01*
X-1064541Y2540281D01*
X-1046379Y2546891D01*
X-1046377Y2546892D01*
X-1038239Y2549854D01*
X-957059Y2617972D01*
X-904073Y2709747D01*
X-885671Y2814110D01*
X-904073Y2918473D01*
X-957059Y3010248D01*
X-1038239Y3078366D01*
X-1046377Y3081328D01*
X-1046379Y3081329D01*
X-1083253Y3094749D01*
X-1137821Y3114610D01*
X-1243793Y3114610D01*
X-1298361Y3094749D01*
X-1335235Y3081329D01*
X-1335237Y3081328D01*
X-1343375Y3078366D01*
X-1424555Y3010248D01*
X-1477541Y2918473D01*
X-1495943Y2814110D01*
X-7922067Y2814110D01*
X-7920659Y2816874D01*
X-7904878Y2916512D01*
X-7904878Y3433488D01*
X-7920659Y3533126D01*
X-7959947Y3610233D01*
X-7978314Y3646281D01*
X-7978315Y3646283D01*
X-7981850Y3653220D01*
X-8064167Y3735537D01*
X-4741259Y3735537D01*
X-4740040Y3727840D01*
X-4727122Y3646281D01*
X-4721413Y3610233D01*
X-4663817Y3497195D01*
X-4574109Y3407487D01*
X-4567172Y3403952D01*
X-4567170Y3403951D01*
X-4468011Y3353427D01*
X-4461071Y3349891D01*
X-4453377Y3348672D01*
X-4453376Y3348672D01*
X-4343464Y3331264D01*
X-4335767Y3330045D01*
X-4328070Y3331264D01*
X-4218158Y3348672D01*
X-4218157Y3348672D01*
X-4210463Y3349891D01*
X-4203523Y3353427D01*
X-4104364Y3403951D01*
X-4104362Y3403952D01*
X-4097425Y3407487D01*
X-4007717Y3497195D01*
X-3950121Y3610233D01*
X-3944411Y3646281D01*
X-3931494Y3727840D01*
X-3930275Y3735537D01*
X-3931494Y3743234D01*
X-3948902Y3853146D01*
X-3948902Y3853147D01*
X-3950121Y3860841D01*
X-4001294Y3961274D01*
X-4004181Y3966940D01*
X-4004182Y3966942D01*
X-4007717Y3973879D01*
X-4097425Y4063587D01*
X-4104362Y4067122D01*
X-4104364Y4067123D01*
X-4203523Y4117647D01*
X-4203524Y4117647D01*
X-4210463Y4121183D01*
X-4218157Y4122402D01*
X-4218158Y4122402D01*
X-4328070Y4139810D01*
X-4335767Y4141029D01*
X-4343464Y4139810D01*
X-4453376Y4122402D01*
X-4453377Y4122402D01*
X-4461071Y4121183D01*
X-4468010Y4117647D01*
X-4468011Y4117647D01*
X-4567170Y4067123D01*
X-4567172Y4067122D01*
X-4574109Y4063587D01*
X-4663817Y3973879D01*
X-4667352Y3966942D01*
X-4667353Y3966940D01*
X-4670240Y3961274D01*
X-4721413Y3860841D01*
X-4722632Y3853147D01*
X-4722632Y3853146D01*
X-4740040Y3743234D01*
X-4741259Y3735537D01*
X-8064167Y3735537D01*
X-8068626Y3739996D01*
X-8096403Y3794513D01*
X-8086832Y3854945D01*
X-8068626Y3880004D01*
X-7981850Y3966780D01*
X-7978232Y3973879D01*
X-7924195Y4079934D01*
X-7924195Y4079935D01*
X-7920659Y4086874D01*
X-7904878Y4186512D01*
X-7904878Y4703488D01*
X-7920659Y4803126D01*
X-7981850Y4923220D01*
X-8068626Y5009996D01*
X-8096403Y5064513D01*
X-8086832Y5124945D01*
X-8068626Y5150004D01*
X-8015939Y5202691D01*
X-4665469Y5202691D01*
X-4647067Y5098328D01*
X-4594081Y5006553D01*
X-4512901Y4938435D01*
X-4504763Y4935473D01*
X-4504761Y4935472D01*
X-4471097Y4923220D01*
X-4413319Y4902191D01*
X-4307347Y4902191D01*
X-4249569Y4923220D01*
X-4215905Y4935472D01*
X-4215903Y4935473D01*
X-4207765Y4938435D01*
X-4126585Y5006553D01*
X-4073599Y5098328D01*
X-4055197Y5202691D01*
X-4073599Y5307054D01*
X-4099836Y5352499D01*
X-4122256Y5391331D01*
X-4126585Y5398829D01*
X-4198022Y5458772D01*
X-4201128Y5461378D01*
X-4207765Y5466947D01*
X-4215903Y5469909D01*
X-4215905Y5469910D01*
X-4254168Y5483836D01*
X-4307347Y5503191D01*
X-4413319Y5503191D01*
X-4466498Y5483836D01*
X-4504761Y5469910D01*
X-4504763Y5469909D01*
X-4512901Y5466947D01*
X-4519538Y5461378D01*
X-4522644Y5458772D01*
X-4594081Y5398829D01*
X-4598410Y5391331D01*
X-4620829Y5352499D01*
X-4647067Y5307054D01*
X-4665469Y5202691D01*
X-8015939Y5202691D01*
X-7981850Y5236780D01*
X-7946043Y5307054D01*
X-7924195Y5349934D01*
X-7924195Y5349935D01*
X-7920659Y5356874D01*
X-7915201Y5391331D01*
X-7905487Y5452666D01*
X-7905487Y5452668D01*
X-7904878Y5456512D01*
X-7904878Y5707368D01*
X-2516781Y5707368D01*
X-2515562Y5699672D01*
X-2503538Y5623760D01*
X-2499412Y5597707D01*
X-2495876Y5590767D01*
X-2463012Y5526268D01*
X-2449007Y5498781D01*
X-2370499Y5420273D01*
X-2363562Y5416738D01*
X-2363560Y5416737D01*
X-2302237Y5385492D01*
X-2271573Y5369868D01*
X-2263879Y5368649D01*
X-2263878Y5368649D01*
X-2169608Y5353718D01*
X-2161912Y5352499D01*
X-2154216Y5353718D01*
X-2059946Y5368649D01*
X-2059945Y5368649D01*
X-2052251Y5369868D01*
X-2021587Y5385492D01*
X-1960264Y5416737D01*
X-1960262Y5416738D01*
X-1953325Y5420273D01*
X-1874817Y5498781D01*
X-1860811Y5526268D01*
X-1827948Y5590767D01*
X-1824412Y5597707D01*
X-1820285Y5623760D01*
X-1809410Y5692423D01*
X3840017Y5692423D01*
X3857386Y5582762D01*
X3860922Y5575822D01*
X3903737Y5491793D01*
X3907791Y5483836D01*
X3986299Y5405328D01*
X3993236Y5401793D01*
X3993238Y5401792D01*
X4078285Y5358459D01*
X4085225Y5354923D01*
X4092919Y5353704D01*
X4092920Y5353704D01*
X4187190Y5338773D01*
X4194886Y5337554D01*
X4202582Y5338773D01*
X4296852Y5353704D01*
X4296853Y5353704D01*
X4304547Y5354923D01*
X4311487Y5358459D01*
X4396534Y5401792D01*
X4396536Y5401793D01*
X4403473Y5405328D01*
X4481981Y5483836D01*
X4485517Y5490775D01*
X4486257Y5491793D01*
X4535757Y5527757D01*
X4596942Y5527756D01*
X4636353Y5503606D01*
X4686693Y5453266D01*
X4693630Y5449731D01*
X4693632Y5449730D01*
X4769971Y5410834D01*
X4785619Y5402861D01*
X4793313Y5401642D01*
X4793314Y5401642D01*
X4887584Y5386711D01*
X4895280Y5385492D01*
X4902976Y5386711D01*
X4997246Y5401642D01*
X4997247Y5401642D01*
X5004941Y5402861D01*
X5020589Y5410834D01*
X5096928Y5449730D01*
X5096930Y5449731D01*
X5103867Y5453266D01*
X5182375Y5531774D01*
X5204819Y5575822D01*
X5229244Y5623760D01*
X5232780Y5630700D01*
X5250149Y5740361D01*
X5239274Y5809024D01*
X5233999Y5842327D01*
X5233999Y5842328D01*
X5232780Y5850022D01*
X5210336Y5894071D01*
X5185911Y5942009D01*
X5185910Y5942011D01*
X5182375Y5948948D01*
X5103867Y6027456D01*
X5096930Y6030991D01*
X5096928Y6030992D01*
X5011881Y6074325D01*
X5004941Y6077861D01*
X4997247Y6079080D01*
X4997246Y6079080D01*
X4902976Y6094011D01*
X4895280Y6095230D01*
X4887584Y6094011D01*
X4793314Y6079080D01*
X4793313Y6079080D01*
X4785619Y6077861D01*
X4778679Y6074325D01*
X4693632Y6030992D01*
X4693630Y6030991D01*
X4686693Y6027456D01*
X4608185Y5948948D01*
X4604651Y5942013D01*
X4603909Y5940991D01*
X4554409Y5905027D01*
X4493224Y5905028D01*
X4453813Y5929178D01*
X4403473Y5979518D01*
X4396536Y5983053D01*
X4396534Y5983054D01*
X4311487Y6026387D01*
X4304547Y6029923D01*
X4296853Y6031142D01*
X4296852Y6031142D01*
X4202582Y6046073D01*
X4194886Y6047292D01*
X4187190Y6046073D01*
X4092920Y6031142D01*
X4092919Y6031142D01*
X4085225Y6029923D01*
X4078285Y6026387D01*
X3993238Y5983054D01*
X3993236Y5983053D01*
X3986299Y5979518D01*
X3907791Y5901010D01*
X3904256Y5894073D01*
X3904255Y5894071D01*
X3868537Y5823969D01*
X3857386Y5802084D01*
X3840017Y5692423D01*
X-1809410Y5692423D01*
X-1808262Y5699672D01*
X-1807043Y5707368D01*
X-1824412Y5817029D01*
X-1837302Y5842327D01*
X-1871281Y5909016D01*
X-1871282Y5909018D01*
X-1874817Y5915955D01*
X-1953325Y5994463D01*
X-1960262Y5997998D01*
X-1960264Y5997999D01*
X-2045311Y6041332D01*
X-2052251Y6044868D01*
X-2059945Y6046087D01*
X-2059946Y6046087D01*
X-2137137Y6058313D01*
X-2161912Y6062237D01*
X-2186687Y6058313D01*
X-2263878Y6046087D01*
X-2263879Y6046087D01*
X-2271573Y6044868D01*
X-2278513Y6041332D01*
X-2363560Y5997999D01*
X-2363562Y5997998D01*
X-2370499Y5994463D01*
X-2449007Y5915955D01*
X-2452542Y5909018D01*
X-2452543Y5909016D01*
X-2486522Y5842327D01*
X-2499412Y5817029D01*
X-2516781Y5707368D01*
X-7904878Y5707368D01*
X-7904878Y5973488D01*
X-7912446Y6021271D01*
X-7919440Y6065431D01*
X-7919440Y6065432D01*
X-7920659Y6073126D01*
X-7931300Y6094011D01*
X-7978314Y6186281D01*
X-7978315Y6186283D01*
X-7981850Y6193220D01*
X-7998541Y6209911D01*
X-5692708Y6209911D01*
X-5674306Y6105548D01*
X-5669976Y6098048D01*
X-5640672Y6047292D01*
X-5621320Y6013773D01*
X-5540140Y5945655D01*
X-5532002Y5942693D01*
X-5532000Y5942692D01*
X-5495126Y5929272D01*
X-5440558Y5909411D01*
X-5334586Y5909411D01*
X-5280018Y5929272D01*
X-5243144Y5942692D01*
X-5243142Y5942693D01*
X-5235004Y5945655D01*
X-5153824Y6013773D01*
X-5134472Y6047292D01*
X-5105168Y6098048D01*
X-5100838Y6105548D01*
X-5091973Y6155823D01*
X1929486Y6155823D01*
X1947888Y6051460D01*
X1952218Y6043960D01*
X1980795Y5994463D01*
X2000874Y5959685D01*
X2082054Y5891567D01*
X2090192Y5888605D01*
X2090194Y5888604D01*
X2127068Y5875184D01*
X2181636Y5855323D01*
X2287608Y5855323D01*
X2342176Y5875184D01*
X2379050Y5888604D01*
X2379052Y5888605D01*
X2387190Y5891567D01*
X2468370Y5959685D01*
X2488449Y5994463D01*
X2517026Y6043960D01*
X2521356Y6051460D01*
X2539758Y6155823D01*
X2521356Y6260186D01*
X2490129Y6314274D01*
X2472699Y6344463D01*
X2468370Y6351961D01*
X2403447Y6406437D01*
X2393827Y6414510D01*
X2387190Y6420079D01*
X2379052Y6423041D01*
X2379050Y6423042D01*
X2342507Y6436342D01*
X2293991Y6454000D01*
X2245777Y6491668D01*
X2235053Y6529066D01*
X2219406Y6486079D01*
X2175253Y6454000D01*
X2126737Y6436342D01*
X2090194Y6423042D01*
X2090192Y6423041D01*
X2082054Y6420079D01*
X2075417Y6414510D01*
X2065797Y6406437D01*
X2000874Y6351961D01*
X1996545Y6344463D01*
X1979116Y6314274D01*
X1947888Y6260186D01*
X1929486Y6155823D01*
X-5091973Y6155823D01*
X-5082436Y6209911D01*
X-5100838Y6314274D01*
X-5118267Y6344463D01*
X-5149495Y6398551D01*
X-5153824Y6406049D01*
X-5235004Y6474167D01*
X-5243142Y6477129D01*
X-5243144Y6477130D01*
X-5309482Y6501274D01*
X-5334586Y6510411D01*
X-5440558Y6510411D01*
X-5465662Y6501274D01*
X-5532000Y6477130D01*
X-5532002Y6477129D01*
X-5540140Y6474167D01*
X-5621320Y6406049D01*
X-5625649Y6398551D01*
X-5656876Y6344463D01*
X-5674306Y6314274D01*
X-5692708Y6209911D01*
X-7998541Y6209911D01*
X-8068626Y6279996D01*
X-8096403Y6334513D01*
X-8086832Y6394945D01*
X-8068626Y6420004D01*
X-7981850Y6506780D01*
X-7970494Y6529066D01*
X-7924195Y6619934D01*
X-7924195Y6619935D01*
X-7920659Y6626874D01*
X-7918938Y6637736D01*
X-7905487Y6722666D01*
X-7905487Y6722668D01*
X-7904878Y6726512D01*
X-7904878Y6938236D01*
X1929486Y6938236D01*
X1947888Y6833873D01*
X2000874Y6742098D01*
X2082054Y6673980D01*
X2090192Y6671018D01*
X2175253Y6640059D01*
X2223468Y6602389D01*
X2234192Y6564992D01*
X2249837Y6607979D01*
X2293991Y6640059D01*
X2379052Y6671018D01*
X2387190Y6673980D01*
X2468370Y6742098D01*
X2521356Y6833873D01*
X2539758Y6938236D01*
X2525354Y7019927D01*
X4350158Y7019927D01*
X4367527Y6910266D01*
X4371063Y6903326D01*
X4402105Y6842403D01*
X4417932Y6811340D01*
X4496440Y6732832D01*
X4503377Y6729297D01*
X4503379Y6729296D01*
X4588426Y6685963D01*
X4595366Y6682427D01*
X4603060Y6681208D01*
X4603061Y6681208D01*
X4697331Y6666277D01*
X4705027Y6665058D01*
X4712723Y6666277D01*
X4806993Y6681208D01*
X4806994Y6681208D01*
X4814688Y6682427D01*
X4821628Y6685963D01*
X4906675Y6729296D01*
X4906677Y6729297D01*
X4913614Y6732832D01*
X4992122Y6811340D01*
X5007950Y6842403D01*
X5038991Y6903326D01*
X5042527Y6910266D01*
X5059896Y7019927D01*
X5042527Y7129588D01*
X5038991Y7136528D01*
X4995658Y7221575D01*
X4995657Y7221577D01*
X4992122Y7228514D01*
X4913614Y7307022D01*
X4906677Y7310557D01*
X4906675Y7310558D01*
X4821628Y7353891D01*
X4814688Y7357427D01*
X4806994Y7358646D01*
X4806993Y7358646D01*
X4712723Y7373577D01*
X4705027Y7374796D01*
X4697331Y7373577D01*
X4603061Y7358646D01*
X4603060Y7358646D01*
X4595366Y7357427D01*
X4588426Y7353891D01*
X4503379Y7310558D01*
X4503377Y7310557D01*
X4496440Y7307022D01*
X4417932Y7228514D01*
X4414397Y7221577D01*
X4414396Y7221575D01*
X4371063Y7136528D01*
X4367527Y7129588D01*
X4350158Y7019927D01*
X2525354Y7019927D01*
X2521356Y7042599D01*
X2468370Y7134374D01*
X2387190Y7202492D01*
X2379052Y7205454D01*
X2379050Y7205455D01*
X2342176Y7218875D01*
X2287608Y7238736D01*
X2181636Y7238736D01*
X2127068Y7218875D01*
X2090194Y7205455D01*
X2090192Y7205454D01*
X2082054Y7202492D01*
X2000874Y7134374D01*
X1947888Y7042599D01*
X1929486Y6938236D01*
X-7904878Y6938236D01*
X-7904878Y7243488D01*
X-7905487Y7247334D01*
X-7919440Y7335431D01*
X-7919440Y7335432D01*
X-7920659Y7343126D01*
X-7928567Y7358646D01*
X-7978314Y7456281D01*
X-7978315Y7456283D01*
X-7981850Y7463220D01*
X-8068626Y7549996D01*
X-8096403Y7604513D01*
X-8086832Y7664945D01*
X-8068626Y7690004D01*
X-7981850Y7776780D01*
X-7974639Y7790931D01*
X-7955019Y7829437D01*
X1929486Y7829437D01*
X1947888Y7725074D01*
X1952218Y7717574D01*
X1973061Y7681472D01*
X2000874Y7633299D01*
X2082054Y7565181D01*
X2090192Y7562219D01*
X2090194Y7562218D01*
X2100333Y7558528D01*
X2181636Y7528937D01*
X2287608Y7528937D01*
X2368911Y7558528D01*
X2379050Y7562218D01*
X2379052Y7562219D01*
X2387190Y7565181D01*
X2468370Y7633299D01*
X2496183Y7681472D01*
X2517026Y7717574D01*
X2521356Y7725074D01*
X2539758Y7829437D01*
X2521356Y7933800D01*
X2468370Y8025575D01*
X2389886Y8091431D01*
X5488980Y8091431D01*
X5507382Y7987068D01*
X5511712Y7979568D01*
X5556039Y7902791D01*
X5560368Y7895293D01*
X5641548Y7827175D01*
X5649686Y7824213D01*
X5649688Y7824212D01*
X5686562Y7810792D01*
X5741130Y7790931D01*
X5847102Y7790931D01*
X5901670Y7810792D01*
X5938544Y7824212D01*
X5938546Y7824213D01*
X5946684Y7827175D01*
X6027864Y7895293D01*
X6032193Y7902791D01*
X6076520Y7979568D01*
X6080850Y7987068D01*
X6099252Y8091431D01*
X6080850Y8195794D01*
X6027864Y8287569D01*
X5946684Y8355687D01*
X5938546Y8358649D01*
X5938544Y8358650D01*
X5901670Y8372070D01*
X5847102Y8391931D01*
X5741130Y8391931D01*
X5686562Y8372070D01*
X5649688Y8358650D01*
X5649686Y8358649D01*
X5641548Y8355687D01*
X5560368Y8287569D01*
X5507382Y8195794D01*
X5488980Y8091431D01*
X2389886Y8091431D01*
X2387190Y8093693D01*
X2379052Y8096655D01*
X2379050Y8096656D01*
X2342176Y8110076D01*
X2287608Y8129937D01*
X2181636Y8129937D01*
X2127068Y8110076D01*
X2090194Y8096656D01*
X2090192Y8096655D01*
X2082054Y8093693D01*
X2000874Y8025575D01*
X1947888Y7933800D01*
X1929486Y7829437D01*
X-7955019Y7829437D01*
X-7924195Y7889934D01*
X-7924195Y7889935D01*
X-7920659Y7896874D01*
X-7916161Y7925270D01*
X-7905487Y7992666D01*
X-7905487Y7992668D01*
X-7904878Y7996512D01*
X-7904878Y8513488D01*
X-7920659Y8613126D01*
X-7981850Y8733220D01*
X-8068626Y8819996D01*
X-8096403Y8874513D01*
X-8086832Y8934945D01*
X-8068626Y8960004D01*
X-7981850Y9046780D01*
X-7920659Y9166874D01*
X-7904878Y9266512D01*
X-7904878Y9783488D01*
X-7916081Y9854222D01*
X-2945175Y9854222D01*
X-2943956Y9846525D01*
X-2933355Y9779595D01*
X-2925329Y9728918D01*
X-2867733Y9615880D01*
X-2778025Y9526172D01*
X-2771088Y9522637D01*
X-2771086Y9522636D01*
X-2717954Y9495564D01*
X-2664987Y9468576D01*
X-2657293Y9467357D01*
X-2657292Y9467357D01*
X-2547380Y9449949D01*
X-2539683Y9448730D01*
X-2531986Y9449949D01*
X-2422074Y9467357D01*
X-2422073Y9467357D01*
X-2414379Y9468576D01*
X-2361412Y9495564D01*
X-2308280Y9522636D01*
X-2308278Y9522637D01*
X-2301341Y9526172D01*
X-2211633Y9615880D01*
X-2154037Y9728918D01*
X-2146010Y9779595D01*
X-2139911Y9818108D01*
X1665415Y9818108D01*
X1685261Y9692804D01*
X1742857Y9579766D01*
X1832565Y9490058D01*
X1839502Y9486523D01*
X1839504Y9486522D01*
X1911283Y9449949D01*
X1945603Y9432462D01*
X1953297Y9431243D01*
X1953298Y9431243D01*
X2063210Y9413835D01*
X2070907Y9412616D01*
X2078604Y9413835D01*
X2188516Y9431243D01*
X2188517Y9431243D01*
X2196211Y9432462D01*
X2230531Y9449949D01*
X2302310Y9486522D01*
X2302312Y9486523D01*
X2309249Y9490058D01*
X2398957Y9579766D01*
X2456553Y9692804D01*
X2476399Y9818108D01*
X2456553Y9943412D01*
X2398957Y10056450D01*
X2309249Y10146158D01*
X2302312Y10149693D01*
X2302310Y10149694D01*
X2203151Y10200218D01*
X2203150Y10200218D01*
X2196211Y10203754D01*
X2188517Y10204973D01*
X2188516Y10204973D01*
X2078604Y10222381D01*
X2070907Y10223600D01*
X2063210Y10222381D01*
X1953298Y10204973D01*
X1953297Y10204973D01*
X1945603Y10203754D01*
X1938664Y10200218D01*
X1938663Y10200218D01*
X1839504Y10149694D01*
X1839502Y10149693D01*
X1832565Y10146158D01*
X1742857Y10056450D01*
X1685261Y9943412D01*
X1665415Y9818108D01*
X-2139911Y9818108D01*
X-2135410Y9846525D01*
X-2134191Y9854222D01*
X-2154037Y9979526D01*
X-2211633Y10092564D01*
X-2301341Y10182272D01*
X-2308278Y10185807D01*
X-2308280Y10185808D01*
X-2407439Y10236332D01*
X-2407440Y10236332D01*
X-2414379Y10239868D01*
X-2422073Y10241087D01*
X-2422074Y10241087D01*
X-2531986Y10258495D01*
X-2539683Y10259714D01*
X-2547380Y10258495D01*
X-2657292Y10241087D01*
X-2657293Y10241087D01*
X-2664987Y10239868D01*
X-2671926Y10236332D01*
X-2671927Y10236332D01*
X-2771086Y10185808D01*
X-2771088Y10185807D01*
X-2778025Y10182272D01*
X-2867733Y10092564D01*
X-2925329Y9979526D01*
X-2945175Y9854222D01*
X-7916081Y9854222D01*
X-7920659Y9883126D01*
X-7981850Y10003220D01*
X-8077158Y10098528D01*
X-8084095Y10102063D01*
X-8084097Y10102064D01*
X-8190312Y10156183D01*
X-8190313Y10156183D01*
X-8197252Y10159719D01*
X-8204946Y10160938D01*
X-8204947Y10160938D01*
X-8293044Y10174891D01*
X-8293046Y10174891D01*
X-8296890Y10175500D01*
X-8637607Y10175500D01*
X-8695798Y10194407D01*
X-8731762Y10243907D01*
X-8731762Y10305093D01*
X-8724917Y10321168D01*
X-8668886Y10425995D01*
X-8658108Y10442125D01*
X-8571044Y10548215D01*
X-8557326Y10561933D01*
X-8451240Y10648998D01*
X-8435112Y10659775D01*
X-8314082Y10724470D01*
X-8296155Y10731896D01*
X-8164831Y10771736D01*
X-8145805Y10775521D01*
X-8095946Y10780434D01*
X-8031371Y10786795D01*
X-8021497Y10787272D01*
X-8010750Y10787254D01*
X-7999885Y10784756D01*
X-7989011Y10787217D01*
X-7987893Y10787470D01*
X-7966040Y10789912D01*
X7945993Y10789912D01*
X7968178Y10787394D01*
G37*
%TD.AperFunction*%
%TD*%
M02*
