M48
; DRILL file {KiCad 6.0.11+dfsg-1~bpo11+1} date Thu 13 Jul 2023 09:38:17 PM
; FORMAT={-:-/ absolute / inch / decimal}
; #@! TF.CreationDate,2023-07-13T21:38:17-04:00
; #@! TF.GenerationSoftware,Kicad,Pcbnew,6.0.11+dfsg-1~bpo11+1
; #@! TF.FileFunction,Plated,1,4,PTH
FMAT,2
INCH
; #@! TA.AperFunction,Plated,PTH,ViaDrill
T1C0.0079
; #@! TA.AperFunction,Plated,PTH,ViaDrill
T2C0.0118
; #@! TA.AperFunction,Plated,PTH,ComponentDrill
T3C0.0300
%
G90
G05
T1
X-0.2654Y-0.0986
X-0.2121Y0.2445
X-0.2079Y-0.1127
X-0.2001Y0.3146
X-0.1717Y0.2791
X-0.1717Y0.2048
X-0.1322Y0.0519
X-0.1265Y-0.347
X-0.099Y-0.1269
X-0.0526Y0.0302
X-0.0469Y0.1108
X-0.0279Y-0.2926
X-0.0244Y0.0302
X-0.0206Y-0.1598
X0.0038Y-0.1598
X0.0112Y0.149
X0.0226Y-0.244
X0.0285Y0.0302
X0.0449Y-0.1598
X0.0543Y0.0302
X0.0676Y-0.1598
X0.073Y-0.2281
X0.075Y-0.3069
X0.085Y0.1518
X0.088Y0.3082
X0.088Y0.2732
X0.088Y0.2424
X0.1013Y-0.0663
X0.1135Y0.3356
X0.1196Y0.0638
X0.1231Y-0.3069
X0.1383Y0.0519
X0.1652Y0.2241
X0.1748Y-0.309
X0.1852Y0.2764
X0.1927Y0.226
X0.2114Y-0.113
X0.2281Y0.3186
X0.2549Y0.2769
X0.2785Y-0.1126
T2
X-0.1942Y-0.3127
X-0.1707Y0.1471
X-0.1Y0.388
X-0.0851Y0.2247
X-0.0466Y-0.0148
X-0.0466Y-0.0398
X-0.0466Y-0.0648
X-0.0466Y-0.0898
X-0.0466Y-0.1148
X-0.0216Y-0.0148
X-0.0216Y-0.0648
X-0.0216Y-0.1148
X0.0034Y-0.0148
X0.0034Y-0.0398
X0.0034Y-0.0648
X0.0034Y-0.0898
X0.0034Y-0.1148
X0.0284Y-0.0148
X0.0284Y-0.0648
X0.0284Y-0.1148
X0.0534Y-0.0148
X0.0534Y-0.0398
X0.0534Y-0.0648
X0.0534Y-0.0898
X0.0534Y-0.1148
X0.0815Y0.3865
X0.088Y0.3397
X0.1937Y0.0713
X0.2127Y-0.301
T3
X-0.3545Y0.375
X-0.3545Y0.325
X-0.3545Y0.275
X-0.3545Y0.225
X-0.3545Y0.175
X-0.3545Y0.125
X-0.3545Y0.075
X-0.3545Y0.025
X-0.3545Y-0.025
X-0.3545Y-0.075
X-0.3545Y-0.125
X-0.3545Y-0.175
X-0.3545Y-0.225
X-0.3545Y-0.275
X-0.3545Y-0.325
X-0.3545Y-0.375
X-0.275Y-0.4344
X-0.225Y-0.4344
X-0.175Y-0.4344
X-0.125Y-0.4344
X-0.075Y-0.4344
X-0.025Y-0.4344
X0.025Y-0.4344
X0.075Y-0.4344
X0.125Y-0.4344
X0.175Y-0.4344
X0.225Y-0.4344
X0.275Y-0.4344
X0.3533Y0.375
X0.3533Y0.325
X0.3533Y0.275
X0.3533Y0.225
X0.3533Y0.175
X0.3533Y0.125
X0.3533Y0.075
X0.3533Y0.025
X0.3533Y-0.025
X0.3533Y-0.075
X0.3533Y-0.125
X0.3533Y-0.175
X0.3533Y-0.225
X0.3533Y-0.275
X0.3533Y-0.325
X0.3533Y-0.375
T0
M30
