%TF.GenerationSoftware,KiCad,Pcbnew,6.0.11+dfsg-1~bpo11+1*%
%TF.CreationDate,2023-07-13T21:39:36-04:00*%
%TF.ProjectId,Pop-In RP2040,506f702d-496e-4205-9250-323034302e6b,rev?*%
%TF.SameCoordinates,PX5f5e100PY5f5e100*%
%TF.FileFunction,Soldermask,Bot*%
%TF.FilePolarity,Negative*%
%FSLAX46Y46*%
G04 Gerber Fmt 4.6, Leading zero omitted, Abs format (unit mm)*
G04 Created by KiCad (PCBNEW 6.0.11+dfsg-1~bpo11+1) date 2023-07-13 21:39:36*
%MOMM*%
%LPD*%
G01*
G04 APERTURE LIST*
G04 Aperture macros list*
%AMRoundRect*
0 Rectangle with rounded corners*
0 $1 Rounding radius*
0 $2 $3 $4 $5 $6 $7 $8 $9 X,Y pos of 4 corners*
0 Add a 4 corners polygon primitive as box body*
4,1,4,$2,$3,$4,$5,$6,$7,$8,$9,$2,$3,0*
0 Add four circle primitives for the rounded corners*
1,1,$1+$1,$2,$3*
1,1,$1+$1,$4,$5*
1,1,$1+$1,$6,$7*
1,1,$1+$1,$8,$9*
0 Add four rect primitives between the rounded corners*
20,1,$1+$1,$2,$3,$4,$5,0*
20,1,$1+$1,$4,$5,$6,$7,0*
20,1,$1+$1,$6,$7,$8,$9,0*
20,1,$1+$1,$8,$9,$2,$3,0*%
G04 Aperture macros list end*
%ADD10R,3.200000X3.200000*%
%ADD11RoundRect,0.225000X-0.675000X-0.225000X0.675000X-0.225000X0.675000X0.225000X-0.675000X0.225000X0*%
%ADD12RoundRect,0.225000X0.225000X-0.675000X0.225000X0.675000X-0.225000X0.675000X-0.225000X-0.675000X0*%
%ADD13RoundRect,0.225000X0.675000X0.225000X-0.675000X0.225000X-0.675000X-0.225000X0.675000X-0.225000X0*%
G04 APERTURE END LIST*
D10*
%TO.C,U1*%
X84622Y-1638835D03*
%TD*%
D11*
%TO.C,REF\u002A\u002A*%
X-9005378Y9525000D03*
X-9005378Y8255000D03*
X-9005378Y6985000D03*
X-9005378Y5715000D03*
X-9005378Y4445000D03*
X-9005378Y3175000D03*
X-9005378Y1905000D03*
X-9005378Y635000D03*
X-9005378Y-635000D03*
X-9005378Y-1905000D03*
X-9005378Y-3175000D03*
X-9005378Y-4445000D03*
X-9005378Y-5715000D03*
X-9005378Y-6985000D03*
X-9005378Y-8255000D03*
X-9005378Y-9525000D03*
D12*
X-6985000Y-11034588D03*
X-5715000Y-11034588D03*
X-4445000Y-11034588D03*
X-3175000Y-11034588D03*
X-1905000Y-11034588D03*
X-635000Y-11034588D03*
X635000Y-11034588D03*
X1905000Y-11034588D03*
X3175000Y-11034588D03*
X4445000Y-11034588D03*
X5715000Y-11034588D03*
X6985000Y-11034588D03*
D13*
X8974622Y-9525000D03*
X8974622Y-8255000D03*
X8974622Y-6985000D03*
X8974622Y-5715000D03*
X8974622Y-4445000D03*
X8974622Y-3175000D03*
X8974622Y-1905000D03*
X8974622Y-635000D03*
X8974622Y635000D03*
X8974622Y1905000D03*
X8974622Y3175000D03*
X8974622Y4445000D03*
X8974622Y5715000D03*
X8974622Y6985000D03*
X8974622Y8255000D03*
X8974622Y9525000D03*
%TD*%
M02*
