%TF.GenerationSoftware,KiCad,Pcbnew,6.0.11+dfsg-1~bpo11+1*%
%TF.CreationDate,2023-07-13T21:39:36-04:00*%
%TF.ProjectId,Pop-In RP2040,506f702d-496e-4205-9250-323034302e6b,rev?*%
%TF.SameCoordinates,PX5f5e100PY5f5e100*%
%TF.FileFunction,Copper,L2,Inr*%
%TF.FilePolarity,Positive*%
%FSLAX46Y46*%
G04 Gerber Fmt 4.6, Leading zero omitted, Abs format (unit mm)*
G04 Created by KiCad (PCBNEW 6.0.11+dfsg-1~bpo11+1) date 2023-07-13 21:39:36*
%MOMM*%
%LPD*%
G01*
G04 APERTURE LIST*
G04 Aperture macros list*
%AMRoundRect*
0 Rectangle with rounded corners*
0 $1 Rounding radius*
0 $2 $3 $4 $5 $6 $7 $8 $9 X,Y pos of 4 corners*
0 Add a 4 corners polygon primitive as box body*
4,1,4,$2,$3,$4,$5,$6,$7,$8,$9,$2,$3,0*
0 Add four circle primitives for the rounded corners*
1,1,$1+$1,$2,$3*
1,1,$1+$1,$4,$5*
1,1,$1+$1,$6,$7*
1,1,$1+$1,$8,$9*
0 Add four rect primitives between the rounded corners*
20,1,$1+$1,$2,$3,$4,$5,0*
20,1,$1+$1,$4,$5,$6,$7,0*
20,1,$1+$1,$6,$7,$8,$9,0*
20,1,$1+$1,$8,$9,$2,$3,0*%
G04 Aperture macros list end*
%TA.AperFunction,CastellatedPad*%
%ADD10RoundRect,0.225000X-0.675000X-0.225000X0.675000X-0.225000X0.675000X0.225000X-0.675000X0.225000X0*%
%TD*%
%TA.AperFunction,CastellatedPad*%
%ADD11RoundRect,0.225000X0.225000X-0.675000X0.225000X0.675000X-0.225000X0.675000X-0.225000X-0.675000X0*%
%TD*%
%TA.AperFunction,CastellatedPad*%
%ADD12RoundRect,0.225000X0.675000X0.225000X-0.675000X0.225000X-0.675000X-0.225000X0.675000X-0.225000X0*%
%TD*%
%TA.AperFunction,ViaPad*%
%ADD13C,0.300000*%
%TD*%
%TA.AperFunction,ViaPad*%
%ADD14C,0.400000*%
%TD*%
%TA.AperFunction,Conductor*%
%ADD15C,0.200000*%
%TD*%
G04 APERTURE END LIST*
D10*
%TO.N,io0*%
%TO.C,REF\u002A\u002A*%
X-9005378Y9525000D03*
%TO.N,io1*%
X-9005378Y8255000D03*
%TO.N,io2*%
X-9005378Y6985000D03*
%TO.N,io3*%
X-9005378Y5715000D03*
%TO.N,io4*%
X-9005378Y4445000D03*
%TO.N,io5*%
X-9005378Y3175000D03*
%TO.N,io6*%
X-9005378Y1905000D03*
%TO.N,io7*%
X-9005378Y635000D03*
%TO.N,io8*%
X-9005378Y-635000D03*
%TO.N,io9*%
X-9005378Y-1905000D03*
%TO.N,io10*%
X-9005378Y-3175000D03*
%TO.N,io11*%
X-9005378Y-4445000D03*
%TO.N,io12*%
X-9005378Y-5715000D03*
%TO.N,io13*%
X-9005378Y-6985000D03*
%TO.N,io14*%
X-9005378Y-8255000D03*
%TO.N,io15*%
X-9005378Y-9525000D03*
D11*
%TO.N,GND*%
X-6985000Y-11034588D03*
%TO.N,+3V3*%
X-5715000Y-11034588D03*
%TO.N,ADC_REF*%
X-4445000Y-11034588D03*
%TO.N,N/C*%
X-3175000Y-11034588D03*
%TO.N,SWCLK*%
X-1905000Y-11034588D03*
%TO.N,SWDIO*%
X-635000Y-11034588D03*
%TO.N,Reset*%
X635000Y-11034588D03*
%TO.N,BootMode*%
X1905000Y-11034588D03*
%TO.N,USB_D+*%
X3175000Y-11034588D03*
%TO.N,USB_D-*%
X4445000Y-11034588D03*
%TO.N,+3V3*%
X5715000Y-11034588D03*
%TO.N,GND*%
X6985000Y-11034588D03*
D12*
%TO.N,io16*%
X8974622Y-9525000D03*
%TO.N,io17*%
X8974622Y-8255000D03*
%TO.N,io18*%
X8974622Y-6985000D03*
%TO.N,io19*%
X8974622Y-5715000D03*
%TO.N,io20*%
X8974622Y-4445000D03*
%TO.N,io21*%
X8974622Y-3175000D03*
%TO.N,io22*%
X8974622Y-1905000D03*
%TO.N,io23*%
X8974622Y-635000D03*
%TO.N,io24*%
X8974622Y635000D03*
%TO.N,io25*%
X8974622Y1905000D03*
%TO.N,io26*%
X8974622Y3175000D03*
%TO.N,io27*%
X8974622Y4445000D03*
%TO.N,io28*%
X8974622Y5715000D03*
%TO.N,io29*%
X8974622Y6985000D03*
%TO.N,N/C*%
X8974622Y8255000D03*
X8974622Y9525000D03*
%TD*%
D13*
%TO.N,SWCLK*%
X1140853Y-4059506D03*
%TO.N,io24*%
X4895280Y5740361D03*
%TO.N,io25*%
X5794116Y8091431D03*
D14*
%TO.N,GND*%
X-4932780Y-7943690D03*
X2070907Y9818108D03*
X5401569Y-7644144D03*
D13*
X2573111Y-1683514D03*
D14*
X-2539683Y9854222D03*
X-4335767Y3735537D03*
X4921047Y1811368D03*
D13*
%TO.N,+3V3*%
X6474322Y7034187D03*
%TO.N,QSPI_SCLK*%
X-1335378Y766165D03*
X2234622Y6938236D03*
%TO.N,QSPI SS*%
X1905000Y-7795080D03*
X-2515378Y-3222861D03*
%TO.N,QSPI_SD3*%
X2234622Y7829437D03*
X-620542Y766165D03*
%TO.N,QSPI_SD0*%
X-1190807Y2814110D03*
X2234622Y6155823D03*
%TO.N,Reset*%
X1853434Y-5793710D03*
%TO.N,Net-(R2-Pad2)*%
X4439261Y-7848835D03*
X1379622Y766165D03*
%TO.N,Net-(R1-Pad2)*%
X722842Y766165D03*
X3127843Y-7795080D03*
%TO.N,Net-(C16-Pad1)*%
X-523081Y-4059506D03*
X-3212786Y-8812745D03*
%TO.N,Net-(C17-Pad1)*%
X96088Y-4059506D03*
X-707832Y-7433164D03*
%TO.N,Net-(LED1-Pad2)*%
X4194886Y5692423D03*
X4705027Y7019927D03*
%TO.N,Net-(C13-Pad2)*%
X3038990Y1620399D03*
X-4360333Y5202691D03*
%TO.N,ADC_REF*%
X-5387572Y6209911D03*
%TO.N,SWDIO*%
X1717811Y-4059506D03*
%TD*%
D15*
%TO.N,SWCLK*%
X977999Y-6409011D02*
X-1905000Y-9292010D01*
X-1905000Y-9292010D02*
X-1905000Y-11034588D01*
X977999Y-4222360D02*
X977999Y-6409011D01*
X1140853Y-4059506D02*
X977999Y-4222360D01*
%TO.N,io24*%
X8974622Y635000D02*
X7853226Y635000D01*
X4895280Y3592946D02*
X4895280Y5740361D01*
X7853226Y635000D02*
X4895280Y3592946D01*
%TO.N,io25*%
X7828522Y1905000D02*
X8974622Y1905000D01*
X5794116Y8091431D02*
X6024322Y7861225D01*
X6024322Y7861225D02*
X6024322Y3709199D01*
X6024322Y3709199D02*
X7828522Y1905000D01*
%TO.N,QSPI_SCLK*%
X3152187Y6020671D02*
X3152187Y3286715D01*
X3152187Y3286715D02*
X2398393Y2532921D01*
X2398393Y2532921D02*
X431379Y2532921D01*
X431379Y2532921D02*
X-1335378Y766165D01*
X2234622Y6938236D02*
X3152187Y6020671D01*
%TO.N,QSPI SS*%
X2302859Y-4004519D02*
X2302859Y-5475258D01*
X-2199404Y-3538835D02*
X1987278Y-3538835D01*
X2302859Y-5475258D02*
X2308157Y-5480556D01*
X2303293Y-4004085D02*
X2302859Y-4004519D01*
X2303293Y-3854850D02*
X2303293Y-4004085D01*
X1987278Y-3538835D02*
X2303293Y-3854850D01*
X2308157Y-5480556D02*
X2308157Y-6208255D01*
X-2515378Y-3222861D02*
X-2199404Y-3538835D01*
X2296158Y-6220254D02*
X2296158Y-7403922D01*
X2296158Y-7403922D02*
X1905000Y-7795080D01*
X2308157Y-6208255D02*
X2296158Y-6220254D01*
%TO.N,QSPI_SD3*%
X3552187Y6511872D02*
X3552187Y3121029D01*
X2234622Y7829437D02*
X3552187Y6511872D01*
X3552187Y3121029D02*
X2564079Y2132921D01*
X746214Y2132921D02*
X-620542Y766165D01*
X2564079Y2132921D02*
X746214Y2132921D01*
%TO.N,QSPI_SD0*%
X2232707Y2932921D02*
X-1071996Y2932921D01*
X2234622Y6155823D02*
X2752187Y5638258D01*
X2752187Y3452401D02*
X2232707Y2932921D01*
X-1071996Y2932921D02*
X-1190807Y2814110D01*
X2752187Y5638258D02*
X2752187Y3452401D01*
%TO.N,Reset*%
X1853434Y-6664948D02*
X1853434Y-5793710D01*
X635000Y-9859825D02*
X635000Y-11034588D01*
X635000Y-9859825D02*
X626351Y-9851176D01*
X626351Y-9851176D02*
X626351Y-8286252D01*
X626351Y-8286252D02*
X626351Y-7892030D01*
X626351Y-7892030D02*
X1853434Y-6664948D01*
%TO.N,Net-(R2-Pad2)*%
X3969942Y-7379516D02*
X4439261Y-7848835D01*
X1445730Y766165D02*
X3430696Y766165D01*
X3969942Y226919D02*
X3969942Y-7379516D01*
X3430696Y766165D02*
X3969942Y226919D01*
%TO.N,Net-(R1-Pad2)*%
X722842Y768847D02*
X1193661Y298028D01*
X3569942Y-110082D02*
X3569942Y-7352981D01*
X3161833Y298028D02*
X3569942Y-110082D01*
X1193661Y298028D02*
X3161833Y298028D01*
X3569942Y-7352981D02*
X3127843Y-7795080D01*
%TO.N,Net-(C16-Pad1)*%
X-2723810Y-8812745D02*
X-3212786Y-8812745D01*
X-523081Y-4059506D02*
X-523081Y-6612016D01*
X-523081Y-6612016D02*
X-2723810Y-8812745D01*
%TO.N,Net-(C17-Pad1)*%
X98468Y-6626864D02*
X-707832Y-7433164D01*
X98468Y-4061886D02*
X98468Y-6626864D01*
X96088Y-4059506D02*
X98468Y-4061886D01*
%TO.N,Net-(LED1-Pad2)*%
X4194886Y6509786D02*
X4705027Y7019927D01*
X4194886Y5692423D02*
X4194886Y6509786D01*
%TO.N,Net-(C13-Pad2)*%
X-1820372Y269041D02*
X-410679Y269041D01*
X-1987738Y266151D02*
X-1823262Y266151D01*
X-2508547Y786959D02*
X-1987738Y266151D01*
X-2508547Y3350905D02*
X-2508547Y786959D01*
X940678Y1620399D02*
X3038990Y1620399D01*
X-4360333Y5202691D02*
X-2508547Y3350905D01*
X-1823262Y266151D02*
X-1820372Y269041D01*
X-410679Y269041D02*
X940678Y1620399D01*
%TO.N,ADC_REF*%
X-5369856Y6192195D02*
X-5369856Y3081129D01*
X-4432780Y2144053D02*
X-4432780Y-11022368D01*
X-5369856Y3081129D02*
X-4432780Y2144053D01*
X-4432780Y-11022368D02*
X-4445000Y-11034588D01*
%TO.N,SWDIO*%
X-635000Y-8587696D02*
X-635000Y-10934588D01*
X1717811Y-4120044D02*
X1386672Y-4451183D01*
X-210003Y-8176759D02*
X-224063Y-8176759D01*
X-210003Y-8162698D02*
X-210003Y-8176759D01*
X1386672Y-6566024D02*
X-210003Y-8162698D01*
X1386672Y-4451183D02*
X1386672Y-6566024D01*
X-224063Y-8176759D02*
X-635000Y-8587696D01*
X1717811Y-4059506D02*
X1717811Y-4120044D01*
%TD*%
M02*
