%TF.GenerationSoftware,KiCad,Pcbnew,6.0.11+dfsg-1~bpo11+1*%
%TF.CreationDate,2023-07-13T21:39:36-04:00*%
%TF.ProjectId,Pop-In RP2040,506f702d-496e-4205-9250-323034302e6b,rev?*%
%TF.SameCoordinates,PX5f5e100PY5f5e100*%
%TF.FileFunction,Copper,L4,Bot*%
%TF.FilePolarity,Positive*%
%FSLAX46Y46*%
G04 Gerber Fmt 4.6, Leading zero omitted, Abs format (unit mm)*
G04 Created by KiCad (PCBNEW 6.0.11+dfsg-1~bpo11+1) date 2023-07-13 21:39:36*
%MOMM*%
%LPD*%
G01*
G04 APERTURE LIST*
G04 Aperture macros list*
%AMRoundRect*
0 Rectangle with rounded corners*
0 $1 Rounding radius*
0 $2 $3 $4 $5 $6 $7 $8 $9 X,Y pos of 4 corners*
0 Add a 4 corners polygon primitive as box body*
4,1,4,$2,$3,$4,$5,$6,$7,$8,$9,$2,$3,0*
0 Add four circle primitives for the rounded corners*
1,1,$1+$1,$2,$3*
1,1,$1+$1,$4,$5*
1,1,$1+$1,$6,$7*
1,1,$1+$1,$8,$9*
0 Add four rect primitives between the rounded corners*
20,1,$1+$1,$2,$3,$4,$5,0*
20,1,$1+$1,$4,$5,$6,$7,0*
20,1,$1+$1,$6,$7,$8,$9,0*
20,1,$1+$1,$8,$9,$2,$3,0*%
G04 Aperture macros list end*
%TA.AperFunction,HeatsinkPad*%
%ADD10R,3.200000X3.200000*%
%TD*%
%TA.AperFunction,CastellatedPad*%
%ADD11RoundRect,0.225000X-0.675000X-0.225000X0.675000X-0.225000X0.675000X0.225000X-0.675000X0.225000X0*%
%TD*%
%TA.AperFunction,CastellatedPad*%
%ADD12RoundRect,0.225000X0.225000X-0.675000X0.225000X0.675000X-0.225000X0.675000X-0.225000X-0.675000X0*%
%TD*%
%TA.AperFunction,CastellatedPad*%
%ADD13RoundRect,0.225000X0.675000X0.225000X-0.675000X0.225000X-0.675000X-0.225000X0.675000X-0.225000X0*%
%TD*%
%TA.AperFunction,ViaPad*%
%ADD14C,0.300000*%
%TD*%
%TA.AperFunction,ViaPad*%
%ADD15C,0.400000*%
%TD*%
G04 APERTURE END LIST*
D10*
%TO.P,U1,57,GND*%
%TO.N,GND*%
X84622Y-1638835D03*
%TD*%
D11*
%TO.P,REF\u002A\u002A,1*%
%TO.N,io0*%
X-9005378Y9525000D03*
%TO.P,REF\u002A\u002A,2*%
%TO.N,io1*%
X-9005378Y8255000D03*
%TO.P,REF\u002A\u002A,3*%
%TO.N,io2*%
X-9005378Y6985000D03*
%TO.P,REF\u002A\u002A,4*%
%TO.N,io3*%
X-9005378Y5715000D03*
%TO.P,REF\u002A\u002A,5*%
%TO.N,io4*%
X-9005378Y4445000D03*
%TO.P,REF\u002A\u002A,6*%
%TO.N,io5*%
X-9005378Y3175000D03*
%TO.P,REF\u002A\u002A,7*%
%TO.N,io6*%
X-9005378Y1905000D03*
%TO.P,REF\u002A\u002A,8*%
%TO.N,io7*%
X-9005378Y635000D03*
%TO.P,REF\u002A\u002A,9*%
%TO.N,io8*%
X-9005378Y-635000D03*
%TO.P,REF\u002A\u002A,10*%
%TO.N,io9*%
X-9005378Y-1905000D03*
%TO.P,REF\u002A\u002A,11*%
%TO.N,io10*%
X-9005378Y-3175000D03*
%TO.P,REF\u002A\u002A,12*%
%TO.N,io11*%
X-9005378Y-4445000D03*
%TO.P,REF\u002A\u002A,13*%
%TO.N,io12*%
X-9005378Y-5715000D03*
%TO.P,REF\u002A\u002A,14*%
%TO.N,io13*%
X-9005378Y-6985000D03*
%TO.P,REF\u002A\u002A,15*%
%TO.N,io14*%
X-9005378Y-8255000D03*
%TO.P,REF\u002A\u002A,16*%
%TO.N,io15*%
X-9005378Y-9525000D03*
D12*
%TO.P,REF\u002A\u002A,17*%
%TO.N,GND*%
X-6985000Y-11034588D03*
%TO.P,REF\u002A\u002A,18*%
%TO.N,+3V3*%
X-5715000Y-11034588D03*
%TO.P,REF\u002A\u002A,19*%
%TO.N,ADC_REF*%
X-4445000Y-11034588D03*
%TO.P,REF\u002A\u002A,20*%
%TO.N,N/C*%
X-3175000Y-11034588D03*
%TO.P,REF\u002A\u002A,21*%
%TO.N,SWCLK*%
X-1905000Y-11034588D03*
%TO.P,REF\u002A\u002A,22*%
%TO.N,SWDIO*%
X-635000Y-11034588D03*
%TO.P,REF\u002A\u002A,23*%
%TO.N,Reset*%
X635000Y-11034588D03*
%TO.P,REF\u002A\u002A,24*%
%TO.N,BootMode*%
X1905000Y-11034588D03*
%TO.P,REF\u002A\u002A,25*%
%TO.N,USB_D+*%
X3175000Y-11034588D03*
%TO.P,REF\u002A\u002A,26*%
%TO.N,USB_D-*%
X4445000Y-11034588D03*
%TO.P,REF\u002A\u002A,27*%
%TO.N,+3V3*%
X5715000Y-11034588D03*
%TO.P,REF\u002A\u002A,28*%
%TO.N,GND*%
X6985000Y-11034588D03*
D13*
%TO.P,REF\u002A\u002A,29*%
%TO.N,io16*%
X8974622Y-9525000D03*
%TO.P,REF\u002A\u002A,30*%
%TO.N,io17*%
X8974622Y-8255000D03*
%TO.P,REF\u002A\u002A,31*%
%TO.N,io18*%
X8974622Y-6985000D03*
%TO.P,REF\u002A\u002A,32*%
%TO.N,io19*%
X8974622Y-5715000D03*
%TO.P,REF\u002A\u002A,33*%
%TO.N,io20*%
X8974622Y-4445000D03*
%TO.P,REF\u002A\u002A,34*%
%TO.N,io21*%
X8974622Y-3175000D03*
%TO.P,REF\u002A\u002A,35*%
%TO.N,io22*%
X8974622Y-1905000D03*
%TO.P,REF\u002A\u002A,36*%
%TO.N,io23*%
X8974622Y-635000D03*
%TO.P,REF\u002A\u002A,37*%
%TO.N,io24*%
X8974622Y635000D03*
%TO.P,REF\u002A\u002A,38*%
%TO.N,io25*%
X8974622Y1905000D03*
%TO.P,REF\u002A\u002A,39*%
%TO.N,io26*%
X8974622Y3175000D03*
%TO.P,REF\u002A\u002A,40*%
%TO.N,io27*%
X8974622Y4445000D03*
%TO.P,REF\u002A\u002A,41*%
%TO.N,io28*%
X8974622Y5715000D03*
%TO.P,REF\u002A\u002A,42*%
%TO.N,io29*%
X8974622Y6985000D03*
%TO.P,REF\u002A\u002A,43*%
%TO.N,N/C*%
X8974622Y8255000D03*
%TO.P,REF\u002A\u002A,44*%
X8974622Y9525000D03*
%TD*%
D14*
%TO.N,io24*%
X4895280Y5740361D03*
D15*
%TO.N,GND*%
X1356603Y-2281042D03*
X-1183397Y-1011042D03*
X1356603Y-376042D03*
X86603Y-2281042D03*
X1356603Y-1646042D03*
X-1183397Y-2916042D03*
X-548397Y-376042D03*
X-4932780Y-7943690D03*
X-1183397Y-376042D03*
X2070907Y9818108D03*
X5401569Y-7644144D03*
X721603Y-1646042D03*
D14*
X-6740879Y-2505449D03*
X2573111Y-1683514D03*
X7075116Y-2861066D03*
D15*
X86603Y-1011042D03*
X721603Y-376042D03*
X86603Y-1646042D03*
X1356603Y-1011042D03*
X1356603Y-2916042D03*
X-548397Y-2916042D03*
X-2539683Y9854222D03*
X-2161912Y5707368D03*
X-548397Y-1646042D03*
X-1183397Y-1646042D03*
X-4335767Y3735537D03*
X721603Y-2916042D03*
X4921047Y1811368D03*
X86603Y-2916042D03*
X-1183397Y-2281042D03*
X86603Y-376042D03*
D14*
%TO.N,+3V3*%
X6474322Y7034187D03*
%TO.N,Net-(C16-Pad1)*%
X-3212786Y-8812745D03*
%TO.N,Net-(C17-Pad1)*%
X-707832Y-7433164D03*
%TO.N,Net-(LED1-Pad2)*%
X4194886Y5692423D03*
X4705027Y7019927D03*
%TD*%
%TA.AperFunction,Conductor*%
%TO.N,GND*%
G36*
X7968178Y10787394D02*
G01*
X7979651Y10784756D01*
X7990526Y10787217D01*
X8001673Y10787197D01*
X8001671Y10786190D01*
X8011573Y10786803D01*
X8126280Y10775504D01*
X8145314Y10771718D01*
X8276638Y10731880D01*
X8294561Y10724456D01*
X8415589Y10659764D01*
X8431723Y10648983D01*
X8537807Y10561923D01*
X8551524Y10548206D01*
X8604017Y10484243D01*
X8638584Y10442123D01*
X8649365Y10425988D01*
X8705393Y10321168D01*
X8716149Y10260936D01*
X8689448Y10205885D01*
X8635487Y10177042D01*
X8618083Y10175500D01*
X8266134Y10175500D01*
X8262290Y10174891D01*
X8262288Y10174891D01*
X8174191Y10160938D01*
X8174190Y10160938D01*
X8166496Y10159719D01*
X8159557Y10156183D01*
X8159556Y10156183D01*
X8053341Y10102064D01*
X8053339Y10102063D01*
X8046402Y10098528D01*
X7951094Y10003220D01*
X7889903Y9883126D01*
X7874122Y9783488D01*
X7874122Y9266512D01*
X7889903Y9166874D01*
X7951094Y9046780D01*
X8037870Y8960004D01*
X8065647Y8905487D01*
X8056076Y8845055D01*
X8037870Y8819996D01*
X7951094Y8733220D01*
X7947559Y8726283D01*
X7947558Y8726281D01*
X7893724Y8620625D01*
X7889903Y8613126D01*
X7874122Y8513488D01*
X7874122Y7996512D01*
X7874731Y7992668D01*
X7874731Y7992666D01*
X7885406Y7925270D01*
X7889903Y7896874D01*
X7893439Y7889935D01*
X7893439Y7889934D01*
X7943884Y7790931D01*
X7951094Y7776780D01*
X8037870Y7690004D01*
X8065647Y7635487D01*
X8056076Y7575055D01*
X8037870Y7549996D01*
X7951094Y7463220D01*
X7947559Y7456283D01*
X7947558Y7456281D01*
X7895388Y7353891D01*
X7889903Y7343126D01*
X7888684Y7335432D01*
X7888684Y7335431D01*
X7874881Y7248280D01*
X7874122Y7243488D01*
X7874122Y6726512D01*
X7874731Y6722668D01*
X7874731Y6722666D01*
X7888183Y6637736D01*
X7889903Y6626874D01*
X7893439Y6619935D01*
X7893439Y6619934D01*
X7939739Y6529066D01*
X7951094Y6506780D01*
X8037870Y6420004D01*
X8065647Y6365487D01*
X8056076Y6305055D01*
X8037870Y6279996D01*
X7951094Y6193220D01*
X7947559Y6186283D01*
X7947558Y6186281D01*
X7900544Y6094011D01*
X7889903Y6073126D01*
X7888684Y6065432D01*
X7888684Y6065431D01*
X7881690Y6021271D01*
X7874122Y5973488D01*
X7874122Y5456512D01*
X7874731Y5452668D01*
X7874731Y5452666D01*
X7884446Y5391331D01*
X7889903Y5356874D01*
X7893439Y5349935D01*
X7893439Y5349934D01*
X7915288Y5307054D01*
X7951094Y5236780D01*
X8037870Y5150004D01*
X8065647Y5095487D01*
X8056076Y5035055D01*
X8037870Y5009996D01*
X7951094Y4923220D01*
X7889903Y4803126D01*
X7874122Y4703488D01*
X7874122Y4186512D01*
X7874731Y4182668D01*
X7874731Y4182666D01*
X7885706Y4113375D01*
X7889903Y4086874D01*
X7893439Y4079935D01*
X7893439Y4079934D01*
X7943586Y3981516D01*
X7951094Y3966780D01*
X8037870Y3880004D01*
X8065647Y3825487D01*
X8056076Y3765055D01*
X8037870Y3739996D01*
X7951094Y3653220D01*
X7947559Y3646283D01*
X7947558Y3646281D01*
X7893439Y3540066D01*
X7889903Y3533126D01*
X7874122Y3433488D01*
X7874122Y2916512D01*
X7889903Y2816874D01*
X7893439Y2809935D01*
X7893439Y2809934D01*
X7940141Y2718277D01*
X7951094Y2696780D01*
X8037870Y2610004D01*
X8065647Y2555487D01*
X8056076Y2495055D01*
X8037870Y2469996D01*
X7951094Y2383220D01*
X7889903Y2263126D01*
X7874122Y2163488D01*
X7874122Y1646512D01*
X7874731Y1642668D01*
X7874731Y1642666D01*
X7878994Y1615754D01*
X7889903Y1546874D01*
X7893439Y1539935D01*
X7893439Y1539934D01*
X7901270Y1524566D01*
X7951094Y1426780D01*
X8037870Y1340004D01*
X8065647Y1285487D01*
X8056076Y1225055D01*
X8037870Y1199996D01*
X7951094Y1113220D01*
X7947559Y1106283D01*
X7947558Y1106281D01*
X7903077Y1018982D01*
X7889903Y993126D01*
X7888684Y985432D01*
X7888684Y985431D01*
X7882578Y946879D01*
X7874122Y893488D01*
X7874122Y376512D01*
X7889903Y276874D01*
X7951094Y156780D01*
X8037870Y70004D01*
X8065647Y15487D01*
X8056076Y-44945D01*
X8037870Y-70004D01*
X7951094Y-156780D01*
X7889903Y-276874D01*
X7874122Y-376512D01*
X7874122Y-893488D01*
X7889903Y-993126D01*
X7951094Y-1113220D01*
X8037870Y-1199996D01*
X8065647Y-1254513D01*
X8056076Y-1314945D01*
X8037870Y-1340004D01*
X7951094Y-1426780D01*
X7889903Y-1546874D01*
X7874122Y-1646512D01*
X7874122Y-2163488D01*
X7889903Y-2263126D01*
X7951094Y-2383220D01*
X8037870Y-2469996D01*
X8065647Y-2524513D01*
X8056076Y-2584945D01*
X8037870Y-2610004D01*
X7951094Y-2696780D01*
X7947559Y-2703717D01*
X7947558Y-2703719D01*
X7919903Y-2757996D01*
X7889903Y-2816874D01*
X7874122Y-2916512D01*
X7874122Y-3433488D01*
X7889903Y-3533126D01*
X7951094Y-3653220D01*
X8037870Y-3739996D01*
X8065647Y-3794513D01*
X8056076Y-3854945D01*
X8037870Y-3880004D01*
X7951094Y-3966780D01*
X7889903Y-4086874D01*
X7888684Y-4094568D01*
X7888684Y-4094569D01*
X7879059Y-4155339D01*
X7874122Y-4186512D01*
X7874122Y-4703488D01*
X7889903Y-4803126D01*
X7951094Y-4923220D01*
X8037870Y-5009996D01*
X8065647Y-5064513D01*
X8056076Y-5124945D01*
X8037870Y-5150004D01*
X7951094Y-5236780D01*
X7889903Y-5356874D01*
X7874122Y-5456512D01*
X7874122Y-5973488D01*
X7874731Y-5977332D01*
X7874731Y-5977334D01*
X7875526Y-5982350D01*
X7889903Y-6073126D01*
X7893439Y-6080065D01*
X7893439Y-6080066D01*
X7904078Y-6100945D01*
X7951094Y-6193220D01*
X8037870Y-6279996D01*
X8065647Y-6334513D01*
X8056076Y-6394945D01*
X8037870Y-6420004D01*
X7951094Y-6506780D01*
X7889903Y-6626874D01*
X7874122Y-6726512D01*
X7874122Y-7243488D01*
X7889903Y-7343126D01*
X7893439Y-7350065D01*
X7893439Y-7350066D01*
X7935780Y-7433164D01*
X7951094Y-7463220D01*
X8037870Y-7549996D01*
X8065647Y-7604513D01*
X8056076Y-7664945D01*
X8037870Y-7690004D01*
X7951094Y-7776780D01*
X7947559Y-7783717D01*
X7947558Y-7783719D01*
X7937423Y-7803610D01*
X7889903Y-7896874D01*
X7874122Y-7996512D01*
X7874122Y-8513488D01*
X7874731Y-8517332D01*
X7874731Y-8517334D01*
X7888483Y-8604158D01*
X7889903Y-8613126D01*
X7893439Y-8620065D01*
X7893439Y-8620066D01*
X7939660Y-8710779D01*
X7951094Y-8733220D01*
X8037870Y-8819996D01*
X8065647Y-8874513D01*
X8056076Y-8934945D01*
X8037870Y-8960004D01*
X7951094Y-9046780D01*
X7947559Y-9053717D01*
X7947558Y-9053719D01*
X7898376Y-9150245D01*
X7889903Y-9166874D01*
X7874122Y-9266512D01*
X7874122Y-9783488D01*
X7889903Y-9883126D01*
X7951094Y-10003220D01*
X8046402Y-10098528D01*
X8053339Y-10102063D01*
X8053341Y-10102064D01*
X8159556Y-10156183D01*
X8166496Y-10159719D01*
X8174190Y-10160938D01*
X8174191Y-10160938D01*
X8262288Y-10174891D01*
X8262290Y-10174891D01*
X8266134Y-10175500D01*
X8622265Y-10175500D01*
X8680456Y-10194407D01*
X8716420Y-10243907D01*
X8717001Y-10303240D01*
X8716096Y-10306225D01*
X8708671Y-10324150D01*
X8643981Y-10445181D01*
X8633199Y-10461318D01*
X8546141Y-10567402D01*
X8532422Y-10581122D01*
X8426331Y-10668192D01*
X8410208Y-10678964D01*
X8289176Y-10743660D01*
X8271255Y-10751084D01*
X8214576Y-10768279D01*
X8139923Y-10790926D01*
X8120890Y-10794712D01*
X8102513Y-10796523D01*
X8006581Y-10805974D01*
X7996714Y-10806450D01*
X7985844Y-10806431D01*
X7974976Y-10803932D01*
X7964101Y-10806393D01*
X7963850Y-10806450D01*
X7962982Y-10806646D01*
X7941132Y-10809088D01*
X7733999Y-10809088D01*
X7675808Y-10790181D01*
X7639844Y-10740681D01*
X7634999Y-10710088D01*
X7634999Y-10330032D01*
X7634390Y-10322290D01*
X7620456Y-10234313D01*
X7615702Y-10219680D01*
X7561654Y-10113604D01*
X7552612Y-10101159D01*
X7468431Y-10016978D01*
X7455981Y-10007933D01*
X7448971Y-10004361D01*
X7437719Y-10002579D01*
X7435000Y-10007915D01*
X7435000Y-10710088D01*
X7416093Y-10768279D01*
X7366593Y-10804243D01*
X7336000Y-10809088D01*
X6634000Y-10809088D01*
X6575809Y-10790181D01*
X6539845Y-10740681D01*
X6535000Y-10710088D01*
X6535000Y-10012922D01*
X6531479Y-10002087D01*
X6525492Y-10002087D01*
X6514019Y-10007933D01*
X6501566Y-10016980D01*
X6420358Y-10098189D01*
X6365842Y-10125967D01*
X6305409Y-10116396D01*
X6280350Y-10098190D01*
X6193220Y-10011060D01*
X6186283Y-10007525D01*
X6186281Y-10007524D01*
X6080066Y-9953405D01*
X6080065Y-9953405D01*
X6073126Y-9949869D01*
X6065432Y-9948650D01*
X6065431Y-9948650D01*
X5977334Y-9934697D01*
X5977332Y-9934697D01*
X5973488Y-9934088D01*
X5456512Y-9934088D01*
X5452668Y-9934697D01*
X5452666Y-9934697D01*
X5364569Y-9948650D01*
X5364568Y-9948650D01*
X5356874Y-9949869D01*
X5349935Y-9953405D01*
X5349934Y-9953405D01*
X5243719Y-10007524D01*
X5243717Y-10007525D01*
X5236780Y-10011060D01*
X5150004Y-10097836D01*
X5095487Y-10125613D01*
X5035055Y-10116042D01*
X5009996Y-10097836D01*
X4923220Y-10011060D01*
X4916283Y-10007525D01*
X4916281Y-10007524D01*
X4810066Y-9953405D01*
X4810065Y-9953405D01*
X4803126Y-9949869D01*
X4795432Y-9948650D01*
X4795431Y-9948650D01*
X4707334Y-9934697D01*
X4707332Y-9934697D01*
X4703488Y-9934088D01*
X4186512Y-9934088D01*
X4182668Y-9934697D01*
X4182666Y-9934697D01*
X4094569Y-9948650D01*
X4094568Y-9948650D01*
X4086874Y-9949869D01*
X4079935Y-9953405D01*
X4079934Y-9953405D01*
X3973719Y-10007524D01*
X3973717Y-10007525D01*
X3966780Y-10011060D01*
X3880004Y-10097836D01*
X3825487Y-10125613D01*
X3765055Y-10116042D01*
X3739996Y-10097836D01*
X3653220Y-10011060D01*
X3646283Y-10007525D01*
X3646281Y-10007524D01*
X3540066Y-9953405D01*
X3540065Y-9953405D01*
X3533126Y-9949869D01*
X3525432Y-9948650D01*
X3525431Y-9948650D01*
X3437334Y-9934697D01*
X3437332Y-9934697D01*
X3433488Y-9934088D01*
X2916512Y-9934088D01*
X2912668Y-9934697D01*
X2912666Y-9934697D01*
X2824569Y-9948650D01*
X2824568Y-9948650D01*
X2816874Y-9949869D01*
X2809935Y-9953405D01*
X2809934Y-9953405D01*
X2703719Y-10007524D01*
X2703717Y-10007525D01*
X2696780Y-10011060D01*
X2610004Y-10097836D01*
X2555487Y-10125613D01*
X2495055Y-10116042D01*
X2469996Y-10097836D01*
X2383220Y-10011060D01*
X2376283Y-10007525D01*
X2376281Y-10007524D01*
X2270066Y-9953405D01*
X2270065Y-9953405D01*
X2263126Y-9949869D01*
X2255432Y-9948650D01*
X2255431Y-9948650D01*
X2167334Y-9934697D01*
X2167332Y-9934697D01*
X2163488Y-9934088D01*
X1646512Y-9934088D01*
X1642668Y-9934697D01*
X1642666Y-9934697D01*
X1554569Y-9948650D01*
X1554568Y-9948650D01*
X1546874Y-9949869D01*
X1539935Y-9953405D01*
X1539934Y-9953405D01*
X1433719Y-10007524D01*
X1433717Y-10007525D01*
X1426780Y-10011060D01*
X1340004Y-10097836D01*
X1285487Y-10125613D01*
X1225055Y-10116042D01*
X1199996Y-10097836D01*
X1113220Y-10011060D01*
X1106283Y-10007525D01*
X1106281Y-10007524D01*
X1000066Y-9953405D01*
X1000065Y-9953405D01*
X993126Y-9949869D01*
X985432Y-9948650D01*
X985431Y-9948650D01*
X897334Y-9934697D01*
X897332Y-9934697D01*
X893488Y-9934088D01*
X376512Y-9934088D01*
X372668Y-9934697D01*
X372666Y-9934697D01*
X284569Y-9948650D01*
X284568Y-9948650D01*
X276874Y-9949869D01*
X269935Y-9953405D01*
X269934Y-9953405D01*
X163719Y-10007524D01*
X163717Y-10007525D01*
X156780Y-10011060D01*
X70004Y-10097836D01*
X15487Y-10125613D01*
X-44945Y-10116042D01*
X-70004Y-10097836D01*
X-156780Y-10011060D01*
X-163717Y-10007525D01*
X-163719Y-10007524D01*
X-269934Y-9953405D01*
X-269935Y-9953405D01*
X-276874Y-9949869D01*
X-284568Y-9948650D01*
X-284569Y-9948650D01*
X-372666Y-9934697D01*
X-372668Y-9934697D01*
X-376512Y-9934088D01*
X-893488Y-9934088D01*
X-897332Y-9934697D01*
X-897334Y-9934697D01*
X-985431Y-9948650D01*
X-985432Y-9948650D01*
X-993126Y-9949869D01*
X-1000065Y-9953405D01*
X-1000066Y-9953405D01*
X-1106281Y-10007524D01*
X-1106283Y-10007525D01*
X-1113220Y-10011060D01*
X-1199996Y-10097836D01*
X-1254513Y-10125613D01*
X-1314945Y-10116042D01*
X-1340004Y-10097836D01*
X-1426780Y-10011060D01*
X-1433717Y-10007525D01*
X-1433719Y-10007524D01*
X-1539934Y-9953405D01*
X-1539935Y-9953405D01*
X-1546874Y-9949869D01*
X-1554568Y-9948650D01*
X-1554569Y-9948650D01*
X-1642666Y-9934697D01*
X-1642668Y-9934697D01*
X-1646512Y-9934088D01*
X-2163488Y-9934088D01*
X-2167332Y-9934697D01*
X-2167334Y-9934697D01*
X-2255431Y-9948650D01*
X-2255432Y-9948650D01*
X-2263126Y-9949869D01*
X-2270065Y-9953405D01*
X-2270066Y-9953405D01*
X-2376281Y-10007524D01*
X-2376283Y-10007525D01*
X-2383220Y-10011060D01*
X-2469996Y-10097836D01*
X-2524513Y-10125613D01*
X-2584945Y-10116042D01*
X-2610004Y-10097836D01*
X-2696780Y-10011060D01*
X-2703717Y-10007525D01*
X-2703719Y-10007524D01*
X-2809934Y-9953405D01*
X-2809935Y-9953405D01*
X-2816874Y-9949869D01*
X-2824568Y-9948650D01*
X-2824569Y-9948650D01*
X-2912666Y-9934697D01*
X-2912668Y-9934697D01*
X-2916512Y-9934088D01*
X-3433488Y-9934088D01*
X-3437332Y-9934697D01*
X-3437334Y-9934697D01*
X-3525431Y-9948650D01*
X-3525432Y-9948650D01*
X-3533126Y-9949869D01*
X-3540065Y-9953405D01*
X-3540066Y-9953405D01*
X-3646281Y-10007524D01*
X-3646283Y-10007525D01*
X-3653220Y-10011060D01*
X-3739996Y-10097836D01*
X-3794513Y-10125613D01*
X-3854945Y-10116042D01*
X-3880004Y-10097836D01*
X-3966780Y-10011060D01*
X-3973717Y-10007525D01*
X-3973719Y-10007524D01*
X-4079934Y-9953405D01*
X-4079935Y-9953405D01*
X-4086874Y-9949869D01*
X-4094568Y-9948650D01*
X-4094569Y-9948650D01*
X-4182666Y-9934697D01*
X-4182668Y-9934697D01*
X-4186512Y-9934088D01*
X-4703488Y-9934088D01*
X-4707332Y-9934697D01*
X-4707334Y-9934697D01*
X-4795431Y-9948650D01*
X-4795432Y-9948650D01*
X-4803126Y-9949869D01*
X-4810065Y-9953405D01*
X-4810066Y-9953405D01*
X-4916281Y-10007524D01*
X-4916283Y-10007525D01*
X-4923220Y-10011060D01*
X-5009996Y-10097836D01*
X-5064513Y-10125613D01*
X-5124945Y-10116042D01*
X-5150004Y-10097836D01*
X-5236780Y-10011060D01*
X-5243717Y-10007525D01*
X-5243719Y-10007524D01*
X-5349934Y-9953405D01*
X-5349935Y-9953405D01*
X-5356874Y-9949869D01*
X-5364568Y-9948650D01*
X-5364569Y-9948650D01*
X-5452666Y-9934697D01*
X-5452668Y-9934697D01*
X-5456512Y-9934088D01*
X-5973488Y-9934088D01*
X-5977332Y-9934697D01*
X-5977334Y-9934697D01*
X-6065431Y-9948650D01*
X-6065432Y-9948650D01*
X-6073126Y-9949869D01*
X-6080065Y-9953405D01*
X-6080066Y-9953405D01*
X-6186281Y-10007524D01*
X-6186283Y-10007525D01*
X-6193220Y-10011060D01*
X-6198726Y-10016566D01*
X-6198730Y-10016569D01*
X-6280349Y-10098189D01*
X-6334865Y-10125967D01*
X-6395298Y-10116396D01*
X-6420357Y-10098190D01*
X-6501569Y-10016978D01*
X-6514019Y-10007933D01*
X-6521029Y-10004361D01*
X-6532281Y-10002579D01*
X-6535000Y-10007915D01*
X-6535000Y-10710088D01*
X-6553907Y-10768279D01*
X-6603407Y-10804243D01*
X-6634000Y-10809088D01*
X-7336000Y-10809088D01*
X-7394191Y-10790181D01*
X-7430155Y-10740681D01*
X-7435000Y-10710088D01*
X-7435000Y-10012922D01*
X-7438521Y-10002087D01*
X-7444508Y-10002087D01*
X-7455981Y-10007933D01*
X-7468431Y-10016978D01*
X-7552612Y-10101159D01*
X-7561654Y-10113604D01*
X-7615702Y-10219679D01*
X-7620457Y-10234314D01*
X-7634391Y-10322291D01*
X-7635000Y-10330030D01*
X-7635000Y-10710088D01*
X-7653907Y-10768279D01*
X-7703407Y-10804243D01*
X-7734000Y-10809088D01*
X-7966996Y-10809088D01*
X-7989181Y-10806570D01*
X-8000654Y-10803932D01*
X-8011528Y-10806393D01*
X-8022677Y-10806373D01*
X-8022675Y-10805363D01*
X-8032576Y-10805979D01*
X-8147278Y-10794680D01*
X-8166313Y-10790894D01*
X-8297633Y-10751056D01*
X-8315563Y-10743628D01*
X-8436583Y-10678939D01*
X-8452719Y-10668157D01*
X-8505756Y-10624630D01*
X-8558796Y-10581099D01*
X-8572516Y-10567379D01*
X-8581623Y-10556281D01*
X-8659572Y-10461298D01*
X-8670353Y-10445163D01*
X-8704266Y-10381713D01*
X-8735040Y-10324138D01*
X-8742468Y-10306202D01*
X-8743369Y-10303231D01*
X-8742163Y-10242058D01*
X-8705231Y-10193276D01*
X-8648630Y-10175500D01*
X-8296890Y-10175500D01*
X-8293046Y-10174891D01*
X-8293044Y-10174891D01*
X-8204947Y-10160938D01*
X-8204946Y-10160938D01*
X-8197252Y-10159719D01*
X-8190312Y-10156183D01*
X-8084097Y-10102064D01*
X-8084095Y-10102063D01*
X-8077158Y-10098528D01*
X-7981850Y-10003220D01*
X-7920659Y-9883126D01*
X-7904878Y-9783488D01*
X-7904878Y-9266512D01*
X-7920659Y-9166874D01*
X-7929132Y-9150245D01*
X-7978314Y-9053719D01*
X-7978315Y-9053717D01*
X-7981850Y-9046780D01*
X-8068626Y-8960004D01*
X-8096403Y-8905487D01*
X-8086832Y-8845055D01*
X-8068626Y-8819996D01*
X-8061375Y-8812745D01*
X-3567655Y-8812745D01*
X-3550286Y-8922406D01*
X-3499881Y-9021332D01*
X-3421373Y-9099840D01*
X-3414436Y-9103375D01*
X-3414434Y-9103376D01*
X-3329387Y-9146709D01*
X-3322447Y-9150245D01*
X-3314753Y-9151464D01*
X-3314752Y-9151464D01*
X-3220482Y-9166395D01*
X-3212786Y-9167614D01*
X-3205090Y-9166395D01*
X-3110820Y-9151464D01*
X-3110819Y-9151464D01*
X-3103125Y-9150245D01*
X-3096185Y-9146709D01*
X-3011138Y-9103376D01*
X-3011136Y-9103375D01*
X-3004199Y-9099840D01*
X-2925691Y-9021332D01*
X-2875286Y-8922406D01*
X-2857917Y-8812745D01*
X-2875286Y-8703084D01*
X-2878822Y-8696144D01*
X-2922155Y-8611097D01*
X-2922156Y-8611095D01*
X-2925691Y-8604158D01*
X-3004199Y-8525650D01*
X-3011136Y-8522115D01*
X-3011138Y-8522114D01*
X-3096185Y-8478781D01*
X-3103125Y-8475245D01*
X-3110819Y-8474026D01*
X-3110820Y-8474026D01*
X-3205090Y-8459095D01*
X-3212786Y-8457876D01*
X-3220482Y-8459095D01*
X-3314752Y-8474026D01*
X-3314753Y-8474026D01*
X-3322447Y-8475245D01*
X-3329387Y-8478781D01*
X-3414434Y-8522114D01*
X-3414436Y-8522115D01*
X-3421373Y-8525650D01*
X-3499881Y-8604158D01*
X-3503416Y-8611095D01*
X-3503417Y-8611097D01*
X-3546750Y-8696144D01*
X-3550286Y-8703084D01*
X-3567655Y-8812745D01*
X-8061375Y-8812745D01*
X-7981850Y-8733220D01*
X-7970415Y-8710779D01*
X-7924195Y-8620066D01*
X-7924195Y-8620065D01*
X-7920659Y-8613126D01*
X-7919238Y-8604158D01*
X-7905487Y-8517334D01*
X-7905487Y-8517332D01*
X-7904878Y-8513488D01*
X-7904878Y-7996512D01*
X-7920659Y-7896874D01*
X-7968179Y-7803610D01*
X-7972525Y-7795080D01*
X1599864Y-7795080D01*
X1618266Y-7899443D01*
X1622596Y-7906943D01*
X1649301Y-7953198D01*
X1671252Y-7991218D01*
X1752432Y-8059336D01*
X1760570Y-8062298D01*
X1760572Y-8062299D01*
X1797446Y-8075719D01*
X1852014Y-8095580D01*
X1957986Y-8095580D01*
X2012554Y-8075719D01*
X2049428Y-8062299D01*
X2049430Y-8062298D01*
X2057568Y-8059336D01*
X2138748Y-7991218D01*
X2160699Y-7953198D01*
X2187404Y-7906943D01*
X2191734Y-7899443D01*
X2210136Y-7795080D01*
X2822707Y-7795080D01*
X2841109Y-7899443D01*
X2845439Y-7906943D01*
X2872144Y-7953198D01*
X2894095Y-7991218D01*
X2975275Y-8059336D01*
X2983413Y-8062298D01*
X2983415Y-8062299D01*
X3020289Y-8075719D01*
X3074857Y-8095580D01*
X3180829Y-8095580D01*
X3235397Y-8075719D01*
X3272271Y-8062299D01*
X3272273Y-8062298D01*
X3280411Y-8059336D01*
X3361591Y-7991218D01*
X3383542Y-7953198D01*
X3410247Y-7906943D01*
X3414577Y-7899443D01*
X3423501Y-7848835D01*
X4134125Y-7848835D01*
X4152527Y-7953198D01*
X4205513Y-8044973D01*
X4286693Y-8113091D01*
X4294831Y-8116053D01*
X4294833Y-8116054D01*
X4331707Y-8129474D01*
X4386275Y-8149335D01*
X4492247Y-8149335D01*
X4546815Y-8129474D01*
X4583689Y-8116054D01*
X4583691Y-8116053D01*
X4591829Y-8113091D01*
X4673009Y-8044973D01*
X4725995Y-7953198D01*
X4744397Y-7848835D01*
X4725995Y-7744472D01*
X4699885Y-7699247D01*
X4677338Y-7660195D01*
X4673009Y-7652697D01*
X4591829Y-7584579D01*
X4583691Y-7581617D01*
X4583689Y-7581616D01*
X4546815Y-7568196D01*
X4492247Y-7548335D01*
X4386275Y-7548335D01*
X4331707Y-7568196D01*
X4294833Y-7581616D01*
X4294831Y-7581617D01*
X4286693Y-7584579D01*
X4205513Y-7652697D01*
X4201184Y-7660195D01*
X4178638Y-7699247D01*
X4152527Y-7744472D01*
X4134125Y-7848835D01*
X3423501Y-7848835D01*
X3432979Y-7795080D01*
X3414577Y-7690717D01*
X3409240Y-7681472D01*
X3365920Y-7606440D01*
X3361591Y-7598942D01*
X3280411Y-7530824D01*
X3272273Y-7527862D01*
X3272271Y-7527861D01*
X3235397Y-7514441D01*
X3180829Y-7494580D01*
X3074857Y-7494580D01*
X3020289Y-7514441D01*
X2983415Y-7527861D01*
X2983413Y-7527862D01*
X2975275Y-7530824D01*
X2894095Y-7598942D01*
X2889766Y-7606440D01*
X2846447Y-7681472D01*
X2841109Y-7690717D01*
X2822707Y-7795080D01*
X2210136Y-7795080D01*
X2191734Y-7690717D01*
X2186397Y-7681472D01*
X2143077Y-7606440D01*
X2138748Y-7598942D01*
X2057568Y-7530824D01*
X2049430Y-7527862D01*
X2049428Y-7527861D01*
X2012554Y-7514441D01*
X1957986Y-7494580D01*
X1852014Y-7494580D01*
X1797446Y-7514441D01*
X1760572Y-7527861D01*
X1760570Y-7527862D01*
X1752432Y-7530824D01*
X1671252Y-7598942D01*
X1666923Y-7606440D01*
X1623604Y-7681472D01*
X1618266Y-7690717D01*
X1599864Y-7795080D01*
X-7972525Y-7795080D01*
X-7978314Y-7783719D01*
X-7978315Y-7783717D01*
X-7981850Y-7776780D01*
X-8068626Y-7690004D01*
X-8096403Y-7635487D01*
X-8086832Y-7575055D01*
X-8068626Y-7549996D01*
X-7981850Y-7463220D01*
X-7966535Y-7433164D01*
X-1062701Y-7433164D01*
X-1061482Y-7440860D01*
X-1052973Y-7494580D01*
X-1045332Y-7542825D01*
X-1041796Y-7549765D01*
X-1005866Y-7620281D01*
X-994927Y-7641751D01*
X-916419Y-7720259D01*
X-909482Y-7723794D01*
X-909480Y-7723795D01*
X-852157Y-7753002D01*
X-817493Y-7770664D01*
X-809799Y-7771883D01*
X-809798Y-7771883D01*
X-715528Y-7786814D01*
X-707832Y-7788033D01*
X-700136Y-7786814D01*
X-605866Y-7771883D01*
X-605865Y-7771883D01*
X-598171Y-7770664D01*
X-563507Y-7753002D01*
X-506184Y-7723795D01*
X-506182Y-7723794D01*
X-499245Y-7720259D01*
X-420737Y-7641751D01*
X-409797Y-7620281D01*
X-373868Y-7549765D01*
X-370332Y-7542825D01*
X-362690Y-7494580D01*
X-354182Y-7440860D01*
X-352963Y-7433164D01*
X-370332Y-7323503D01*
X-373868Y-7316563D01*
X-417201Y-7231516D01*
X-417202Y-7231514D01*
X-420737Y-7224577D01*
X-499245Y-7146069D01*
X-506182Y-7142534D01*
X-506184Y-7142533D01*
X-591231Y-7099200D01*
X-598171Y-7095664D01*
X-605865Y-7094445D01*
X-605866Y-7094445D01*
X-700136Y-7079514D01*
X-707832Y-7078295D01*
X-715528Y-7079514D01*
X-809798Y-7094445D01*
X-809799Y-7094445D01*
X-817493Y-7095664D01*
X-824433Y-7099200D01*
X-909480Y-7142533D01*
X-909482Y-7142534D01*
X-916419Y-7146069D01*
X-994927Y-7224577D01*
X-998462Y-7231514D01*
X-998463Y-7231516D01*
X-1041796Y-7316563D01*
X-1045332Y-7323503D01*
X-1062701Y-7433164D01*
X-7966535Y-7433164D01*
X-7924195Y-7350066D01*
X-7924195Y-7350065D01*
X-7920659Y-7343126D01*
X-7904878Y-7243488D01*
X-7904878Y-6726512D01*
X-7920659Y-6626874D01*
X-7981850Y-6506780D01*
X-8068626Y-6420004D01*
X-8096403Y-6365487D01*
X-8086832Y-6305055D01*
X-8068626Y-6279996D01*
X-7985408Y-6196778D01*
X268533Y-6196778D01*
X286935Y-6301141D01*
X339921Y-6392916D01*
X421101Y-6461034D01*
X429239Y-6463996D01*
X429241Y-6463997D01*
X466115Y-6477417D01*
X520683Y-6497278D01*
X626655Y-6497278D01*
X681223Y-6477417D01*
X718097Y-6463997D01*
X718099Y-6463996D01*
X726237Y-6461034D01*
X807417Y-6392916D01*
X860403Y-6301141D01*
X878805Y-6196778D01*
X860403Y-6092415D01*
X807417Y-6000640D01*
X726237Y-5932522D01*
X718099Y-5929560D01*
X718097Y-5929559D01*
X652193Y-5905573D01*
X626655Y-5896278D01*
X520683Y-5896278D01*
X495145Y-5905573D01*
X429241Y-5929559D01*
X429239Y-5929560D01*
X421101Y-5932522D01*
X339921Y-6000640D01*
X286935Y-6092415D01*
X268533Y-6196778D01*
X-7985408Y-6196778D01*
X-7981850Y-6193220D01*
X-7934833Y-6100945D01*
X-7924195Y-6080066D01*
X-7924195Y-6080065D01*
X-7920659Y-6073126D01*
X-7906281Y-5982350D01*
X-7905487Y-5977334D01*
X-7905487Y-5977332D01*
X-7904878Y-5973488D01*
X-7904878Y-5793710D01*
X1548298Y-5793710D01*
X1566700Y-5898073D01*
X1619686Y-5989848D01*
X1700866Y-6057966D01*
X1709004Y-6060928D01*
X1709006Y-6060929D01*
X1721376Y-6065431D01*
X1800448Y-6094210D01*
X1906420Y-6094210D01*
X1985492Y-6065431D01*
X1997862Y-6060929D01*
X1997864Y-6060928D01*
X2006002Y-6057966D01*
X2087182Y-5989848D01*
X2140168Y-5898073D01*
X2158570Y-5793710D01*
X2140168Y-5689347D01*
X2087182Y-5597572D01*
X2006002Y-5529454D01*
X1997864Y-5526492D01*
X1997862Y-5526491D01*
X1960988Y-5513071D01*
X1906420Y-5493210D01*
X1800448Y-5493210D01*
X1745880Y-5513071D01*
X1709006Y-5526491D01*
X1709004Y-5526492D01*
X1700866Y-5529454D01*
X1619686Y-5597572D01*
X1566700Y-5689347D01*
X1548298Y-5793710D01*
X-7904878Y-5793710D01*
X-7904878Y-5456512D01*
X-7920659Y-5356874D01*
X-7981850Y-5236780D01*
X-8068626Y-5150004D01*
X-8096403Y-5095487D01*
X-8086832Y-5035055D01*
X-8068626Y-5009996D01*
X-7981850Y-4923220D01*
X-7920659Y-4803126D01*
X-7904878Y-4703488D01*
X-7904878Y-4186512D01*
X-7909815Y-4155339D01*
X-7919440Y-4094569D01*
X-7919440Y-4094568D01*
X-7920659Y-4086874D01*
X-7934604Y-4059506D01*
X-828217Y-4059506D01*
X-809815Y-4163869D01*
X-756829Y-4255644D01*
X-675649Y-4323762D01*
X-667511Y-4326724D01*
X-667509Y-4326725D01*
X-630635Y-4340145D01*
X-576067Y-4360006D01*
X-470095Y-4360006D01*
X-415527Y-4340145D01*
X-378653Y-4326725D01*
X-378651Y-4326724D01*
X-370513Y-4323762D01*
X-289333Y-4255644D01*
X-287220Y-4251984D01*
X-237441Y-4220882D01*
X-176405Y-4225154D01*
X-139987Y-4251614D01*
X-137660Y-4255644D01*
X-56480Y-4323762D01*
X-48342Y-4326724D01*
X-48340Y-4326725D01*
X-11466Y-4340145D01*
X43102Y-4360006D01*
X149074Y-4360006D01*
X203642Y-4340145D01*
X240516Y-4326725D01*
X240518Y-4326724D01*
X248656Y-4323762D01*
X329836Y-4255644D01*
X382822Y-4163869D01*
X401224Y-4059506D01*
X835717Y-4059506D01*
X854119Y-4163869D01*
X907105Y-4255644D01*
X988285Y-4323762D01*
X996423Y-4326724D01*
X996425Y-4326725D01*
X1033299Y-4340145D01*
X1087867Y-4360006D01*
X1193839Y-4360006D01*
X1248407Y-4340145D01*
X1285281Y-4326725D01*
X1285283Y-4326724D01*
X1293421Y-4323762D01*
X1365696Y-4263116D01*
X1422426Y-4240195D01*
X1481794Y-4254997D01*
X1492966Y-4263115D01*
X1565243Y-4323762D01*
X1573381Y-4326724D01*
X1573383Y-4326725D01*
X1610257Y-4340145D01*
X1664825Y-4360006D01*
X1770797Y-4360006D01*
X1825365Y-4340145D01*
X1862239Y-4326725D01*
X1862241Y-4326724D01*
X1870379Y-4323762D01*
X1951559Y-4255644D01*
X2004545Y-4163869D01*
X2022947Y-4059506D01*
X2004545Y-3955143D01*
X1951559Y-3863368D01*
X1870379Y-3795250D01*
X1862241Y-3792288D01*
X1862239Y-3792287D01*
X1825365Y-3778867D01*
X1770797Y-3759006D01*
X1664825Y-3759006D01*
X1610257Y-3778867D01*
X1573383Y-3792287D01*
X1573381Y-3792288D01*
X1565243Y-3795250D01*
X1547665Y-3810000D01*
X1492968Y-3855896D01*
X1436238Y-3878817D01*
X1376870Y-3864015D01*
X1365696Y-3855896D01*
X1310999Y-3810000D01*
X1293421Y-3795250D01*
X1285283Y-3792288D01*
X1285281Y-3792287D01*
X1248407Y-3778867D01*
X1193839Y-3759006D01*
X1087867Y-3759006D01*
X1033299Y-3778867D01*
X996425Y-3792287D01*
X996423Y-3792288D01*
X988285Y-3795250D01*
X907105Y-3863368D01*
X854119Y-3955143D01*
X835717Y-4059506D01*
X401224Y-4059506D01*
X382822Y-3955143D01*
X329836Y-3863368D01*
X248656Y-3795250D01*
X240518Y-3792288D01*
X240516Y-3792287D01*
X203642Y-3778867D01*
X149074Y-3759006D01*
X43102Y-3759006D01*
X-11466Y-3778867D01*
X-48340Y-3792287D01*
X-48342Y-3792288D01*
X-56480Y-3795250D01*
X-137660Y-3863368D01*
X-139773Y-3867028D01*
X-189552Y-3898130D01*
X-250588Y-3893858D01*
X-287006Y-3867398D01*
X-289333Y-3863368D01*
X-370513Y-3795250D01*
X-378651Y-3792288D01*
X-378653Y-3792287D01*
X-415527Y-3778867D01*
X-470095Y-3759006D01*
X-576067Y-3759006D01*
X-630635Y-3778867D01*
X-667509Y-3792287D01*
X-667511Y-3792288D01*
X-675649Y-3795250D01*
X-756829Y-3863368D01*
X-809815Y-3955143D01*
X-828217Y-4059506D01*
X-7934604Y-4059506D01*
X-7981850Y-3966780D01*
X-8068626Y-3880004D01*
X-8096403Y-3825487D01*
X-8086832Y-3765055D01*
X-8068626Y-3739996D01*
X-7981850Y-3653220D01*
X-7920659Y-3533126D01*
X-7904878Y-3433488D01*
X-7904878Y-3222861D01*
X-2820514Y-3222861D01*
X-2802112Y-3327224D01*
X-2749126Y-3418999D01*
X-2667946Y-3487117D01*
X-2659808Y-3490079D01*
X-2659806Y-3490080D01*
X-2622932Y-3503500D01*
X-2568364Y-3523361D01*
X-2462392Y-3523361D01*
X-2407824Y-3503500D01*
X-2370950Y-3490080D01*
X-2370948Y-3490079D01*
X-2362810Y-3487117D01*
X-2281630Y-3418999D01*
X-2228644Y-3327224D01*
X-2215675Y-3253675D01*
X-1715378Y-3253675D01*
X-1714430Y-3263297D01*
X-1705676Y-3307309D01*
X-1698357Y-3324977D01*
X-1664989Y-3374917D01*
X-1651460Y-3388446D01*
X-1601520Y-3421814D01*
X-1583852Y-3429133D01*
X-1539840Y-3437887D01*
X-1530218Y-3438835D01*
X-431058Y-3438835D01*
X-418373Y-3434713D01*
X-415378Y-3430592D01*
X-415378Y-3423155D01*
X584622Y-3423155D01*
X588744Y-3435840D01*
X592865Y-3438835D01*
X1699462Y-3438835D01*
X1709084Y-3437887D01*
X1753096Y-3429133D01*
X1770764Y-3421814D01*
X1820704Y-3388446D01*
X1834233Y-3374917D01*
X1867601Y-3324977D01*
X1874920Y-3307309D01*
X1883674Y-3263297D01*
X1884622Y-3253675D01*
X1884622Y-2869859D01*
X5065634Y-2869859D01*
X5084036Y-2974222D01*
X5137022Y-3065997D01*
X5190652Y-3110998D01*
X5203588Y-3121852D01*
X5218202Y-3134115D01*
X5226340Y-3137077D01*
X5226342Y-3137078D01*
X5263216Y-3150498D01*
X5317784Y-3170359D01*
X5423756Y-3170359D01*
X5478324Y-3150498D01*
X5515198Y-3137078D01*
X5515200Y-3137077D01*
X5523338Y-3134115D01*
X5537953Y-3121852D01*
X5550888Y-3110998D01*
X5604518Y-3065997D01*
X5657504Y-2974222D01*
X5675906Y-2869859D01*
X5657504Y-2765496D01*
X5604518Y-2673721D01*
X5523338Y-2605603D01*
X5515200Y-2602641D01*
X5515198Y-2602640D01*
X5466579Y-2584945D01*
X5423756Y-2569359D01*
X5317784Y-2569359D01*
X5274961Y-2584945D01*
X5226342Y-2602640D01*
X5226340Y-2602641D01*
X5218202Y-2605603D01*
X5137022Y-2673721D01*
X5084036Y-2765496D01*
X5065634Y-2869859D01*
X1884622Y-2869859D01*
X1884622Y-2154515D01*
X1880500Y-2141830D01*
X1876379Y-2138835D01*
X600302Y-2138835D01*
X587617Y-2142957D01*
X584622Y-2147078D01*
X584622Y-3423155D01*
X-415378Y-3423155D01*
X-415378Y-2154515D01*
X-419500Y-2141830D01*
X-423621Y-2138835D01*
X-1699698Y-2138835D01*
X-1712383Y-2142957D01*
X-1715378Y-2147078D01*
X-1715378Y-3253675D01*
X-2215675Y-3253675D01*
X-2210242Y-3222861D01*
X-2228644Y-3118498D01*
X-2259606Y-3064869D01*
X-2277301Y-3034221D01*
X-2281630Y-3026723D01*
X-2362810Y-2958605D01*
X-2370948Y-2955643D01*
X-2370950Y-2955642D01*
X-2407824Y-2942222D01*
X-2462392Y-2922361D01*
X-2568364Y-2922361D01*
X-2622932Y-2942222D01*
X-2659806Y-2955642D01*
X-2659808Y-2955643D01*
X-2667946Y-2958605D01*
X-2749126Y-3026723D01*
X-2753455Y-3034221D01*
X-2771149Y-3064869D01*
X-2802112Y-3118498D01*
X-2820514Y-3222861D01*
X-7904878Y-3222861D01*
X-7904878Y-2916512D01*
X-7913327Y-2863165D01*
X-5584691Y-2863165D01*
X-5566289Y-2967528D01*
X-5561959Y-2975028D01*
X-5532113Y-3026723D01*
X-5513303Y-3059303D01*
X-5432123Y-3127421D01*
X-5423985Y-3130383D01*
X-5423983Y-3130384D01*
X-5405590Y-3137078D01*
X-5332541Y-3163665D01*
X-5226569Y-3163665D01*
X-5153520Y-3137078D01*
X-5135127Y-3130384D01*
X-5135125Y-3130383D01*
X-5126987Y-3127421D01*
X-5045807Y-3059303D01*
X-5026997Y-3026723D01*
X-4997151Y-2975028D01*
X-4992821Y-2967528D01*
X-4974419Y-2863165D01*
X-4981224Y-2824569D01*
X-4991317Y-2767332D01*
X-4992821Y-2758802D01*
X-5045807Y-2667027D01*
X-5110730Y-2612551D01*
X-5120350Y-2604478D01*
X-5126987Y-2598909D01*
X-5135125Y-2595947D01*
X-5135127Y-2595946D01*
X-5200039Y-2572321D01*
X-5226569Y-2562665D01*
X-5332541Y-2562665D01*
X-5359071Y-2572321D01*
X-5423983Y-2595946D01*
X-5423985Y-2595947D01*
X-5432123Y-2598909D01*
X-5438760Y-2604478D01*
X-5448380Y-2612551D01*
X-5513303Y-2667027D01*
X-5566289Y-2758802D01*
X-5567793Y-2767332D01*
X-5577885Y-2824569D01*
X-5584691Y-2863165D01*
X-7913327Y-2863165D01*
X-7920659Y-2816874D01*
X-7950659Y-2757996D01*
X-7978314Y-2703719D01*
X-7978315Y-2703717D01*
X-7981850Y-2696780D01*
X-8068626Y-2610004D01*
X-8096403Y-2555487D01*
X-8086832Y-2495055D01*
X-8068626Y-2469996D01*
X-7981850Y-2383220D01*
X-7920659Y-2263126D01*
X-7904878Y-2163488D01*
X-7904878Y-1646512D01*
X-7920659Y-1546874D01*
X-7981850Y-1426780D01*
X-8068626Y-1340004D01*
X-8096403Y-1285487D01*
X-8086832Y-1225055D01*
X-8068626Y-1199996D01*
X-7991785Y-1123155D01*
X-1715378Y-1123155D01*
X-1711256Y-1135840D01*
X-1707135Y-1138835D01*
X-431058Y-1138835D01*
X-418373Y-1134713D01*
X-415378Y-1130592D01*
X-415378Y-1123155D01*
X584622Y-1123155D01*
X588744Y-1135840D01*
X592865Y-1138835D01*
X1868942Y-1138835D01*
X1881627Y-1134713D01*
X1884622Y-1130592D01*
X1884622Y-23995D01*
X1883674Y-14373D01*
X1874920Y29639D01*
X1867601Y47307D01*
X1834233Y97247D01*
X1820704Y110776D01*
X1770764Y144144D01*
X1753096Y151463D01*
X1709084Y160217D01*
X1699462Y161165D01*
X600302Y161165D01*
X587617Y157043D01*
X584622Y152922D01*
X584622Y-1123155D01*
X-415378Y-1123155D01*
X-415378Y145485D01*
X-419500Y158170D01*
X-423621Y161165D01*
X-1530218Y161165D01*
X-1539840Y160217D01*
X-1583852Y151463D01*
X-1601520Y144144D01*
X-1651460Y110776D01*
X-1664989Y97247D01*
X-1698357Y47307D01*
X-1705676Y29639D01*
X-1714430Y-14373D01*
X-1715378Y-23995D01*
X-1715378Y-1123155D01*
X-7991785Y-1123155D01*
X-7981850Y-1113220D01*
X-7920659Y-993126D01*
X-7904878Y-893488D01*
X-7904878Y-376512D01*
X-7920659Y-276874D01*
X-7981850Y-156780D01*
X-8068626Y-70004D01*
X-8096403Y-15487D01*
X-8086832Y44945D01*
X-8068626Y70004D01*
X-7981850Y156780D01*
X-7920659Y276874D01*
X-7904878Y376512D01*
X-7904878Y766165D01*
X-1640514Y766165D01*
X-1622112Y661802D01*
X-1569126Y570027D01*
X-1487946Y501909D01*
X-1479808Y498947D01*
X-1479806Y498946D01*
X-1442932Y485526D01*
X-1388364Y465665D01*
X-1282392Y465665D01*
X-1227824Y485526D01*
X-1190950Y498946D01*
X-1190948Y498947D01*
X-1182810Y501909D01*
X-1101630Y570027D01*
X-1063697Y635729D01*
X-1018227Y676670D01*
X-957377Y683066D01*
X-904389Y652473D01*
X-892223Y635729D01*
X-854290Y570027D01*
X-773110Y501909D01*
X-764972Y498947D01*
X-764970Y498946D01*
X-728096Y485526D01*
X-673528Y465665D01*
X-567556Y465665D01*
X-512988Y485526D01*
X-476114Y498946D01*
X-476112Y498947D01*
X-467974Y501909D01*
X-386794Y570027D01*
X-333808Y661802D01*
X-315406Y766165D01*
X417706Y766165D01*
X436108Y661802D01*
X489094Y570027D01*
X570274Y501909D01*
X578412Y498947D01*
X578414Y498946D01*
X615288Y485526D01*
X669856Y465665D01*
X775828Y465665D01*
X830396Y485526D01*
X867270Y498946D01*
X867272Y498947D01*
X875410Y501909D01*
X956590Y570027D01*
X965495Y585451D01*
X1010965Y626392D01*
X1071815Y632788D01*
X1124803Y602195D01*
X1136969Y585451D01*
X1145874Y570027D01*
X1227054Y501909D01*
X1235192Y498947D01*
X1235194Y498946D01*
X1272068Y485526D01*
X1326636Y465665D01*
X1432608Y465665D01*
X1487176Y485526D01*
X1524050Y498946D01*
X1524052Y498947D01*
X1532190Y501909D01*
X1613370Y570027D01*
X1666356Y661802D01*
X1684758Y766165D01*
X1666356Y870528D01*
X1613370Y962303D01*
X1548447Y1016779D01*
X1538827Y1024852D01*
X1532190Y1030421D01*
X1524052Y1033383D01*
X1524050Y1033384D01*
X1464037Y1055226D01*
X1432608Y1066665D01*
X1326636Y1066665D01*
X1295207Y1055226D01*
X1235194Y1033384D01*
X1235192Y1033383D01*
X1227054Y1030421D01*
X1220417Y1024852D01*
X1210797Y1016779D01*
X1145874Y962303D01*
X1141545Y954805D01*
X1136969Y946879D01*
X1091499Y905938D01*
X1030649Y899542D01*
X977661Y930135D01*
X965495Y946879D01*
X960919Y954805D01*
X956590Y962303D01*
X891667Y1016779D01*
X882047Y1024852D01*
X875410Y1030421D01*
X867272Y1033383D01*
X867270Y1033384D01*
X807257Y1055226D01*
X775828Y1066665D01*
X669856Y1066665D01*
X638427Y1055226D01*
X578414Y1033384D01*
X578412Y1033383D01*
X570274Y1030421D01*
X563637Y1024852D01*
X554017Y1016779D01*
X489094Y962303D01*
X436108Y870528D01*
X417706Y766165D01*
X-315406Y766165D01*
X-333808Y870528D01*
X-386794Y962303D01*
X-451717Y1016779D01*
X-461337Y1024852D01*
X-467974Y1030421D01*
X-476112Y1033383D01*
X-476114Y1033384D01*
X-536127Y1055226D01*
X-567556Y1066665D01*
X-673528Y1066665D01*
X-704957Y1055226D01*
X-764970Y1033384D01*
X-764972Y1033383D01*
X-773110Y1030421D01*
X-779747Y1024852D01*
X-789367Y1016779D01*
X-854290Y962303D01*
X-858619Y954805D01*
X-892223Y896601D01*
X-937693Y855660D01*
X-998543Y849264D01*
X-1051531Y879857D01*
X-1063697Y896601D01*
X-1097301Y954805D01*
X-1101630Y962303D01*
X-1166553Y1016779D01*
X-1176173Y1024852D01*
X-1182810Y1030421D01*
X-1190948Y1033383D01*
X-1190950Y1033384D01*
X-1250963Y1055226D01*
X-1282392Y1066665D01*
X-1388364Y1066665D01*
X-1419793Y1055226D01*
X-1479806Y1033384D01*
X-1479808Y1033383D01*
X-1487946Y1030421D01*
X-1494583Y1024852D01*
X-1504203Y1016779D01*
X-1569126Y962303D01*
X-1622112Y870528D01*
X-1640514Y766165D01*
X-7904878Y766165D01*
X-7904878Y893488D01*
X-7913334Y946879D01*
X-7919440Y985431D01*
X-7919440Y985432D01*
X-7920659Y993126D01*
X-7933833Y1018982D01*
X-7978314Y1106281D01*
X-7978315Y1106283D01*
X-7981850Y1113220D01*
X-8068626Y1199996D01*
X-8096403Y1254513D01*
X-8086832Y1314945D01*
X-8083536Y1319482D01*
X-3663782Y1319482D01*
X-3645380Y1215119D01*
X-3592394Y1123344D01*
X-3572059Y1106281D01*
X-3524846Y1066665D01*
X-3511214Y1055226D01*
X-3503076Y1052264D01*
X-3503074Y1052263D01*
X-3466200Y1038843D01*
X-3411632Y1018982D01*
X-3305660Y1018982D01*
X-3251092Y1038843D01*
X-3214218Y1052263D01*
X-3214216Y1052264D01*
X-3206078Y1055226D01*
X-3192445Y1066665D01*
X-3145233Y1106281D01*
X-3124898Y1123344D01*
X-3071912Y1215119D01*
X-3053510Y1319482D01*
X-3071912Y1423845D01*
X-3124898Y1515620D01*
X-3206078Y1583738D01*
X-3214216Y1586700D01*
X-3214218Y1586701D01*
X-3251092Y1600121D01*
X-3305660Y1619982D01*
X-3411632Y1619982D01*
X-3466200Y1600121D01*
X-3503074Y1586701D01*
X-3503076Y1586700D01*
X-3511214Y1583738D01*
X-3592394Y1515620D01*
X-3645380Y1423845D01*
X-3663782Y1319482D01*
X-8083536Y1319482D01*
X-8068626Y1340004D01*
X-7981850Y1426780D01*
X-7932025Y1524566D01*
X-7924195Y1539934D01*
X-7924195Y1539935D01*
X-7920659Y1546874D01*
X-7909749Y1615754D01*
X-7909013Y1620399D01*
X2733854Y1620399D01*
X2752256Y1516036D01*
X2805242Y1424261D01*
X2886422Y1356143D01*
X2894560Y1353181D01*
X2894562Y1353180D01*
X2930765Y1340004D01*
X2986004Y1319899D01*
X3091976Y1319899D01*
X3100115Y1322861D01*
X3107293Y1324127D01*
X3167883Y1315612D01*
X3211896Y1273109D01*
X3221980Y1243823D01*
X3227041Y1215119D01*
X3280027Y1123344D01*
X3300362Y1106281D01*
X3347575Y1066665D01*
X3361207Y1055226D01*
X3369345Y1052264D01*
X3369347Y1052263D01*
X3406221Y1038843D01*
X3460789Y1018982D01*
X3566761Y1018982D01*
X3621329Y1038843D01*
X3658203Y1052263D01*
X3658205Y1052264D01*
X3666343Y1055226D01*
X3679976Y1066665D01*
X3727188Y1106281D01*
X3747523Y1123344D01*
X3800509Y1215119D01*
X3818911Y1319482D01*
X3800509Y1423845D01*
X3747523Y1515620D01*
X3666343Y1583738D01*
X3658205Y1586700D01*
X3658203Y1586701D01*
X3621329Y1600121D01*
X3566761Y1619982D01*
X3460789Y1619982D01*
X3452650Y1617020D01*
X3445472Y1615754D01*
X3384882Y1624269D01*
X3340869Y1666772D01*
X3330785Y1696059D01*
X3327228Y1716233D01*
X3327228Y1716234D01*
X3325724Y1724762D01*
X3272738Y1816537D01*
X3191558Y1884655D01*
X3183420Y1887617D01*
X3183418Y1887618D01*
X3146544Y1901038D01*
X3091976Y1920899D01*
X2986004Y1920899D01*
X2931436Y1901038D01*
X2894562Y1887618D01*
X2894560Y1887617D01*
X2886422Y1884655D01*
X2805242Y1816537D01*
X2752256Y1724762D01*
X2733854Y1620399D01*
X-7909013Y1620399D01*
X-7905487Y1642666D01*
X-7905487Y1642668D01*
X-7904878Y1646512D01*
X-7904878Y2163488D01*
X-7920659Y2263126D01*
X-7981850Y2383220D01*
X-8068626Y2469996D01*
X-8096403Y2524513D01*
X-8086832Y2584945D01*
X-8068626Y2610004D01*
X-7981850Y2696780D01*
X-7970896Y2718277D01*
X-7924195Y2809934D01*
X-7924195Y2809935D01*
X-7922067Y2814110D01*
X-1495943Y2814110D01*
X-1477541Y2709747D01*
X-1424555Y2617972D01*
X-1343375Y2549854D01*
X-1335237Y2546892D01*
X-1335235Y2546891D01*
X-1317073Y2540281D01*
X-1243793Y2513610D01*
X-1137821Y2513610D01*
X-1064541Y2540281D01*
X-1046379Y2546891D01*
X-1046377Y2546892D01*
X-1038239Y2549854D01*
X-957059Y2617972D01*
X-904073Y2709747D01*
X-885671Y2814110D01*
X-904073Y2918473D01*
X-957059Y3010248D01*
X-1038239Y3078366D01*
X-1046377Y3081328D01*
X-1046379Y3081329D01*
X-1083253Y3094749D01*
X-1137821Y3114610D01*
X-1243793Y3114610D01*
X-1298361Y3094749D01*
X-1335235Y3081329D01*
X-1335237Y3081328D01*
X-1343375Y3078366D01*
X-1424555Y3010248D01*
X-1477541Y2918473D01*
X-1495943Y2814110D01*
X-7922067Y2814110D01*
X-7920659Y2816874D01*
X-7904878Y2916512D01*
X-7904878Y3433488D01*
X-7920659Y3533126D01*
X-7924195Y3540066D01*
X-7978314Y3646281D01*
X-7978315Y3646283D01*
X-7981850Y3653220D01*
X-8068626Y3739996D01*
X-8091749Y3785378D01*
X-20514Y3785378D01*
X-2112Y3681015D01*
X2218Y3673515D01*
X46545Y3596738D01*
X50874Y3589240D01*
X132054Y3521122D01*
X140192Y3518160D01*
X140194Y3518159D01*
X177068Y3504739D01*
X231636Y3484878D01*
X337608Y3484878D01*
X392176Y3504739D01*
X429050Y3518159D01*
X429052Y3518160D01*
X437190Y3521122D01*
X518370Y3589240D01*
X522699Y3596738D01*
X567026Y3673515D01*
X571356Y3681015D01*
X589758Y3785378D01*
X585417Y3810000D01*
X577537Y3854688D01*
X1852605Y3854688D01*
X1871007Y3750325D01*
X1923993Y3658550D01*
X2005173Y3590432D01*
X2013311Y3587470D01*
X2013313Y3587469D01*
X2050187Y3574049D01*
X2104755Y3554188D01*
X2210727Y3554188D01*
X2265295Y3574049D01*
X2302169Y3587469D01*
X2302171Y3587470D01*
X2310309Y3590432D01*
X2391489Y3658550D01*
X2444475Y3750325D01*
X2462877Y3854688D01*
X2444475Y3959051D01*
X2436007Y3973719D01*
X2395818Y4043328D01*
X2391489Y4050826D01*
X2310309Y4118944D01*
X2302171Y4121906D01*
X2302169Y4121907D01*
X2265295Y4135327D01*
X2210727Y4155188D01*
X2104755Y4155188D01*
X2050187Y4135327D01*
X2013313Y4121907D01*
X2013311Y4121906D01*
X2005173Y4118944D01*
X1923993Y4050826D01*
X1919664Y4043328D01*
X1879476Y3973719D01*
X1871007Y3959051D01*
X1852605Y3854688D01*
X577537Y3854688D01*
X572860Y3881211D01*
X571356Y3889741D01*
X518370Y3981516D01*
X437190Y4049634D01*
X429052Y4052596D01*
X429050Y4052597D01*
X392176Y4066017D01*
X337608Y4085878D01*
X231636Y4085878D01*
X177068Y4066017D01*
X140194Y4052597D01*
X140192Y4052596D01*
X132054Y4049634D01*
X50874Y3981516D01*
X-2112Y3889741D01*
X-3616Y3881211D01*
X-16172Y3810000D01*
X-20514Y3785378D01*
X-8091749Y3785378D01*
X-8096403Y3794513D01*
X-8086832Y3854945D01*
X-8068626Y3880004D01*
X-7981850Y3966780D01*
X-7974341Y3981516D01*
X-7924195Y4079934D01*
X-7924195Y4079935D01*
X-7920659Y4086874D01*
X-7916461Y4113375D01*
X-7905487Y4182666D01*
X-7905487Y4182668D01*
X-7904878Y4186512D01*
X-7904878Y4703488D01*
X-7920659Y4803126D01*
X-7981850Y4923220D01*
X-8068626Y5009996D01*
X-8096403Y5064513D01*
X-8086832Y5124945D01*
X-8068626Y5150004D01*
X-8015939Y5202691D01*
X-4665469Y5202691D01*
X-4647067Y5098328D01*
X-4594081Y5006553D01*
X-4512901Y4938435D01*
X-4504763Y4935473D01*
X-4504761Y4935472D01*
X-4471097Y4923220D01*
X-4413319Y4902191D01*
X-4307347Y4902191D01*
X-4249569Y4923220D01*
X-4215905Y4935472D01*
X-4215903Y4935473D01*
X-4207765Y4938435D01*
X-4126585Y5006553D01*
X-4073599Y5098328D01*
X-4055197Y5202691D01*
X-4073599Y5307054D01*
X-4103277Y5358459D01*
X-4122256Y5391331D01*
X-4126585Y5398829D01*
X-4198022Y5458772D01*
X-4201128Y5461378D01*
X-4207765Y5466947D01*
X-4215903Y5469909D01*
X-4215905Y5469910D01*
X-4254168Y5483836D01*
X-4307347Y5503191D01*
X-4413319Y5503191D01*
X-4466498Y5483836D01*
X-4504761Y5469910D01*
X-4504763Y5469909D01*
X-4512901Y5466947D01*
X-4519538Y5461378D01*
X-4522644Y5458772D01*
X-4594081Y5398829D01*
X-4598410Y5391331D01*
X-4617388Y5358459D01*
X-4647067Y5307054D01*
X-4665469Y5202691D01*
X-8015939Y5202691D01*
X-7981850Y5236780D01*
X-7946043Y5307054D01*
X-7924195Y5349934D01*
X-7924195Y5349935D01*
X-7920659Y5356874D01*
X-7915201Y5391331D01*
X-7905487Y5452666D01*
X-7905487Y5452668D01*
X-7904878Y5456512D01*
X-7904878Y5692423D01*
X3840017Y5692423D01*
X3857386Y5582762D01*
X3860922Y5575822D01*
X3903737Y5491793D01*
X3907791Y5483836D01*
X3986299Y5405328D01*
X3993236Y5401793D01*
X3993238Y5401792D01*
X4078285Y5358459D01*
X4085225Y5354923D01*
X4092919Y5353704D01*
X4092920Y5353704D01*
X4187190Y5338773D01*
X4194886Y5337554D01*
X4202582Y5338773D01*
X4296852Y5353704D01*
X4296853Y5353704D01*
X4304547Y5354923D01*
X4311487Y5358459D01*
X4396534Y5401792D01*
X4396536Y5401793D01*
X4403473Y5405328D01*
X4481981Y5483836D01*
X4485517Y5490775D01*
X4486257Y5491793D01*
X4535757Y5527757D01*
X4596942Y5527756D01*
X4636353Y5503606D01*
X4686693Y5453266D01*
X4693630Y5449731D01*
X4693632Y5449730D01*
X4769971Y5410834D01*
X4785619Y5402861D01*
X4793313Y5401642D01*
X4793314Y5401642D01*
X4887584Y5386711D01*
X4895280Y5385492D01*
X4902976Y5386711D01*
X4997246Y5401642D01*
X4997247Y5401642D01*
X5004941Y5402861D01*
X5020589Y5410834D01*
X5096928Y5449730D01*
X5096930Y5449731D01*
X5103867Y5453266D01*
X5182375Y5531774D01*
X5204819Y5575822D01*
X5229244Y5623760D01*
X5232780Y5630700D01*
X5250149Y5740361D01*
X5232780Y5850022D01*
X5210336Y5894071D01*
X5185911Y5942009D01*
X5185910Y5942011D01*
X5182375Y5948948D01*
X5103867Y6027456D01*
X5096930Y6030991D01*
X5096928Y6030992D01*
X5011881Y6074325D01*
X5004941Y6077861D01*
X4997247Y6079080D01*
X4997246Y6079080D01*
X4902976Y6094011D01*
X4895280Y6095230D01*
X4887584Y6094011D01*
X4793314Y6079080D01*
X4793313Y6079080D01*
X4785619Y6077861D01*
X4778679Y6074325D01*
X4693632Y6030992D01*
X4693630Y6030991D01*
X4686693Y6027456D01*
X4608185Y5948948D01*
X4604651Y5942013D01*
X4603909Y5940991D01*
X4554409Y5905027D01*
X4493224Y5905028D01*
X4453813Y5929178D01*
X4403473Y5979518D01*
X4396536Y5983053D01*
X4396534Y5983054D01*
X4311487Y6026387D01*
X4304547Y6029923D01*
X4296853Y6031142D01*
X4296852Y6031142D01*
X4202582Y6046073D01*
X4194886Y6047292D01*
X4187190Y6046073D01*
X4092920Y6031142D01*
X4092919Y6031142D01*
X4085225Y6029923D01*
X4078285Y6026387D01*
X3993238Y5983054D01*
X3993236Y5983053D01*
X3986299Y5979518D01*
X3907791Y5901010D01*
X3904256Y5894073D01*
X3904255Y5894071D01*
X3860922Y5809024D01*
X3857386Y5802084D01*
X3840017Y5692423D01*
X-7904878Y5692423D01*
X-7904878Y5973488D01*
X-7912446Y6021271D01*
X-7919440Y6065431D01*
X-7919440Y6065432D01*
X-7920659Y6073126D01*
X-7931300Y6094011D01*
X-7978314Y6186281D01*
X-7978315Y6186283D01*
X-7981850Y6193220D01*
X-7998541Y6209911D01*
X-5692708Y6209911D01*
X-5674306Y6105548D01*
X-5669976Y6098048D01*
X-5640672Y6047292D01*
X-5621320Y6013773D01*
X-5540140Y5945655D01*
X-5532002Y5942693D01*
X-5532000Y5942692D01*
X-5495126Y5929272D01*
X-5440558Y5909411D01*
X-5334586Y5909411D01*
X-5280018Y5929272D01*
X-5243144Y5942692D01*
X-5243142Y5942693D01*
X-5235004Y5945655D01*
X-5153824Y6013773D01*
X-5134472Y6047292D01*
X-5105168Y6098048D01*
X-5100838Y6105548D01*
X-5091973Y6155823D01*
X1929486Y6155823D01*
X1947888Y6051460D01*
X1952218Y6043960D01*
X1969646Y6013773D01*
X2000874Y5959685D01*
X2082054Y5891567D01*
X2090192Y5888605D01*
X2090194Y5888604D01*
X2127068Y5875184D01*
X2181636Y5855323D01*
X2287608Y5855323D01*
X2342176Y5875184D01*
X2379050Y5888604D01*
X2379052Y5888605D01*
X2387190Y5891567D01*
X2468370Y5959685D01*
X2499598Y6013773D01*
X2517026Y6043960D01*
X2521356Y6051460D01*
X2539758Y6155823D01*
X2521356Y6260186D01*
X2490129Y6314274D01*
X2472699Y6344463D01*
X2468370Y6351961D01*
X2403447Y6406437D01*
X2393827Y6414510D01*
X2387190Y6420079D01*
X2379052Y6423041D01*
X2379050Y6423042D01*
X2342507Y6436342D01*
X2293991Y6454000D01*
X2245777Y6491668D01*
X2235053Y6529066D01*
X2219406Y6486079D01*
X2175253Y6454000D01*
X2126737Y6436342D01*
X2090194Y6423042D01*
X2090192Y6423041D01*
X2082054Y6420079D01*
X2075417Y6414510D01*
X2065797Y6406437D01*
X2000874Y6351961D01*
X1996545Y6344463D01*
X1979116Y6314274D01*
X1947888Y6260186D01*
X1929486Y6155823D01*
X-5091973Y6155823D01*
X-5082436Y6209911D01*
X-5100838Y6314274D01*
X-5118267Y6344463D01*
X-5149495Y6398551D01*
X-5153824Y6406049D01*
X-5235004Y6474167D01*
X-5243142Y6477129D01*
X-5243144Y6477130D01*
X-5309482Y6501274D01*
X-5334586Y6510411D01*
X-5440558Y6510411D01*
X-5465662Y6501274D01*
X-5532000Y6477130D01*
X-5532002Y6477129D01*
X-5540140Y6474167D01*
X-5621320Y6406049D01*
X-5625649Y6398551D01*
X-5656876Y6344463D01*
X-5674306Y6314274D01*
X-5692708Y6209911D01*
X-7998541Y6209911D01*
X-8068626Y6279996D01*
X-8096403Y6334513D01*
X-8086832Y6394945D01*
X-8068626Y6420004D01*
X-7981850Y6506780D01*
X-7970494Y6529066D01*
X-7924195Y6619934D01*
X-7924195Y6619935D01*
X-7920659Y6626874D01*
X-7918938Y6637736D01*
X-7905487Y6722666D01*
X-7905487Y6722668D01*
X-7904878Y6726512D01*
X-7904878Y7088877D01*
X-4665469Y7088877D01*
X-4647067Y6984514D01*
X-4594081Y6892739D01*
X-4512901Y6824621D01*
X-4504763Y6821659D01*
X-4504761Y6821658D01*
X-4476411Y6811340D01*
X-4413319Y6788377D01*
X-4307347Y6788377D01*
X-4244255Y6811340D01*
X-4215905Y6821658D01*
X-4215903Y6821659D01*
X-4207765Y6824621D01*
X-4126585Y6892739D01*
X-4100317Y6938236D01*
X1929486Y6938236D01*
X1947888Y6833873D01*
X2000874Y6742098D01*
X2082054Y6673980D01*
X2090192Y6671018D01*
X2175253Y6640059D01*
X2223468Y6602389D01*
X2234192Y6564992D01*
X2249837Y6607979D01*
X2293991Y6640059D01*
X2379052Y6671018D01*
X2387190Y6673980D01*
X2468370Y6742098D01*
X2521356Y6833873D01*
X2539758Y6938236D01*
X2525354Y7019927D01*
X4350158Y7019927D01*
X4351377Y7012231D01*
X4364050Y6932221D01*
X4367527Y6910266D01*
X4371063Y6903326D01*
X4413472Y6820094D01*
X4417932Y6811340D01*
X4496440Y6732832D01*
X4503377Y6729297D01*
X4503379Y6729296D01*
X4560439Y6700223D01*
X4595366Y6682427D01*
X4603060Y6681208D01*
X4603061Y6681208D01*
X4697331Y6666277D01*
X4705027Y6665058D01*
X4712723Y6666277D01*
X4806993Y6681208D01*
X4806994Y6681208D01*
X4814688Y6682427D01*
X4849615Y6700223D01*
X4906675Y6729296D01*
X4906677Y6729297D01*
X4913614Y6732832D01*
X4992122Y6811340D01*
X4996583Y6820094D01*
X5038991Y6903326D01*
X5042527Y6910266D01*
X5046005Y6932221D01*
X5058677Y7012231D01*
X5059896Y7019927D01*
X5057637Y7034187D01*
X6119453Y7034187D01*
X6120672Y7026491D01*
X6128509Y6977014D01*
X6136822Y6924526D01*
X6140358Y6917586D01*
X6183012Y6833873D01*
X6187227Y6825600D01*
X6265735Y6747092D01*
X6272672Y6743557D01*
X6272674Y6743556D01*
X6313674Y6722666D01*
X6364661Y6696687D01*
X6372355Y6695468D01*
X6372356Y6695468D01*
X6432368Y6685963D01*
X6462390Y6681208D01*
X6466626Y6680537D01*
X6474322Y6679318D01*
X6482018Y6680537D01*
X6486255Y6681208D01*
X6516276Y6685963D01*
X6576288Y6695468D01*
X6576289Y6695468D01*
X6583983Y6696687D01*
X6634970Y6722666D01*
X6675970Y6743556D01*
X6675972Y6743557D01*
X6682909Y6747092D01*
X6761417Y6825600D01*
X6765633Y6833873D01*
X6808286Y6917586D01*
X6811822Y6924526D01*
X6820136Y6977014D01*
X6827972Y7026491D01*
X6829191Y7034187D01*
X6819178Y7097407D01*
X6813041Y7136153D01*
X6813041Y7136154D01*
X6811822Y7143848D01*
X6784779Y7196923D01*
X6764953Y7235835D01*
X6764952Y7235837D01*
X6761417Y7242774D01*
X6682909Y7321282D01*
X6675972Y7324817D01*
X6675970Y7324818D01*
X6590923Y7368151D01*
X6583983Y7371687D01*
X6576289Y7372906D01*
X6576288Y7372906D01*
X6482018Y7387837D01*
X6474322Y7389056D01*
X6466626Y7387837D01*
X6372356Y7372906D01*
X6372355Y7372906D01*
X6364661Y7371687D01*
X6357721Y7368151D01*
X6272674Y7324818D01*
X6272672Y7324817D01*
X6265735Y7321282D01*
X6187227Y7242774D01*
X6183692Y7235837D01*
X6183691Y7235835D01*
X6163865Y7196923D01*
X6136822Y7143848D01*
X6135603Y7136154D01*
X6135603Y7136153D01*
X6129466Y7097407D01*
X6119453Y7034187D01*
X5057637Y7034187D01*
X5042527Y7129588D01*
X5038991Y7136528D01*
X4995658Y7221575D01*
X4995657Y7221577D01*
X4992122Y7228514D01*
X4913614Y7307022D01*
X4906677Y7310557D01*
X4906675Y7310558D01*
X4821628Y7353891D01*
X4814688Y7357427D01*
X4806994Y7358646D01*
X4806993Y7358646D01*
X4724656Y7371687D01*
X4705027Y7374796D01*
X4685398Y7371687D01*
X4603061Y7358646D01*
X4603060Y7358646D01*
X4595366Y7357427D01*
X4588426Y7353891D01*
X4503379Y7310558D01*
X4503377Y7310557D01*
X4496440Y7307022D01*
X4417932Y7228514D01*
X4414397Y7221577D01*
X4414396Y7221575D01*
X4371063Y7136528D01*
X4367527Y7129588D01*
X4350158Y7019927D01*
X2525354Y7019927D01*
X2521356Y7042599D01*
X2468370Y7134374D01*
X2387190Y7202492D01*
X2379052Y7205454D01*
X2379050Y7205455D01*
X2342176Y7218875D01*
X2287608Y7238736D01*
X2181636Y7238736D01*
X2127068Y7218875D01*
X2090194Y7205455D01*
X2090192Y7205454D01*
X2082054Y7202492D01*
X2000874Y7134374D01*
X1947888Y7042599D01*
X1929486Y6938236D01*
X-4100317Y6938236D01*
X-4073599Y6984514D01*
X-4055197Y7088877D01*
X-4073599Y7193240D01*
X-4102609Y7243488D01*
X-4122256Y7277517D01*
X-4126585Y7285015D01*
X-4207765Y7353133D01*
X-4215903Y7356095D01*
X-4215905Y7356096D01*
X-4267285Y7374796D01*
X-4307347Y7389377D01*
X-4413319Y7389377D01*
X-4453381Y7374796D01*
X-4504761Y7356096D01*
X-4504763Y7356095D01*
X-4512901Y7353133D01*
X-4594081Y7285015D01*
X-4598410Y7277517D01*
X-4618056Y7243488D01*
X-4647067Y7193240D01*
X-4665469Y7088877D01*
X-7904878Y7088877D01*
X-7904878Y7243488D01*
X-7905637Y7248280D01*
X-7919440Y7335431D01*
X-7919440Y7335432D01*
X-7920659Y7343126D01*
X-7926144Y7353891D01*
X-7978314Y7456281D01*
X-7978315Y7456283D01*
X-7981850Y7463220D01*
X-8068626Y7549996D01*
X-8096403Y7604513D01*
X-8086832Y7664945D01*
X-8068626Y7690004D01*
X-7981850Y7776780D01*
X-7974639Y7790931D01*
X-7924195Y7889934D01*
X-7924195Y7889935D01*
X-7920659Y7896874D01*
X-7916161Y7925270D01*
X-7905928Y7989879D01*
X-5388652Y7989879D01*
X-5370250Y7885516D01*
X-5317264Y7793741D01*
X-5236084Y7725623D01*
X-5227946Y7722661D01*
X-5227944Y7722660D01*
X-5191070Y7709240D01*
X-5136502Y7689379D01*
X-5030530Y7689379D01*
X-4975962Y7709240D01*
X-4939088Y7722660D01*
X-4939086Y7722661D01*
X-4930948Y7725623D01*
X-4849768Y7793741D01*
X-4796782Y7885516D01*
X-4778380Y7989879D01*
X-4796782Y8094242D01*
X-4804806Y8108141D01*
X-4845439Y8178519D01*
X-4849768Y8186017D01*
X-4930948Y8254135D01*
X-4939086Y8257097D01*
X-4939088Y8257098D01*
X-4987089Y8274568D01*
X-5030530Y8290379D01*
X-5136502Y8290379D01*
X-5179943Y8274568D01*
X-5227944Y8257098D01*
X-5227946Y8257097D01*
X-5236084Y8254135D01*
X-5317264Y8186017D01*
X-5321593Y8178519D01*
X-5362225Y8108141D01*
X-5370250Y8094242D01*
X-5388652Y7989879D01*
X-7905928Y7989879D01*
X-7905487Y7992666D01*
X-7905487Y7992668D01*
X-7904878Y7996512D01*
X-7904878Y8513488D01*
X-7920659Y8613126D01*
X-7924480Y8620625D01*
X-7928970Y8629437D01*
X1879753Y8629437D01*
X1897122Y8519776D01*
X1947527Y8420850D01*
X2026035Y8342342D01*
X2032972Y8338807D01*
X2032974Y8338806D01*
X2052899Y8328654D01*
X2118863Y8295044D01*
X2124961Y8291937D01*
X2124469Y8290972D01*
X2167977Y8259365D01*
X2186887Y8201175D01*
X2167983Y8142983D01*
X2121748Y8108141D01*
X2090196Y8096657D01*
X2090193Y8096655D01*
X2082054Y8093693D01*
X2000874Y8025575D01*
X1947888Y7933800D01*
X1929486Y7829437D01*
X1947888Y7725074D01*
X1952218Y7717574D01*
X1968496Y7689379D01*
X2000874Y7633299D01*
X2082054Y7565181D01*
X2090192Y7562219D01*
X2090194Y7562218D01*
X2100333Y7558528D01*
X2181636Y7528937D01*
X2287608Y7528937D01*
X2368911Y7558528D01*
X2379050Y7562218D01*
X2379052Y7562219D01*
X2387190Y7565181D01*
X2468370Y7633299D01*
X2500748Y7689379D01*
X2517026Y7717574D01*
X2521356Y7725074D01*
X2539758Y7829437D01*
X2521356Y7933800D01*
X2468370Y8025575D01*
X2389886Y8091431D01*
X5488980Y8091431D01*
X5507382Y7987068D01*
X5511712Y7979568D01*
X5556039Y7902791D01*
X5560368Y7895293D01*
X5641548Y7827175D01*
X5649686Y7824213D01*
X5649688Y7824212D01*
X5686562Y7810792D01*
X5741130Y7790931D01*
X5847102Y7790931D01*
X5901670Y7810792D01*
X5938544Y7824212D01*
X5938546Y7824213D01*
X5946684Y7827175D01*
X6027864Y7895293D01*
X6032193Y7902791D01*
X6076520Y7979568D01*
X6080850Y7987068D01*
X6099252Y8091431D01*
X6080850Y8195794D01*
X6044148Y8259365D01*
X6032193Y8280071D01*
X6027864Y8287569D01*
X5946684Y8355687D01*
X5938546Y8358649D01*
X5938544Y8358650D01*
X5901670Y8372070D01*
X5847102Y8391931D01*
X5741130Y8391931D01*
X5686562Y8372070D01*
X5649688Y8358650D01*
X5649686Y8358649D01*
X5641548Y8355687D01*
X5560368Y8287569D01*
X5556039Y8280071D01*
X5544085Y8259365D01*
X5507382Y8195794D01*
X5488980Y8091431D01*
X2389886Y8091431D01*
X2387190Y8093693D01*
X2379051Y8096655D01*
X2379048Y8096657D01*
X2347496Y8108141D01*
X2299282Y8145810D01*
X2282417Y8204626D01*
X2303344Y8262121D01*
X2344716Y8291088D01*
X2344283Y8291937D01*
X2346634Y8293135D01*
X2416345Y8328654D01*
X2436270Y8338806D01*
X2436272Y8338807D01*
X2443209Y8342342D01*
X2477123Y8376256D01*
X2531640Y8404033D01*
X2592072Y8394462D01*
X2632864Y8355752D01*
X2648509Y8328654D01*
X2729689Y8260536D01*
X2737827Y8257574D01*
X2737829Y8257573D01*
X2762577Y8248566D01*
X2829271Y8224292D01*
X2935243Y8224292D01*
X3001937Y8248566D01*
X3026685Y8257573D01*
X3026687Y8257574D01*
X3034825Y8260536D01*
X3116005Y8328654D01*
X3168991Y8420429D01*
X3187393Y8524792D01*
X3168991Y8629155D01*
X3116005Y8720930D01*
X3034825Y8789048D01*
X3026687Y8792010D01*
X3026685Y8792011D01*
X2989811Y8805431D01*
X2935243Y8825292D01*
X2829271Y8825292D01*
X2774703Y8805431D01*
X2737829Y8792011D01*
X2737827Y8792010D01*
X2729689Y8789048D01*
X2696825Y8761472D01*
X2640098Y8738552D01*
X2580730Y8753354D01*
X2544981Y8792366D01*
X2525253Y8831085D01*
X2525252Y8831087D01*
X2521717Y8838024D01*
X2443209Y8916532D01*
X2436272Y8920067D01*
X2436270Y8920068D01*
X2351223Y8963401D01*
X2344283Y8966937D01*
X2336589Y8968156D01*
X2336588Y8968156D01*
X2242318Y8983087D01*
X2234622Y8984306D01*
X2226926Y8983087D01*
X2132656Y8968156D01*
X2132655Y8968156D01*
X2124961Y8966937D01*
X2118021Y8963401D01*
X2032974Y8920068D01*
X2032972Y8920067D01*
X2026035Y8916532D01*
X1947527Y8838024D01*
X1943992Y8831087D01*
X1943991Y8831085D01*
X1904386Y8753354D01*
X1897122Y8739098D01*
X1879753Y8629437D01*
X-7928970Y8629437D01*
X-7978314Y8726281D01*
X-7978315Y8726283D01*
X-7981850Y8733220D01*
X-8068626Y8819996D01*
X-8096403Y8874513D01*
X-8086832Y8934945D01*
X-8068626Y8960004D01*
X-7981850Y9046780D01*
X-7920659Y9166874D01*
X-7904878Y9266512D01*
X-7904878Y9783488D01*
X-7920659Y9883126D01*
X-7981850Y10003220D01*
X-8077158Y10098528D01*
X-8084095Y10102063D01*
X-8084097Y10102064D01*
X-8190312Y10156183D01*
X-8190313Y10156183D01*
X-8197252Y10159719D01*
X-8204946Y10160938D01*
X-8204947Y10160938D01*
X-8293044Y10174891D01*
X-8293046Y10174891D01*
X-8296890Y10175500D01*
X-8637607Y10175500D01*
X-8695798Y10194407D01*
X-8731762Y10243907D01*
X-8731762Y10305093D01*
X-8724917Y10321168D01*
X-8668886Y10425995D01*
X-8658108Y10442125D01*
X-8571044Y10548215D01*
X-8557326Y10561933D01*
X-8451240Y10648998D01*
X-8435112Y10659775D01*
X-8314082Y10724470D01*
X-8296155Y10731896D01*
X-8164831Y10771736D01*
X-8145805Y10775521D01*
X-8095946Y10780434D01*
X-8031371Y10786795D01*
X-8021497Y10787272D01*
X-8010750Y10787254D01*
X-7999885Y10784756D01*
X-7989011Y10787217D01*
X-7987893Y10787470D01*
X-7966040Y10789912D01*
X7945993Y10789912D01*
X7968178Y10787394D01*
G37*
%TD.AperFunction*%
%TD*%
M02*
