%TF.GenerationSoftware,KiCad,Pcbnew,6.0.11+dfsg-1~bpo11+1*%
%TF.CreationDate,2023-07-13T21:39:36-04:00*%
%TF.ProjectId,Pop-In RP2040,506f702d-496e-4205-9250-323034302e6b,rev?*%
%TF.SameCoordinates,PX5f5e100PY5f5e100*%
%TF.FileFunction,Copper,L1,Top*%
%TF.FilePolarity,Positive*%
%FSLAX46Y46*%
G04 Gerber Fmt 4.6, Leading zero omitted, Abs format (unit mm)*
G04 Created by KiCad (PCBNEW 6.0.11+dfsg-1~bpo11+1) date 2023-07-13 21:39:36*
%MOMM*%
%LPD*%
G01*
G04 APERTURE LIST*
G04 Aperture macros list*
%AMRoundRect*
0 Rectangle with rounded corners*
0 $1 Rounding radius*
0 $2 $3 $4 $5 $6 $7 $8 $9 X,Y pos of 4 corners*
0 Add a 4 corners polygon primitive as box body*
4,1,4,$2,$3,$4,$5,$6,$7,$8,$9,$2,$3,0*
0 Add four circle primitives for the rounded corners*
1,1,$1+$1,$2,$3*
1,1,$1+$1,$4,$5*
1,1,$1+$1,$6,$7*
1,1,$1+$1,$8,$9*
0 Add four rect primitives between the rounded corners*
20,1,$1+$1,$2,$3,$4,$5,0*
20,1,$1+$1,$4,$5,$6,$7,0*
20,1,$1+$1,$6,$7,$8,$9,0*
20,1,$1+$1,$8,$9,$2,$3,0*%
G04 Aperture macros list end*
%TA.AperFunction,SMDPad,CuDef*%
%ADD10RoundRect,0.140000X-0.140000X-0.170000X0.140000X-0.170000X0.140000X0.170000X-0.140000X0.170000X0*%
%TD*%
%TA.AperFunction,SMDPad,CuDef*%
%ADD11R,0.850000X0.350000*%
%TD*%
%TA.AperFunction,SMDPad,CuDef*%
%ADD12R,2.400000X3.100000*%
%TD*%
%TA.AperFunction,SMDPad,CuDef*%
%ADD13RoundRect,0.147500X0.147500X0.172500X-0.147500X0.172500X-0.147500X-0.172500X0.147500X-0.172500X0*%
%TD*%
%TA.AperFunction,SMDPad,CuDef*%
%ADD14R,0.900000X0.800000*%
%TD*%
%TA.AperFunction,SMDPad,CuDef*%
%ADD15RoundRect,0.135000X0.135000X0.185000X-0.135000X0.185000X-0.135000X-0.185000X0.135000X-0.185000X0*%
%TD*%
%TA.AperFunction,SMDPad,CuDef*%
%ADD16RoundRect,0.135000X-0.135000X-0.185000X0.135000X-0.185000X0.135000X0.185000X-0.135000X0.185000X0*%
%TD*%
%TA.AperFunction,SMDPad,CuDef*%
%ADD17RoundRect,0.140000X-0.170000X0.140000X-0.170000X-0.140000X0.170000X-0.140000X0.170000X0.140000X0*%
%TD*%
%TA.AperFunction,SMDPad,CuDef*%
%ADD18RoundRect,0.135000X0.185000X-0.135000X0.185000X0.135000X-0.185000X0.135000X-0.185000X-0.135000X0*%
%TD*%
%TA.AperFunction,SMDPad,CuDef*%
%ADD19RoundRect,0.140000X0.140000X0.170000X-0.140000X0.170000X-0.140000X-0.170000X0.140000X-0.170000X0*%
%TD*%
%TA.AperFunction,SMDPad,CuDef*%
%ADD20RoundRect,0.147500X-0.147500X-0.172500X0.147500X-0.172500X0.147500X0.172500X-0.147500X0.172500X0*%
%TD*%
%TA.AperFunction,SMDPad,CuDef*%
%ADD21RoundRect,0.140000X0.170000X-0.140000X0.170000X0.140000X-0.170000X0.140000X-0.170000X-0.140000X0*%
%TD*%
%TA.AperFunction,SMDPad,CuDef*%
%ADD22RoundRect,0.050000X-0.387500X-0.050000X0.387500X-0.050000X0.387500X0.050000X-0.387500X0.050000X0*%
%TD*%
%TA.AperFunction,SMDPad,CuDef*%
%ADD23RoundRect,0.050000X-0.050000X-0.387500X0.050000X-0.387500X0.050000X0.387500X-0.050000X0.387500X0*%
%TD*%
%TA.AperFunction,SMDPad,CuDef*%
%ADD24R,3.200000X3.200000*%
%TD*%
%TA.AperFunction,SMDPad,CuDef*%
%ADD25RoundRect,0.135000X-0.185000X0.135000X-0.185000X-0.135000X0.185000X-0.135000X0.185000X0.135000X0*%
%TD*%
%TA.AperFunction,SMDPad,CuDef*%
%ADD26R,0.450000X0.450000*%
%TD*%
%TA.AperFunction,CastellatedPad*%
%ADD27RoundRect,0.225000X-0.675000X-0.225000X0.675000X-0.225000X0.675000X0.225000X-0.675000X0.225000X0*%
%TD*%
%TA.AperFunction,CastellatedPad*%
%ADD28RoundRect,0.225000X0.225000X-0.675000X0.225000X0.675000X-0.225000X0.675000X-0.225000X-0.675000X0*%
%TD*%
%TA.AperFunction,CastellatedPad*%
%ADD29RoundRect,0.225000X0.675000X0.225000X-0.675000X0.225000X-0.675000X-0.225000X0.675000X-0.225000X0*%
%TD*%
%TA.AperFunction,ViaPad*%
%ADD30C,0.300000*%
%TD*%
%TA.AperFunction,ViaPad*%
%ADD31C,0.400000*%
%TD*%
%TA.AperFunction,Conductor*%
%ADD32C,0.200000*%
%TD*%
G04 APERTURE END LIST*
D10*
%TO.P,C15,1*%
%TO.N,+3V3*%
X2929958Y8991810D03*
%TO.P,C15,2*%
%TO.N,GND*%
X3889958Y8991810D03*
%TD*%
D11*
%TO.P,U2,1,~{CS}*%
%TO.N,QSPI SS*%
X-2176463Y8629437D03*
%TO.P,U2,2,DO(IO1)*%
%TO.N,QSPI_SD1*%
X-2176463Y7829437D03*
%TO.P,U2,3,IO2*%
%TO.N,QSPI_SD2*%
X-2176463Y7029437D03*
%TO.P,U2,4,GND*%
%TO.N,GND*%
X-2176463Y6229437D03*
%TO.P,U2,5,DI(IO0)*%
%TO.N,QSPI_SD0*%
X1723537Y6229437D03*
%TO.P,U2,6,CLK*%
%TO.N,QSPI_SCLK*%
X1723537Y7029437D03*
%TO.P,U2,7,IO3*%
%TO.N,QSPI_SD3*%
X1723537Y7829437D03*
%TO.P,U2,8,VCC*%
%TO.N,+3V3*%
X1723537Y8629437D03*
D12*
%TO.P,U2,9,EP*%
%TO.N,unconnected-(U2-Pad9)*%
X-226463Y7429437D03*
%TD*%
D13*
%TO.P,D2,1,K*%
%TO.N,GND*%
X6066963Y9106733D03*
%TO.P,D2,2,A*%
%TO.N,Net-(D2-Pad2)*%
X5096963Y9106733D03*
%TD*%
D14*
%TO.P,Y1,1,1*%
%TO.N,Net-(C16-Pad1)*%
X-2515833Y-8902367D03*
%TO.P,Y1,2,2*%
%TO.N,GND*%
X-1115833Y-8902367D03*
%TO.P,Y1,3,3*%
%TO.N,Net-(C17-Pad1)*%
X-1115833Y-7802367D03*
%TO.P,Y1,4,4*%
%TO.N,GND*%
X-2515833Y-7802367D03*
%TD*%
D15*
%TO.P,R3,1*%
%TO.N,io25*%
X6099540Y8083854D03*
%TO.P,R3,2*%
%TO.N,Net-(D2-Pad2)*%
X5079540Y8083854D03*
%TD*%
D10*
%TO.P,C6,1*%
%TO.N,+3V3*%
X5213523Y-2865370D03*
%TO.P,C6,2*%
%TO.N,GND*%
X6173523Y-2865370D03*
%TD*%
D15*
%TO.P,R9,1*%
%TO.N,Net-(C13-Pad2)*%
X-4353362Y5732832D03*
%TO.P,R9,2*%
%TO.N,ADC_REF*%
X-5373362Y5732832D03*
%TD*%
D16*
%TO.P,R4,1*%
%TO.N,+3V3*%
X-5375113Y7989879D03*
%TO.P,R4,2*%
%TO.N,Net-(D1-Pad2)*%
X-4355113Y7989879D03*
%TD*%
D17*
%TO.P,C12,1*%
%TO.N,GND*%
X1189669Y4802116D03*
%TO.P,C12,2*%
%TO.N,+1V1*%
X1189669Y3842116D03*
%TD*%
D18*
%TO.P,R1,1*%
%TO.N,USB_D+*%
X3127843Y-9179588D03*
%TO.P,R1,2*%
%TO.N,Net-(R1-Pad2)*%
X3127843Y-8159588D03*
%TD*%
D19*
%TO.P,C5,1*%
%TO.N,+3V3*%
X-5065731Y-2863165D03*
%TO.P,C5,2*%
%TO.N,GND*%
X-6025731Y-2863165D03*
%TD*%
D20*
%TO.P,D1,1,K*%
%TO.N,GND*%
X-5348389Y9006737D03*
%TO.P,D1,2,A*%
%TO.N,Net-(D1-Pad2)*%
X-4378389Y9006737D03*
%TD*%
D21*
%TO.P,C10,1*%
%TO.N,+3V3*%
X215312Y3842116D03*
%TO.P,C10,2*%
%TO.N,GND*%
X215312Y4802116D03*
%TD*%
D22*
%TO.P,U1,1,IOVDD*%
%TO.N,+3V3*%
X-3352878Y961165D03*
%TO.P,U1,2,GPIO0*%
%TO.N,io0*%
X-3352878Y561165D03*
%TO.P,U1,3,GPIO1*%
%TO.N,io1*%
X-3352878Y161165D03*
%TO.P,U1,4,GPIO2*%
%TO.N,io2*%
X-3352878Y-238835D03*
%TO.P,U1,5,GPIO3*%
%TO.N,io3*%
X-3352878Y-638835D03*
%TO.P,U1,6,GPIO4*%
%TO.N,io4*%
X-3352878Y-1038835D03*
%TO.P,U1,7,GPIO5*%
%TO.N,io5*%
X-3352878Y-1438835D03*
%TO.P,U1,8,GPIO6*%
%TO.N,io6*%
X-3352878Y-1838835D03*
%TO.P,U1,9,GPIO7*%
%TO.N,io7*%
X-3352878Y-2238835D03*
%TO.P,U1,10,IOVDD*%
%TO.N,+3V3*%
X-3352878Y-2638835D03*
%TO.P,U1,11,GPIO8*%
%TO.N,io8*%
X-3352878Y-3038835D03*
%TO.P,U1,12,GPIO9*%
%TO.N,io9*%
X-3352878Y-3438835D03*
%TO.P,U1,13,GPIO10*%
%TO.N,io10*%
X-3352878Y-3838835D03*
%TO.P,U1,14,GPIO11*%
%TO.N,io11*%
X-3352878Y-4238835D03*
D23*
%TO.P,U1,15,GPIO12*%
%TO.N,io12*%
X-2515378Y-5076335D03*
%TO.P,U1,16,GPIO13*%
%TO.N,io13*%
X-2115378Y-5076335D03*
%TO.P,U1,17,GPIO14*%
%TO.N,io14*%
X-1715378Y-5076335D03*
%TO.P,U1,18,GPIO15*%
%TO.N,io15*%
X-1315378Y-5076335D03*
%TO.P,U1,19,TESTEN*%
%TO.N,GND*%
X-915378Y-5076335D03*
%TO.P,U1,20,XIN*%
%TO.N,Net-(C16-Pad1)*%
X-515378Y-5076335D03*
%TO.P,U1,21,XOUT*%
%TO.N,Net-(C17-Pad1)*%
X-115378Y-5076335D03*
%TO.P,U1,22,IOVDD*%
%TO.N,+3V3*%
X284622Y-5076335D03*
%TO.P,U1,23,DVDD*%
%TO.N,+1V1*%
X684622Y-5076335D03*
%TO.P,U1,24,SWCLK*%
%TO.N,SWCLK*%
X1084622Y-5076335D03*
%TO.P,U1,25,SWD*%
%TO.N,SWDIO*%
X1484622Y-5076335D03*
%TO.P,U1,26,RUN*%
%TO.N,Reset*%
X1884622Y-5076335D03*
%TO.P,U1,27,GPIO16*%
%TO.N,io16*%
X2284622Y-5076335D03*
%TO.P,U1,28,GPIO17*%
%TO.N,io17*%
X2684622Y-5076335D03*
D22*
%TO.P,U1,29,GPIO18*%
%TO.N,io18*%
X3522122Y-4238835D03*
%TO.P,U1,30,GPIO19*%
%TO.N,io19*%
X3522122Y-3838835D03*
%TO.P,U1,31,GPIO20*%
%TO.N,io20*%
X3522122Y-3438835D03*
%TO.P,U1,32,GPIO21*%
%TO.N,io21*%
X3522122Y-3038835D03*
%TO.P,U1,33,IOVDD*%
%TO.N,+3V3*%
X3522122Y-2638835D03*
%TO.P,U1,34,GPIO22*%
%TO.N,io22*%
X3522122Y-2238835D03*
%TO.P,U1,35,GPIO23*%
%TO.N,io23*%
X3522122Y-1838835D03*
%TO.P,U1,36,GPIO24*%
%TO.N,io24*%
X3522122Y-1438835D03*
%TO.P,U1,37,GPIO25*%
%TO.N,io25*%
X3522122Y-1038835D03*
%TO.P,U1,38,GPIO26_ADC0*%
%TO.N,io26*%
X3522122Y-638835D03*
%TO.P,U1,39,GPIO27_ADC1*%
%TO.N,io27*%
X3522122Y-238835D03*
%TO.P,U1,40,GPIO28_ADC2*%
%TO.N,io28*%
X3522122Y161165D03*
%TO.P,U1,41,GPIO29_ADC3*%
%TO.N,io29*%
X3522122Y561165D03*
%TO.P,U1,42,IOVDD*%
%TO.N,+3V3*%
X3522122Y961165D03*
D23*
%TO.P,U1,43,ADC_AVDD*%
%TO.N,Net-(C13-Pad2)*%
X2684622Y1798665D03*
%TO.P,U1,44,VREG_IN*%
%TO.N,+3V3*%
X2284622Y1798665D03*
%TO.P,U1,45,VREG_VOUT*%
%TO.N,+1V1*%
X1884622Y1798665D03*
%TO.P,U1,46,USB_DM*%
%TO.N,Net-(R2-Pad2)*%
X1484622Y1798665D03*
%TO.P,U1,47,USB_DP*%
%TO.N,Net-(R1-Pad2)*%
X1084622Y1798665D03*
%TO.P,U1,48,USB_VDD*%
%TO.N,+3V3*%
X684622Y1798665D03*
%TO.P,U1,49,IOVDD*%
X284622Y1798665D03*
%TO.P,U1,50,DVDD*%
%TO.N,+1V1*%
X-115378Y1798665D03*
%TO.P,U1,51,QSPI_SD3*%
%TO.N,QSPI_SD3*%
X-515378Y1798665D03*
%TO.P,U1,52,QSPI_SCLK*%
%TO.N,QSPI_SCLK*%
X-915378Y1798665D03*
%TO.P,U1,53,QSPI_SD0*%
%TO.N,QSPI_SD0*%
X-1315378Y1798665D03*
%TO.P,U1,54,QSPI_SD2*%
%TO.N,QSPI_SD2*%
X-1715378Y1798665D03*
%TO.P,U1,55,QSPI_SD1*%
%TO.N,QSPI_SD1*%
X-2115378Y1798665D03*
%TO.P,U1,56,QSPI_SS*%
%TO.N,QSPI SS*%
X-2515378Y1798665D03*
D24*
%TO.P,U1,57,GND*%
%TO.N,GND*%
X84622Y-1638835D03*
%TD*%
D10*
%TO.P,C9,1*%
%TO.N,+1V1*%
X1205555Y-6479004D03*
%TO.P,C9,2*%
%TO.N,GND*%
X2165555Y-6479004D03*
%TD*%
D18*
%TO.P,R2,1*%
%TO.N,USB_D-*%
X4439261Y-9179588D03*
%TO.P,R2,2*%
%TO.N,Net-(R2-Pad2)*%
X4439261Y-8159588D03*
%TD*%
D21*
%TO.P,C14,1*%
%TO.N,+3V3*%
X2157741Y3842116D03*
%TO.P,C14,2*%
%TO.N,GND*%
X2157741Y4802116D03*
%TD*%
D19*
%TO.P,C8,1*%
%TO.N,+3V3*%
X283269Y-6487179D03*
%TO.P,C8,2*%
%TO.N,GND*%
X-676731Y-6487179D03*
%TD*%
D15*
%TO.P,R8,1*%
%TO.N,+3V3*%
X6106544Y7027220D03*
%TO.P,R8,2*%
%TO.N,Net-(LED1-Pad2)*%
X5086544Y7027220D03*
%TD*%
D10*
%TO.P,C7,1*%
%TO.N,+3V3*%
X3552300Y2814099D03*
%TO.P,C7,2*%
%TO.N,GND*%
X4512300Y2814099D03*
%TD*%
D19*
%TO.P,C4,1*%
%TO.N,+3V3*%
X-3366114Y2814099D03*
%TO.P,C4,2*%
%TO.N,GND*%
X-4326114Y2814099D03*
%TD*%
D21*
%TO.P,C11,1*%
%TO.N,+1V1*%
X-759046Y3842116D03*
%TO.P,C11,2*%
%TO.N,GND*%
X-759046Y4802116D03*
%TD*%
D17*
%TO.P,C17,1*%
%TO.N,Net-(C17-Pad1)*%
X125368Y-7872367D03*
%TO.P,C17,2*%
%TO.N,GND*%
X125368Y-8832367D03*
%TD*%
D25*
%TO.P,R11,1*%
%TO.N,QSPI SS*%
X1905000Y-8159588D03*
%TO.P,R11,2*%
%TO.N,BootMode*%
X1905000Y-9179588D03*
%TD*%
D21*
%TO.P,C16,1*%
%TO.N,Net-(C16-Pad1)*%
X-3758060Y-8832367D03*
%TO.P,C16,2*%
%TO.N,GND*%
X-3758060Y-7872367D03*
%TD*%
D16*
%TO.P,R7,1*%
%TO.N,ADC_REF*%
X-5375113Y6760941D03*
%TO.P,R7,2*%
%TO.N,+3V3*%
X-4355113Y6760941D03*
%TD*%
D19*
%TO.P,C18,1*%
%TO.N,GND*%
X3889958Y8019547D03*
%TO.P,C18,2*%
%TO.N,+3V3*%
X2929958Y8019547D03*
%TD*%
D26*
%TO.P,LED1,1,DO*%
%TO.N,unconnected-(LED1-Pad1)*%
X3948660Y4473226D03*
%TO.P,LED1,2,VDD*%
%TO.N,Net-(LED1-Pad2)*%
X3948660Y5423226D03*
%TO.P,LED1,3,GND*%
%TO.N,GND*%
X4898660Y4473226D03*
%TO.P,LED1,4,DI*%
%TO.N,io24*%
X4898660Y5423226D03*
%TD*%
D10*
%TO.P,C13,1*%
%TO.N,GND*%
X-5339700Y4703324D03*
%TO.P,C13,2*%
%TO.N,Net-(C13-Pad2)*%
X-4379700Y4703324D03*
%TD*%
D27*
%TO.P,REF\u002A\u002A,1*%
%TO.N,io0*%
X-9005378Y9525000D03*
%TO.P,REF\u002A\u002A,2*%
%TO.N,io1*%
X-9005378Y8255000D03*
%TO.P,REF\u002A\u002A,3*%
%TO.N,io2*%
X-9005378Y6985000D03*
%TO.P,REF\u002A\u002A,4*%
%TO.N,io3*%
X-9005378Y5715000D03*
%TO.P,REF\u002A\u002A,5*%
%TO.N,io4*%
X-9005378Y4445000D03*
%TO.P,REF\u002A\u002A,6*%
%TO.N,io5*%
X-9005378Y3175000D03*
%TO.P,REF\u002A\u002A,7*%
%TO.N,io6*%
X-9005378Y1905000D03*
%TO.P,REF\u002A\u002A,8*%
%TO.N,io7*%
X-9005378Y635000D03*
%TO.P,REF\u002A\u002A,9*%
%TO.N,io8*%
X-9005378Y-635000D03*
%TO.P,REF\u002A\u002A,10*%
%TO.N,io9*%
X-9005378Y-1905000D03*
%TO.P,REF\u002A\u002A,11*%
%TO.N,io10*%
X-9005378Y-3175000D03*
%TO.P,REF\u002A\u002A,12*%
%TO.N,io11*%
X-9005378Y-4445000D03*
%TO.P,REF\u002A\u002A,13*%
%TO.N,io12*%
X-9005378Y-5715000D03*
%TO.P,REF\u002A\u002A,14*%
%TO.N,io13*%
X-9005378Y-6985000D03*
%TO.P,REF\u002A\u002A,15*%
%TO.N,io14*%
X-9005378Y-8255000D03*
%TO.P,REF\u002A\u002A,16*%
%TO.N,io15*%
X-9005378Y-9525000D03*
D28*
%TO.P,REF\u002A\u002A,17*%
%TO.N,GND*%
X-6985000Y-11034588D03*
%TO.P,REF\u002A\u002A,18*%
%TO.N,+3V3*%
X-5715000Y-11034588D03*
%TO.P,REF\u002A\u002A,19*%
%TO.N,ADC_REF*%
X-4445000Y-11034588D03*
%TO.P,REF\u002A\u002A,20*%
%TO.N,N/C*%
X-3175000Y-11034588D03*
%TO.P,REF\u002A\u002A,21*%
%TO.N,SWCLK*%
X-1905000Y-11034588D03*
%TO.P,REF\u002A\u002A,22*%
%TO.N,SWDIO*%
X-635000Y-11034588D03*
%TO.P,REF\u002A\u002A,23*%
%TO.N,Reset*%
X635000Y-11034588D03*
%TO.P,REF\u002A\u002A,24*%
%TO.N,BootMode*%
X1905000Y-11034588D03*
%TO.P,REF\u002A\u002A,25*%
%TO.N,USB_D+*%
X3175000Y-11034588D03*
%TO.P,REF\u002A\u002A,26*%
%TO.N,USB_D-*%
X4445000Y-11034588D03*
%TO.P,REF\u002A\u002A,27*%
%TO.N,+3V3*%
X5715000Y-11034588D03*
%TO.P,REF\u002A\u002A,28*%
%TO.N,GND*%
X6985000Y-11034588D03*
D29*
%TO.P,REF\u002A\u002A,29*%
%TO.N,io16*%
X8974622Y-9525000D03*
%TO.P,REF\u002A\u002A,30*%
%TO.N,io17*%
X8974622Y-8255000D03*
%TO.P,REF\u002A\u002A,31*%
%TO.N,io18*%
X8974622Y-6985000D03*
%TO.P,REF\u002A\u002A,32*%
%TO.N,io19*%
X8974622Y-5715000D03*
%TO.P,REF\u002A\u002A,33*%
%TO.N,io20*%
X8974622Y-4445000D03*
%TO.P,REF\u002A\u002A,34*%
%TO.N,io21*%
X8974622Y-3175000D03*
%TO.P,REF\u002A\u002A,35*%
%TO.N,io22*%
X8974622Y-1905000D03*
%TO.P,REF\u002A\u002A,36*%
%TO.N,io23*%
X8974622Y-635000D03*
%TO.P,REF\u002A\u002A,37*%
%TO.N,io24*%
X8974622Y635000D03*
%TO.P,REF\u002A\u002A,38*%
%TO.N,io25*%
X8974622Y1905000D03*
%TO.P,REF\u002A\u002A,39*%
%TO.N,io26*%
X8974622Y3175000D03*
%TO.P,REF\u002A\u002A,40*%
%TO.N,io27*%
X8974622Y4445000D03*
%TO.P,REF\u002A\u002A,41*%
%TO.N,io28*%
X8974622Y5715000D03*
%TO.P,REF\u002A\u002A,42*%
%TO.N,io29*%
X8974622Y6985000D03*
%TO.P,REF\u002A\u002A,43*%
%TO.N,N/C*%
X8974622Y8255000D03*
%TO.P,REF\u002A\u002A,44*%
X8974622Y9525000D03*
%TD*%
D30*
%TO.N,SWCLK*%
X1140853Y-4059506D03*
%TO.N,io24*%
X4895280Y5740361D03*
%TO.N,io25*%
X5794116Y8091431D03*
D31*
%TO.N,GND*%
X1356603Y-2281042D03*
X-1183397Y-1011042D03*
X1356603Y-376042D03*
X86603Y-2281042D03*
X1356603Y-1646042D03*
X-1183397Y-2916042D03*
X-548397Y-376042D03*
X-4932780Y-7943690D03*
X-1183397Y-376042D03*
X2070907Y9818108D03*
X5401569Y-7644144D03*
X721603Y-1646042D03*
D30*
X-6740879Y-2505449D03*
X2573111Y-1683514D03*
X7075116Y-2861066D03*
D31*
X86603Y-1011042D03*
X721603Y-376042D03*
X86603Y-1646042D03*
X1356603Y-1011042D03*
X1356603Y-2916042D03*
X-548397Y-2916042D03*
X-2539683Y9854222D03*
X-2161912Y5707368D03*
X-548397Y-1646042D03*
X-1183397Y-1646042D03*
X-4335767Y3735537D03*
X721603Y-2916042D03*
X4921047Y1811368D03*
X86603Y-2916042D03*
X-1183397Y-2281042D03*
X86603Y-376042D03*
D30*
%TO.N,+3V3*%
X5370770Y-2869859D03*
X-5279555Y-2863165D03*
X573669Y-6196778D03*
X6474322Y7034187D03*
X-4360333Y7088877D03*
X284622Y3785378D03*
X-3358646Y1319482D03*
D31*
X2234622Y8629437D03*
D30*
X3513775Y1319482D03*
X-5083516Y7989879D03*
X2157741Y3854688D03*
X2882257Y8524792D03*
%TO.N,QSPI_SCLK*%
X-1335378Y766165D03*
X2234622Y6938236D03*
%TO.N,QSPI SS*%
X1905000Y-7795080D03*
X-2515378Y-3222861D03*
%TO.N,QSPI_SD3*%
X2234622Y7829437D03*
X-620542Y766165D03*
%TO.N,QSPI_SD0*%
X-1190807Y2814110D03*
X2234622Y6155823D03*
%TO.N,Reset*%
X1853434Y-5793710D03*
%TO.N,Net-(R2-Pad2)*%
X4439261Y-7848835D03*
X1379622Y766165D03*
%TO.N,Net-(R1-Pad2)*%
X722842Y766165D03*
X3127843Y-7795080D03*
%TO.N,Net-(C16-Pad1)*%
X-523081Y-4059506D03*
X-3212786Y-8812745D03*
%TO.N,Net-(C17-Pad1)*%
X96088Y-4059506D03*
X-707832Y-7433164D03*
%TO.N,Net-(LED1-Pad2)*%
X4194886Y5692423D03*
X4705027Y7019927D03*
%TO.N,Net-(C13-Pad2)*%
X3038990Y1620399D03*
X-4360333Y5202691D03*
%TO.N,ADC_REF*%
X-5387572Y6209911D03*
%TO.N,SWDIO*%
X1717811Y-4059506D03*
%TD*%
D32*
%TO.N,io0*%
X-6876807Y7118946D02*
X-6876807Y6426793D01*
X-5360921Y2029923D02*
X-4923528Y1592530D01*
X-5749799Y3823221D02*
X-5749799Y3109062D01*
X-5749799Y3109062D02*
X-5360921Y2720184D01*
X-4659714Y561165D02*
X-3352878Y561165D01*
X-7327626Y7571383D02*
X-7328435Y7570574D01*
X-9005378Y9525000D02*
X-7874336Y9525000D01*
X-7712310Y9362974D02*
X-7712310Y8611316D01*
X-4923530Y824981D02*
X-4659714Y561165D01*
X-5360921Y2720184D02*
X-5360921Y2029923D01*
X-6112670Y4970038D02*
X-6112670Y4186092D01*
X-7712310Y8611316D02*
X-7327626Y8226632D01*
X-6112670Y4186092D02*
X-5749799Y3823221D01*
X-4923528Y1592530D02*
X-4923530Y824981D01*
X-6491835Y5349203D02*
X-6112670Y4970038D01*
X-6491836Y6041823D02*
X-6491835Y5349203D01*
X-7874336Y9525000D02*
X-7712310Y9362974D01*
X-6876807Y6426793D02*
X-6491836Y6041823D01*
X-7327626Y8226632D02*
X-7327626Y7571383D01*
X-7328435Y7570574D02*
X-6876807Y7118946D01*
%TO.N,io1*%
X-6891835Y5183517D02*
X-6512670Y4804352D01*
X-6891835Y5876137D02*
X-6891835Y5183517D01*
X-7921681Y8255000D02*
X-7727626Y8060946D01*
X-7276807Y6261108D02*
X-6891835Y5876137D01*
X-6512670Y4020406D02*
X-6149799Y3657535D01*
X-9005378Y8255000D02*
X-7921681Y8255000D01*
X-5760921Y1834658D02*
X-5323529Y1397263D01*
X-7727626Y8060946D02*
X-7739988Y8048584D01*
X-5323529Y1397263D02*
X-5323529Y634017D01*
X-7276807Y6953260D02*
X-7276807Y6261108D01*
X-5760921Y2544975D02*
X-5760921Y1834658D01*
X-6149799Y2933853D02*
X-5760921Y2544975D01*
X-6512670Y4804352D02*
X-6512670Y4020406D01*
X-6149799Y3657535D02*
X-6149799Y2933853D01*
X-4850677Y161165D02*
X-3352878Y161165D01*
X-7710036Y7386489D02*
X-7276807Y6953260D01*
X-7739988Y8048584D02*
X-7739988Y7386489D01*
X-7739988Y7386489D02*
X-7710036Y7386489D01*
X-5323529Y634017D02*
X-4850677Y161165D01*
%TO.N,io2*%
X-5723530Y468332D02*
X-5016363Y-238835D01*
X-7676807Y6787575D02*
X-7676807Y6095423D01*
X-6160921Y1668973D02*
X-5723529Y1231578D01*
X-6912670Y3854720D02*
X-6549799Y3491849D01*
X-5016363Y-238835D02*
X-3352878Y-238835D01*
X-7291835Y5710451D02*
X-7291835Y4936492D01*
X-6912669Y4557326D02*
X-6912670Y3854720D01*
X-7676807Y6095423D02*
X-7291835Y5710451D01*
X-6160921Y2379289D02*
X-6160921Y1668973D01*
X-7291835Y4936492D02*
X-6912669Y4557326D01*
X-9005378Y6985000D02*
X-7874231Y6985000D01*
X-6549799Y2768167D02*
X-6160921Y2379289D01*
X-5723529Y1231578D02*
X-5723530Y468332D01*
X-7874231Y6985000D02*
X-7676807Y6787575D01*
X-6549799Y3491849D02*
X-6549799Y2768167D01*
%TO.N,io3*%
X-6949799Y2602481D02*
X-6560921Y2213603D01*
X-6560921Y2213603D02*
X-6560921Y1503287D01*
X-6949799Y3326164D02*
X-6949799Y2602481D01*
X-7691835Y4770806D02*
X-7312669Y4391640D01*
X-6560921Y1503287D02*
X-6123529Y1065893D01*
X-5182049Y-638835D02*
X-3352878Y-638835D01*
X-7691835Y5496508D02*
X-7691835Y4770806D01*
X-7910327Y5715000D02*
X-7691835Y5496508D01*
X-7312669Y4391640D02*
X-7312669Y3689034D01*
X-7312669Y3689034D02*
X-6949799Y3326164D01*
X-6123529Y302645D02*
X-5182049Y-638835D01*
X-9005378Y5715000D02*
X-7910327Y5715000D01*
X-6123529Y1065893D02*
X-6123529Y302645D01*
%TO.N,io4*%
X-6523529Y900208D02*
X-6523529Y136959D01*
X-7349799Y2436795D02*
X-6960921Y2047917D01*
X-7712669Y3475214D02*
X-7349799Y3112344D01*
X-9005378Y4445000D02*
X-8993278Y4457100D01*
X-7943815Y4457100D02*
X-7712669Y4225954D01*
X-8993278Y4457100D02*
X-7943815Y4457100D01*
X-6960921Y1337600D02*
X-6523529Y900208D01*
X-7712669Y4225954D02*
X-7712669Y3475214D01*
X-5347735Y-1038835D02*
X-3352878Y-1038835D01*
X-6960921Y2047917D02*
X-6960921Y1337600D01*
X-6523529Y136959D02*
X-5347735Y-1038835D01*
X-7349799Y3112344D02*
X-7349799Y2436795D01*
%TO.N,io5*%
X-5513421Y-1438835D02*
X-3352878Y-1438835D01*
X-7360921Y1171916D02*
X-6923529Y734523D01*
X-7360921Y1882232D02*
X-7360921Y1171916D01*
X-9005378Y3175000D02*
X-7978141Y3175000D01*
X-7978141Y3175000D02*
X-7749799Y2946658D01*
X-7749799Y2946658D02*
X-7749799Y2271110D01*
X-7749799Y2271110D02*
X-7360921Y1882232D01*
X-6923529Y-28727D02*
X-5513421Y-1438835D01*
X-6923529Y734523D02*
X-6923529Y-28727D01*
%TO.N,io6*%
X-9005378Y1905000D02*
X-7949375Y1905000D01*
X-7760921Y1006229D02*
X-7323529Y568838D01*
X-7760921Y1716546D02*
X-7760921Y1006229D01*
X-7323529Y-194413D02*
X-5679107Y-1838835D01*
X-5679107Y-1838835D02*
X-3352878Y-1838835D01*
X-7323529Y568838D02*
X-7323529Y-194413D01*
X-7949375Y1905000D02*
X-7760921Y1716546D01*
%TO.N,io7*%
X-7723529Y403153D02*
X-7723529Y-360099D01*
X-9005378Y635000D02*
X-7955376Y635000D01*
X-5844793Y-2238835D02*
X-3352878Y-2238835D01*
X-7955376Y635000D02*
X-7723529Y403153D01*
X-7723529Y-360099D02*
X-5844793Y-2238835D01*
%TO.N,io8*%
X-4743477Y-3473165D02*
X-7203379Y-3473165D01*
X-8995888Y-625510D02*
X-9005378Y-635000D01*
X-7789729Y-1506953D02*
X-7789729Y-859585D01*
X-8990569Y-620191D02*
X-9005378Y-635000D01*
X-7367973Y-1928709D02*
X-7789729Y-1506953D01*
X-7203379Y-3473165D02*
X-7367973Y-3308571D01*
X-7367973Y-3308571D02*
X-7367973Y-1928709D01*
X-7789729Y-859585D02*
X-8023804Y-625510D01*
X-8023804Y-625510D02*
X-8995888Y-625510D01*
X-4309147Y-3038835D02*
X-4743477Y-3473165D01*
X-3352878Y-3038835D02*
X-4309147Y-3038835D01*
%TO.N,io9*%
X-4577791Y-3873165D02*
X-7369065Y-3873165D01*
X-7957368Y-1905000D02*
X-9005378Y-1905000D01*
X-4143461Y-3438835D02*
X-4577791Y-3873165D01*
X-3352878Y-3438835D02*
X-4143461Y-3438835D01*
X-7780286Y-2608202D02*
X-7781369Y-2607119D01*
X-7780286Y-3461944D02*
X-7780286Y-2608202D01*
X-4143460Y-3438835D02*
X-3352878Y-3438835D01*
X-7781369Y-2607119D02*
X-7781369Y-2080999D01*
X-7781369Y-2080999D02*
X-7957368Y-1905000D01*
X-7369065Y-3873165D02*
X-7780286Y-3461944D01*
%TO.N,io10*%
X-3352878Y-3838835D02*
X-3977775Y-3838835D01*
X-3977775Y-3838835D02*
X-4412105Y-4273165D01*
X-4412105Y-4273165D02*
X-7534751Y-4273165D01*
X-8632916Y-3175000D02*
X-9005378Y-3175000D01*
X-7534751Y-4273165D02*
X-8632916Y-3175000D01*
%TO.N,io11*%
X-6970906Y-4676467D02*
X-8773911Y-4676467D01*
X-6967604Y-4673165D02*
X-6970906Y-4676467D01*
X-8773911Y-4676467D02*
X-9005378Y-4445000D01*
X-3787208Y-4673165D02*
X-6967604Y-4673165D01*
X-3352878Y-4238835D02*
X-3787208Y-4673165D01*
%TO.N,io12*%
X-7474195Y-5413835D02*
X-7775360Y-5715000D01*
X-2515378Y-5076335D02*
X-2852878Y-5413835D01*
X-2852878Y-5413835D02*
X-7474195Y-5413835D01*
X-7775360Y-5715000D02*
X-9005378Y-5715000D01*
%TO.N,io13*%
X-8048802Y-6985000D02*
X-9005378Y-6985000D01*
X-7252411Y-5813835D02*
X-7721897Y-6283321D01*
X-2115378Y-5608810D02*
X-2320403Y-5813835D01*
X-7721897Y-6283321D02*
X-7721897Y-6658096D01*
X-7721897Y-6658096D02*
X-8048802Y-6985000D01*
X-2115378Y-5076335D02*
X-2115378Y-5608810D01*
X-2320403Y-5813835D02*
X-7252411Y-5813835D01*
%TO.N,io14*%
X-7741491Y-7243375D02*
X-6711950Y-6213835D01*
X-1715378Y-5774496D02*
X-1715378Y-5076335D01*
X-9005378Y-8255000D02*
X-8099585Y-8255000D01*
X-8099585Y-8255000D02*
X-7741491Y-7896907D01*
X-6711950Y-6213835D02*
X-2154718Y-6213835D01*
X-2154718Y-6213835D02*
X-1715378Y-5774496D01*
X-7741491Y-7896907D02*
X-7741491Y-7243375D01*
%TO.N,io15*%
X-7735249Y-9098327D02*
X-8161923Y-9525000D01*
X-7341492Y-8062593D02*
X-7735249Y-8456350D01*
X-1989033Y-6613835D02*
X-6546265Y-6613835D01*
X-1315378Y-5076335D02*
X-1315379Y-5940182D01*
X-8161923Y-9525000D02*
X-9005378Y-9525000D01*
X-7735249Y-8456350D02*
X-7735249Y-9098327D01*
X-7341491Y-7409061D02*
X-7341492Y-8062593D01*
X-6546265Y-6613835D02*
X-7341491Y-7409061D01*
X-1315379Y-5940182D02*
X-1989033Y-6613835D01*
%TO.N,SWCLK*%
X1084622Y-5076335D02*
X1084622Y-4115737D01*
X1084622Y-4115737D02*
X1140853Y-4059506D01*
%TO.N,io16*%
X7278176Y-8201017D02*
X7747031Y-8669871D01*
X2284622Y-5608810D02*
X2600897Y-5925085D01*
X8036435Y-9525000D02*
X8974622Y-9525000D01*
X6912340Y-6776755D02*
X7278176Y-7142591D01*
X7747031Y-9235596D02*
X8036435Y-9525000D01*
X7278176Y-7142591D02*
X7278176Y-8201017D01*
X6912340Y-6081711D02*
X6912340Y-6776755D01*
X7747031Y-8669871D02*
X7747031Y-9235596D01*
X6755714Y-5925085D02*
X6912340Y-6081711D01*
X2284622Y-5076335D02*
X2284622Y-5608810D01*
X2600897Y-5925085D02*
X6755714Y-5925085D01*
%TO.N,io17*%
X2684622Y-5076335D02*
X2684622Y-5437186D01*
X2684622Y-5437186D02*
X2772521Y-5525085D01*
X7042565Y-5525085D02*
X7312340Y-5794860D01*
X7312340Y-5794860D02*
X7312340Y-6611069D01*
X2772521Y-5525085D02*
X6226355Y-5525085D01*
X7678176Y-7987007D02*
X7946169Y-8255000D01*
X6226355Y-5525085D02*
X7042565Y-5525085D01*
X7946169Y-8255000D02*
X8974622Y-8255000D01*
X7312340Y-6611069D02*
X7555172Y-6853901D01*
X7678176Y-6976906D02*
X7678176Y-7987007D01*
%TO.N,io18*%
X7720857Y-5637691D02*
X6875677Y-4792510D01*
X4447290Y-4792511D02*
X3893613Y-4238835D01*
X8251956Y-6985000D02*
X7720857Y-6453901D01*
X3893613Y-4238835D02*
X3522122Y-4238835D01*
X8974622Y-6985000D02*
X8251956Y-6985000D01*
X7720857Y-6453901D02*
X7720857Y-5637691D01*
X6875677Y-4792510D02*
X4447290Y-4792511D01*
%TO.N,io19*%
X7041364Y-4392511D02*
X4612975Y-4392511D01*
X8363852Y-5715000D02*
X7041364Y-4392511D01*
X8974622Y-5715000D02*
X8363852Y-5715000D01*
X4059298Y-3838835D02*
X3522122Y-3838835D01*
X4612975Y-4392511D02*
X4059298Y-3838835D01*
%TO.N,io20*%
X4778660Y-3992511D02*
X7207050Y-3992511D01*
X7207050Y-3992511D02*
X7810188Y-4595649D01*
X8823973Y-4595649D02*
X8974622Y-4445000D01*
X3522122Y-3438835D02*
X4224983Y-3438835D01*
X4224983Y-3438835D02*
X4778660Y-3992511D01*
X7810188Y-4595649D02*
X8823973Y-4595649D01*
%TO.N,io21*%
X7972489Y-3175000D02*
X8974622Y-3175000D01*
X4390669Y-3038835D02*
X4944345Y-3592511D01*
X7554979Y-3592511D02*
X7972489Y-3175000D01*
X3522122Y-3038835D02*
X4390669Y-3038835D01*
X4944345Y-3592511D02*
X7554979Y-3592511D01*
%TO.N,io22*%
X6478561Y-2238835D02*
X3522122Y-2238835D01*
X8974622Y-1905000D02*
X6812396Y-1905000D01*
X6812396Y-1905000D02*
X6478561Y-2238835D01*
%TO.N,io23*%
X6282361Y-1838835D02*
X3522122Y-1838835D01*
X7486196Y-635000D02*
X6282361Y-1838835D01*
X8974622Y-635000D02*
X7486196Y-635000D01*
%TO.N,io24*%
X6116675Y-1438835D02*
X3522122Y-1438835D01*
X8190510Y635000D02*
X6116675Y-1438835D01*
X8974622Y635000D02*
X8190510Y635000D01*
%TO.N,io25*%
X8974622Y1905000D02*
X7904734Y1905000D01*
X5950990Y-1038835D02*
X3522122Y-1038835D01*
X7765683Y775858D02*
X5950990Y-1038835D01*
X7765683Y1765949D02*
X7765683Y775858D01*
X7904734Y1905000D02*
X7765683Y1765949D01*
%TO.N,io26*%
X7695511Y2261463D02*
X7365683Y1931635D01*
X7673752Y2835249D02*
X7673752Y2283222D01*
X8974622Y3175000D02*
X8013503Y3175000D01*
X7673752Y2283222D02*
X7695511Y2261463D01*
X5785304Y-638835D02*
X3522122Y-638835D01*
X8013503Y3175000D02*
X7673752Y2835249D01*
X7365683Y1931635D02*
X7365683Y941543D01*
X7365683Y941543D02*
X5785304Y-638835D01*
%TO.N,io27*%
X5619619Y-238835D02*
X3522122Y-238835D01*
X7273752Y3000935D02*
X7273752Y2405389D01*
X8013247Y4445000D02*
X7668440Y4100193D01*
X6965683Y2097320D02*
X6965683Y1107228D01*
X8974622Y4445000D02*
X8013247Y4445000D01*
X7668440Y4100193D02*
X7668440Y3395622D01*
X7273752Y2405389D02*
X6965683Y2097320D01*
X7668440Y3395622D02*
X7273752Y3000935D01*
X6965683Y1107228D02*
X5619619Y-238835D01*
%TO.N,io28*%
X7776870Y5476816D02*
X7776870Y5442291D01*
X8015054Y5715000D02*
X7776870Y5476816D01*
X7776870Y5442291D02*
X7716109Y5381531D01*
X6565683Y1272914D02*
X5453934Y161165D01*
X7740669Y4750251D02*
X7268440Y4278022D01*
X6565683Y2263005D02*
X6565683Y1272914D01*
X7740669Y5356971D02*
X7740669Y4750251D01*
X7268440Y3561307D02*
X6873753Y3166621D01*
X6873753Y2571075D02*
X6565683Y2263005D01*
X7716109Y5381531D02*
X7740669Y5356971D01*
X7268440Y4278022D02*
X7268440Y3561307D01*
X8974622Y5715000D02*
X8015054Y5715000D01*
X6873753Y3166621D02*
X6873753Y2571075D01*
X5453934Y161165D02*
X3522122Y161165D01*
%TO.N,io29*%
X6165683Y1438600D02*
X6165683Y1707310D01*
X5078600Y561165D02*
X5288248Y561165D01*
X7666359Y5931990D02*
X7666359Y6678351D01*
X7666359Y6678351D02*
X7650254Y6694456D01*
X6473754Y3332307D02*
X6868440Y3726993D01*
X7412764Y5678395D02*
X7666359Y5931990D01*
X7940799Y6985000D02*
X8974622Y6985000D01*
X6868440Y4455851D02*
X7340669Y4928080D01*
X6868440Y3726993D02*
X6868440Y4455851D01*
X7412764Y5643872D02*
X7412764Y5678395D01*
X7316109Y5547217D02*
X7412764Y5643872D01*
X6165683Y1707310D02*
X6165683Y2428691D01*
X7316109Y4952640D02*
X7316109Y5547217D01*
X6165683Y2428691D02*
X6473753Y2736761D01*
X6473753Y2736761D02*
X6473754Y3332307D01*
X3522122Y561165D02*
X5078600Y561165D01*
X6001624Y1274541D02*
X6165683Y1438600D01*
X6165683Y1648248D02*
X6165683Y2428691D01*
X7340669Y4928080D02*
X7316109Y4952640D01*
X7650254Y6694456D02*
X7940799Y6985000D01*
X5288248Y561165D02*
X6001624Y1274541D01*
%TO.N,GND*%
X2618511Y-6479004D02*
X2646158Y-6506651D01*
X3870292Y8513565D02*
X3870292Y8039213D01*
X3870292Y8972144D02*
X3889958Y8991810D01*
X-2176463Y6129437D02*
X-2176463Y5721919D01*
X3870292Y8513565D02*
X3870292Y8972144D01*
X-915378Y-6248532D02*
X-676731Y-6487179D01*
X3870292Y8039213D02*
X3889958Y8019547D01*
X-2176463Y5721919D02*
X-2161912Y5707368D01*
X-3758060Y-7872367D02*
X-2585833Y-7872367D01*
X2065555Y-6479004D02*
X2618511Y-6479004D01*
X-759046Y4802116D02*
X2157741Y4802116D01*
X-915378Y-5076335D02*
X-915378Y-6248532D01*
X125368Y-8832367D02*
X-1045833Y-8832367D01*
%TO.N,+3V3*%
X-3366114Y2814099D02*
X-3366114Y1326950D01*
X3522122Y-2638835D02*
X4986988Y-2638835D01*
X3513775Y969512D02*
X3522122Y961165D01*
X283269Y-6487179D02*
X187031Y-6487179D01*
X-3366114Y1326950D02*
X-3358646Y1319482D01*
X3513775Y1319482D02*
X3513775Y969512D01*
X4986988Y-2638835D02*
X5213523Y-2865370D01*
X3552300Y1358007D02*
X3513775Y1319482D01*
X284622Y1798665D02*
X284622Y3472806D01*
X2284622Y1798665D02*
X2284622Y1266190D01*
X2882257Y8067248D02*
X2929958Y8019547D01*
X2284622Y1266190D02*
X2589647Y961165D01*
X284622Y-6385826D02*
X183269Y-6487179D01*
X2284622Y1798665D02*
X2284622Y3415235D01*
X2589647Y961165D02*
X3522122Y961165D01*
X3552300Y2814099D02*
X3552300Y1358007D01*
X-3352878Y-2638835D02*
X-4841401Y-2638835D01*
X284622Y-5076335D02*
X284622Y-6385826D01*
X684622Y1798665D02*
X284622Y1798665D01*
X-3358646Y1319482D02*
X-3358646Y966933D01*
X2882257Y8524792D02*
X2882257Y8067248D01*
X-4841401Y-2638835D02*
X-5065731Y-2863165D01*
X2882257Y8944109D02*
X2929958Y8991810D01*
X-3358646Y966933D02*
X-3352878Y961165D01*
X284622Y3472806D02*
X215312Y3542116D01*
X2284622Y3415235D02*
X2157741Y3542116D01*
X2882257Y8524792D02*
X2882257Y8944109D01*
%TO.N,QSPI_SCLK*%
X-1330971Y766165D02*
X-915378Y1181758D01*
X-915378Y1181758D02*
X-915378Y1798665D01*
X-1335378Y766165D02*
X-1330971Y766165D01*
%TO.N,QSPI SS*%
X-2515378Y1798665D02*
X-2515378Y-3222861D01*
X-2515378Y4005770D02*
X-3729490Y5219882D01*
X-3729490Y7730740D02*
X-2830793Y8629437D01*
X-2830793Y8629437D02*
X-2176463Y8629437D01*
X-2515378Y1798665D02*
X-2515378Y4005770D01*
X-3729490Y5219882D02*
X-3729490Y7730740D01*
%TO.N,QSPI_SD3*%
X-515378Y1146776D02*
X-515378Y871329D01*
X-515378Y1798665D02*
X-515378Y1146776D01*
%TO.N,QSPI_SD0*%
X-1315378Y2689539D02*
X-1190807Y2814110D01*
X-1315378Y1798665D02*
X-1315378Y2689539D01*
%TO.N,QSPI_SD2*%
X-2634314Y7035397D02*
X-2182423Y7035397D01*
X-2182423Y7035397D02*
X-2176463Y7029437D01*
X-1715378Y4337142D02*
X-2929490Y5551254D01*
X-2929490Y6740221D02*
X-2634314Y7035397D01*
X-1715378Y1798665D02*
X-1715378Y4337142D01*
X-2929490Y5551254D02*
X-2929490Y6740221D01*
%TO.N,QSPI_SD1*%
X-3329490Y7318375D02*
X-2818428Y7829437D01*
X-2115378Y4171456D02*
X-3329490Y5385568D01*
X-2115378Y1798665D02*
X-2115378Y4171456D01*
X-3329490Y5385568D02*
X-3329490Y7318375D01*
X-2818428Y7829437D02*
X-2176463Y7829437D01*
%TO.N,Reset*%
X1884622Y-5076335D02*
X1884622Y-5774496D01*
%TO.N,USB_D+*%
X3127843Y-10934588D02*
X3175000Y-10934588D01*
X3127843Y-9180946D02*
X3127843Y-10934588D01*
%TO.N,Net-(R2-Pad2)*%
X1484622Y1798665D02*
X1484622Y871165D01*
X1484622Y871165D02*
X1379622Y766165D01*
%TO.N,Net-(R1-Pad2)*%
X1084622Y1798665D02*
X1084622Y1130627D01*
X1084622Y1130627D02*
X722842Y768847D01*
%TO.N,USB_D-*%
X4439261Y-9180946D02*
X4439261Y-10934588D01*
X4439261Y-10934588D02*
X4445000Y-10934588D01*
%TO.N,+1V1*%
X684622Y-3538835D02*
X1984622Y-3538835D01*
X1984622Y-3538835D02*
X1984622Y261165D01*
X684622Y-5076335D02*
X684622Y-5608810D01*
X-115378Y901072D02*
X524529Y261165D01*
X684622Y-5608810D02*
X1205555Y-6129743D01*
X1884622Y290412D02*
X1913869Y261165D01*
X1884622Y2847163D02*
X1189669Y3542116D01*
X1884622Y1798665D02*
X1884622Y2847163D01*
X-115378Y1798665D02*
X-115378Y901072D01*
X684622Y-5076335D02*
X684622Y-3538835D01*
X1984622Y261165D02*
X524529Y261165D01*
X-115378Y2898448D02*
X-759046Y3542116D01*
X1205555Y-6129743D02*
X1205555Y-6479004D01*
X1884622Y1798665D02*
X1884622Y290412D01*
X-115378Y1798665D02*
X-115378Y2898448D01*
X1913869Y261165D02*
X1984622Y261165D01*
%TO.N,Net-(C16-Pad1)*%
X-2585833Y-8832367D02*
X-2515833Y-8902367D01*
X-513771Y-4560871D02*
X-513771Y-4202484D01*
X-513771Y-4202484D02*
X-523081Y-4193174D01*
X-515378Y-5076335D02*
X-515378Y-4562478D01*
X-3758060Y-8832367D02*
X-2585833Y-8832367D01*
X-515378Y-4562478D02*
X-513771Y-4560871D01*
%TO.N,Net-(C17-Pad1)*%
X125368Y-7872367D02*
X-1045833Y-7872367D01*
X-100873Y-4256467D02*
X96088Y-4059506D01*
X-100873Y-4585619D02*
X-100873Y-4256467D01*
X-115378Y-4600124D02*
X-100873Y-4585619D01*
X-115378Y-5076335D02*
X-115378Y-4600124D01*
X-1045833Y-7872367D02*
X-1115833Y-7802367D01*
%TO.N,BootMode*%
X1905000Y-9179588D02*
X1905000Y-10934588D01*
%TO.N,Net-(D2-Pad2)*%
X5091973Y8049856D02*
X5091973Y9073608D01*
%TO.N,Net-(D1-Pad2)*%
X-4371938Y9040696D02*
X-4371938Y8006704D01*
%TO.N,Net-(C13-Pad2)*%
X3038990Y1620399D02*
X2862888Y1620399D01*
X2862888Y1620399D02*
X2684622Y1798665D01*
X-4353362Y5632832D02*
X-4353362Y4629662D01*
%TO.N,ADC_REF*%
X-5375113Y6660941D02*
X-5375113Y5634583D01*
%TO.N,SWDIO*%
X1484622Y-5076335D02*
X1484622Y-4543860D01*
X1484622Y-4543860D02*
X1717811Y-4310671D01*
X1717811Y-4310671D02*
X1717811Y-4059506D01*
%TD*%
%TA.AperFunction,Conductor*%
%TO.N,GND*%
G36*
X-1877492Y1183212D02*
G01*
X-1871226Y1180617D01*
X-1863118Y1175199D01*
X-1790052Y1160665D01*
X-1675568Y1160665D01*
X-1617377Y1141758D01*
X-1581413Y1092258D01*
X-1581413Y1031072D01*
X-1605564Y991661D01*
X-1622473Y974752D01*
X-1626008Y967815D01*
X-1626009Y967813D01*
X-1650138Y920456D01*
X-1672878Y875826D01*
X-1674097Y868132D01*
X-1674097Y868131D01*
X-1685875Y793766D01*
X-1690247Y766165D01*
X-1689028Y758469D01*
X-1676864Y681673D01*
X-1672878Y656504D01*
X-1669342Y649564D01*
X-1635003Y582170D01*
X-1622473Y557578D01*
X-1543965Y479070D01*
X-1537028Y475535D01*
X-1537026Y475534D01*
X-1494140Y453683D01*
X-1445039Y428665D01*
X-1437345Y427446D01*
X-1437344Y427446D01*
X-1409197Y422988D01*
X-1348819Y413425D01*
X-1343074Y412515D01*
X-1335378Y411296D01*
X-1327682Y412515D01*
X-1321936Y413425D01*
X-1261559Y422988D01*
X-1233412Y427446D01*
X-1233411Y427446D01*
X-1225717Y428665D01*
X-1176616Y453683D01*
X-1133730Y475534D01*
X-1133728Y475535D01*
X-1126791Y479070D01*
X-1048283Y557578D01*
X-1045807Y555102D01*
X-1008546Y582170D01*
X-947361Y582165D01*
X-910112Y555103D01*
X-907637Y557578D01*
X-829129Y479070D01*
X-822192Y475535D01*
X-822190Y475534D01*
X-779304Y453683D01*
X-730203Y428665D01*
X-722509Y427446D01*
X-722508Y427446D01*
X-694361Y422988D01*
X-633983Y413425D01*
X-628238Y412515D01*
X-620542Y411296D01*
X-612846Y412515D01*
X-607100Y413425D01*
X-546723Y422988D01*
X-518576Y427446D01*
X-518575Y427446D01*
X-510881Y428665D01*
X-461780Y453683D01*
X-418894Y475534D01*
X-418892Y475535D01*
X-411955Y479070D01*
X-335155Y555870D01*
X-280638Y583647D01*
X-220206Y574076D01*
X-195147Y555870D01*
X30554Y330169D01*
X58331Y275652D01*
X48760Y215220D01*
X5495Y171955D01*
X-39450Y161165D01*
X-1530218Y161165D01*
X-1539840Y160217D01*
X-1583852Y151463D01*
X-1601520Y144144D01*
X-1651460Y110776D01*
X-1664989Y97247D01*
X-1698357Y47307D01*
X-1705676Y29639D01*
X-1714430Y-14373D01*
X-1715378Y-23995D01*
X-1715378Y-1369155D01*
X-1711256Y-1381840D01*
X-1707135Y-1384835D01*
X239622Y-1384835D01*
X297813Y-1403742D01*
X333777Y-1453242D01*
X338622Y-1483835D01*
X338622Y-3423155D01*
X343689Y-3438748D01*
X376234Y-3483543D01*
X379013Y-3509121D01*
X380376Y-3509003D01*
X383753Y-3547995D01*
X384122Y-3556537D01*
X384122Y-3651338D01*
X365215Y-3709529D01*
X315715Y-3745493D01*
X254529Y-3745493D01*
X240177Y-3739548D01*
X212689Y-3725542D01*
X205749Y-3722006D01*
X198055Y-3720787D01*
X198054Y-3720787D01*
X103784Y-3705856D01*
X96088Y-3704637D01*
X88392Y-3705856D01*
X-5878Y-3720787D01*
X-5879Y-3720787D01*
X-13573Y-3722006D01*
X-20513Y-3725542D01*
X-105560Y-3768875D01*
X-105562Y-3768876D01*
X-112499Y-3772411D01*
X-118004Y-3777916D01*
X-118008Y-3777919D01*
X-143491Y-3803403D01*
X-198007Y-3831182D01*
X-258440Y-3821611D01*
X-283500Y-3803405D01*
X-314494Y-3772411D01*
X-321431Y-3768876D01*
X-321433Y-3768875D01*
X-406480Y-3725542D01*
X-413420Y-3722006D01*
X-421114Y-3720787D01*
X-421115Y-3720787D01*
X-515385Y-3705856D01*
X-523081Y-3704637D01*
X-530777Y-3705856D01*
X-625047Y-3720787D01*
X-625048Y-3720787D01*
X-632742Y-3722006D01*
X-639682Y-3725542D01*
X-724729Y-3768875D01*
X-724731Y-3768876D01*
X-731668Y-3772411D01*
X-810176Y-3850919D01*
X-813711Y-3857856D01*
X-813712Y-3857858D01*
X-839105Y-3907695D01*
X-860581Y-3949845D01*
X-861800Y-3957539D01*
X-861800Y-3957540D01*
X-874026Y-4034731D01*
X-877950Y-4059506D01*
X-860581Y-4169167D01*
X-857045Y-4176107D01*
X-829580Y-4230010D01*
X-821619Y-4252062D01*
X-821307Y-4260382D01*
X-817699Y-4268781D01*
X-816692Y-4273248D01*
X-814271Y-4295010D01*
X-814271Y-4439639D01*
X-815378Y-4448269D01*
X-815378Y-4499447D01*
X-815628Y-4504560D01*
X-815524Y-4504565D01*
X-815643Y-4506992D01*
X-815878Y-4509393D01*
X-815878Y-4515562D01*
X-818553Y-4538420D01*
X-820053Y-4544741D01*
X-823995Y-4551213D01*
X-818282Y-4565443D01*
X-816782Y-4576464D01*
X-815878Y-4589815D01*
X-815878Y-5488509D01*
X-815545Y-5490181D01*
X-815378Y-5493586D01*
X-815378Y-5693107D01*
X-811256Y-5705792D01*
X-811219Y-5705820D01*
X-802920Y-5706309D01*
X-777397Y-5701232D01*
X-753930Y-5691512D01*
X-692933Y-5686711D01*
X-678157Y-5691512D01*
X-671228Y-5694382D01*
X-663118Y-5699801D01*
X-653555Y-5701703D01*
X-653553Y-5701704D01*
X-633000Y-5705792D01*
X-590052Y-5714335D01*
X-440704Y-5714335D01*
X-367638Y-5699801D01*
X-359530Y-5694383D01*
X-353264Y-5691788D01*
X-292268Y-5686987D01*
X-277492Y-5691788D01*
X-271226Y-5694383D01*
X-263118Y-5699801D01*
X-190052Y-5714335D01*
X-114878Y-5714335D01*
X-56687Y-5733242D01*
X-20723Y-5782742D01*
X-15878Y-5813335D01*
X-15878Y-5956828D01*
X-34785Y-6015019D01*
X-53159Y-6033075D01*
X-55047Y-6033955D01*
X-127081Y-6105989D01*
X-181598Y-6133766D01*
X-242030Y-6124195D01*
X-267089Y-6105989D01*
X-332584Y-6040494D01*
X-346557Y-6030710D01*
X-408519Y-6001817D01*
X-419827Y-6000429D01*
X-422731Y-6006656D01*
X-422731Y-6642179D01*
X-441638Y-6700370D01*
X-491138Y-6736334D01*
X-521731Y-6741179D01*
X-1135237Y-6741179D01*
X-1147922Y-6745301D01*
X-1148956Y-6746724D01*
X-1147009Y-6753403D01*
X-1103200Y-6847353D01*
X-1093416Y-6861326D01*
X-1020878Y-6933864D01*
X-1006905Y-6943648D01*
X-933155Y-6978038D01*
X-888407Y-7019766D01*
X-876732Y-7079827D01*
X-902590Y-7135280D01*
X-912566Y-7144106D01*
X-916419Y-7146069D01*
X-943221Y-7172871D01*
X-997738Y-7200648D01*
X-1013225Y-7201867D01*
X-1585581Y-7201867D01*
X-1608817Y-7206489D01*
X-1634499Y-7211597D01*
X-1634501Y-7211598D01*
X-1644064Y-7213500D01*
X-1710385Y-7257815D01*
X-1733819Y-7292885D01*
X-1781867Y-7330764D01*
X-1843006Y-7333166D01*
X-1893879Y-7299173D01*
X-1898448Y-7292885D01*
X-1916221Y-7266286D01*
X-1929751Y-7252756D01*
X-1979691Y-7219388D01*
X-1997359Y-7212069D01*
X-2041371Y-7203315D01*
X-2050993Y-7202367D01*
X-2246153Y-7202367D01*
X-2258838Y-7206489D01*
X-2261833Y-7210610D01*
X-2261833Y-7957367D01*
X-2280740Y-8015558D01*
X-2330240Y-8051522D01*
X-2360833Y-8056367D01*
X-2670833Y-8056367D01*
X-2729024Y-8037460D01*
X-2764988Y-7987960D01*
X-2769833Y-7957367D01*
X-2769833Y-7218047D01*
X-2773955Y-7205362D01*
X-2778076Y-7202367D01*
X-2980673Y-7202367D01*
X-2990295Y-7203315D01*
X-3034307Y-7212069D01*
X-3051975Y-7219388D01*
X-3101915Y-7252756D01*
X-3115444Y-7266285D01*
X-3148812Y-7316225D01*
X-3156131Y-7333893D01*
X-3164885Y-7377905D01*
X-3165833Y-7387527D01*
X-3165833Y-7434754D01*
X-3184740Y-7492945D01*
X-3234240Y-7528909D01*
X-3295426Y-7528909D01*
X-3334837Y-7504758D01*
X-3383913Y-7455682D01*
X-3397886Y-7445898D01*
X-3491836Y-7402089D01*
X-3494448Y-7401327D01*
X-3501629Y-7402659D01*
X-3502865Y-7403961D01*
X-3504060Y-7409241D01*
X-3504060Y-8027367D01*
X-3522967Y-8085558D01*
X-3572467Y-8121522D01*
X-3603060Y-8126367D01*
X-4234369Y-8126367D01*
X-4245204Y-8129888D01*
X-4245204Y-8136757D01*
X-4214529Y-8202541D01*
X-4204745Y-8216514D01*
X-4139250Y-8282009D01*
X-4111473Y-8336526D01*
X-4121044Y-8396958D01*
X-4139250Y-8422017D01*
X-4211284Y-8494051D01*
X-4214944Y-8501899D01*
X-4214945Y-8501901D01*
X-4251746Y-8580821D01*
X-4262032Y-8602880D01*
X-4268560Y-8652466D01*
X-4268559Y-9012267D01*
X-4268136Y-9015477D01*
X-4268136Y-9015484D01*
X-4264948Y-9039704D01*
X-4262032Y-9061854D01*
X-4243974Y-9100579D01*
X-4216146Y-9160256D01*
X-4211284Y-9170683D01*
X-4126376Y-9255591D01*
X-4118528Y-9259251D01*
X-4118526Y-9259252D01*
X-4029483Y-9300773D01*
X-4017547Y-9306339D01*
X-3967961Y-9312867D01*
X-3758093Y-9312867D01*
X-3548160Y-9312866D01*
X-3544950Y-9312443D01*
X-3544943Y-9312443D01*
X-3506085Y-9307328D01*
X-3506084Y-9307328D01*
X-3498573Y-9306339D01*
X-3427461Y-9273179D01*
X-3397594Y-9259252D01*
X-3397592Y-9259251D01*
X-3389744Y-9255591D01*
X-3335337Y-9201184D01*
X-3280820Y-9173407D01*
X-3220388Y-9182978D01*
X-3177123Y-9226243D01*
X-3166333Y-9271188D01*
X-3166333Y-9322115D01*
X-3163439Y-9336665D01*
X-3157141Y-9368324D01*
X-3154700Y-9380598D01*
X-3110385Y-9446919D01*
X-3044064Y-9491234D01*
X-3034501Y-9493136D01*
X-3034499Y-9493137D01*
X-3011828Y-9497646D01*
X-2985581Y-9502867D01*
X-2046085Y-9502867D01*
X-2019838Y-9497646D01*
X-1997167Y-9493137D01*
X-1997165Y-9493136D01*
X-1987602Y-9491234D01*
X-1921281Y-9446919D01*
X-1897847Y-9411849D01*
X-1849799Y-9373970D01*
X-1788660Y-9371568D01*
X-1737787Y-9405561D01*
X-1733218Y-9411849D01*
X-1715445Y-9438448D01*
X-1701915Y-9451978D01*
X-1651975Y-9485346D01*
X-1634307Y-9492665D01*
X-1590295Y-9501419D01*
X-1580673Y-9502367D01*
X-1385513Y-9502367D01*
X-1372828Y-9498245D01*
X-1369833Y-9494124D01*
X-1369833Y-8747367D01*
X-1350926Y-8689176D01*
X-1301426Y-8653212D01*
X-1270833Y-8648367D01*
X-960833Y-8648367D01*
X-902642Y-8667274D01*
X-866678Y-8716774D01*
X-861833Y-8747367D01*
X-861833Y-9486687D01*
X-857711Y-9499372D01*
X-853590Y-9502367D01*
X-650993Y-9502367D01*
X-641371Y-9501419D01*
X-597359Y-9492665D01*
X-579691Y-9485346D01*
X-529751Y-9451978D01*
X-516222Y-9438449D01*
X-482854Y-9388509D01*
X-475535Y-9370841D01*
X-466781Y-9326829D01*
X-465833Y-9317207D01*
X-465833Y-9271006D01*
X-446926Y-9212815D01*
X-397426Y-9176851D01*
X-336240Y-9176851D01*
X-296829Y-9201002D01*
X-248779Y-9249052D01*
X-234806Y-9258836D01*
X-140856Y-9302645D01*
X-138244Y-9303407D01*
X-131063Y-9302075D01*
X-129827Y-9300773D01*
X-128632Y-9295493D01*
X-128632Y-9290873D01*
X379368Y-9290873D01*
X383490Y-9303558D01*
X384913Y-9304592D01*
X391592Y-9302645D01*
X485542Y-9258836D01*
X499515Y-9249052D01*
X572053Y-9176514D01*
X581837Y-9162541D01*
X610730Y-9100579D01*
X612118Y-9089271D01*
X605891Y-9086367D01*
X395048Y-9086367D01*
X382363Y-9090489D01*
X379368Y-9094610D01*
X379368Y-9290873D01*
X-128632Y-9290873D01*
X-128632Y-8677367D01*
X-109725Y-8619176D01*
X-60225Y-8583212D01*
X-29632Y-8578367D01*
X601677Y-8578367D01*
X612512Y-8574846D01*
X612512Y-8567977D01*
X581837Y-8502193D01*
X572053Y-8488220D01*
X506558Y-8422725D01*
X478781Y-8368208D01*
X488352Y-8307776D01*
X506558Y-8282717D01*
X578592Y-8210683D01*
X583311Y-8200565D01*
X626137Y-8108723D01*
X629340Y-8101854D01*
X635868Y-8052268D01*
X635867Y-7692467D01*
X634940Y-7685419D01*
X630329Y-7650392D01*
X630329Y-7650391D01*
X629340Y-7642880D01*
X600479Y-7580987D01*
X582253Y-7541901D01*
X582252Y-7541899D01*
X578592Y-7534051D01*
X493684Y-7449143D01*
X485836Y-7445483D01*
X485834Y-7445482D01*
X391724Y-7401598D01*
X384855Y-7398395D01*
X335269Y-7391867D01*
X125401Y-7391867D01*
X-84532Y-7391868D01*
X-87742Y-7392291D01*
X-87749Y-7392291D01*
X-126607Y-7397406D01*
X-126608Y-7397406D01*
X-134119Y-7398395D01*
X-223974Y-7440295D01*
X-284701Y-7447751D01*
X-338215Y-7418088D01*
X-363592Y-7366057D01*
X-369113Y-7331198D01*
X-369113Y-7331197D01*
X-370332Y-7323503D01*
X-382729Y-7299173D01*
X-417201Y-7231516D01*
X-417202Y-7231514D01*
X-420737Y-7224577D01*
X-490551Y-7154763D01*
X-518328Y-7100246D01*
X-508757Y-7039814D01*
X-465492Y-6996549D01*
X-448248Y-6989714D01*
X-440510Y-6987459D01*
X-346557Y-6943648D01*
X-332584Y-6933864D01*
X-267089Y-6868369D01*
X-212572Y-6840592D01*
X-152140Y-6850163D01*
X-127081Y-6868369D01*
X-55047Y-6940403D01*
X-47199Y-6944063D01*
X-47197Y-6944064D01*
X46244Y-6987636D01*
X53782Y-6991151D01*
X103368Y-6997679D01*
X283241Y-6997679D01*
X463169Y-6997678D01*
X466379Y-6997255D01*
X466386Y-6997255D01*
X505244Y-6992140D01*
X505245Y-6992140D01*
X512756Y-6991151D01*
X567220Y-6965754D01*
X613735Y-6944064D01*
X613737Y-6944063D01*
X621585Y-6940403D01*
X627708Y-6934280D01*
X627711Y-6934278D01*
X678497Y-6883493D01*
X733014Y-6855716D01*
X793446Y-6865288D01*
X818504Y-6883493D01*
X867239Y-6932228D01*
X875087Y-6935888D01*
X875089Y-6935889D01*
X965478Y-6978038D01*
X976068Y-6982976D01*
X1025654Y-6989504D01*
X1205527Y-6989504D01*
X1385455Y-6989503D01*
X1388665Y-6989080D01*
X1388672Y-6989080D01*
X1427530Y-6983965D01*
X1427531Y-6983965D01*
X1435042Y-6982976D01*
X1518489Y-6944064D01*
X1536021Y-6935889D01*
X1536023Y-6935888D01*
X1543871Y-6932228D01*
X1615905Y-6860194D01*
X1670422Y-6832417D01*
X1730854Y-6841988D01*
X1755913Y-6860194D01*
X1821408Y-6925689D01*
X1835381Y-6935473D01*
X1897343Y-6964366D01*
X1908651Y-6965754D01*
X1911555Y-6959527D01*
X1911555Y-6955313D01*
X2419555Y-6955313D01*
X2423076Y-6966148D01*
X2429945Y-6966148D01*
X2495729Y-6935473D01*
X2509702Y-6925689D01*
X2582240Y-6853151D01*
X2592024Y-6839178D01*
X2635833Y-6745228D01*
X2636595Y-6742616D01*
X2635263Y-6735435D01*
X2633961Y-6734199D01*
X2628681Y-6733004D01*
X2435235Y-6733004D01*
X2422550Y-6737126D01*
X2419555Y-6741247D01*
X2419555Y-6955313D01*
X1911555Y-6955313D01*
X1911555Y-6324004D01*
X1930462Y-6265813D01*
X1979962Y-6229849D01*
X2010555Y-6225004D01*
X2537040Y-6225004D01*
X2542981Y-6225294D01*
X2542984Y-6225231D01*
X2545411Y-6225350D01*
X2547812Y-6225585D01*
X2553981Y-6225585D01*
X2576840Y-6228260D01*
X2577070Y-6228315D01*
X2577072Y-6228315D01*
X2585963Y-6230425D01*
X2614885Y-6226489D01*
X2628234Y-6225585D01*
X6512840Y-6225585D01*
X6571031Y-6244492D01*
X6606995Y-6293992D01*
X6611840Y-6324585D01*
X6611840Y-6723247D01*
X6611537Y-6727372D01*
X6609915Y-6732097D01*
X6610310Y-6742616D01*
X6611770Y-6781516D01*
X6611840Y-6785229D01*
X6611840Y-6804703D01*
X6612665Y-6809133D01*
X6613001Y-6814326D01*
X6613603Y-6830357D01*
X6613704Y-6833030D01*
X6614114Y-6843963D01*
X6617720Y-6852357D01*
X6617721Y-6852360D01*
X6618657Y-6854538D01*
X6625023Y-6875489D01*
X6627131Y-6886808D01*
X6637216Y-6903169D01*
X6641108Y-6909483D01*
X6647791Y-6922350D01*
X6658304Y-6946818D01*
X6662318Y-6951704D01*
X6666682Y-6956068D01*
X6680953Y-6974123D01*
X6685872Y-6982103D01*
X6693147Y-6987635D01*
X6693148Y-6987636D01*
X6709104Y-6999769D01*
X6719184Y-7008570D01*
X6948680Y-7238067D01*
X6976457Y-7292583D01*
X6977676Y-7308070D01*
X6977676Y-8147509D01*
X6977373Y-8151634D01*
X6975751Y-8156359D01*
X6976094Y-8165493D01*
X6977606Y-8205779D01*
X6977676Y-8209492D01*
X6977676Y-8228965D01*
X6978501Y-8233395D01*
X6978837Y-8238588D01*
X6979950Y-8268226D01*
X6983558Y-8276623D01*
X6983558Y-8276624D01*
X6984495Y-8278805D01*
X6990859Y-8299754D01*
X6991292Y-8302081D01*
X6991294Y-8302086D01*
X6992967Y-8311070D01*
X7005044Y-8330663D01*
X7006944Y-8333745D01*
X7013627Y-8346612D01*
X7024140Y-8371080D01*
X7028154Y-8375966D01*
X7032518Y-8380330D01*
X7046789Y-8398385D01*
X7051708Y-8406365D01*
X7074948Y-8424037D01*
X7085020Y-8432832D01*
X7262582Y-8610393D01*
X7417534Y-8765345D01*
X7445312Y-8819862D01*
X7446531Y-8835349D01*
X7446531Y-9182088D01*
X7446228Y-9186213D01*
X7444606Y-9190938D01*
X7444949Y-9200072D01*
X7446461Y-9240357D01*
X7446531Y-9244070D01*
X7446531Y-9263544D01*
X7447356Y-9267974D01*
X7447692Y-9273167D01*
X7448805Y-9302804D01*
X7452411Y-9311198D01*
X7452412Y-9311201D01*
X7453348Y-9313379D01*
X7459714Y-9334330D01*
X7461822Y-9345649D01*
X7468891Y-9357117D01*
X7475799Y-9368324D01*
X7482483Y-9381192D01*
X7486577Y-9390720D01*
X7492995Y-9405659D01*
X7497009Y-9410545D01*
X7501373Y-9414909D01*
X7515644Y-9432964D01*
X7520563Y-9440944D01*
X7543800Y-9458614D01*
X7553870Y-9467406D01*
X7786115Y-9699651D01*
X7788815Y-9702780D01*
X7791010Y-9707269D01*
X7797713Y-9713487D01*
X7827257Y-9740893D01*
X7829933Y-9743469D01*
X7843712Y-9757248D01*
X7845543Y-9758504D01*
X7877842Y-9809650D01*
X7879679Y-9818572D01*
X7884454Y-9848719D01*
X7889903Y-9883126D01*
X7951094Y-10003220D01*
X8046402Y-10098528D01*
X8053339Y-10102063D01*
X8053341Y-10102064D01*
X8159556Y-10156183D01*
X8166496Y-10159719D01*
X8174190Y-10160938D01*
X8174191Y-10160938D01*
X8262288Y-10174891D01*
X8262290Y-10174891D01*
X8266134Y-10175500D01*
X8622265Y-10175500D01*
X8680456Y-10194407D01*
X8716420Y-10243907D01*
X8717001Y-10303240D01*
X8716096Y-10306225D01*
X8708671Y-10324150D01*
X8643981Y-10445181D01*
X8633199Y-10461318D01*
X8546141Y-10567402D01*
X8532422Y-10581122D01*
X8426331Y-10668192D01*
X8410208Y-10678964D01*
X8289176Y-10743660D01*
X8271255Y-10751084D01*
X8214576Y-10768279D01*
X8139923Y-10790926D01*
X8120890Y-10794712D01*
X8102513Y-10796523D01*
X8006581Y-10805974D01*
X7996714Y-10806450D01*
X7985844Y-10806431D01*
X7974976Y-10803932D01*
X7964101Y-10806393D01*
X7963850Y-10806450D01*
X7962982Y-10806646D01*
X7941132Y-10809088D01*
X7733999Y-10809088D01*
X7675808Y-10790181D01*
X7639844Y-10740681D01*
X7634999Y-10710088D01*
X7634999Y-10330032D01*
X7634390Y-10322290D01*
X7620456Y-10234313D01*
X7615702Y-10219680D01*
X7561654Y-10113604D01*
X7552612Y-10101159D01*
X7468431Y-10016978D01*
X7455981Y-10007933D01*
X7448971Y-10004361D01*
X7437719Y-10002579D01*
X7435000Y-10007915D01*
X7435000Y-10710088D01*
X7416093Y-10768279D01*
X7366593Y-10804243D01*
X7336000Y-10809088D01*
X6634000Y-10809088D01*
X6575809Y-10790181D01*
X6539845Y-10740681D01*
X6535000Y-10710088D01*
X6535000Y-10012922D01*
X6531479Y-10002087D01*
X6525492Y-10002087D01*
X6514019Y-10007933D01*
X6501566Y-10016980D01*
X6420358Y-10098189D01*
X6365842Y-10125967D01*
X6305409Y-10116396D01*
X6280350Y-10098190D01*
X6193220Y-10011060D01*
X6186283Y-10007525D01*
X6186281Y-10007524D01*
X6080066Y-9953405D01*
X6080065Y-9953405D01*
X6073126Y-9949869D01*
X6065432Y-9948650D01*
X6065431Y-9948650D01*
X5977334Y-9934697D01*
X5977332Y-9934697D01*
X5973488Y-9934088D01*
X5456512Y-9934088D01*
X5452668Y-9934697D01*
X5452666Y-9934697D01*
X5364569Y-9948650D01*
X5364568Y-9948650D01*
X5356874Y-9949869D01*
X5349935Y-9953405D01*
X5349934Y-9953405D01*
X5243719Y-10007524D01*
X5243717Y-10007525D01*
X5236780Y-10011060D01*
X5150004Y-10097836D01*
X5095487Y-10125613D01*
X5035055Y-10116042D01*
X5009996Y-10097836D01*
X4923220Y-10011060D01*
X4916283Y-10007525D01*
X4916281Y-10007524D01*
X4860519Y-9979112D01*
X4803126Y-9949869D01*
X4803402Y-9949327D01*
X4758668Y-9916825D01*
X4739761Y-9858634D01*
X4739761Y-9693982D01*
X4758668Y-9635791D01*
X4796921Y-9604259D01*
X4819665Y-9593653D01*
X4903326Y-9509992D01*
X4908279Y-9499372D01*
X4950126Y-9409630D01*
X4950126Y-9409629D01*
X4953329Y-9402761D01*
X4959761Y-9353904D01*
X4959761Y-9005272D01*
X4953329Y-8956415D01*
X4903326Y-8849184D01*
X4819665Y-8765523D01*
X4806342Y-8759311D01*
X4761597Y-8717583D01*
X4749923Y-8657521D01*
X4775782Y-8602069D01*
X4806341Y-8579866D01*
X4819665Y-8573653D01*
X4903326Y-8489992D01*
X4914624Y-8465765D01*
X4950126Y-8389630D01*
X4950126Y-8389629D01*
X4953329Y-8382761D01*
X4959761Y-8333904D01*
X4959761Y-7985272D01*
X4953329Y-7936415D01*
X4903326Y-7829184D01*
X4819665Y-7745523D01*
X4798527Y-7735666D01*
X4752157Y-7690887D01*
X4729892Y-7647187D01*
X4729890Y-7647185D01*
X4726356Y-7640248D01*
X4647848Y-7561740D01*
X4640911Y-7558205D01*
X4640909Y-7558204D01*
X4555862Y-7514871D01*
X4548922Y-7511335D01*
X4541228Y-7510116D01*
X4541227Y-7510116D01*
X4446957Y-7495185D01*
X4439261Y-7493966D01*
X4431565Y-7495185D01*
X4337295Y-7510116D01*
X4337294Y-7510116D01*
X4329600Y-7511335D01*
X4322660Y-7514871D01*
X4237613Y-7558204D01*
X4237611Y-7558205D01*
X4230674Y-7561740D01*
X4152166Y-7640248D01*
X4148632Y-7647185D01*
X4148630Y-7647187D01*
X4126365Y-7690887D01*
X4079995Y-7735666D01*
X4058857Y-7745523D01*
X3975196Y-7829184D01*
X3925193Y-7936415D01*
X3918761Y-7985272D01*
X3918761Y-8333904D01*
X3925193Y-8382761D01*
X3928396Y-8389629D01*
X3928396Y-8389630D01*
X3963899Y-8465765D01*
X3975196Y-8489992D01*
X4058857Y-8573653D01*
X4072180Y-8579865D01*
X4116925Y-8621593D01*
X4128599Y-8681655D01*
X4102740Y-8737107D01*
X4072181Y-8759310D01*
X4058857Y-8765523D01*
X3975196Y-8849184D01*
X3925193Y-8956415D01*
X3918761Y-9005272D01*
X3918761Y-9353904D01*
X3925193Y-9402761D01*
X3928396Y-9409629D01*
X3928396Y-9409630D01*
X3970244Y-9499372D01*
X3975196Y-9509992D01*
X4058857Y-9593653D01*
X4081601Y-9604259D01*
X4126348Y-9645985D01*
X4138761Y-9693982D01*
X4138761Y-9862764D01*
X4119854Y-9920955D01*
X4084707Y-9950973D01*
X4033076Y-9977281D01*
X3973719Y-10007524D01*
X3973717Y-10007525D01*
X3966780Y-10011060D01*
X3880004Y-10097836D01*
X3825487Y-10125613D01*
X3765055Y-10116042D01*
X3739996Y-10097836D01*
X3653220Y-10011060D01*
X3646283Y-10007525D01*
X3646281Y-10007524D01*
X3540066Y-9953405D01*
X3540065Y-9953405D01*
X3533126Y-9949869D01*
X3525434Y-9948651D01*
X3525432Y-9948650D01*
X3511855Y-9946500D01*
X3457339Y-9918722D01*
X3429562Y-9864205D01*
X3428343Y-9848719D01*
X3428343Y-9693982D01*
X3447250Y-9635791D01*
X3485503Y-9604259D01*
X3508247Y-9593653D01*
X3591908Y-9509992D01*
X3596861Y-9499372D01*
X3638708Y-9409630D01*
X3638708Y-9409629D01*
X3641911Y-9402761D01*
X3648343Y-9353904D01*
X3648343Y-9005272D01*
X3641911Y-8956415D01*
X3591908Y-8849184D01*
X3508247Y-8765523D01*
X3494924Y-8759311D01*
X3450179Y-8717583D01*
X3438505Y-8657521D01*
X3464364Y-8602069D01*
X3494923Y-8579866D01*
X3508247Y-8573653D01*
X3591908Y-8489992D01*
X3603206Y-8465765D01*
X3638708Y-8389630D01*
X3638708Y-8389629D01*
X3641911Y-8382761D01*
X3648343Y-8333904D01*
X3648343Y-7985272D01*
X3641911Y-7936415D01*
X3591908Y-7829184D01*
X3508247Y-7745523D01*
X3503223Y-7743180D01*
X3466864Y-7694044D01*
X3466562Y-7693113D01*
X3465343Y-7685419D01*
X3432011Y-7620000D01*
X3418474Y-7593432D01*
X3418473Y-7593430D01*
X3414938Y-7586493D01*
X3336430Y-7507985D01*
X3329493Y-7504450D01*
X3329491Y-7504449D01*
X3244444Y-7461116D01*
X3237504Y-7457580D01*
X3229810Y-7456361D01*
X3229809Y-7456361D01*
X3135539Y-7441430D01*
X3127843Y-7440211D01*
X3120147Y-7441430D01*
X3025877Y-7456361D01*
X3025876Y-7456361D01*
X3018182Y-7457580D01*
X3011242Y-7461116D01*
X2926195Y-7504449D01*
X2926193Y-7504450D01*
X2919256Y-7507985D01*
X2840748Y-7586493D01*
X2837213Y-7593430D01*
X2837212Y-7593432D01*
X2823675Y-7620000D01*
X2790343Y-7685419D01*
X2789124Y-7693113D01*
X2788822Y-7694044D01*
X2752463Y-7743180D01*
X2747439Y-7745523D01*
X2663778Y-7829184D01*
X2613775Y-7936415D01*
X2612786Y-7943927D01*
X2611467Y-7948453D01*
X2577032Y-7999028D01*
X2519445Y-8019704D01*
X2460704Y-8002582D01*
X2421378Y-7948456D01*
X2420056Y-7943922D01*
X2419068Y-7936415D01*
X2415867Y-7929550D01*
X2372726Y-7837034D01*
X2372725Y-7837032D01*
X2369065Y-7829184D01*
X2285404Y-7745523D01*
X2280380Y-7743180D01*
X2244021Y-7694044D01*
X2243719Y-7693113D01*
X2242500Y-7685419D01*
X2209168Y-7620000D01*
X2195631Y-7593432D01*
X2195630Y-7593430D01*
X2192095Y-7586493D01*
X2113587Y-7507985D01*
X2106650Y-7504450D01*
X2106648Y-7504449D01*
X2021601Y-7461116D01*
X2014661Y-7457580D01*
X2006967Y-7456361D01*
X2006966Y-7456361D01*
X1912696Y-7441430D01*
X1905000Y-7440211D01*
X1897304Y-7441430D01*
X1803034Y-7456361D01*
X1803033Y-7456361D01*
X1795339Y-7457580D01*
X1788399Y-7461116D01*
X1703352Y-7504449D01*
X1703350Y-7504450D01*
X1696413Y-7507985D01*
X1617905Y-7586493D01*
X1614370Y-7593430D01*
X1614369Y-7593432D01*
X1600832Y-7620000D01*
X1567500Y-7685419D01*
X1566281Y-7693113D01*
X1565979Y-7694044D01*
X1529620Y-7743180D01*
X1524596Y-7745523D01*
X1440935Y-7829184D01*
X1390932Y-7936415D01*
X1384500Y-7985272D01*
X1384500Y-8333904D01*
X1390932Y-8382761D01*
X1394135Y-8389629D01*
X1394135Y-8389630D01*
X1429638Y-8465765D01*
X1440935Y-8489992D01*
X1524596Y-8573653D01*
X1537919Y-8579865D01*
X1582664Y-8621593D01*
X1594338Y-8681655D01*
X1568479Y-8737107D01*
X1537920Y-8759310D01*
X1524596Y-8765523D01*
X1440935Y-8849184D01*
X1390932Y-8956415D01*
X1384500Y-9005272D01*
X1384500Y-9353904D01*
X1390932Y-9402761D01*
X1394135Y-9409629D01*
X1394135Y-9409630D01*
X1435983Y-9499372D01*
X1440935Y-9509992D01*
X1524596Y-9593653D01*
X1547340Y-9604259D01*
X1592087Y-9645985D01*
X1604500Y-9693982D01*
X1604500Y-9860499D01*
X1585593Y-9918690D01*
X1545740Y-9947643D01*
X1546874Y-9949869D01*
X1433719Y-10007524D01*
X1433717Y-10007525D01*
X1426780Y-10011060D01*
X1340004Y-10097836D01*
X1285487Y-10125613D01*
X1225055Y-10116042D01*
X1199996Y-10097836D01*
X1113220Y-10011060D01*
X1106283Y-10007525D01*
X1106281Y-10007524D01*
X1000066Y-9953405D01*
X1000065Y-9953405D01*
X993126Y-9949869D01*
X985432Y-9948650D01*
X985431Y-9948650D01*
X897334Y-9934697D01*
X897332Y-9934697D01*
X893488Y-9934088D01*
X376512Y-9934088D01*
X372668Y-9934697D01*
X372666Y-9934697D01*
X284569Y-9948650D01*
X284568Y-9948650D01*
X276874Y-9949869D01*
X269935Y-9953405D01*
X269934Y-9953405D01*
X163719Y-10007524D01*
X163717Y-10007525D01*
X156780Y-10011060D01*
X70004Y-10097836D01*
X15487Y-10125613D01*
X-44945Y-10116042D01*
X-70004Y-10097836D01*
X-156780Y-10011060D01*
X-163717Y-10007525D01*
X-163719Y-10007524D01*
X-269934Y-9953405D01*
X-269935Y-9953405D01*
X-276874Y-9949869D01*
X-284568Y-9948650D01*
X-284569Y-9948650D01*
X-372666Y-9934697D01*
X-372668Y-9934697D01*
X-376512Y-9934088D01*
X-893488Y-9934088D01*
X-897332Y-9934697D01*
X-897334Y-9934697D01*
X-985431Y-9948650D01*
X-985432Y-9948650D01*
X-993126Y-9949869D01*
X-1000065Y-9953405D01*
X-1000066Y-9953405D01*
X-1106281Y-10007524D01*
X-1106283Y-10007525D01*
X-1113220Y-10011060D01*
X-1199996Y-10097836D01*
X-1254513Y-10125613D01*
X-1314945Y-10116042D01*
X-1340004Y-10097836D01*
X-1426780Y-10011060D01*
X-1433717Y-10007525D01*
X-1433719Y-10007524D01*
X-1539934Y-9953405D01*
X-1539935Y-9953405D01*
X-1546874Y-9949869D01*
X-1554568Y-9948650D01*
X-1554569Y-9948650D01*
X-1642666Y-9934697D01*
X-1642668Y-9934697D01*
X-1646512Y-9934088D01*
X-2163488Y-9934088D01*
X-2167332Y-9934697D01*
X-2167334Y-9934697D01*
X-2255431Y-9948650D01*
X-2255432Y-9948650D01*
X-2263126Y-9949869D01*
X-2270065Y-9953405D01*
X-2270066Y-9953405D01*
X-2376281Y-10007524D01*
X-2376283Y-10007525D01*
X-2383220Y-10011060D01*
X-2469996Y-10097836D01*
X-2524513Y-10125613D01*
X-2584945Y-10116042D01*
X-2610004Y-10097836D01*
X-2696780Y-10011060D01*
X-2703717Y-10007525D01*
X-2703719Y-10007524D01*
X-2809934Y-9953405D01*
X-2809935Y-9953405D01*
X-2816874Y-9949869D01*
X-2824568Y-9948650D01*
X-2824569Y-9948650D01*
X-2912666Y-9934697D01*
X-2912668Y-9934697D01*
X-2916512Y-9934088D01*
X-3433488Y-9934088D01*
X-3437332Y-9934697D01*
X-3437334Y-9934697D01*
X-3525431Y-9948650D01*
X-3525432Y-9948650D01*
X-3533126Y-9949869D01*
X-3540065Y-9953405D01*
X-3540066Y-9953405D01*
X-3646281Y-10007524D01*
X-3646283Y-10007525D01*
X-3653220Y-10011060D01*
X-3739996Y-10097836D01*
X-3794513Y-10125613D01*
X-3854945Y-10116042D01*
X-3880004Y-10097836D01*
X-3966780Y-10011060D01*
X-3973717Y-10007525D01*
X-3973719Y-10007524D01*
X-4079934Y-9953405D01*
X-4079935Y-9953405D01*
X-4086874Y-9949869D01*
X-4094568Y-9948650D01*
X-4094569Y-9948650D01*
X-4182666Y-9934697D01*
X-4182668Y-9934697D01*
X-4186512Y-9934088D01*
X-4703488Y-9934088D01*
X-4707332Y-9934697D01*
X-4707334Y-9934697D01*
X-4795431Y-9948650D01*
X-4795432Y-9948650D01*
X-4803126Y-9949869D01*
X-4810065Y-9953405D01*
X-4810066Y-9953405D01*
X-4916281Y-10007524D01*
X-4916283Y-10007525D01*
X-4923220Y-10011060D01*
X-5009996Y-10097836D01*
X-5064513Y-10125613D01*
X-5124945Y-10116042D01*
X-5150004Y-10097836D01*
X-5236780Y-10011060D01*
X-5243717Y-10007525D01*
X-5243719Y-10007524D01*
X-5349934Y-9953405D01*
X-5349935Y-9953405D01*
X-5356874Y-9949869D01*
X-5364568Y-9948650D01*
X-5364569Y-9948650D01*
X-5452666Y-9934697D01*
X-5452668Y-9934697D01*
X-5456512Y-9934088D01*
X-5973488Y-9934088D01*
X-5977332Y-9934697D01*
X-5977334Y-9934697D01*
X-6065431Y-9948650D01*
X-6065432Y-9948650D01*
X-6073126Y-9949869D01*
X-6080065Y-9953405D01*
X-6080066Y-9953405D01*
X-6186281Y-10007524D01*
X-6186283Y-10007525D01*
X-6193220Y-10011060D01*
X-6198726Y-10016566D01*
X-6198730Y-10016569D01*
X-6280349Y-10098189D01*
X-6334865Y-10125967D01*
X-6395298Y-10116396D01*
X-6420357Y-10098190D01*
X-6501569Y-10016978D01*
X-6514019Y-10007933D01*
X-6521029Y-10004361D01*
X-6532281Y-10002579D01*
X-6535000Y-10007915D01*
X-6535000Y-10710088D01*
X-6553907Y-10768279D01*
X-6603407Y-10804243D01*
X-6634000Y-10809088D01*
X-7336000Y-10809088D01*
X-7394191Y-10790181D01*
X-7430155Y-10740681D01*
X-7435000Y-10710088D01*
X-7435000Y-10012922D01*
X-7438521Y-10002087D01*
X-7444508Y-10002087D01*
X-7455981Y-10007933D01*
X-7468431Y-10016978D01*
X-7552612Y-10101159D01*
X-7561654Y-10113604D01*
X-7615702Y-10219679D01*
X-7620457Y-10234314D01*
X-7634391Y-10322291D01*
X-7635000Y-10330030D01*
X-7635000Y-10710088D01*
X-7653907Y-10768279D01*
X-7703407Y-10804243D01*
X-7734000Y-10809088D01*
X-7966996Y-10809088D01*
X-7989181Y-10806570D01*
X-8000654Y-10803932D01*
X-8011528Y-10806393D01*
X-8022677Y-10806373D01*
X-8022675Y-10805363D01*
X-8032576Y-10805979D01*
X-8147278Y-10794680D01*
X-8166313Y-10790894D01*
X-8297633Y-10751056D01*
X-8315563Y-10743628D01*
X-8436583Y-10678939D01*
X-8452719Y-10668157D01*
X-8505756Y-10624630D01*
X-8558796Y-10581099D01*
X-8572516Y-10567379D01*
X-8581623Y-10556281D01*
X-8659572Y-10461298D01*
X-8670353Y-10445163D01*
X-8704266Y-10381713D01*
X-8735040Y-10324138D01*
X-8742468Y-10306202D01*
X-8743369Y-10303231D01*
X-8742163Y-10242058D01*
X-8705231Y-10193276D01*
X-8648630Y-10175500D01*
X-8296890Y-10175500D01*
X-8293046Y-10174891D01*
X-8293044Y-10174891D01*
X-8204947Y-10160938D01*
X-8204946Y-10160938D01*
X-8197252Y-10159719D01*
X-8190312Y-10156183D01*
X-8084097Y-10102064D01*
X-8084095Y-10102063D01*
X-8077158Y-10098528D01*
X-7981850Y-10003220D01*
X-7952949Y-9946500D01*
X-7924195Y-9890066D01*
X-7924195Y-9890065D01*
X-7920659Y-9883126D01*
X-7915209Y-9848719D01*
X-7905487Y-9787334D01*
X-7905487Y-9787332D01*
X-7904878Y-9783488D01*
X-7904878Y-9733935D01*
X-7885971Y-9675744D01*
X-7875882Y-9663931D01*
X-7560598Y-9348647D01*
X-7557469Y-9345947D01*
X-7552980Y-9343752D01*
X-7519356Y-9307505D01*
X-7516780Y-9304829D01*
X-7503002Y-9291051D01*
X-7500457Y-9287341D01*
X-7497021Y-9283428D01*
X-7483065Y-9268383D01*
X-7476848Y-9261681D01*
X-7472583Y-9250991D01*
X-7462270Y-9231677D01*
X-7460929Y-9229722D01*
X-7460928Y-9229720D01*
X-7455757Y-9222182D01*
X-7453646Y-9213288D01*
X-7453645Y-9213285D01*
X-7449605Y-9196264D01*
X-7445234Y-9182442D01*
X-7437955Y-9164197D01*
X-7437954Y-9164191D01*
X-7435366Y-9157705D01*
X-7434749Y-9151412D01*
X-7434749Y-9145244D01*
X-7432074Y-9122385D01*
X-7432019Y-9122155D01*
X-7432019Y-9122153D01*
X-7429909Y-9113262D01*
X-7433845Y-9084340D01*
X-7434749Y-9070991D01*
X-7434749Y-8621829D01*
X-7415842Y-8563638D01*
X-7405753Y-8551825D01*
X-7166841Y-8312913D01*
X-7163712Y-8310213D01*
X-7159223Y-8308018D01*
X-7125599Y-8271771D01*
X-7123023Y-8269095D01*
X-7109245Y-8255317D01*
X-7106700Y-8251606D01*
X-7103272Y-8247701D01*
X-7083091Y-8225947D01*
X-7078826Y-8215257D01*
X-7068512Y-8195941D01*
X-7067171Y-8193986D01*
X-7067170Y-8193983D01*
X-7062000Y-8186447D01*
X-7055851Y-8160534D01*
X-7051478Y-8146709D01*
X-7044198Y-8128461D01*
X-7044198Y-8128459D01*
X-7041609Y-8121971D01*
X-7040992Y-8115678D01*
X-7040992Y-8109509D01*
X-7038317Y-8086650D01*
X-7038262Y-8086420D01*
X-7038262Y-8086418D01*
X-7036152Y-8077527D01*
X-7040088Y-8048606D01*
X-7040992Y-8035256D01*
X-7040991Y-7615463D01*
X-4244810Y-7615463D01*
X-4238583Y-7618367D01*
X-4027740Y-7618367D01*
X-4015055Y-7614245D01*
X-4012060Y-7610124D01*
X-4012060Y-7413861D01*
X-4016182Y-7401176D01*
X-4017605Y-7400142D01*
X-4024284Y-7402089D01*
X-4118234Y-7445898D01*
X-4132207Y-7455682D01*
X-4204745Y-7528220D01*
X-4214529Y-7542193D01*
X-4243422Y-7604155D01*
X-4244810Y-7615463D01*
X-7040991Y-7615463D01*
X-7040991Y-7574540D01*
X-7022084Y-7516349D01*
X-7011995Y-7504536D01*
X-6450789Y-6943331D01*
X-6396272Y-6915554D01*
X-6380785Y-6914335D01*
X-2042541Y-6914335D01*
X-2038416Y-6914638D01*
X-2033691Y-6916260D01*
X-1984272Y-6914405D01*
X-1980559Y-6914335D01*
X-1961085Y-6914335D01*
X-1956655Y-6913510D01*
X-1951462Y-6913174D01*
X-1935431Y-6912572D01*
X-1930958Y-6912404D01*
X-1921825Y-6912061D01*
X-1913431Y-6908455D01*
X-1913428Y-6908454D01*
X-1911250Y-6907518D01*
X-1890299Y-6901152D01*
X-1878980Y-6899044D01*
X-1856304Y-6885067D01*
X-1843437Y-6878383D01*
X-1825391Y-6870630D01*
X-1825390Y-6870629D01*
X-1818970Y-6867871D01*
X-1814084Y-6863857D01*
X-1809720Y-6859493D01*
X-1791665Y-6845222D01*
X-1783685Y-6840303D01*
X-1766015Y-6817066D01*
X-1757223Y-6806996D01*
X-1212401Y-6262175D01*
X-1157884Y-6234398D01*
X-1142397Y-6233179D01*
X-946411Y-6233179D01*
X-933726Y-6229057D01*
X-930731Y-6224936D01*
X-930731Y-6010870D01*
X-934853Y-5998185D01*
X-945595Y-5990380D01*
X-974070Y-5981128D01*
X-1010034Y-5931628D01*
X-1014879Y-5901035D01*
X-1014878Y-5483883D01*
X-1014878Y-4664161D01*
X-1015211Y-4662489D01*
X-1015378Y-4659084D01*
X-1015378Y-4578794D01*
X-1008326Y-4557091D01*
X-1015378Y-4521883D01*
X-1015378Y-4459563D01*
X-1019500Y-4446878D01*
X-1019537Y-4446850D01*
X-1027836Y-4446361D01*
X-1053359Y-4451438D01*
X-1076826Y-4461158D01*
X-1137823Y-4465959D01*
X-1152599Y-4461158D01*
X-1159528Y-4458288D01*
X-1167638Y-4452869D01*
X-1177201Y-4450967D01*
X-1177203Y-4450966D01*
X-1203970Y-4445642D01*
X-1240704Y-4438335D01*
X-1390052Y-4438335D01*
X-1463118Y-4452869D01*
X-1471226Y-4458287D01*
X-1477492Y-4460882D01*
X-1538488Y-4465683D01*
X-1553264Y-4460882D01*
X-1559530Y-4458287D01*
X-1567638Y-4452869D01*
X-1640704Y-4438335D01*
X-1790052Y-4438335D01*
X-1863118Y-4452869D01*
X-1871226Y-4458287D01*
X-1877492Y-4460882D01*
X-1938488Y-4465683D01*
X-1953264Y-4460882D01*
X-1959530Y-4458287D01*
X-1967638Y-4452869D01*
X-2040704Y-4438335D01*
X-2190052Y-4438335D01*
X-2263118Y-4452869D01*
X-2271226Y-4458287D01*
X-2277492Y-4460882D01*
X-2338488Y-4465683D01*
X-2353264Y-4460882D01*
X-2359530Y-4458287D01*
X-2367638Y-4452869D01*
X-2440704Y-4438335D01*
X-2590052Y-4438335D01*
X-2594816Y-4439283D01*
X-2594820Y-4439283D01*
X-2600557Y-4440424D01*
X-2661318Y-4433232D01*
X-2706247Y-4391698D01*
X-2718183Y-4331688D01*
X-2716967Y-4324014D01*
X-2715826Y-4318277D01*
X-2715826Y-4318273D01*
X-2714878Y-4313509D01*
X-2714878Y-4164161D01*
X-2729412Y-4091095D01*
X-2734830Y-4082987D01*
X-2737425Y-4076721D01*
X-2742226Y-4015725D01*
X-2737425Y-4000949D01*
X-2734830Y-3994683D01*
X-2729412Y-3986575D01*
X-2714878Y-3913509D01*
X-2714878Y-3764161D01*
X-2729412Y-3691095D01*
X-2729704Y-3690658D01*
X-2734049Y-3635467D01*
X-2702081Y-3583297D01*
X-2645553Y-3559881D01*
X-2622300Y-3560795D01*
X-2515378Y-3577730D01*
X-2507682Y-3576511D01*
X-2413412Y-3561580D01*
X-2413411Y-3561580D01*
X-2405717Y-3560361D01*
X-2381447Y-3547995D01*
X-2313730Y-3513492D01*
X-2313728Y-3513491D01*
X-2306791Y-3509956D01*
X-2228283Y-3431448D01*
X-2224057Y-3423155D01*
X-2181414Y-3339462D01*
X-2177878Y-3332522D01*
X-2173884Y-3307309D01*
X-2165389Y-3253675D01*
X-1715378Y-3253675D01*
X-1714430Y-3263297D01*
X-1705676Y-3307309D01*
X-1698357Y-3324977D01*
X-1664989Y-3374917D01*
X-1651460Y-3388446D01*
X-1601520Y-3421814D01*
X-1583852Y-3429133D01*
X-1539840Y-3437887D01*
X-1530218Y-3438835D01*
X-185058Y-3438835D01*
X-172373Y-3434713D01*
X-169378Y-3430592D01*
X-169378Y-1908515D01*
X-173500Y-1895830D01*
X-177621Y-1892835D01*
X-1699698Y-1892835D01*
X-1712383Y-1896957D01*
X-1715378Y-1901078D01*
X-1715378Y-3253675D01*
X-2165389Y-3253675D01*
X-2161728Y-3230557D01*
X-2160509Y-3222861D01*
X-2174923Y-3131855D01*
X-2176659Y-3120895D01*
X-2176659Y-3120894D01*
X-2177878Y-3113200D01*
X-2204088Y-3061759D01*
X-2214878Y-3016815D01*
X-2214878Y1061665D01*
X-2195971Y1119856D01*
X-2146471Y1155820D01*
X-2115878Y1160665D01*
X-2040704Y1160665D01*
X-1967638Y1175199D01*
X-1959530Y1180617D01*
X-1953264Y1183212D01*
X-1892268Y1188013D01*
X-1877492Y1183212D01*
G37*
%TD.AperFunction*%
%TA.AperFunction,Conductor*%
G36*
X2351450Y772191D02*
G01*
X2380469Y745272D01*
X2383145Y742696D01*
X2396923Y728918D01*
X2400634Y726373D01*
X2404539Y722945D01*
X2426293Y702764D01*
X2434780Y699378D01*
X2436983Y698499D01*
X2456299Y688185D01*
X2458254Y686844D01*
X2458257Y686843D01*
X2465793Y681673D01*
X2491705Y675524D01*
X2505531Y671151D01*
X2523779Y663871D01*
X2523781Y663871D01*
X2530269Y661282D01*
X2536562Y660665D01*
X2542731Y660665D01*
X2565590Y657990D01*
X2565820Y657935D01*
X2565822Y657935D01*
X2574713Y655825D01*
X2603635Y659761D01*
X2616984Y660665D01*
X2785122Y660665D01*
X2843313Y641758D01*
X2879277Y592258D01*
X2884122Y561665D01*
X2884122Y486491D01*
X2898656Y413425D01*
X2904074Y405317D01*
X2906669Y399051D01*
X2911470Y338055D01*
X2906669Y323279D01*
X2904074Y317013D01*
X2898656Y308905D01*
X2884122Y235839D01*
X2884122Y86491D01*
X2898656Y13425D01*
X2904074Y5317D01*
X2906669Y-949D01*
X2911470Y-61945D01*
X2906669Y-76721D01*
X2904074Y-82987D01*
X2898656Y-91095D01*
X2884122Y-164161D01*
X2884122Y-313509D01*
X2898656Y-386575D01*
X2904074Y-394683D01*
X2906669Y-400949D01*
X2911470Y-461945D01*
X2906669Y-476721D01*
X2904074Y-482987D01*
X2898656Y-491095D01*
X2884122Y-564161D01*
X2884122Y-713509D01*
X2898656Y-786575D01*
X2904074Y-794683D01*
X2906669Y-800949D01*
X2911470Y-861945D01*
X2906669Y-876721D01*
X2904074Y-882987D01*
X2898656Y-891095D01*
X2884122Y-964161D01*
X2884122Y-1113509D01*
X2898656Y-1186575D01*
X2904074Y-1194683D01*
X2906669Y-1200949D01*
X2911470Y-1261945D01*
X2906669Y-1276721D01*
X2904074Y-1282987D01*
X2898656Y-1291095D01*
X2884122Y-1364161D01*
X2884122Y-1513509D01*
X2898656Y-1586575D01*
X2904074Y-1594683D01*
X2906669Y-1600949D01*
X2911470Y-1661945D01*
X2906669Y-1676721D01*
X2904074Y-1682987D01*
X2898656Y-1691095D01*
X2884122Y-1764161D01*
X2884122Y-1913509D01*
X2898656Y-1986575D01*
X2904074Y-1994683D01*
X2906669Y-2000949D01*
X2911470Y-2061945D01*
X2906669Y-2076721D01*
X2904074Y-2082987D01*
X2898656Y-2091095D01*
X2884122Y-2164161D01*
X2884122Y-2313509D01*
X2898656Y-2386575D01*
X2904074Y-2394683D01*
X2906669Y-2400949D01*
X2911470Y-2461945D01*
X2906669Y-2476721D01*
X2904074Y-2482987D01*
X2898656Y-2491095D01*
X2884122Y-2564161D01*
X2884122Y-2713509D01*
X2898656Y-2786575D01*
X2904074Y-2794683D01*
X2906669Y-2800949D01*
X2911470Y-2861945D01*
X2906669Y-2876721D01*
X2904074Y-2882987D01*
X2898656Y-2891095D01*
X2884122Y-2964161D01*
X2884122Y-3113509D01*
X2898656Y-3186575D01*
X2904074Y-3194683D01*
X2906669Y-3200949D01*
X2911470Y-3261945D01*
X2906669Y-3276721D01*
X2904074Y-3282987D01*
X2898656Y-3291095D01*
X2884122Y-3364161D01*
X2884122Y-3513509D01*
X2898656Y-3586575D01*
X2904074Y-3594683D01*
X2906669Y-3600949D01*
X2911470Y-3661945D01*
X2906669Y-3676721D01*
X2904074Y-3682987D01*
X2898656Y-3691095D01*
X2884122Y-3764161D01*
X2884122Y-3913509D01*
X2898656Y-3986575D01*
X2904074Y-3994683D01*
X2906669Y-4000949D01*
X2911470Y-4061945D01*
X2906669Y-4076721D01*
X2904074Y-4082987D01*
X2898656Y-4091095D01*
X2884122Y-4164161D01*
X2884122Y-4313509D01*
X2885070Y-4318273D01*
X2885070Y-4318277D01*
X2886211Y-4324014D01*
X2879019Y-4384775D01*
X2837485Y-4429704D01*
X2777475Y-4441640D01*
X2769801Y-4440424D01*
X2764064Y-4439283D01*
X2764060Y-4439283D01*
X2759296Y-4438335D01*
X2609948Y-4438335D01*
X2536882Y-4452869D01*
X2528774Y-4458287D01*
X2522508Y-4460882D01*
X2461512Y-4465683D01*
X2446736Y-4460882D01*
X2440470Y-4458287D01*
X2432362Y-4452869D01*
X2359296Y-4438335D01*
X2209948Y-4438335D01*
X2137064Y-4452833D01*
X2076304Y-4445642D01*
X2031374Y-4404109D01*
X2019437Y-4344100D01*
X2021003Y-4335262D01*
X2021040Y-4334499D01*
X2023151Y-4325605D01*
X2019215Y-4296683D01*
X2018311Y-4283334D01*
X2018311Y-4265552D01*
X2029101Y-4220607D01*
X2051775Y-4176107D01*
X2055311Y-4169167D01*
X2072680Y-4059506D01*
X2055311Y-3949845D01*
X2051774Y-3942902D01*
X2050699Y-3939595D01*
X2050700Y-3878409D01*
X2086664Y-3828910D01*
X2094908Y-3824424D01*
X2094674Y-3824045D01*
X2125697Y-3804922D01*
X2134159Y-3800260D01*
X2166891Y-3784260D01*
X2173105Y-3777561D01*
X2177824Y-3774057D01*
X2182187Y-3770101D01*
X2189970Y-3765303D01*
X2195504Y-3758026D01*
X2212020Y-3736307D01*
X2218242Y-3728905D01*
X2236804Y-3708895D01*
X2236808Y-3708889D01*
X2243023Y-3702189D01*
X2246412Y-3693695D01*
X2249554Y-3688724D01*
X2252195Y-3683473D01*
X2257730Y-3676194D01*
X2267868Y-3641185D01*
X2270998Y-3632066D01*
X2284505Y-3598213D01*
X2285122Y-3591920D01*
X2285122Y-3590964D01*
X2285851Y-3586583D01*
X2285434Y-3586542D01*
X2286326Y-3577444D01*
X2288868Y-3568667D01*
X2287843Y-3556825D01*
X2285491Y-3529675D01*
X2285122Y-3521133D01*
X2285122Y205438D01*
X2285595Y215100D01*
X2286326Y222556D01*
X2288868Y231333D01*
X2288066Y240602D01*
X2285491Y270325D01*
X2285122Y278867D01*
X2285122Y289113D01*
X2284285Y293608D01*
X2283657Y296982D01*
X2282353Y306560D01*
X2279998Y333755D01*
X2279997Y333757D01*
X2279209Y342861D01*
X2275195Y351074D01*
X2273621Y356748D01*
X2271505Y362233D01*
X2269831Y371218D01*
X2265037Y378995D01*
X2265036Y378998D01*
X2250709Y402240D01*
X2246047Y410702D01*
X2230047Y443434D01*
X2223348Y449648D01*
X2219844Y454367D01*
X2215887Y458731D01*
X2211090Y466513D01*
X2209152Y467987D01*
X2185701Y520173D01*
X2185122Y530862D01*
X2185122Y699611D01*
X2204029Y757802D01*
X2253529Y793766D01*
X2314715Y793766D01*
X2351450Y772191D01*
G37*
%TD.AperFunction*%
%TA.AperFunction,Conductor*%
G36*
X7858724Y-2224407D02*
G01*
X7887677Y-2264260D01*
X7889903Y-2263126D01*
X7951094Y-2383220D01*
X8037870Y-2469996D01*
X8065647Y-2524513D01*
X8056076Y-2584945D01*
X8037870Y-2610004D01*
X7951094Y-2696780D01*
X7947559Y-2703717D01*
X7947558Y-2703719D01*
X7918781Y-2760198D01*
X7889903Y-2816874D01*
X7888685Y-2824567D01*
X7887191Y-2833997D01*
X7859412Y-2888512D01*
X7841381Y-2902769D01*
X7839784Y-2903754D01*
X7826893Y-2910452D01*
X7808847Y-2918205D01*
X7808846Y-2918206D01*
X7802426Y-2920964D01*
X7797540Y-2924978D01*
X7793176Y-2929342D01*
X7775121Y-2943613D01*
X7767141Y-2948532D01*
X7749469Y-2971772D01*
X7740674Y-2981844D01*
X7590664Y-3131855D01*
X7459505Y-3263014D01*
X7404988Y-3290792D01*
X7389501Y-3292011D01*
X6724396Y-3292011D01*
X6666205Y-3273104D01*
X6630241Y-3223604D01*
X6630241Y-3162418D01*
X6634672Y-3151172D01*
X6643801Y-3131594D01*
X6644563Y-3128982D01*
X6643231Y-3121801D01*
X6641929Y-3120565D01*
X6636649Y-3119370D01*
X6018523Y-3119370D01*
X5960332Y-3100463D01*
X5924368Y-3050963D01*
X5919523Y-3020370D01*
X5919523Y-2710370D01*
X5938430Y-2652179D01*
X5987930Y-2616215D01*
X6018523Y-2611370D01*
X6632029Y-2611370D01*
X6644714Y-2607248D01*
X6645749Y-2605825D01*
X6643802Y-2599146D01*
X6641523Y-2594259D01*
X6634066Y-2533530D01*
X6663729Y-2480016D01*
X6672921Y-2473008D01*
X6676130Y-2470098D01*
X6683909Y-2465303D01*
X6701579Y-2442066D01*
X6710371Y-2431996D01*
X6907871Y-2234496D01*
X6962388Y-2206719D01*
X6977875Y-2205500D01*
X7800533Y-2205500D01*
X7858724Y-2224407D01*
G37*
%TD.AperFunction*%
%TA.AperFunction,Conductor*%
G36*
X-7320225Y-1188374D02*
G01*
X-6282654Y-2225945D01*
X-6254877Y-2280462D01*
X-6264448Y-2340894D01*
X-6310819Y-2385674D01*
X-6355909Y-2406700D01*
X-6369878Y-2416480D01*
X-6442416Y-2489018D01*
X-6452200Y-2502991D01*
X-6496009Y-2596941D01*
X-6496771Y-2599553D01*
X-6495439Y-2606734D01*
X-6494137Y-2607970D01*
X-6488857Y-2609165D01*
X-5870731Y-2609165D01*
X-5812540Y-2628072D01*
X-5776576Y-2677572D01*
X-5771731Y-2708165D01*
X-5771731Y-3018165D01*
X-5790638Y-3076356D01*
X-5840138Y-3112320D01*
X-5870731Y-3117165D01*
X-6484237Y-3117165D01*
X-6496923Y-3121287D01*
X-6504601Y-3131855D01*
X-6554101Y-3167819D01*
X-6584694Y-3172665D01*
X-6968473Y-3172665D01*
X-7026664Y-3153758D01*
X-7062628Y-3104258D01*
X-7067473Y-3073665D01*
X-7067473Y-1982217D01*
X-7067170Y-1978092D01*
X-7065548Y-1973367D01*
X-7067403Y-1923948D01*
X-7067473Y-1920235D01*
X-7067473Y-1900761D01*
X-7068298Y-1896331D01*
X-7068635Y-1891126D01*
X-7069404Y-1870634D01*
X-7069747Y-1861501D01*
X-7073353Y-1853107D01*
X-7073354Y-1853104D01*
X-7074290Y-1850926D01*
X-7080656Y-1829975D01*
X-7082764Y-1818656D01*
X-7096741Y-1795980D01*
X-7103425Y-1783113D01*
X-7111178Y-1765067D01*
X-7111179Y-1765066D01*
X-7113937Y-1758646D01*
X-7117951Y-1753760D01*
X-7122315Y-1749396D01*
X-7136586Y-1731341D01*
X-7136709Y-1731142D01*
X-7141505Y-1723361D01*
X-7164742Y-1705691D01*
X-7174812Y-1696899D01*
X-7460233Y-1411478D01*
X-7488010Y-1356961D01*
X-7489229Y-1341474D01*
X-7489229Y-1258378D01*
X-7470322Y-1200187D01*
X-7420822Y-1164223D01*
X-7359636Y-1164223D01*
X-7320225Y-1188374D01*
G37*
%TD.AperFunction*%
%TA.AperFunction,Conductor*%
G36*
X-5126509Y4938417D02*
G01*
X-5090545Y4888917D01*
X-5085700Y4858324D01*
X-5085700Y4227015D01*
X-5082179Y4216180D01*
X-5075310Y4216180D01*
X-5009526Y4246855D01*
X-4995553Y4256639D01*
X-4930058Y4322134D01*
X-4875541Y4349911D01*
X-4815109Y4340340D01*
X-4790050Y4322134D01*
X-4718016Y4250100D01*
X-4710168Y4246440D01*
X-4710166Y4246439D01*
X-4645275Y4216180D01*
X-4609187Y4199352D01*
X-4559601Y4192824D01*
X-4379728Y4192824D01*
X-4199800Y4192825D01*
X-4196590Y4193248D01*
X-4196583Y4193248D01*
X-4157725Y4198363D01*
X-4157724Y4198363D01*
X-4150213Y4199352D01*
X-4097969Y4223714D01*
X-4049234Y4246439D01*
X-4049232Y4246440D01*
X-4041384Y4250100D01*
X-3956476Y4335008D01*
X-3949526Y4349911D01*
X-3908931Y4436968D01*
X-3905728Y4443837D01*
X-3899200Y4493423D01*
X-3899201Y4725615D01*
X-3880294Y4783804D01*
X-3830794Y4819768D01*
X-3769609Y4819769D01*
X-3730197Y4795618D01*
X-2844874Y3910295D01*
X-2817097Y3855778D01*
X-2815878Y3840291D01*
X-2815878Y3294411D01*
X-2834785Y3236220D01*
X-2884285Y3200256D01*
X-2945471Y3200256D01*
X-2984882Y3224407D01*
X-3027798Y3267323D01*
X-3035646Y3270983D01*
X-3035648Y3270984D01*
X-3129758Y3314868D01*
X-3136627Y3318071D01*
X-3186213Y3324599D01*
X-3366086Y3324599D01*
X-3546014Y3324598D01*
X-3549224Y3324175D01*
X-3549231Y3324175D01*
X-3588089Y3319060D01*
X-3588090Y3319060D01*
X-3595601Y3318071D01*
X-3635510Y3299461D01*
X-3696580Y3270984D01*
X-3696582Y3270983D01*
X-3704430Y3267323D01*
X-3776464Y3195289D01*
X-3830981Y3167512D01*
X-3891413Y3177083D01*
X-3916472Y3195289D01*
X-3981967Y3260784D01*
X-3995940Y3270568D01*
X-4057902Y3299461D01*
X-4069210Y3300849D01*
X-4072114Y3294622D01*
X-4072114Y2337790D01*
X-4068593Y2326955D01*
X-4061724Y2326955D01*
X-3995940Y2357630D01*
X-3981967Y2367414D01*
X-3916472Y2432909D01*
X-3861955Y2460686D01*
X-3801523Y2451115D01*
X-3776464Y2432909D01*
X-3704430Y2360875D01*
X-3704827Y2360478D01*
X-3672010Y2316933D01*
X-3666614Y2284696D01*
X-3666614Y1510871D01*
X-3677404Y1465927D01*
X-3696146Y1429143D01*
X-3697364Y1421451D01*
X-3697365Y1421449D01*
X-3710500Y1338518D01*
X-3738278Y1284002D01*
X-3788967Y1256908D01*
X-3838118Y1247131D01*
X-3846226Y1241714D01*
X-3846225Y1241714D01*
X-3895892Y1208528D01*
X-3920979Y1191766D01*
X-3976344Y1108905D01*
X-3990878Y1035839D01*
X-3990878Y960665D01*
X-4009785Y902474D01*
X-4059285Y866510D01*
X-4089878Y861665D01*
X-4494235Y861665D01*
X-4552426Y880572D01*
X-4564239Y890661D01*
X-4594034Y920456D01*
X-4621811Y974973D01*
X-4623030Y990460D01*
X-4623029Y1099343D01*
X-4623028Y1539022D01*
X-4622725Y1543147D01*
X-4621103Y1547872D01*
X-4622958Y1597292D01*
X-4623028Y1601005D01*
X-4623028Y1620477D01*
X-4623853Y1624907D01*
X-4624190Y1630112D01*
X-4624959Y1650603D01*
X-4625302Y1659738D01*
X-4629847Y1670317D01*
X-4636211Y1691266D01*
X-4636644Y1693593D01*
X-4636646Y1693598D01*
X-4638319Y1702582D01*
X-4643116Y1710365D01*
X-4652297Y1725260D01*
X-4658981Y1738127D01*
X-4666734Y1756173D01*
X-4669492Y1762593D01*
X-4673506Y1767479D01*
X-4677868Y1771841D01*
X-4692139Y1789896D01*
X-4692262Y1790095D01*
X-4692263Y1790096D01*
X-4697059Y1797877D01*
X-4704331Y1803407D01*
X-4704333Y1803409D01*
X-4720292Y1815544D01*
X-4730371Y1824344D01*
X-5031425Y2125398D01*
X-5059202Y2179915D01*
X-5060421Y2195402D01*
X-5060421Y2554554D01*
X-4798339Y2554554D01*
X-4796392Y2547875D01*
X-4752583Y2453925D01*
X-4742799Y2439952D01*
X-4670261Y2367414D01*
X-4656288Y2357630D01*
X-4594326Y2328737D01*
X-4583018Y2327349D01*
X-4580114Y2333576D01*
X-4580114Y2544419D01*
X-4584236Y2557104D01*
X-4588357Y2560099D01*
X-4784620Y2560099D01*
X-4797305Y2555977D01*
X-4798339Y2554554D01*
X-5060421Y2554554D01*
X-5060421Y2666670D01*
X-5060118Y2670799D01*
X-5058495Y2675526D01*
X-5060351Y2724961D01*
X-5060421Y2728675D01*
X-5060421Y2748132D01*
X-5061246Y2752562D01*
X-5061582Y2757748D01*
X-5062352Y2778259D01*
X-5062352Y2778260D01*
X-5062695Y2787392D01*
X-5066301Y2795786D01*
X-5066302Y2795789D01*
X-5067238Y2797967D01*
X-5073604Y2818918D01*
X-5075712Y2830237D01*
X-5089691Y2852915D01*
X-5096371Y2865775D01*
X-5104129Y2883832D01*
X-5104130Y2883833D01*
X-5106885Y2890246D01*
X-5110898Y2895133D01*
X-5115264Y2899499D01*
X-5129536Y2917555D01*
X-5129657Y2917752D01*
X-5129658Y2917753D01*
X-5134453Y2925532D01*
X-5157682Y2943196D01*
X-5167760Y2951995D01*
X-5293476Y3077711D01*
X-4797154Y3077711D01*
X-4795822Y3070530D01*
X-4794520Y3069294D01*
X-4789240Y3068099D01*
X-4595794Y3068099D01*
X-4583109Y3072221D01*
X-4580114Y3076342D01*
X-4580114Y3290408D01*
X-4583635Y3301243D01*
X-4590504Y3301243D01*
X-4656288Y3270568D01*
X-4670261Y3260784D01*
X-4742799Y3188246D01*
X-4752583Y3174273D01*
X-4796392Y3080323D01*
X-4797154Y3077711D01*
X-5293476Y3077711D01*
X-5420302Y3204536D01*
X-5448080Y3259053D01*
X-5449299Y3274540D01*
X-5449299Y3769713D01*
X-5448996Y3773838D01*
X-5447374Y3778563D01*
X-5449229Y3827982D01*
X-5449299Y3831695D01*
X-5449299Y3851169D01*
X-5450124Y3855599D01*
X-5450461Y3860804D01*
X-5451230Y3881296D01*
X-5451573Y3890429D01*
X-5455179Y3898823D01*
X-5455180Y3898826D01*
X-5456116Y3901004D01*
X-5462482Y3921955D01*
X-5464590Y3933274D01*
X-5478567Y3955950D01*
X-5485251Y3968817D01*
X-5493004Y3986863D01*
X-5493005Y3986864D01*
X-5495763Y3993284D01*
X-5499777Y3998170D01*
X-5504141Y4002534D01*
X-5518412Y4020589D01*
X-5518535Y4020788D01*
X-5523331Y4028569D01*
X-5546568Y4046239D01*
X-5556638Y4055031D01*
X-5586250Y4084643D01*
X-5614027Y4139160D01*
X-5605971Y4196486D01*
X-5593700Y4222801D01*
X-5593700Y4858324D01*
X-5574793Y4916515D01*
X-5525293Y4952479D01*
X-5494700Y4957324D01*
X-5184700Y4957324D01*
X-5126509Y4938417D01*
G37*
%TD.AperFunction*%
%TA.AperFunction,Conductor*%
G36*
X7968178Y10787394D02*
G01*
X7979651Y10784756D01*
X7990526Y10787217D01*
X8001673Y10787197D01*
X8001671Y10786190D01*
X8011573Y10786803D01*
X8126280Y10775504D01*
X8145314Y10771718D01*
X8276638Y10731880D01*
X8294561Y10724456D01*
X8415589Y10659764D01*
X8431723Y10648983D01*
X8537807Y10561923D01*
X8551524Y10548206D01*
X8604017Y10484243D01*
X8638584Y10442123D01*
X8649365Y10425988D01*
X8705393Y10321168D01*
X8716149Y10260936D01*
X8689448Y10205885D01*
X8635487Y10177042D01*
X8618083Y10175500D01*
X8266134Y10175500D01*
X8262290Y10174891D01*
X8262288Y10174891D01*
X8174191Y10160938D01*
X8174190Y10160938D01*
X8166496Y10159719D01*
X8159557Y10156183D01*
X8159556Y10156183D01*
X8053341Y10102064D01*
X8053339Y10102063D01*
X8046402Y10098528D01*
X7951094Y10003220D01*
X7889903Y9883126D01*
X7888684Y9875432D01*
X7888684Y9875431D01*
X7877783Y9806602D01*
X7874122Y9783488D01*
X7874122Y9266512D01*
X7874731Y9262668D01*
X7874731Y9262666D01*
X7884386Y9201710D01*
X7889903Y9166874D01*
X7893439Y9159935D01*
X7893439Y9159934D01*
X7945059Y9058625D01*
X7951094Y9046780D01*
X8037870Y8960004D01*
X8065647Y8905487D01*
X8056076Y8845055D01*
X8037870Y8819996D01*
X7951094Y8733220D01*
X7947559Y8726283D01*
X7947558Y8726281D01*
X7893439Y8620066D01*
X7889903Y8613126D01*
X7888684Y8605432D01*
X7888684Y8605431D01*
X7875916Y8524815D01*
X7874122Y8513488D01*
X7874122Y7996512D01*
X7889903Y7896874D01*
X7893439Y7889935D01*
X7893439Y7889934D01*
X7937054Y7804336D01*
X7951094Y7776780D01*
X8037870Y7690004D01*
X8065647Y7635487D01*
X8056076Y7575055D01*
X8037870Y7549996D01*
X7951094Y7463220D01*
X7947559Y7456283D01*
X7947558Y7456281D01*
X7925887Y7413748D01*
X7889903Y7343126D01*
X7888683Y7335425D01*
X7886655Y7329182D01*
X7850693Y7279681D01*
X7834605Y7270928D01*
X7830746Y7270209D01*
X7808068Y7256230D01*
X7795209Y7249550D01*
X7770737Y7239036D01*
X7765851Y7235023D01*
X7761486Y7230658D01*
X7743431Y7216387D01*
X7735451Y7211468D01*
X7729919Y7204193D01*
X7729918Y7204192D01*
X7717785Y7188236D01*
X7708984Y7178156D01*
X7477176Y6946349D01*
X7470011Y6939852D01*
X7464221Y6935096D01*
X7456214Y6930685D01*
X7450333Y6923689D01*
X7450332Y6923688D01*
X7431034Y6900730D01*
X7425255Y6894428D01*
X7418007Y6887180D01*
X7413477Y6880577D01*
X7407627Y6872884D01*
X7390063Y6851990D01*
X7390062Y6851988D01*
X7384182Y6844993D01*
X7381214Y6836349D01*
X7378316Y6831226D01*
X7375932Y6825846D01*
X7370762Y6818310D01*
X7368652Y6809418D01*
X7362347Y6782850D01*
X7359662Y6773578D01*
X7347829Y6739114D01*
X7348172Y6729978D01*
X7347311Y6724151D01*
X7347024Y6718284D01*
X7344914Y6709391D01*
X7346758Y6695842D01*
X7349828Y6673285D01*
X7350662Y6663647D01*
X7351449Y6642688D01*
X7352028Y6627248D01*
X7355637Y6618849D01*
X7356929Y6613114D01*
X7358777Y6607525D01*
X7360010Y6598467D01*
X7361834Y6595156D01*
X7365859Y6570166D01*
X7365859Y6097469D01*
X7346952Y6039278D01*
X7336863Y6027465D01*
X7238113Y5928715D01*
X7234984Y5926015D01*
X7230495Y5923820D01*
X7224277Y5917117D01*
X7196871Y5887573D01*
X7194295Y5884897D01*
X7180516Y5871118D01*
X7177971Y5867408D01*
X7174535Y5863495D01*
X7169956Y5858559D01*
X7154363Y5841749D01*
X7150976Y5833261D01*
X7150976Y5833260D01*
X7150098Y5831059D01*
X7139784Y5811743D01*
X7138443Y5809788D01*
X7138442Y5809785D01*
X7133272Y5802249D01*
X7132159Y5797558D01*
X7116869Y5774347D01*
X7100202Y5756380D01*
X7097626Y5753705D01*
X7083861Y5739940D01*
X7081316Y5736230D01*
X7077880Y5732317D01*
X7057708Y5710571D01*
X7054321Y5702083D01*
X7054321Y5702082D01*
X7053443Y5699881D01*
X7043129Y5680565D01*
X7041788Y5678610D01*
X7041787Y5678607D01*
X7036617Y5671071D01*
X7034507Y5662179D01*
X7030468Y5645159D01*
X7026095Y5631333D01*
X7018815Y5613085D01*
X7016226Y5606595D01*
X7015609Y5600302D01*
X7015609Y5594133D01*
X7012934Y5571274D01*
X7010769Y5562151D01*
X7014705Y5533230D01*
X7015609Y5519880D01*
X7015609Y5068999D01*
X6996702Y5010808D01*
X6986613Y4998996D01*
X6693793Y4706175D01*
X6690660Y4703470D01*
X6686171Y4701276D01*
X6679953Y4694573D01*
X6652547Y4665029D01*
X6649971Y4662353D01*
X6636192Y4648574D01*
X6633647Y4644864D01*
X6630211Y4640951D01*
X6610039Y4619205D01*
X6606652Y4610717D01*
X6606652Y4610716D01*
X6605774Y4608515D01*
X6595460Y4589199D01*
X6594119Y4587244D01*
X6594118Y4587241D01*
X6588948Y4579705D01*
X6584307Y4560149D01*
X6582799Y4553793D01*
X6578426Y4539967D01*
X6572315Y4524648D01*
X6568557Y4515229D01*
X6567940Y4508936D01*
X6567940Y4502767D01*
X6565265Y4479908D01*
X6563100Y4470785D01*
X6567036Y4441864D01*
X6567940Y4428514D01*
X6567940Y3892472D01*
X6549033Y3834281D01*
X6538944Y3822468D01*
X6299103Y3582627D01*
X6295974Y3579927D01*
X6291485Y3577732D01*
X6285267Y3571029D01*
X6257861Y3541485D01*
X6255285Y3538809D01*
X6241506Y3525030D01*
X6238961Y3521320D01*
X6235525Y3517407D01*
X6215353Y3495661D01*
X6211966Y3487173D01*
X6211966Y3487172D01*
X6211088Y3484971D01*
X6200774Y3465655D01*
X6199432Y3463699D01*
X6199430Y3463695D01*
X6194262Y3456161D01*
X6192152Y3447269D01*
X6188112Y3430247D01*
X6183742Y3416428D01*
X6173871Y3391686D01*
X6173254Y3385393D01*
X6173254Y3379223D01*
X6170579Y3356364D01*
X6168414Y3347241D01*
X6171496Y3324598D01*
X6172350Y3318320D01*
X6173254Y3304970D01*
X6173253Y2902240D01*
X6154346Y2844049D01*
X6144257Y2832237D01*
X5991036Y2679015D01*
X5987903Y2676310D01*
X5983414Y2674116D01*
X5977196Y2667413D01*
X5949790Y2637869D01*
X5947214Y2635193D01*
X5933435Y2621414D01*
X5930890Y2617704D01*
X5927454Y2613791D01*
X5907282Y2592045D01*
X5903895Y2583557D01*
X5903895Y2583556D01*
X5903017Y2581355D01*
X5892703Y2562039D01*
X5891362Y2560084D01*
X5891361Y2560081D01*
X5886191Y2552545D01*
X5884081Y2543653D01*
X5880042Y2526633D01*
X5875669Y2512807D01*
X5868389Y2494559D01*
X5865800Y2488069D01*
X5865183Y2481776D01*
X5865183Y2475607D01*
X5862508Y2452748D01*
X5860343Y2443625D01*
X5864279Y2414704D01*
X5865183Y2401354D01*
X5865183Y1604079D01*
X5846276Y1545888D01*
X5836187Y1534075D01*
X5192773Y890661D01*
X5138256Y862884D01*
X5122769Y861665D01*
X4259122Y861665D01*
X4200931Y880572D01*
X4164967Y930072D01*
X4160122Y960665D01*
X4160122Y1035839D01*
X4145588Y1108905D01*
X4090223Y1191766D01*
X4065137Y1208528D01*
X4015469Y1241714D01*
X4015470Y1241714D01*
X4007362Y1247131D01*
X3943637Y1259807D01*
X3890253Y1289704D01*
X3865170Y1341417D01*
X3854019Y1411818D01*
X3852800Y1427306D01*
X3852800Y2284696D01*
X3871707Y2342887D01*
X3889468Y2360340D01*
X3890616Y2360875D01*
X3962650Y2432909D01*
X4017167Y2460686D01*
X4077599Y2451115D01*
X4102658Y2432909D01*
X4168153Y2367414D01*
X4182126Y2357630D01*
X4244088Y2328737D01*
X4255396Y2327349D01*
X4258300Y2333576D01*
X4258300Y2337790D01*
X4766300Y2337790D01*
X4769821Y2326955D01*
X4776690Y2326955D01*
X4842474Y2357630D01*
X4856447Y2367414D01*
X4928985Y2439952D01*
X4938769Y2453925D01*
X4982578Y2547875D01*
X4983340Y2550487D01*
X4982008Y2557668D01*
X4980706Y2558904D01*
X4975426Y2560099D01*
X4781980Y2560099D01*
X4769295Y2555977D01*
X4766300Y2551856D01*
X4766300Y2337790D01*
X4258300Y2337790D01*
X4258300Y3083779D01*
X4766300Y3083779D01*
X4770422Y3071094D01*
X4774543Y3068099D01*
X4970806Y3068099D01*
X4983491Y3072221D01*
X4984525Y3073644D01*
X4982578Y3080323D01*
X4938769Y3174273D01*
X4928985Y3188246D01*
X4856447Y3260784D01*
X4842474Y3270568D01*
X4780512Y3299461D01*
X4769204Y3300849D01*
X4766300Y3294622D01*
X4766300Y3083779D01*
X4258300Y3083779D01*
X4258300Y3290408D01*
X4254779Y3301243D01*
X4247910Y3301243D01*
X4182126Y3270568D01*
X4168153Y3260784D01*
X4102658Y3195289D01*
X4048141Y3167512D01*
X3987709Y3177083D01*
X3962650Y3195289D01*
X3890616Y3267323D01*
X3882768Y3270983D01*
X3882766Y3270984D01*
X3788656Y3314868D01*
X3781787Y3318071D01*
X3732201Y3324599D01*
X3552328Y3324599D01*
X3372400Y3324598D01*
X3369190Y3324175D01*
X3369183Y3324175D01*
X3330325Y3319060D01*
X3330324Y3319060D01*
X3322813Y3318071D01*
X3282904Y3299461D01*
X3221834Y3270984D01*
X3221832Y3270983D01*
X3213984Y3267323D01*
X3129076Y3182415D01*
X3125416Y3174567D01*
X3125415Y3174565D01*
X3114717Y3151622D01*
X3078328Y3073586D01*
X3071800Y3024000D01*
X3071801Y2604199D01*
X3072224Y2600989D01*
X3072224Y2600982D01*
X3074518Y2583556D01*
X3078328Y2554612D01*
X3085011Y2540281D01*
X3122127Y2460686D01*
X3129076Y2445783D01*
X3213984Y2360875D01*
X3213587Y2360478D01*
X3246404Y2316933D01*
X3251800Y2284696D01*
X3251800Y2057476D01*
X3232893Y1999285D01*
X3183393Y1963321D01*
X3137312Y1959695D01*
X3068634Y1970573D01*
X3014118Y1998351D01*
X2986341Y2052868D01*
X2985122Y2068354D01*
X2985122Y2210839D01*
X2970588Y2283905D01*
X2940633Y2328737D01*
X2920642Y2358656D01*
X2915223Y2366766D01*
X2890598Y2383220D01*
X2874241Y2394149D01*
X2832362Y2422131D01*
X2759296Y2436665D01*
X2684122Y2436665D01*
X2625931Y2455572D01*
X2589967Y2505072D01*
X2585122Y2535665D01*
X2585122Y3361727D01*
X2585425Y3365852D01*
X2587047Y3370577D01*
X2585192Y3419996D01*
X2585122Y3423709D01*
X2585122Y3438299D01*
X2603024Y3495080D01*
X2604843Y3497678D01*
X2610965Y3503800D01*
X2617311Y3517407D01*
X2658510Y3605760D01*
X2661713Y3612629D01*
X2668241Y3662215D01*
X2668240Y4022016D01*
X2667378Y4028569D01*
X2662702Y4064091D01*
X2662702Y4064092D01*
X2661713Y4071603D01*
X2630211Y4139160D01*
X2614626Y4172582D01*
X2614625Y4172584D01*
X2610965Y4180432D01*
X2562919Y4228478D01*
X3523160Y4228478D01*
X3525606Y4216180D01*
X3531508Y4186512D01*
X3534793Y4169995D01*
X3579108Y4103674D01*
X3645429Y4059359D01*
X3654992Y4057457D01*
X3654994Y4057456D01*
X3677665Y4052947D01*
X3703912Y4047726D01*
X4193408Y4047726D01*
X4219655Y4052947D01*
X4242326Y4057456D01*
X4242328Y4057457D01*
X4251891Y4059359D01*
X4318212Y4103674D01*
X4341646Y4138744D01*
X4389694Y4176623D01*
X4450833Y4179025D01*
X4501706Y4145032D01*
X4506275Y4138744D01*
X4524048Y4112145D01*
X4537578Y4098615D01*
X4587518Y4065247D01*
X4605186Y4057928D01*
X4649198Y4049174D01*
X4658175Y4048290D01*
X4670665Y4052348D01*
X4673660Y4056469D01*
X4673660Y4063906D01*
X5123660Y4063906D01*
X5127782Y4051221D01*
X5131903Y4048226D01*
X5138500Y4048226D01*
X5148122Y4049174D01*
X5192134Y4057928D01*
X5209802Y4065247D01*
X5259742Y4098615D01*
X5273271Y4112144D01*
X5306639Y4162084D01*
X5313958Y4179752D01*
X5322712Y4223764D01*
X5323596Y4232741D01*
X5319538Y4245231D01*
X5315417Y4248226D01*
X5139340Y4248226D01*
X5126655Y4244104D01*
X5123660Y4239983D01*
X5123660Y4063906D01*
X4673660Y4063906D01*
X4673660Y4599226D01*
X4692567Y4657417D01*
X4742067Y4693381D01*
X4772660Y4698226D01*
X5307980Y4698226D01*
X5320665Y4702348D01*
X5323660Y4706469D01*
X5323660Y4713066D01*
X5322712Y4722688D01*
X5313958Y4766700D01*
X5306639Y4784368D01*
X5273271Y4834308D01*
X5259741Y4847838D01*
X5233142Y4865611D01*
X5195263Y4913661D01*
X5192861Y4974799D01*
X5226854Y5025673D01*
X5233130Y5030233D01*
X5268212Y5053674D01*
X5312527Y5119995D01*
X5314833Y5131585D01*
X5319995Y5157541D01*
X5324160Y5178478D01*
X5324160Y5667974D01*
X5317542Y5701246D01*
X5314430Y5716892D01*
X5314429Y5716894D01*
X5312527Y5726457D01*
X5268212Y5792778D01*
X5260102Y5798197D01*
X5259480Y5798819D01*
X5235329Y5838233D01*
X5233999Y5842327D01*
X5232780Y5850022D01*
X5198594Y5917117D01*
X5185911Y5942009D01*
X5185910Y5942011D01*
X5182375Y5948948D01*
X5103867Y6027456D01*
X5096930Y6030991D01*
X5096928Y6030992D01*
X5011881Y6074325D01*
X5004941Y6077861D01*
X4997247Y6079080D01*
X4997246Y6079080D01*
X4902976Y6094011D01*
X4895280Y6095230D01*
X4887584Y6094011D01*
X4793314Y6079080D01*
X4793313Y6079080D01*
X4785619Y6077861D01*
X4778679Y6074325D01*
X4693632Y6030992D01*
X4693630Y6030991D01*
X4686693Y6027456D01*
X4608185Y5948948D01*
X4604651Y5942013D01*
X4603909Y5940991D01*
X4554409Y5905027D01*
X4493224Y5905028D01*
X4453813Y5929178D01*
X4403473Y5979518D01*
X4396536Y5983053D01*
X4396534Y5983054D01*
X4311487Y6026387D01*
X4304547Y6029923D01*
X4296853Y6031142D01*
X4296852Y6031142D01*
X4202582Y6046073D01*
X4194886Y6047292D01*
X4187190Y6046073D01*
X4092920Y6031142D01*
X4092919Y6031142D01*
X4085225Y6029923D01*
X4078285Y6026387D01*
X3993238Y5983054D01*
X3993236Y5983053D01*
X3986299Y5979518D01*
X3907791Y5901010D01*
X3904254Y5894068D01*
X3900962Y5889537D01*
X3851463Y5853572D01*
X3820868Y5848726D01*
X3703912Y5848726D01*
X3677665Y5843505D01*
X3654994Y5838996D01*
X3654992Y5838995D01*
X3645429Y5837093D01*
X3579108Y5792778D01*
X3534793Y5726457D01*
X3532891Y5716894D01*
X3532890Y5716892D01*
X3529778Y5701246D01*
X3523160Y5667974D01*
X3523160Y5178478D01*
X3527325Y5157541D01*
X3532488Y5131585D01*
X3534793Y5119995D01*
X3579108Y5053674D01*
X3613730Y5030540D01*
X3651607Y4982490D01*
X3654009Y4921352D01*
X3620015Y4870479D01*
X3613736Y4865916D01*
X3579108Y4842778D01*
X3534793Y4776457D01*
X3523160Y4717974D01*
X3523160Y4228478D01*
X2562919Y4228478D01*
X2538931Y4252466D01*
X2511154Y4306983D01*
X2520725Y4367415D01*
X2538931Y4392474D01*
X2604426Y4457969D01*
X2614210Y4471942D01*
X2643103Y4533904D01*
X2644491Y4545212D01*
X2638264Y4548116D01*
X-1235355Y4548116D01*
X-1246190Y4544595D01*
X-1246190Y4537726D01*
X-1215515Y4471942D01*
X-1205731Y4457969D01*
X-1140236Y4392474D01*
X-1112459Y4337957D01*
X-1122030Y4277525D01*
X-1140236Y4252466D01*
X-1212270Y4180432D01*
X-1220918Y4161886D01*
X-1226154Y4150657D01*
X-1267882Y4105909D01*
X-1327943Y4094235D01*
X-1383396Y4120093D01*
X-1413059Y4173607D01*
X-1414878Y4192497D01*
X-1414878Y4283628D01*
X-1414575Y4287757D01*
X-1412952Y4292484D01*
X-1414808Y4341919D01*
X-1414878Y4345633D01*
X-1414878Y4365090D01*
X-1415703Y4369520D01*
X-1416039Y4374706D01*
X-1416809Y4395217D01*
X-1416809Y4395218D01*
X-1417152Y4404350D01*
X-1420758Y4412744D01*
X-1420759Y4412747D01*
X-1421695Y4414925D01*
X-1428061Y4435876D01*
X-1430169Y4447195D01*
X-1444148Y4469873D01*
X-1450828Y4482733D01*
X-1458586Y4500790D01*
X-1458587Y4500791D01*
X-1461342Y4507204D01*
X-1465355Y4512091D01*
X-1469721Y4516457D01*
X-1483993Y4534513D01*
X-1484114Y4534710D01*
X-1484115Y4534711D01*
X-1488910Y4542490D01*
X-1496308Y4548116D01*
X-1512133Y4560149D01*
X-1522213Y4568949D01*
X-2012284Y5059020D01*
X-1245796Y5059020D01*
X-1239569Y5056116D01*
X-1028726Y5056116D01*
X-1016041Y5060238D01*
X-1013046Y5064359D01*
X-1013046Y5071796D01*
X-505046Y5071796D01*
X-500924Y5059111D01*
X-496803Y5056116D01*
X-54368Y5056116D01*
X-41683Y5060238D01*
X-38688Y5064359D01*
X-38688Y5071796D01*
X469312Y5071796D01*
X473434Y5059111D01*
X477555Y5056116D01*
X919989Y5056116D01*
X932674Y5060238D01*
X935669Y5064359D01*
X935669Y5071796D01*
X1443669Y5071796D01*
X1447791Y5059111D01*
X1451912Y5056116D01*
X1888061Y5056116D01*
X1900746Y5060238D01*
X1903741Y5064359D01*
X1903741Y5071796D01*
X2411741Y5071796D01*
X2415863Y5059111D01*
X2419984Y5056116D01*
X2634050Y5056116D01*
X2644885Y5059637D01*
X2644885Y5066506D01*
X2614210Y5132290D01*
X2604426Y5146263D01*
X2531888Y5218801D01*
X2517915Y5228585D01*
X2423965Y5272394D01*
X2421353Y5273156D01*
X2414172Y5271824D01*
X2412936Y5270522D01*
X2411741Y5265242D01*
X2411741Y5071796D01*
X1903741Y5071796D01*
X1903741Y5260622D01*
X1899619Y5273307D01*
X1898196Y5274341D01*
X1891517Y5272394D01*
X1797567Y5228585D01*
X1783594Y5218801D01*
X1743709Y5178916D01*
X1689192Y5151139D01*
X1628760Y5160710D01*
X1603701Y5178916D01*
X1563816Y5218801D01*
X1549843Y5228585D01*
X1455893Y5272394D01*
X1453281Y5273156D01*
X1446100Y5271824D01*
X1444864Y5270522D01*
X1443669Y5265242D01*
X1443669Y5071796D01*
X935669Y5071796D01*
X935669Y5260622D01*
X931547Y5273307D01*
X930124Y5274341D01*
X923445Y5272394D01*
X829495Y5228585D01*
X815520Y5218799D01*
X772495Y5175774D01*
X717979Y5147996D01*
X657547Y5157567D01*
X632487Y5175773D01*
X589459Y5218801D01*
X575486Y5228585D01*
X481536Y5272394D01*
X478924Y5273156D01*
X471743Y5271824D01*
X470507Y5270522D01*
X469312Y5265242D01*
X469312Y5071796D01*
X-38688Y5071796D01*
X-38688Y5260622D01*
X-42810Y5273307D01*
X-44233Y5274341D01*
X-50912Y5272394D01*
X-144862Y5228585D01*
X-158835Y5218801D01*
X-201863Y5175773D01*
X-256380Y5147996D01*
X-316812Y5157567D01*
X-341871Y5175773D01*
X-384899Y5218801D01*
X-398872Y5228585D01*
X-492822Y5272394D01*
X-495434Y5273156D01*
X-502615Y5271824D01*
X-503851Y5270522D01*
X-505046Y5265242D01*
X-505046Y5071796D01*
X-1013046Y5071796D01*
X-1013046Y5260622D01*
X-1017168Y5273307D01*
X-1018591Y5274341D01*
X-1025270Y5272394D01*
X-1119220Y5228585D01*
X-1133193Y5218801D01*
X-1205731Y5146263D01*
X-1215515Y5132290D01*
X-1244408Y5070328D01*
X-1245796Y5059020D01*
X-2012284Y5059020D01*
X-2047845Y5094581D01*
X-2599994Y5646729D01*
X-2627771Y5701246D01*
X-2628990Y5716733D01*
X-2628990Y5755437D01*
X-2610083Y5813628D01*
X-2560583Y5849592D01*
X-2529990Y5854437D01*
X-2367143Y5854437D01*
X-2354458Y5858559D01*
X-2351463Y5862680D01*
X-2351463Y6305437D01*
X-2332556Y6363628D01*
X-2283056Y6399592D01*
X-2252463Y6404437D01*
X-2100463Y6404437D01*
X-2042272Y6385530D01*
X-2006308Y6336030D01*
X-2001463Y6305437D01*
X-2001463Y5870117D01*
X-1997341Y5857432D01*
X-1993220Y5854437D01*
X-1736623Y5854437D01*
X-1726992Y5855385D01*
X-1722343Y5856310D01*
X-1661582Y5849117D01*
X-1616654Y5807582D01*
X-1616560Y5807387D01*
X-1615330Y5801206D01*
X-1609913Y5793099D01*
X-1606851Y5788517D01*
X-1571015Y5734885D01*
X-1504694Y5690570D01*
X-1495131Y5688668D01*
X-1495129Y5688667D01*
X-1472458Y5684158D01*
X-1446211Y5678937D01*
X993285Y5678937D01*
X1019532Y5684158D01*
X1042203Y5688667D01*
X1042205Y5688668D01*
X1051768Y5690570D01*
X1118089Y5734885D01*
X1162404Y5801206D01*
X1162418Y5801275D01*
X1198185Y5843152D01*
X1257679Y5857436D01*
X1269224Y5855839D01*
X1274020Y5854885D01*
X1274026Y5854884D01*
X1278789Y5853937D01*
X2031296Y5853937D01*
X2076241Y5843147D01*
X2124961Y5818323D01*
X2132655Y5817104D01*
X2132656Y5817104D01*
X2226926Y5802173D01*
X2234622Y5800954D01*
X2242318Y5802173D01*
X2336588Y5817104D01*
X2336589Y5817104D01*
X2344283Y5818323D01*
X2373599Y5833260D01*
X2436270Y5865192D01*
X2436272Y5865193D01*
X2443209Y5868728D01*
X2521717Y5947236D01*
X2525395Y5954453D01*
X2568586Y6039222D01*
X2572122Y6046162D01*
X2573549Y6055168D01*
X2588272Y6148127D01*
X2589491Y6155823D01*
X2577849Y6229326D01*
X2573341Y6257789D01*
X2573341Y6257790D01*
X2572122Y6265484D01*
X2557382Y6294413D01*
X2525253Y6357471D01*
X2525252Y6357473D01*
X2521717Y6364410D01*
X2443209Y6442918D01*
X2412001Y6458819D01*
X2368736Y6502082D01*
X2359164Y6562514D01*
X2386940Y6617031D01*
X2411999Y6635238D01*
X2436267Y6647603D01*
X2436271Y6647606D01*
X2443209Y6651141D01*
X2521717Y6729649D01*
X2526145Y6738338D01*
X2568586Y6821635D01*
X2572122Y6828575D01*
X2574723Y6844993D01*
X2588272Y6930540D01*
X2589491Y6938236D01*
X2576552Y7019927D01*
X4350158Y7019927D01*
X4351377Y7012231D01*
X4364050Y6932221D01*
X4367527Y6910266D01*
X4371063Y6903326D01*
X4414381Y6818310D01*
X4417932Y6811340D01*
X4496440Y6732832D01*
X4503377Y6729297D01*
X4503379Y6729296D01*
X4588426Y6685963D01*
X4595366Y6682427D01*
X4603062Y6681208D01*
X4614610Y6679379D01*
X4669127Y6651602D01*
X4671648Y6648597D01*
X4672479Y6646816D01*
X4756140Y6563155D01*
X4763988Y6559495D01*
X4763990Y6559494D01*
X4843824Y6522267D01*
X4863371Y6513152D01*
X4912228Y6506720D01*
X5260860Y6506720D01*
X5309717Y6513152D01*
X5329264Y6522267D01*
X5409098Y6559494D01*
X5409100Y6559495D01*
X5416948Y6563155D01*
X5500609Y6646816D01*
X5506821Y6660139D01*
X5548549Y6704884D01*
X5608611Y6716558D01*
X5664063Y6690699D01*
X5686266Y6660140D01*
X5692479Y6646816D01*
X5776140Y6563155D01*
X5783988Y6559495D01*
X5783990Y6559494D01*
X5863824Y6522267D01*
X5883371Y6513152D01*
X5932228Y6506720D01*
X6280860Y6506720D01*
X6329717Y6513152D01*
X6349264Y6522267D01*
X6429098Y6559494D01*
X6429100Y6559495D01*
X6436948Y6563155D01*
X6520609Y6646816D01*
X6524271Y6654669D01*
X6526930Y6658467D01*
X6577108Y6695598D01*
X6583983Y6696687D01*
X6590921Y6700222D01*
X6590924Y6700223D01*
X6675970Y6743556D01*
X6675972Y6743557D01*
X6682909Y6747092D01*
X6761417Y6825600D01*
X6771299Y6844993D01*
X6808286Y6917586D01*
X6811822Y6924526D01*
X6814250Y6939852D01*
X6827972Y7026491D01*
X6829191Y7034187D01*
X6823265Y7071603D01*
X6813041Y7136153D01*
X6813041Y7136154D01*
X6811822Y7143848D01*
X6794920Y7177020D01*
X6764953Y7235835D01*
X6764952Y7235837D01*
X6761417Y7242774D01*
X6682909Y7321282D01*
X6675972Y7324817D01*
X6675970Y7324818D01*
X6590923Y7368151D01*
X6583983Y7371687D01*
X6576289Y7372906D01*
X6568879Y7375313D01*
X6569667Y7377740D01*
X6525931Y7400024D01*
X6521929Y7404794D01*
X6520609Y7407624D01*
X6439198Y7489035D01*
X6411421Y7543552D01*
X6420992Y7603984D01*
X6439198Y7629043D01*
X6513605Y7703450D01*
X6519787Y7716706D01*
X6560405Y7803812D01*
X6560405Y7803813D01*
X6563608Y7810681D01*
X6570040Y7859538D01*
X6570040Y8308170D01*
X6563608Y8357027D01*
X6560405Y8363896D01*
X6517266Y8456408D01*
X6517265Y8456410D01*
X6513605Y8464258D01*
X6444771Y8533092D01*
X6416994Y8587609D01*
X6426565Y8648041D01*
X6444771Y8673099D01*
X6497385Y8725714D01*
X6507171Y8739690D01*
X6552099Y8836039D01*
X6553726Y8841621D01*
X6552117Y8850303D01*
X6550817Y8851537D01*
X6545532Y8852733D01*
X5911963Y8852733D01*
X5853772Y8871640D01*
X5817808Y8921140D01*
X5812963Y8951733D01*
X5812963Y9376413D01*
X6320963Y9376413D01*
X6325085Y9363728D01*
X6329206Y9360733D01*
X6540915Y9360733D01*
X6553600Y9364855D01*
X6554656Y9366307D01*
X6554820Y9368094D01*
X6552099Y9377427D01*
X6507171Y9473776D01*
X6497387Y9487749D01*
X6422979Y9562157D01*
X6409006Y9571941D01*
X6335175Y9606369D01*
X6323867Y9607757D01*
X6320963Y9601530D01*
X6320963Y9376413D01*
X5812963Y9376413D01*
X5812963Y9597316D01*
X5809442Y9608151D01*
X5802573Y9608151D01*
X5724920Y9571941D01*
X5710947Y9562157D01*
X5652356Y9503566D01*
X5597839Y9475789D01*
X5537407Y9485360D01*
X5512410Y9503505D01*
X5455133Y9560683D01*
X5455130Y9560685D01*
X5449342Y9566463D01*
X5345257Y9617341D01*
X5295734Y9624566D01*
X5280994Y9626716D01*
X5280992Y9626716D01*
X5277449Y9627233D01*
X4916477Y9627233D01*
X4912894Y9626705D01*
X4912887Y9626705D01*
X4855692Y9618285D01*
X4855690Y9618284D01*
X4848079Y9617164D01*
X4744083Y9566105D01*
X4738302Y9560314D01*
X4668013Y9489903D01*
X4668011Y9489900D01*
X4662233Y9484112D01*
X4611355Y9380027D01*
X4601463Y9312219D01*
X4601463Y8901247D01*
X4601991Y8897664D01*
X4601991Y8897657D01*
X4610411Y8840462D01*
X4611532Y8832849D01*
X4662591Y8728853D01*
X4726322Y8665233D01*
X4754146Y8610743D01*
X4744628Y8550303D01*
X4726383Y8525166D01*
X4665475Y8464258D01*
X4661815Y8456410D01*
X4661814Y8456408D01*
X4618675Y8363896D01*
X4615472Y8357027D01*
X4609040Y8308170D01*
X4609040Y7859538D01*
X4615472Y7810681D01*
X4618675Y7803813D01*
X4618675Y7803812D01*
X4659294Y7716706D01*
X4665475Y7703450D01*
X4746886Y7622039D01*
X4774663Y7567522D01*
X4765092Y7507090D01*
X4746886Y7482031D01*
X4672479Y7407624D01*
X4668820Y7399777D01*
X4668733Y7399653D01*
X4619869Y7362831D01*
X4603125Y7358656D01*
X4595366Y7357427D01*
X4588425Y7353890D01*
X4588424Y7353890D01*
X4503379Y7310558D01*
X4503377Y7310557D01*
X4496440Y7307022D01*
X4417932Y7228514D01*
X4414397Y7221577D01*
X4414396Y7221575D01*
X4374793Y7143848D01*
X4367527Y7129588D01*
X4366308Y7121894D01*
X4366308Y7121893D01*
X4360215Y7083422D01*
X4350158Y7019927D01*
X2576552Y7019927D01*
X2573341Y7040202D01*
X2573341Y7040203D01*
X2572122Y7047897D01*
X2568586Y7054837D01*
X2525253Y7139884D01*
X2525252Y7139886D01*
X2521717Y7146823D01*
X2443209Y7225331D01*
X2436272Y7228866D01*
X2436270Y7228867D01*
X2379367Y7257860D01*
X2363892Y7265745D01*
X2326523Y7298952D01*
X2295699Y7345083D01*
X2279091Y7403971D01*
X2300269Y7461374D01*
X2344075Y7491904D01*
X2344283Y7491937D01*
X2422788Y7531937D01*
X2436270Y7538806D01*
X2436272Y7538807D01*
X2443209Y7542342D01*
X2460784Y7559917D01*
X2515301Y7587694D01*
X2575733Y7578123D01*
X2586028Y7571937D01*
X2591642Y7566323D01*
X2599495Y7562661D01*
X2650185Y7539024D01*
X2700471Y7515575D01*
X2750057Y7509047D01*
X2929930Y7509047D01*
X3109858Y7509048D01*
X3113068Y7509471D01*
X3113075Y7509471D01*
X3151933Y7514586D01*
X3151934Y7514586D01*
X3159445Y7515575D01*
X3209731Y7539024D01*
X3260424Y7562662D01*
X3260426Y7562663D01*
X3268274Y7566323D01*
X3340308Y7638357D01*
X3394825Y7666134D01*
X3455257Y7656563D01*
X3480316Y7638357D01*
X3545811Y7572862D01*
X3559784Y7563078D01*
X3621746Y7534185D01*
X3633054Y7532797D01*
X3635958Y7539024D01*
X3635958Y7543238D01*
X4143958Y7543238D01*
X4147479Y7532403D01*
X4154348Y7532403D01*
X4220132Y7563078D01*
X4234105Y7572862D01*
X4306643Y7645400D01*
X4316427Y7659373D01*
X4360236Y7753323D01*
X4360998Y7755935D01*
X4359666Y7763116D01*
X4358364Y7764352D01*
X4353084Y7765547D01*
X4159638Y7765547D01*
X4146953Y7761425D01*
X4143958Y7757304D01*
X4143958Y7543238D01*
X3635958Y7543238D01*
X3635958Y8289227D01*
X4143958Y8289227D01*
X4148080Y8276542D01*
X4152201Y8273547D01*
X4348464Y8273547D01*
X4361149Y8277669D01*
X4362183Y8279092D01*
X4360236Y8285771D01*
X4316427Y8379721D01*
X4306643Y8393694D01*
X4264663Y8435674D01*
X4236886Y8490191D01*
X4246457Y8550623D01*
X4264663Y8575681D01*
X4306641Y8617660D01*
X4316427Y8631636D01*
X4360236Y8725586D01*
X4360998Y8728198D01*
X4359666Y8735379D01*
X4358364Y8736615D01*
X4353084Y8737810D01*
X4159638Y8737810D01*
X4146953Y8733688D01*
X4143958Y8729567D01*
X4143958Y8289227D01*
X3635958Y8289227D01*
X3635958Y9261490D01*
X4143958Y9261490D01*
X4148080Y9248805D01*
X4152201Y9245810D01*
X4348464Y9245810D01*
X4361149Y9249932D01*
X4362183Y9251355D01*
X4360236Y9258034D01*
X4316427Y9351984D01*
X4306643Y9365957D01*
X4234105Y9438495D01*
X4220132Y9448279D01*
X4158170Y9477172D01*
X4146862Y9478560D01*
X4143958Y9472333D01*
X4143958Y9261490D01*
X3635958Y9261490D01*
X3635958Y9468119D01*
X3632437Y9478954D01*
X3625568Y9478954D01*
X3559784Y9448279D01*
X3545811Y9438495D01*
X3480316Y9373000D01*
X3425799Y9345223D01*
X3365367Y9354794D01*
X3340308Y9373000D01*
X3268274Y9445034D01*
X3260426Y9448694D01*
X3260424Y9448695D01*
X3166314Y9492579D01*
X3159445Y9495782D01*
X3109859Y9502310D01*
X2929986Y9502310D01*
X2750058Y9502309D01*
X2746848Y9501886D01*
X2746841Y9501886D01*
X2707983Y9496771D01*
X2707982Y9496771D01*
X2700471Y9495782D01*
X2657596Y9475789D01*
X2599492Y9448695D01*
X2599490Y9448694D01*
X2591642Y9445034D01*
X2506734Y9360126D01*
X2503074Y9352278D01*
X2503073Y9352276D01*
X2464896Y9270405D01*
X2455986Y9251297D01*
X2449458Y9201711D01*
X2449458Y9116816D01*
X2430551Y9058625D01*
X2381051Y9022661D01*
X2334973Y9019035D01*
X2234622Y9034929D01*
X2109318Y9015083D01*
X2102374Y9011545D01*
X2096948Y9009782D01*
X2066356Y9004937D01*
X1278789Y9004937D01*
X1274026Y9003990D01*
X1274020Y9003989D01*
X1269224Y9003035D01*
X1208463Y9010228D01*
X1163589Y9051710D01*
X1162404Y9057668D01*
X1118089Y9123989D01*
X1051768Y9168304D01*
X1042205Y9170206D01*
X1042203Y9170207D01*
X1019532Y9174716D01*
X993285Y9179937D01*
X-1446211Y9179937D01*
X-1472458Y9174716D01*
X-1495129Y9170207D01*
X-1495131Y9170206D01*
X-1504694Y9168304D01*
X-1571015Y9123989D01*
X-1615330Y9057668D01*
X-1615344Y9057599D01*
X-1651111Y9015722D01*
X-1710605Y9001438D01*
X-1722150Y9003035D01*
X-1726946Y9003989D01*
X-1726952Y9003990D01*
X-1731715Y9004937D01*
X-2621211Y9004937D01*
X-2647458Y8999716D01*
X-2670129Y8995207D01*
X-2670131Y8995206D01*
X-2679694Y8993304D01*
X-2746015Y8948989D01*
X-2748105Y8952117D01*
X-2786498Y8932555D01*
X-2798267Y8931407D01*
X-2830140Y8930210D01*
X-2835544Y8930007D01*
X-2839257Y8929937D01*
X-2858741Y8929937D01*
X-2863173Y8929112D01*
X-2868363Y8928775D01*
X-2898002Y8927662D01*
X-2908574Y8923120D01*
X-2929527Y8916754D01*
X-2931859Y8916320D01*
X-2931861Y8916319D01*
X-2940846Y8914646D01*
X-2963525Y8900666D01*
X-2976386Y8893986D01*
X-3000856Y8883473D01*
X-3005742Y8879459D01*
X-3010106Y8875095D01*
X-3028161Y8860824D01*
X-3036141Y8855905D01*
X-3053811Y8832668D01*
X-3062603Y8822598D01*
X-3717809Y8167392D01*
X-3772326Y8139615D01*
X-3832758Y8149186D01*
X-3876023Y8192451D01*
X-3885966Y8224474D01*
X-3888957Y8247194D01*
X-3891045Y8263052D01*
X-3895939Y8273547D01*
X-3937387Y8362433D01*
X-3937389Y8362436D01*
X-3941048Y8370283D01*
X-4001837Y8431072D01*
X-4029614Y8485589D01*
X-4020043Y8546021D01*
X-4001899Y8571016D01*
X-3943659Y8629358D01*
X-3892781Y8733443D01*
X-3882889Y8801251D01*
X-3882889Y9212223D01*
X-3888649Y9251355D01*
X-3891837Y9273008D01*
X-3891838Y9273010D01*
X-3892958Y9280621D01*
X-3944017Y9384617D01*
X-3963027Y9403594D01*
X-4020219Y9460687D01*
X-4020222Y9460689D01*
X-4026010Y9466467D01*
X-4130095Y9517345D01*
X-4179618Y9524570D01*
X-4194358Y9526720D01*
X-4194360Y9526720D01*
X-4197903Y9527237D01*
X-4558875Y9527237D01*
X-4562458Y9526709D01*
X-4562465Y9526709D01*
X-4619660Y9518289D01*
X-4619662Y9518288D01*
X-4627273Y9517168D01*
X-4634179Y9513777D01*
X-4634180Y9513777D01*
X-4657538Y9502309D01*
X-4731269Y9466109D01*
X-4737050Y9460318D01*
X-4793675Y9403594D01*
X-4848168Y9375768D01*
X-4908608Y9385287D01*
X-4933744Y9403532D01*
X-4992373Y9462161D01*
X-5006346Y9471945D01*
X-5080177Y9506373D01*
X-5091485Y9507761D01*
X-5094389Y9501534D01*
X-5094389Y8851737D01*
X-5113296Y8793546D01*
X-5162796Y8757582D01*
X-5193389Y8752737D01*
X-5822341Y8752737D01*
X-5835026Y8748615D01*
X-5836082Y8747163D01*
X-5836246Y8745376D01*
X-5833525Y8736043D01*
X-5788597Y8639694D01*
X-5778813Y8625721D01*
X-5726280Y8573188D01*
X-5698503Y8518671D01*
X-5708074Y8458239D01*
X-5726281Y8433180D01*
X-5783053Y8376409D01*
X-5783055Y8376406D01*
X-5789178Y8370283D01*
X-5792837Y8362436D01*
X-5792839Y8362433D01*
X-5834287Y8273547D01*
X-5839181Y8263052D01*
X-5845613Y8214195D01*
X-5845613Y7765563D01*
X-5839181Y7716706D01*
X-5835978Y7709838D01*
X-5835978Y7709837D01*
X-5794482Y7620850D01*
X-5789178Y7609475D01*
X-5705517Y7525814D01*
X-5697670Y7522155D01*
X-5697667Y7522153D01*
X-5640451Y7495473D01*
X-5598286Y7475811D01*
X-5590774Y7474822D01*
X-5581210Y7473563D01*
X-5525985Y7447222D01*
X-5496790Y7393452D01*
X-5504776Y7332790D01*
X-5546893Y7288407D01*
X-5581210Y7277257D01*
X-5598286Y7275009D01*
X-5605154Y7271806D01*
X-5605155Y7271806D01*
X-5697667Y7228667D01*
X-5697669Y7228666D01*
X-5705517Y7225006D01*
X-5789178Y7141345D01*
X-5792837Y7133498D01*
X-5792839Y7133495D01*
X-5823062Y7068681D01*
X-5839181Y7034114D01*
X-5845613Y6985257D01*
X-5845613Y6536625D01*
X-5839181Y6487768D01*
X-5835978Y6480900D01*
X-5835978Y6480899D01*
X-5803603Y6411472D01*
X-5789178Y6380537D01*
X-5761170Y6352529D01*
X-5733393Y6298012D01*
X-5733393Y6267038D01*
X-5741222Y6217608D01*
X-5742441Y6209911D01*
X-5741222Y6202215D01*
X-5741222Y6200449D01*
X-5760129Y6142258D01*
X-5770218Y6130445D01*
X-5787427Y6113236D01*
X-5791086Y6105389D01*
X-5791088Y6105386D01*
X-5825778Y6030992D01*
X-5837430Y6006005D01*
X-5838419Y5998493D01*
X-5840917Y5979518D01*
X-5843862Y5957148D01*
X-5843862Y5508516D01*
X-5837430Y5459659D01*
X-5834227Y5452791D01*
X-5834227Y5452790D01*
X-5819948Y5422170D01*
X-5787427Y5352428D01*
X-5768457Y5333458D01*
X-5740680Y5278941D01*
X-5750251Y5218509D01*
X-5793516Y5175244D01*
X-5853948Y5165673D01*
X-5898385Y5184650D01*
X-5909429Y5193048D01*
X-5919509Y5201848D01*
X-6162339Y5444678D01*
X-6190116Y5499195D01*
X-6191335Y5514682D01*
X-6191336Y5988310D01*
X-6191033Y5992439D01*
X-6189410Y5997165D01*
X-6191266Y6046599D01*
X-6191336Y6050313D01*
X-6191336Y6069771D01*
X-6192161Y6074201D01*
X-6192497Y6079387D01*
X-6193267Y6099898D01*
X-6193267Y6099899D01*
X-6193610Y6109031D01*
X-6198155Y6119610D01*
X-6204520Y6140563D01*
X-6204953Y6142888D01*
X-6204953Y6142889D01*
X-6206627Y6151876D01*
X-6220604Y6174552D01*
X-6227288Y6187419D01*
X-6235041Y6205465D01*
X-6235042Y6205466D01*
X-6237800Y6211886D01*
X-6241814Y6216772D01*
X-6246178Y6221136D01*
X-6260449Y6239191D01*
X-6260572Y6239390D01*
X-6265368Y6247171D01*
X-6288608Y6264843D01*
X-6298680Y6273638D01*
X-6418900Y6393858D01*
X-6547310Y6522267D01*
X-6575088Y6576784D01*
X-6576307Y6592271D01*
X-6576307Y7065438D01*
X-6576004Y7069563D01*
X-6574382Y7074288D01*
X-6576237Y7123708D01*
X-6576307Y7127421D01*
X-6576307Y7146894D01*
X-6577132Y7151324D01*
X-6577469Y7156529D01*
X-6578238Y7177020D01*
X-6578581Y7186155D01*
X-6583126Y7196734D01*
X-6589490Y7217683D01*
X-6589923Y7220010D01*
X-6589925Y7220015D01*
X-6591598Y7228999D01*
X-6605575Y7251675D01*
X-6612259Y7264542D01*
X-6620012Y7282588D01*
X-6620013Y7282589D01*
X-6622771Y7289009D01*
X-6626785Y7293895D01*
X-6631149Y7298259D01*
X-6645420Y7316314D01*
X-6645543Y7316513D01*
X-6650339Y7324294D01*
X-6673576Y7341964D01*
X-6683646Y7350756D01*
X-6998130Y7665240D01*
X-7025907Y7719757D01*
X-7027126Y7735244D01*
X-7027126Y8173124D01*
X-7026823Y8177249D01*
X-7025201Y8181974D01*
X-7027056Y8231394D01*
X-7027126Y8235107D01*
X-7027126Y8254580D01*
X-7027951Y8259010D01*
X-7028288Y8264215D01*
X-7029057Y8284706D01*
X-7029400Y8293841D01*
X-7033945Y8304420D01*
X-7040309Y8325369D01*
X-7040742Y8327696D01*
X-7040744Y8327701D01*
X-7042417Y8336685D01*
X-7056394Y8359361D01*
X-7063078Y8372228D01*
X-7070831Y8390274D01*
X-7070832Y8390275D01*
X-7073590Y8396695D01*
X-7077604Y8401581D01*
X-7081968Y8405945D01*
X-7096239Y8424000D01*
X-7096362Y8424199D01*
X-7101158Y8431980D01*
X-7124395Y8449650D01*
X-7134465Y8458442D01*
X-7382814Y8706791D01*
X-7410591Y8761308D01*
X-7411810Y8776795D01*
X-7411810Y9271849D01*
X-5835152Y9271849D01*
X-5833543Y9263167D01*
X-5832243Y9261933D01*
X-5826958Y9260737D01*
X-5618069Y9260737D01*
X-5605384Y9264859D01*
X-5602389Y9268980D01*
X-5602389Y9497320D01*
X-5605910Y9508155D01*
X-5612779Y9508155D01*
X-5690432Y9471945D01*
X-5704405Y9462161D01*
X-5778813Y9387753D01*
X-5788597Y9373780D01*
X-5833525Y9277431D01*
X-5835152Y9271849D01*
X-7411810Y9271849D01*
X-7411810Y9309466D01*
X-7411507Y9313591D01*
X-7409885Y9318316D01*
X-7411740Y9367736D01*
X-7411810Y9371449D01*
X-7411810Y9390922D01*
X-7412635Y9395352D01*
X-7412972Y9400557D01*
X-7413083Y9403532D01*
X-7414084Y9430183D01*
X-7418629Y9440762D01*
X-7424993Y9461711D01*
X-7425426Y9464038D01*
X-7425428Y9464043D01*
X-7427101Y9473027D01*
X-7441078Y9495703D01*
X-7447762Y9508570D01*
X-7455515Y9526616D01*
X-7455516Y9526617D01*
X-7458274Y9533037D01*
X-7462288Y9537923D01*
X-7466652Y9542287D01*
X-7480923Y9560342D01*
X-7481046Y9560541D01*
X-7485842Y9568322D01*
X-7509079Y9585992D01*
X-7519149Y9594784D01*
X-7624016Y9699651D01*
X-7626716Y9702780D01*
X-7628911Y9707269D01*
X-7665158Y9740893D01*
X-7667834Y9743469D01*
X-7681613Y9757248D01*
X-7685323Y9759793D01*
X-7689236Y9763229D01*
X-7704281Y9777185D01*
X-7710982Y9783401D01*
X-7721672Y9787666D01*
X-7740988Y9797980D01*
X-7742943Y9799321D01*
X-7742946Y9799322D01*
X-7750482Y9804492D01*
X-7776395Y9810641D01*
X-7790220Y9815014D01*
X-7808468Y9822294D01*
X-7808470Y9822294D01*
X-7814958Y9824883D01*
X-7821251Y9825500D01*
X-7827420Y9825500D01*
X-7850283Y9828176D01*
X-7854475Y9829171D01*
X-7906726Y9861006D01*
X-7919487Y9883723D01*
X-7920659Y9883126D01*
X-7978314Y9996281D01*
X-7978315Y9996283D01*
X-7981850Y10003220D01*
X-8077158Y10098528D01*
X-8084095Y10102063D01*
X-8084097Y10102064D01*
X-8190312Y10156183D01*
X-8190313Y10156183D01*
X-8197252Y10159719D01*
X-8204946Y10160938D01*
X-8204947Y10160938D01*
X-8293044Y10174891D01*
X-8293046Y10174891D01*
X-8296890Y10175500D01*
X-8637607Y10175500D01*
X-8695798Y10194407D01*
X-8731762Y10243907D01*
X-8731762Y10305093D01*
X-8724917Y10321168D01*
X-8668886Y10425995D01*
X-8658108Y10442125D01*
X-8571044Y10548215D01*
X-8557326Y10561933D01*
X-8451240Y10648998D01*
X-8435112Y10659775D01*
X-8314082Y10724470D01*
X-8296155Y10731896D01*
X-8164831Y10771736D01*
X-8145805Y10775521D01*
X-8095946Y10780434D01*
X-8031371Y10786795D01*
X-8021497Y10787272D01*
X-8010750Y10787254D01*
X-7999885Y10784756D01*
X-7989011Y10787217D01*
X-7987893Y10787470D01*
X-7966040Y10789912D01*
X7945993Y10789912D01*
X7968178Y10787394D01*
G37*
%TD.AperFunction*%
%TD*%
M02*
