%TF.GenerationSoftware,KiCad,Pcbnew,6.0.11+dfsg-1~bpo11+1*%
%TF.CreationDate,2023-07-13T21:39:36-04:00*%
%TF.ProjectId,Pop-In RP2040,506f702d-496e-4205-9250-323034302e6b,rev?*%
%TF.SameCoordinates,PX5f5e100PY5f5e100*%
%TF.FileFunction,Soldermask,Top*%
%TF.FilePolarity,Negative*%
%FSLAX46Y46*%
G04 Gerber Fmt 4.6, Leading zero omitted, Abs format (unit mm)*
G04 Created by KiCad (PCBNEW 6.0.11+dfsg-1~bpo11+1) date 2023-07-13 21:39:36*
%MOMM*%
%LPD*%
G01*
G04 APERTURE LIST*
G04 Aperture macros list*
%AMRoundRect*
0 Rectangle with rounded corners*
0 $1 Rounding radius*
0 $2 $3 $4 $5 $6 $7 $8 $9 X,Y pos of 4 corners*
0 Add a 4 corners polygon primitive as box body*
4,1,4,$2,$3,$4,$5,$6,$7,$8,$9,$2,$3,0*
0 Add four circle primitives for the rounded corners*
1,1,$1+$1,$2,$3*
1,1,$1+$1,$4,$5*
1,1,$1+$1,$6,$7*
1,1,$1+$1,$8,$9*
0 Add four rect primitives between the rounded corners*
20,1,$1+$1,$2,$3,$4,$5,0*
20,1,$1+$1,$4,$5,$6,$7,0*
20,1,$1+$1,$6,$7,$8,$9,0*
20,1,$1+$1,$8,$9,$2,$3,0*%
G04 Aperture macros list end*
%ADD10RoundRect,0.140000X-0.140000X-0.170000X0.140000X-0.170000X0.140000X0.170000X-0.140000X0.170000X0*%
%ADD11R,0.850000X0.350000*%
%ADD12R,2.400000X3.100000*%
%ADD13RoundRect,0.147500X0.147500X0.172500X-0.147500X0.172500X-0.147500X-0.172500X0.147500X-0.172500X0*%
%ADD14R,0.900000X0.800000*%
%ADD15RoundRect,0.135000X0.135000X0.185000X-0.135000X0.185000X-0.135000X-0.185000X0.135000X-0.185000X0*%
%ADD16RoundRect,0.135000X-0.135000X-0.185000X0.135000X-0.185000X0.135000X0.185000X-0.135000X0.185000X0*%
%ADD17RoundRect,0.140000X-0.170000X0.140000X-0.170000X-0.140000X0.170000X-0.140000X0.170000X0.140000X0*%
%ADD18RoundRect,0.135000X0.185000X-0.135000X0.185000X0.135000X-0.185000X0.135000X-0.185000X-0.135000X0*%
%ADD19RoundRect,0.140000X0.140000X0.170000X-0.140000X0.170000X-0.140000X-0.170000X0.140000X-0.170000X0*%
%ADD20RoundRect,0.147500X-0.147500X-0.172500X0.147500X-0.172500X0.147500X0.172500X-0.147500X0.172500X0*%
%ADD21RoundRect,0.140000X0.170000X-0.140000X0.170000X0.140000X-0.170000X0.140000X-0.170000X-0.140000X0*%
%ADD22RoundRect,0.050000X-0.387500X-0.050000X0.387500X-0.050000X0.387500X0.050000X-0.387500X0.050000X0*%
%ADD23RoundRect,0.050000X-0.050000X-0.387500X0.050000X-0.387500X0.050000X0.387500X-0.050000X0.387500X0*%
%ADD24R,3.200000X3.200000*%
%ADD25RoundRect,0.135000X-0.185000X0.135000X-0.185000X-0.135000X0.185000X-0.135000X0.185000X0.135000X0*%
%ADD26R,0.450000X0.450000*%
%ADD27RoundRect,0.225000X-0.675000X-0.225000X0.675000X-0.225000X0.675000X0.225000X-0.675000X0.225000X0*%
%ADD28RoundRect,0.225000X0.225000X-0.675000X0.225000X0.675000X-0.225000X0.675000X-0.225000X-0.675000X0*%
%ADD29RoundRect,0.225000X0.675000X0.225000X-0.675000X0.225000X-0.675000X-0.225000X0.675000X-0.225000X0*%
G04 APERTURE END LIST*
D10*
%TO.C,C15*%
X2929958Y8991810D03*
X3889958Y8991810D03*
%TD*%
D11*
%TO.C,U2*%
X-2176463Y8629437D03*
X-2176463Y7829437D03*
X-2176463Y7029437D03*
X-2176463Y6229437D03*
X1723537Y6229437D03*
X1723537Y7029437D03*
X1723537Y7829437D03*
X1723537Y8629437D03*
D12*
X-226463Y7429437D03*
%TD*%
D13*
%TO.C,D2*%
X6066963Y9106733D03*
X5096963Y9106733D03*
%TD*%
D14*
%TO.C,Y1*%
X-2515833Y-8902367D03*
X-1115833Y-8902367D03*
X-1115833Y-7802367D03*
X-2515833Y-7802367D03*
%TD*%
D15*
%TO.C,R3*%
X6099540Y8083854D03*
X5079540Y8083854D03*
%TD*%
D10*
%TO.C,C6*%
X5213523Y-2865370D03*
X6173523Y-2865370D03*
%TD*%
D15*
%TO.C,R9*%
X-4353362Y5732832D03*
X-5373362Y5732832D03*
%TD*%
D16*
%TO.C,R4*%
X-5375113Y7989879D03*
X-4355113Y7989879D03*
%TD*%
D17*
%TO.C,C12*%
X1189669Y4802116D03*
X1189669Y3842116D03*
%TD*%
D18*
%TO.C,R1*%
X3127843Y-9179588D03*
X3127843Y-8159588D03*
%TD*%
D19*
%TO.C,C5*%
X-5065731Y-2863165D03*
X-6025731Y-2863165D03*
%TD*%
D20*
%TO.C,D1*%
X-5348389Y9006737D03*
X-4378389Y9006737D03*
%TD*%
D21*
%TO.C,C10*%
X215312Y3842116D03*
X215312Y4802116D03*
%TD*%
D22*
%TO.C,U1*%
X-3352878Y961165D03*
X-3352878Y561165D03*
X-3352878Y161165D03*
X-3352878Y-238835D03*
X-3352878Y-638835D03*
X-3352878Y-1038835D03*
X-3352878Y-1438835D03*
X-3352878Y-1838835D03*
X-3352878Y-2238835D03*
X-3352878Y-2638835D03*
X-3352878Y-3038835D03*
X-3352878Y-3438835D03*
X-3352878Y-3838835D03*
X-3352878Y-4238835D03*
D23*
X-2515378Y-5076335D03*
X-2115378Y-5076335D03*
X-1715378Y-5076335D03*
X-1315378Y-5076335D03*
X-915378Y-5076335D03*
X-515378Y-5076335D03*
X-115378Y-5076335D03*
X284622Y-5076335D03*
X684622Y-5076335D03*
X1084622Y-5076335D03*
X1484622Y-5076335D03*
X1884622Y-5076335D03*
X2284622Y-5076335D03*
X2684622Y-5076335D03*
D22*
X3522122Y-4238835D03*
X3522122Y-3838835D03*
X3522122Y-3438835D03*
X3522122Y-3038835D03*
X3522122Y-2638835D03*
X3522122Y-2238835D03*
X3522122Y-1838835D03*
X3522122Y-1438835D03*
X3522122Y-1038835D03*
X3522122Y-638835D03*
X3522122Y-238835D03*
X3522122Y161165D03*
X3522122Y561165D03*
X3522122Y961165D03*
D23*
X2684622Y1798665D03*
X2284622Y1798665D03*
X1884622Y1798665D03*
X1484622Y1798665D03*
X1084622Y1798665D03*
X684622Y1798665D03*
X284622Y1798665D03*
X-115378Y1798665D03*
X-515378Y1798665D03*
X-915378Y1798665D03*
X-1315378Y1798665D03*
X-1715378Y1798665D03*
X-2115378Y1798665D03*
X-2515378Y1798665D03*
D24*
X84622Y-1638835D03*
%TD*%
D10*
%TO.C,C9*%
X1205555Y-6479004D03*
X2165555Y-6479004D03*
%TD*%
D18*
%TO.C,R2*%
X4439261Y-9179588D03*
X4439261Y-8159588D03*
%TD*%
D21*
%TO.C,C14*%
X2157741Y3842116D03*
X2157741Y4802116D03*
%TD*%
D19*
%TO.C,C8*%
X283269Y-6487179D03*
X-676731Y-6487179D03*
%TD*%
D15*
%TO.C,R8*%
X6106544Y7027220D03*
X5086544Y7027220D03*
%TD*%
D10*
%TO.C,C7*%
X3552300Y2814099D03*
X4512300Y2814099D03*
%TD*%
D19*
%TO.C,C4*%
X-3366114Y2814099D03*
X-4326114Y2814099D03*
%TD*%
D21*
%TO.C,C11*%
X-759046Y3842116D03*
X-759046Y4802116D03*
%TD*%
D17*
%TO.C,C17*%
X125368Y-7872367D03*
X125368Y-8832367D03*
%TD*%
D25*
%TO.C,R11*%
X1905000Y-8159588D03*
X1905000Y-9179588D03*
%TD*%
D21*
%TO.C,C16*%
X-3758060Y-8832367D03*
X-3758060Y-7872367D03*
%TD*%
D16*
%TO.C,R7*%
X-5375113Y6760941D03*
X-4355113Y6760941D03*
%TD*%
D19*
%TO.C,C18*%
X3889958Y8019547D03*
X2929958Y8019547D03*
%TD*%
D26*
%TO.C,LED1*%
X3948660Y4473226D03*
X3948660Y5423226D03*
X4898660Y4473226D03*
X4898660Y5423226D03*
%TD*%
D10*
%TO.C,C13*%
X-5339700Y4703324D03*
X-4379700Y4703324D03*
%TD*%
D27*
%TO.C,REF\u002A\u002A*%
X-9005378Y9525000D03*
X-9005378Y8255000D03*
X-9005378Y6985000D03*
X-9005378Y5715000D03*
X-9005378Y4445000D03*
X-9005378Y3175000D03*
X-9005378Y1905000D03*
X-9005378Y635000D03*
X-9005378Y-635000D03*
X-9005378Y-1905000D03*
X-9005378Y-3175000D03*
X-9005378Y-4445000D03*
X-9005378Y-5715000D03*
X-9005378Y-6985000D03*
X-9005378Y-8255000D03*
X-9005378Y-9525000D03*
D28*
X-6985000Y-11034588D03*
X-5715000Y-11034588D03*
X-4445000Y-11034588D03*
X-3175000Y-11034588D03*
X-1905000Y-11034588D03*
X-635000Y-11034588D03*
X635000Y-11034588D03*
X1905000Y-11034588D03*
X3175000Y-11034588D03*
X4445000Y-11034588D03*
X5715000Y-11034588D03*
X6985000Y-11034588D03*
D29*
X8974622Y-9525000D03*
X8974622Y-8255000D03*
X8974622Y-6985000D03*
X8974622Y-5715000D03*
X8974622Y-4445000D03*
X8974622Y-3175000D03*
X8974622Y-1905000D03*
X8974622Y-635000D03*
X8974622Y635000D03*
X8974622Y1905000D03*
X8974622Y3175000D03*
X8974622Y4445000D03*
X8974622Y5715000D03*
X8974622Y6985000D03*
X8974622Y8255000D03*
X8974622Y9525000D03*
%TD*%
M02*
