%TF.GenerationSoftware,KiCad,Pcbnew,6.0.11+dfsg-1~bpo11+1*%
%TF.CreationDate,2023-07-13T21:39:36-04:00*%
%TF.ProjectId,Pop-In RP2040,506f702d-496e-4205-9250-323034302e6b,rev?*%
%TF.SameCoordinates,PX5f5e100PY5f5e100*%
%TF.FileFunction,Legend,Bot*%
%TF.FilePolarity,Positive*%
%FSLAX46Y46*%
G04 Gerber Fmt 4.6, Leading zero omitted, Abs format (unit mm)*
G04 Created by KiCad (PCBNEW 6.0.11+dfsg-1~bpo11+1) date 2023-07-13 21:39:36*
%MOMM*%
%LPD*%
G01*
G04 APERTURE LIST*
%ADD10C,0.100000*%
%ADD11C,0.150000*%
G04 APERTURE END LIST*
D10*
X5775236Y4689452D02*
X5775236Y4460880D01*
X6175236Y4575166D02*
X5775236Y4575166D01*
X6175236Y4327547D02*
X5775236Y4327547D01*
X6175236Y4156118D02*
X5965712Y4156118D01*
X5927617Y4175166D01*
X5908569Y4213261D01*
X5908569Y4270404D01*
X5927617Y4308499D01*
X5946664Y4327547D01*
X6175236Y3965642D02*
X5908569Y3965642D01*
X5775236Y3965642D02*
X5794284Y3984690D01*
X5813331Y3965642D01*
X5794284Y3946594D01*
X5775236Y3965642D01*
X5813331Y3965642D01*
X6156188Y3794213D02*
X6175236Y3756118D01*
X6175236Y3679928D01*
X6156188Y3641833D01*
X6118093Y3622785D01*
X6099045Y3622785D01*
X6060950Y3641833D01*
X6041903Y3679928D01*
X6041903Y3737071D01*
X6022855Y3775166D01*
X5984760Y3794213D01*
X5965712Y3794213D01*
X5927617Y3775166D01*
X5908569Y3737071D01*
X5908569Y3679928D01*
X5927617Y3641833D01*
X6175236Y3146594D02*
X5908569Y3146594D01*
X5775236Y3146594D02*
X5794284Y3165642D01*
X5813331Y3146594D01*
X5794284Y3127547D01*
X5775236Y3146594D01*
X5813331Y3146594D01*
X6156188Y2975166D02*
X6175236Y2937071D01*
X6175236Y2860880D01*
X6156188Y2822785D01*
X6118093Y2803737D01*
X6099045Y2803737D01*
X6060950Y2822785D01*
X6041903Y2860880D01*
X6041903Y2918023D01*
X6022855Y2956118D01*
X5984760Y2975166D01*
X5965712Y2975166D01*
X5927617Y2956118D01*
X5908569Y2918023D01*
X5908569Y2860880D01*
X5927617Y2822785D01*
X5908569Y2327547D02*
X6175236Y2327547D01*
X5946664Y2327547D02*
X5927617Y2308499D01*
X5908569Y2270404D01*
X5908569Y2213261D01*
X5927617Y2175166D01*
X5965712Y2156118D01*
X6175236Y2156118D01*
X6175236Y1908499D02*
X6156188Y1946594D01*
X6137141Y1965642D01*
X6099045Y1984690D01*
X5984760Y1984690D01*
X5946664Y1965642D01*
X5927617Y1946594D01*
X5908569Y1908499D01*
X5908569Y1851356D01*
X5927617Y1813261D01*
X5946664Y1794213D01*
X5984760Y1775166D01*
X6099045Y1775166D01*
X6137141Y1794213D01*
X6156188Y1813261D01*
X6175236Y1851356D01*
X6175236Y1908499D01*
X5908569Y1660880D02*
X5908569Y1508499D01*
X5775236Y1603737D02*
X6118093Y1603737D01*
X6156188Y1584690D01*
X6175236Y1546594D01*
X6175236Y1508499D01*
X6175236Y898975D02*
X5965712Y898975D01*
X5927617Y918023D01*
X5908569Y956118D01*
X5908569Y1032309D01*
X5927617Y1070404D01*
X6156188Y898975D02*
X6175236Y937071D01*
X6175236Y1032309D01*
X6156188Y1070404D01*
X6118093Y1089452D01*
X6079998Y1089452D01*
X6041903Y1070404D01*
X6022855Y1032309D01*
X6022855Y937071D01*
X6003807Y898975D01*
X6175236Y403737D02*
X5908569Y403737D01*
X5984760Y403737D02*
X5946664Y384690D01*
X5927617Y365642D01*
X5908569Y327547D01*
X5908569Y289452D01*
X6175236Y156118D02*
X5775236Y156118D01*
X5775236Y3737D01*
X5794284Y-34358D01*
X5813331Y-53406D01*
X5851426Y-72453D01*
X5908569Y-72453D01*
X5946664Y-53406D01*
X5965712Y-34358D01*
X5984760Y3737D01*
X5984760Y156118D01*
X6175236Y-243882D02*
X5775236Y-243882D01*
X6175236Y-739120D02*
X5775236Y-739120D01*
X5775236Y-891501D01*
X5794284Y-929596D01*
X5813331Y-948644D01*
X5851426Y-967691D01*
X5908569Y-967691D01*
X5946664Y-948644D01*
X5965712Y-929596D01*
X5984760Y-891501D01*
X5984760Y-739120D01*
X6175236Y-1139120D02*
X5908569Y-1139120D01*
X5775236Y-1139120D02*
X5794284Y-1120072D01*
X5813331Y-1139120D01*
X5794284Y-1158167D01*
X5775236Y-1139120D01*
X5813331Y-1139120D01*
X6156188Y-1501025D02*
X6175236Y-1462929D01*
X6175236Y-1386739D01*
X6156188Y-1348644D01*
X6137141Y-1329596D01*
X6099045Y-1310548D01*
X5984760Y-1310548D01*
X5946664Y-1329596D01*
X5927617Y-1348644D01*
X5908569Y-1386739D01*
X5908569Y-1462929D01*
X5927617Y-1501025D01*
X6175236Y-1729596D02*
X6156188Y-1691501D01*
X6137141Y-1672453D01*
X6099045Y-1653406D01*
X5984760Y-1653406D01*
X5946664Y-1672453D01*
X5927617Y-1691501D01*
X5908569Y-1729596D01*
X5908569Y-1786739D01*
X5927617Y-1824834D01*
X5946664Y-1843882D01*
X5984760Y-1862929D01*
X6099045Y-1862929D01*
X6137141Y-1843882D01*
X6156188Y-1824834D01*
X6175236Y-1786739D01*
X6175236Y-1729596D01*
X6609712Y1660880D02*
X6628760Y1603737D01*
X6647807Y1584690D01*
X6685903Y1565642D01*
X6743045Y1565642D01*
X6781141Y1584690D01*
X6800188Y1603737D01*
X6819236Y1641833D01*
X6819236Y1794213D01*
X6419236Y1794213D01*
X6419236Y1660880D01*
X6438284Y1622785D01*
X6457331Y1603737D01*
X6495426Y1584690D01*
X6533522Y1584690D01*
X6571617Y1603737D01*
X6590664Y1622785D01*
X6609712Y1660880D01*
X6609712Y1794213D01*
X6552569Y1222785D02*
X6819236Y1222785D01*
X6552569Y1394213D02*
X6762093Y1394213D01*
X6800188Y1375166D01*
X6819236Y1337071D01*
X6819236Y1279928D01*
X6800188Y1241833D01*
X6781141Y1222785D01*
X6552569Y1089452D02*
X6552569Y937071D01*
X6419236Y1032309D02*
X6762093Y1032309D01*
X6800188Y1013261D01*
X6819236Y975166D01*
X6819236Y937071D01*
X7463236Y3870404D02*
X7196569Y3870404D01*
X7063236Y3870404D02*
X7082284Y3889452D01*
X7101331Y3870404D01*
X7082284Y3851356D01*
X7063236Y3870404D01*
X7101331Y3870404D01*
X7196569Y3737071D02*
X7196569Y3584690D01*
X7063236Y3679928D02*
X7406093Y3679928D01*
X7444188Y3660880D01*
X7463236Y3622785D01*
X7463236Y3584690D01*
X7196569Y3184690D02*
X7463236Y3108499D01*
X7272760Y3032309D01*
X7463236Y2956118D01*
X7196569Y2879928D01*
X7463236Y2670404D02*
X7444188Y2708499D01*
X7425141Y2727547D01*
X7387045Y2746594D01*
X7272760Y2746594D01*
X7234664Y2727547D01*
X7215617Y2708499D01*
X7196569Y2670404D01*
X7196569Y2613261D01*
X7215617Y2575166D01*
X7234664Y2556118D01*
X7272760Y2537071D01*
X7387045Y2537071D01*
X7425141Y2556118D01*
X7444188Y2575166D01*
X7463236Y2613261D01*
X7463236Y2670404D01*
X7463236Y2365642D02*
X7196569Y2365642D01*
X7272760Y2365642D02*
X7234664Y2346594D01*
X7215617Y2327547D01*
X7196569Y2289452D01*
X7196569Y2251356D01*
X7463236Y2118023D02*
X7063236Y2118023D01*
X7310855Y2079928D02*
X7463236Y1965642D01*
X7196569Y1965642D02*
X7348950Y2118023D01*
X7444188Y1813261D02*
X7463236Y1775166D01*
X7463236Y1698975D01*
X7444188Y1660880D01*
X7406093Y1641833D01*
X7387045Y1641833D01*
X7348950Y1660880D01*
X7329903Y1698975D01*
X7329903Y1756118D01*
X7310855Y1794213D01*
X7272760Y1813261D01*
X7253712Y1813261D01*
X7215617Y1794213D01*
X7196569Y1756118D01*
X7196569Y1698975D01*
X7215617Y1660880D01*
X7463236Y1108499D02*
X7444188Y1146594D01*
X7406093Y1165642D01*
X7063236Y1165642D01*
X7463236Y956118D02*
X7196569Y956118D01*
X7063236Y956118D02*
X7082284Y975166D01*
X7101331Y956118D01*
X7082284Y937071D01*
X7063236Y956118D01*
X7101331Y956118D01*
X7463236Y765642D02*
X7063236Y765642D01*
X7310855Y727547D02*
X7463236Y613261D01*
X7196569Y613261D02*
X7348950Y765642D01*
X7444188Y289452D02*
X7463236Y327547D01*
X7463236Y403737D01*
X7444188Y441833D01*
X7406093Y460880D01*
X7253712Y460880D01*
X7215617Y441833D01*
X7196569Y403737D01*
X7196569Y327547D01*
X7215617Y289452D01*
X7253712Y270404D01*
X7291807Y270404D01*
X7329903Y460880D01*
X7463236Y-262929D02*
X7444188Y-224834D01*
X7425141Y-205787D01*
X7387045Y-186739D01*
X7272760Y-186739D01*
X7234664Y-205787D01*
X7215617Y-224834D01*
X7196569Y-262929D01*
X7196569Y-320072D01*
X7215617Y-358167D01*
X7234664Y-377215D01*
X7272760Y-396263D01*
X7387045Y-396263D01*
X7425141Y-377215D01*
X7444188Y-358167D01*
X7463236Y-320072D01*
X7463236Y-262929D01*
X7196569Y-567691D02*
X7463236Y-567691D01*
X7234664Y-567691D02*
X7215617Y-586739D01*
X7196569Y-624834D01*
X7196569Y-681977D01*
X7215617Y-720072D01*
X7253712Y-739120D01*
X7463236Y-739120D01*
X7444188Y-1081977D02*
X7463236Y-1043882D01*
X7463236Y-967691D01*
X7444188Y-929596D01*
X7406093Y-910548D01*
X7253712Y-910548D01*
X7215617Y-929596D01*
X7196569Y-967691D01*
X7196569Y-1043882D01*
X7215617Y-1081977D01*
X7253712Y-1101025D01*
X7291807Y-1101025D01*
X7329903Y-910548D01*
D11*
X5846526Y-5431968D02*
X5846526Y-4431968D01*
X5465574Y-4431968D01*
X5370336Y-4479588D01*
X5322717Y-4527207D01*
X5275098Y-4622445D01*
X5275098Y-4765302D01*
X5322717Y-4860540D01*
X5370336Y-4908159D01*
X5465574Y-4955778D01*
X5846526Y-4955778D01*
X4703669Y-5431968D02*
X4798907Y-5384349D01*
X4846526Y-5336730D01*
X4894145Y-5241492D01*
X4894145Y-4955778D01*
X4846526Y-4860540D01*
X4798907Y-4812921D01*
X4703669Y-4765302D01*
X4560812Y-4765302D01*
X4465574Y-4812921D01*
X4417955Y-4860540D01*
X4370336Y-4955778D01*
X4370336Y-5241492D01*
X4417955Y-5336730D01*
X4465574Y-5384349D01*
X4560812Y-5431968D01*
X4703669Y-5431968D01*
X3941764Y-4765302D02*
X3941764Y-5765302D01*
X3941764Y-4812921D02*
X3846526Y-4765302D01*
X3656050Y-4765302D01*
X3560812Y-4812921D01*
X3513193Y-4860540D01*
X3465574Y-4955778D01*
X3465574Y-5241492D01*
X3513193Y-5336730D01*
X3560812Y-5384349D01*
X3656050Y-5431968D01*
X3846526Y-5431968D01*
X3941764Y-5384349D01*
X3037002Y-5051016D02*
X2275098Y-5051016D01*
X1798907Y-5431968D02*
X1798907Y-4431968D01*
X1322717Y-4765302D02*
X1322717Y-5431968D01*
X1322717Y-4860540D02*
X1275098Y-4812921D01*
X1179860Y-4765302D01*
X1037002Y-4765302D01*
X941764Y-4812921D01*
X894145Y-4908159D01*
X894145Y-5431968D01*
X-915378Y-5431968D02*
X-582045Y-4955778D01*
X-343950Y-5431968D02*
X-343950Y-4431968D01*
X-724902Y-4431968D01*
X-820140Y-4479588D01*
X-867759Y-4527207D01*
X-915378Y-4622445D01*
X-915378Y-4765302D01*
X-867759Y-4860540D01*
X-820140Y-4908159D01*
X-724902Y-4955778D01*
X-343950Y-4955778D01*
X-1343950Y-5431968D02*
X-1343950Y-4431968D01*
X-1724902Y-4431968D01*
X-1820140Y-4479588D01*
X-1867759Y-4527207D01*
X-1915378Y-4622445D01*
X-1915378Y-4765302D01*
X-1867759Y-4860540D01*
X-1820140Y-4908159D01*
X-1724902Y-4955778D01*
X-1343950Y-4955778D01*
X-2296331Y-4527207D02*
X-2343950Y-4479588D01*
X-2439188Y-4431968D01*
X-2677283Y-4431968D01*
X-2772521Y-4479588D01*
X-2820140Y-4527207D01*
X-2867759Y-4622445D01*
X-2867759Y-4717683D01*
X-2820140Y-4860540D01*
X-2248712Y-5431968D01*
X-2867759Y-5431968D01*
X-3486807Y-4431968D02*
X-3582045Y-4431968D01*
X-3677283Y-4479588D01*
X-3724902Y-4527207D01*
X-3772521Y-4622445D01*
X-3820140Y-4812921D01*
X-3820140Y-5051016D01*
X-3772521Y-5241492D01*
X-3724902Y-5336730D01*
X-3677283Y-5384349D01*
X-3582045Y-5431968D01*
X-3486807Y-5431968D01*
X-3391569Y-5384349D01*
X-3343950Y-5336730D01*
X-3296331Y-5241492D01*
X-3248712Y-5051016D01*
X-3248712Y-4812921D01*
X-3296331Y-4622445D01*
X-3343950Y-4527207D01*
X-3391569Y-4479588D01*
X-3486807Y-4431968D01*
X-4677283Y-4765302D02*
X-4677283Y-5431968D01*
X-4439188Y-4384349D02*
X-4201093Y-5098635D01*
X-4820140Y-5098635D01*
X-5391569Y-4431968D02*
X-5486807Y-4431968D01*
X-5582045Y-4479588D01*
X-5629664Y-4527207D01*
X-5677283Y-4622445D01*
X-5724902Y-4812921D01*
X-5724902Y-5051016D01*
X-5677283Y-5241492D01*
X-5629664Y-5336730D01*
X-5582045Y-5384349D01*
X-5486807Y-5431968D01*
X-5391569Y-5431968D01*
X-5296331Y-5384349D01*
X-5248712Y-5336730D01*
X-5201093Y-5241492D01*
X-5153474Y-5051016D01*
X-5153474Y-4812921D01*
X-5201093Y-4622445D01*
X-5248712Y-4527207D01*
X-5296331Y-4479588D01*
X-5391569Y-4431968D01*
X2227479Y-6375302D02*
X1989383Y-7041968D01*
X1751288Y-6375302D01*
X1179860Y-6041968D02*
X1084622Y-6041968D01*
X989383Y-6089588D01*
X941764Y-6137207D01*
X894145Y-6232445D01*
X846526Y-6422921D01*
X846526Y-6661016D01*
X894145Y-6851492D01*
X941764Y-6946730D01*
X989383Y-6994349D01*
X1084622Y-7041968D01*
X1179860Y-7041968D01*
X1275098Y-6994349D01*
X1322717Y-6946730D01*
X1370336Y-6851492D01*
X1417955Y-6661016D01*
X1417955Y-6422921D01*
X1370336Y-6232445D01*
X1322717Y-6137207D01*
X1275098Y-6089588D01*
X1179860Y-6041968D01*
X417955Y-6946730D02*
X370336Y-6994349D01*
X417955Y-7041968D01*
X465574Y-6994349D01*
X417955Y-6946730D01*
X417955Y-7041968D01*
X-582045Y-7041968D02*
X-10617Y-7041968D01*
X-296331Y-7041968D02*
X-296331Y-6041968D01*
X-201093Y-6184826D01*
X-105855Y-6280064D01*
X-10617Y-6327683D01*
X-1010617Y-6946730D02*
X-1058236Y-6994349D01*
X-1010617Y-7041968D01*
X-962998Y-6994349D01*
X-1010617Y-6946730D01*
X-1010617Y-7041968D01*
X-1677283Y-6041968D02*
X-1772521Y-6041968D01*
X-1867759Y-6089588D01*
X-1915378Y-6137207D01*
X-1962998Y-6232445D01*
X-2010617Y-6422921D01*
X-2010617Y-6661016D01*
X-1962998Y-6851492D01*
X-1915378Y-6946730D01*
X-1867759Y-6994349D01*
X-1772521Y-7041968D01*
X-1677283Y-7041968D01*
X-1582045Y-6994349D01*
X-1534426Y-6946730D01*
X-1486807Y-6851492D01*
X-1439188Y-6661016D01*
X-1439188Y-6422921D01*
X-1486807Y-6232445D01*
X-1534426Y-6137207D01*
X-1582045Y-6089588D01*
X-1677283Y-6041968D01*
X6394145Y-8604349D02*
X6251288Y-8651968D01*
X6013193Y-8651968D01*
X5917955Y-8604349D01*
X5870336Y-8556730D01*
X5822717Y-8461492D01*
X5822717Y-8366254D01*
X5870336Y-8271016D01*
X5917955Y-8223397D01*
X6013193Y-8175778D01*
X6203669Y-8128159D01*
X6298907Y-8080540D01*
X6346526Y-8032921D01*
X6394145Y-7937683D01*
X6394145Y-7842445D01*
X6346526Y-7747207D01*
X6298907Y-7699588D01*
X6203669Y-7651968D01*
X5965574Y-7651968D01*
X5822717Y-7699588D01*
X5394145Y-8556730D02*
X5346526Y-8604349D01*
X5394145Y-8651968D01*
X5441764Y-8604349D01*
X5394145Y-8556730D01*
X5394145Y-8651968D01*
X4203669Y-8366254D02*
X3727479Y-8366254D01*
X4298907Y-8651968D02*
X3965574Y-7651968D01*
X3632241Y-8651968D01*
X3298907Y-8556730D02*
X3251288Y-8604349D01*
X3298907Y-8651968D01*
X3346526Y-8604349D01*
X3298907Y-8556730D01*
X3298907Y-8651968D01*
X2060812Y-8651968D02*
X2060812Y-7651968D01*
X1727479Y-8366254D01*
X1394145Y-7651968D01*
X1394145Y-8651968D01*
X917955Y-8651968D02*
X917955Y-7985302D01*
X917955Y-7651968D02*
X965574Y-7699588D01*
X917955Y-7747207D01*
X870336Y-7699588D01*
X917955Y-7651968D01*
X917955Y-7747207D01*
X298907Y-8651968D02*
X394145Y-8604349D01*
X441764Y-8509111D01*
X441764Y-7651968D01*
X-224902Y-8651968D02*
X-129664Y-8604349D01*
X-82045Y-8509111D01*
X-82045Y-7651968D01*
X-986807Y-8604349D02*
X-891569Y-8651968D01*
X-701093Y-8651968D01*
X-605855Y-8604349D01*
X-558236Y-8509111D01*
X-558236Y-8128159D01*
X-605855Y-8032921D01*
X-701093Y-7985302D01*
X-891569Y-7985302D01*
X-986807Y-8032921D01*
X-1034426Y-8128159D01*
X-1034426Y-8223397D01*
X-558236Y-8318635D01*
X-1462998Y-8651968D02*
X-1462998Y-7985302D01*
X-1462998Y-8175778D02*
X-1510617Y-8080540D01*
X-1558236Y-8032921D01*
X-1653474Y-7985302D01*
X-1748712Y-7985302D01*
X-2796331Y-7747207D02*
X-2843950Y-7699588D01*
X-2939188Y-7651968D01*
X-3177283Y-7651968D01*
X-3272521Y-7699588D01*
X-3320140Y-7747207D01*
X-3367759Y-7842445D01*
X-3367759Y-7937683D01*
X-3320140Y-8080540D01*
X-2748712Y-8651968D01*
X-3367759Y-8651968D01*
X-3986807Y-7651968D02*
X-4082045Y-7651968D01*
X-4177283Y-7699588D01*
X-4224902Y-7747207D01*
X-4272521Y-7842445D01*
X-4320140Y-8032921D01*
X-4320140Y-8271016D01*
X-4272521Y-8461492D01*
X-4224902Y-8556730D01*
X-4177283Y-8604349D01*
X-4082045Y-8651968D01*
X-3986807Y-8651968D01*
X-3891569Y-8604349D01*
X-3843950Y-8556730D01*
X-3796331Y-8461492D01*
X-3748712Y-8271016D01*
X-3748712Y-8032921D01*
X-3796331Y-7842445D01*
X-3843950Y-7747207D01*
X-3891569Y-7699588D01*
X-3986807Y-7651968D01*
X-4701093Y-7747207D02*
X-4748712Y-7699588D01*
X-4843950Y-7651968D01*
X-5082045Y-7651968D01*
X-5177283Y-7699588D01*
X-5224902Y-7747207D01*
X-5272521Y-7842445D01*
X-5272521Y-7937683D01*
X-5224902Y-8080540D01*
X-4653474Y-8651968D01*
X-5272521Y-8651968D01*
X-5605855Y-7651968D02*
X-6224902Y-7651968D01*
X-5891569Y-8032921D01*
X-6034426Y-8032921D01*
X-6129664Y-8080540D01*
X-6177283Y-8128159D01*
X-6224902Y-8223397D01*
X-6224902Y-8461492D01*
X-6177283Y-8556730D01*
X-6129664Y-8604349D01*
X-6034426Y-8651968D01*
X-5748712Y-8651968D01*
X-5653474Y-8604349D01*
X-5605855Y-8556730D01*
D10*
%TO.C,REF\u002A\u002A*%
X1611513Y4891084D02*
X1611513Y5391084D01*
X1492465Y5391084D01*
X1421036Y5367274D01*
X1373417Y5319655D01*
X1349608Y5272036D01*
X1325798Y5176798D01*
X1325798Y5105370D01*
X1349608Y5010132D01*
X1373417Y4962513D01*
X1421036Y4914894D01*
X1492465Y4891084D01*
X1611513Y4891084D01*
X897227Y4891084D02*
X897227Y5152989D01*
X921036Y5200608D01*
X968655Y5224417D01*
X1063893Y5224417D01*
X1111513Y5200608D01*
X897227Y4914894D02*
X944846Y4891084D01*
X1063893Y4891084D01*
X1111513Y4914894D01*
X1135322Y4962513D01*
X1135322Y5010132D01*
X1111513Y5057751D01*
X1063893Y5081560D01*
X944846Y5081560D01*
X897227Y5105370D01*
X444846Y5224417D02*
X444846Y4819655D01*
X468655Y4772036D01*
X492465Y4748227D01*
X540084Y4724417D01*
X611513Y4724417D01*
X659132Y4748227D01*
X444846Y4914894D02*
X492465Y4891084D01*
X587703Y4891084D01*
X635322Y4914894D01*
X659132Y4938703D01*
X682941Y4986322D01*
X682941Y5129179D01*
X659132Y5176798D01*
X635322Y5200608D01*
X587703Y5224417D01*
X492465Y5224417D01*
X444846Y5200608D01*
X206751Y5224417D02*
X206751Y4891084D01*
X206751Y5176798D02*
X182941Y5200608D01*
X135322Y5224417D01*
X63893Y5224417D01*
X16274Y5200608D01*
X-7535Y5152989D01*
X-7535Y4891084D01*
X-459916Y4891084D02*
X-459916Y5152989D01*
X-436107Y5200608D01*
X-388487Y5224417D01*
X-293249Y5224417D01*
X-245630Y5200608D01*
X-459916Y4914894D02*
X-412297Y4891084D01*
X-293249Y4891084D01*
X-245630Y4914894D01*
X-221821Y4962513D01*
X-221821Y5010132D01*
X-245630Y5057751D01*
X-293249Y5081560D01*
X-412297Y5081560D01*
X-459916Y5105370D01*
X-698011Y4891084D02*
X-698011Y5391084D01*
X-698011Y5200608D02*
X-745630Y5224417D01*
X-840868Y5224417D01*
X-888487Y5200608D01*
X-912297Y5176798D01*
X-936107Y5129179D01*
X-936107Y4986322D01*
X-912297Y4938703D01*
X-888487Y4914894D01*
X-840868Y4891084D01*
X-745630Y4891084D01*
X-698011Y4914894D01*
X-1150392Y4891084D02*
X-1150392Y5391084D01*
X-1150392Y5200608D02*
X-1198011Y5224417D01*
X-1293249Y5224417D01*
X-1340868Y5200608D01*
X-1364678Y5176798D01*
X-1388487Y5129179D01*
X-1388487Y4986322D01*
X-1364678Y4938703D01*
X-1340868Y4914894D01*
X-1293249Y4891084D01*
X-1198011Y4891084D01*
X-1150392Y4914894D01*
X-1602773Y4891084D02*
X-1602773Y5224417D01*
X-1602773Y5391084D02*
X-1578964Y5367274D01*
X-1602773Y5343465D01*
X-1626583Y5367274D01*
X-1602773Y5391084D01*
X-1602773Y5343465D01*
X-1769440Y5224417D02*
X-1959916Y5224417D01*
X-1840868Y5391084D02*
X-1840868Y4962513D01*
X-1864678Y4914894D01*
X-1912297Y4891084D01*
X-1959916Y4891084D01*
X1004370Y4086084D02*
X1171036Y4324179D01*
X1290084Y4086084D02*
X1290084Y4586084D01*
X1099608Y4586084D01*
X1051989Y4562274D01*
X1028179Y4538465D01*
X1004370Y4490846D01*
X1004370Y4419417D01*
X1028179Y4371798D01*
X1051989Y4347989D01*
X1099608Y4324179D01*
X1290084Y4324179D01*
X575798Y4086084D02*
X575798Y4347989D01*
X599608Y4395608D01*
X647227Y4419417D01*
X742465Y4419417D01*
X790084Y4395608D01*
X575798Y4109894D02*
X623417Y4086084D01*
X742465Y4086084D01*
X790084Y4109894D01*
X813893Y4157513D01*
X813893Y4205132D01*
X790084Y4252751D01*
X742465Y4276560D01*
X623417Y4276560D01*
X575798Y4300370D01*
X337703Y4086084D02*
X337703Y4586084D01*
X337703Y4395608D02*
X290084Y4419417D01*
X194846Y4419417D01*
X147227Y4395608D01*
X123417Y4371798D01*
X99608Y4324179D01*
X99608Y4181322D01*
X123417Y4133703D01*
X147227Y4109894D01*
X194846Y4086084D01*
X290084Y4086084D01*
X337703Y4109894D01*
X-114678Y4086084D02*
X-114678Y4586084D01*
X-114678Y4395608D02*
X-162297Y4419417D01*
X-257535Y4419417D01*
X-305154Y4395608D01*
X-328964Y4371798D01*
X-352773Y4324179D01*
X-352773Y4181322D01*
X-328964Y4133703D01*
X-305154Y4109894D01*
X-257535Y4086084D01*
X-162297Y4086084D01*
X-114678Y4109894D01*
X-567059Y4086084D02*
X-567059Y4419417D01*
X-567059Y4586084D02*
X-543249Y4562274D01*
X-567059Y4538465D01*
X-590868Y4562274D01*
X-567059Y4586084D01*
X-567059Y4538465D01*
X-733726Y4419417D02*
X-924202Y4419417D01*
X-805154Y4586084D02*
X-805154Y4157513D01*
X-828964Y4109894D01*
X-876583Y4086084D01*
X-924202Y4086084D01*
X-1090868Y4133703D02*
X-1114678Y4109894D01*
X-1090868Y4086084D01*
X-1067059Y4109894D01*
X-1090868Y4133703D01*
X-1090868Y4086084D01*
X-1090868Y4276560D02*
X-1067059Y4562274D01*
X-1090868Y4586084D01*
X-1114678Y4562274D01*
X-1090868Y4276560D01*
X-1090868Y4586084D01*
X-1328964Y4133703D02*
X-1352773Y4109894D01*
X-1328964Y4086084D01*
X-1305154Y4109894D01*
X-1328964Y4133703D01*
X-1328964Y4086084D01*
X-1328964Y4276560D02*
X-1305154Y4562274D01*
X-1328964Y4586084D01*
X-1352773Y4562274D01*
X-1328964Y4276560D01*
X-1328964Y4586084D01*
X-1567059Y4133703D02*
X-1590868Y4109894D01*
X-1567059Y4086084D01*
X-1543249Y4109894D01*
X-1567059Y4133703D01*
X-1567059Y4086084D01*
X-1567059Y4276560D02*
X-1543249Y4562274D01*
X-1567059Y4586084D01*
X-1590868Y4562274D01*
X-1567059Y4276560D01*
X-1567059Y4586084D01*
G36*
X-1827224Y7182166D02*
G01*
X-1848046Y7149132D01*
X-1872066Y7121215D01*
X-1899279Y7096490D01*
X-1904484Y7091761D01*
X-1912289Y7085239D01*
X-1942900Y7060928D01*
X-1971756Y7039707D01*
X-1993501Y7025560D01*
X-2025987Y7007179D01*
X-1932237Y7006810D01*
X-1891042Y7006332D01*
X-1862265Y7004912D01*
X-1843404Y7002030D01*
X-1831057Y6997159D01*
X-1821821Y6989774D01*
X-1808784Y6971533D01*
X-1806268Y6948443D01*
X-1817841Y6921652D01*
X-1827986Y6909060D01*
X-1843914Y6889289D01*
X-1844570Y6888587D01*
X-1863314Y6867562D01*
X-1875789Y6851741D01*
X-1879325Y6844501D01*
X-1875271Y6843215D01*
X-1857227Y6839397D01*
X-1827397Y6833825D01*
X-1788623Y6827022D01*
X-1743747Y6819513D01*
X-1714991Y6814715D01*
X-1672747Y6807301D01*
X-1637983Y6800750D01*
X-1613694Y6795636D01*
X-1602876Y6792533D01*
X-1601839Y6791973D01*
X-1586642Y6787585D01*
X-1564277Y6784153D01*
X-1558636Y6783483D01*
X-1531059Y6778764D01*
X-1496013Y6771303D01*
X-1457465Y6762117D01*
X-1419380Y6752224D01*
X-1385722Y6742644D01*
X-1360456Y6734394D01*
X-1347549Y6728493D01*
X-1341384Y6724484D01*
X-1339655Y6727274D01*
X-1347390Y6744168D01*
X-1361992Y6778891D01*
X-1373439Y6812136D01*
X-1383654Y6849881D01*
X-1394558Y6898108D01*
X-1395371Y6901964D01*
X-1405908Y6966195D01*
X-1413850Y7042065D01*
X-1419068Y7125035D01*
X-1421429Y7210571D01*
X-1421429Y7210608D01*
X-1342363Y7210608D01*
X-1342159Y7166221D01*
X-1340866Y7094613D01*
X-1337978Y7034314D01*
X-1333013Y6981854D01*
X-1325490Y6933764D01*
X-1314927Y6886573D01*
X-1300844Y6836811D01*
X-1282757Y6781010D01*
X-1281178Y6776332D01*
X-1270134Y6744692D01*
X-1261379Y6724848D01*
X-1252210Y6713223D01*
X-1239925Y6706238D01*
X-1221821Y6700314D01*
X-1217138Y6698888D01*
X-1191742Y6690914D01*
X-1155776Y6679399D01*
X-1113343Y6665663D01*
X-1068542Y6651024D01*
X-1059178Y6647929D01*
X-1012223Y6631880D01*
X-966887Y6615612D01*
X-927929Y6600864D01*
X-900110Y6589381D01*
X-847456Y6565757D01*
X-813847Y6607968D01*
X-798706Y6629060D01*
X-781571Y6658469D01*
X-771401Y6682998D01*
X-769765Y6688996D01*
X-763019Y6712314D01*
X-757967Y6727796D01*
X-758234Y6734723D01*
X-768750Y6738682D01*
X-792862Y6739774D01*
X-795138Y6739780D01*
X-821134Y6741907D01*
X-839866Y6750369D01*
X-859749Y6768824D01*
X-885348Y6800798D01*
X-910539Y6847658D01*
X-929688Y6905250D01*
X-943910Y6976320D01*
X-946157Y6991763D01*
X-951768Y7062052D01*
X-829987Y7062052D01*
X-828936Y7033651D01*
X-824819Y6991505D01*
X-818325Y6949366D01*
X-810245Y6911393D01*
X-801369Y6881748D01*
X-792487Y6864590D01*
X-773622Y6851100D01*
X-749512Y6849788D01*
X-724535Y6862958D01*
X-700323Y6889687D01*
X-678509Y6929052D01*
X-678303Y6929519D01*
X-669677Y6952020D01*
X-665277Y6973700D01*
X-664473Y7000333D01*
X-666634Y7037695D01*
X-669343Y7065840D01*
X-678101Y7114465D01*
X-691362Y7147917D01*
X-709691Y7166937D01*
X-733654Y7172264D01*
X-763818Y7164638D01*
X-768664Y7162519D01*
X-802528Y7138707D01*
X-823132Y7104965D01*
X-829987Y7062052D01*
X-951768Y7062052D01*
X-952846Y7075549D01*
X-948190Y7148127D01*
X-931925Y7210597D01*
X-903786Y7264054D01*
X-863509Y7309597D01*
X-823774Y7335949D01*
X-780625Y7347087D01*
X-736886Y7342407D01*
X-694901Y7321741D01*
X-669384Y7303571D01*
X-675306Y7365423D01*
X-679257Y7400776D01*
X-695359Y7497189D01*
X-718424Y7591878D01*
X-747142Y7679956D01*
X-780200Y7756533D01*
X-811402Y7812408D01*
X-854372Y7871641D01*
X-899622Y7915431D01*
X-946712Y7943531D01*
X-995203Y7955699D01*
X-1044654Y7951689D01*
X-1094627Y7931257D01*
X-1099481Y7928387D01*
X-1147393Y7890205D01*
X-1191885Y7836470D01*
X-1232557Y7767956D01*
X-1269010Y7685432D01*
X-1300844Y7589670D01*
X-1327660Y7481441D01*
X-1329235Y7473759D01*
X-1333969Y7446083D01*
X-1337483Y7415638D01*
X-1339928Y7379647D01*
X-1341456Y7335330D01*
X-1342217Y7279910D01*
X-1342363Y7210608D01*
X-1421429Y7210608D01*
X-1420805Y7294135D01*
X-1417064Y7371192D01*
X-1410075Y7437204D01*
X-1409077Y7443924D01*
X-1385587Y7568220D01*
X-1354448Y7678546D01*
X-1315261Y7775895D01*
X-1267632Y7861261D01*
X-1211162Y7935637D01*
X-1202344Y7945252D01*
X-1150428Y7988897D01*
X-1093649Y8017536D01*
X-1034026Y8031169D01*
X-973579Y8029795D01*
X-914326Y8013415D01*
X-858286Y7982029D01*
X-807479Y7935637D01*
X-789508Y7914312D01*
X-730931Y7828682D01*
X-682843Y7730339D01*
X-645316Y7619531D01*
X-618422Y7496504D01*
X-602233Y7361503D01*
X-600096Y7303571D01*
X-596821Y7214774D01*
X-596936Y7192697D01*
X-603895Y7048387D01*
X-610273Y7000333D01*
X-621542Y6915434D01*
X-649778Y6794276D01*
X-688505Y6685351D01*
X-737624Y6589096D01*
X-769966Y6535608D01*
X-755012Y6527739D01*
X-712786Y6505519D01*
X-712260Y6505242D01*
X-679456Y6486845D01*
X-648227Y6467501D01*
X-625267Y6451352D01*
X-616925Y6444808D01*
X-596163Y6429115D01*
X-581631Y6418941D01*
X-557610Y6403593D01*
X-495398Y6360125D01*
X-458007Y6329465D01*
X-441978Y6316321D01*
X-433470Y6308691D01*
X-412985Y6289031D01*
X-402007Y6274383D01*
X-401174Y6271501D01*
X-397978Y6260443D01*
X-398342Y6242909D01*
X-402174Y6224759D01*
X-413265Y6209121D01*
X-428174Y6206665D01*
X-443758Y6219043D01*
X-447856Y6223653D01*
X-454872Y6226815D01*
X-466483Y6226480D01*
X-485481Y6222172D01*
X-514659Y6213414D01*
X-556809Y6199728D01*
X-595628Y6187156D01*
X-647546Y6170801D01*
X-697464Y6155510D01*
X-738487Y6143421D01*
X-762560Y6136394D01*
X-820785Y6117885D01*
X-879739Y6096729D01*
X-942887Y6071573D01*
X-1013693Y6041063D01*
X-1095621Y6003845D01*
X-1119445Y5992651D01*
X-1168109Y5968971D01*
X-1220390Y5942661D01*
X-1274228Y5914841D01*
X-1327566Y5886631D01*
X-1378346Y5859152D01*
X-1424508Y5833523D01*
X-1463995Y5810864D01*
X-1494748Y5792297D01*
X-1514709Y5778940D01*
X-1521821Y5771913D01*
X-1521418Y5768045D01*
X-1513838Y5747777D01*
X-1499294Y5722369D01*
X-1481261Y5697368D01*
X-1463213Y5678323D01*
X-1448350Y5666692D01*
X-1432220Y5657557D01*
X-1425630Y5659440D01*
X-1429861Y5672560D01*
X-1432264Y5677561D01*
X-1437016Y5705502D01*
X-1429091Y5730882D01*
X-1410849Y5749321D01*
X-1384652Y5756441D01*
X-1380842Y5756096D01*
X-1359335Y5746374D01*
X-1333094Y5725278D01*
X-1304744Y5695501D01*
X-1276914Y5659738D01*
X-1252232Y5620682D01*
X-1220621Y5564089D01*
X-1202471Y5590749D01*
X-1183442Y5615176D01*
X-1157447Y5636250D01*
X-1124936Y5648488D01*
X-1081046Y5654443D01*
X-1022081Y5658662D01*
X-988617Y5625199D01*
X-974851Y5610046D01*
X-957927Y5581045D01*
X-956960Y5555086D01*
X-971821Y5531441D01*
X-993477Y5517795D01*
X-1021185Y5517263D01*
X-1050453Y5532510D01*
X-1060851Y5540028D01*
X-1076489Y5545586D01*
X-1093366Y5540966D01*
X-1108509Y5530253D01*
X-1123281Y5510731D01*
X-1128198Y5501619D01*
X-1137365Y5493880D01*
X-1153520Y5490511D01*
X-1181491Y5489774D01*
X-1210059Y5490979D01*
X-1231785Y5496085D01*
X-1246821Y5506441D01*
X-1258228Y5519120D01*
X-1263487Y5527774D01*
X-1265683Y5532537D01*
X-1275516Y5547685D01*
X-1290571Y5568549D01*
X-1300729Y5582175D01*
X-1317219Y5604631D01*
X-1328283Y5620132D01*
X-1331995Y5624961D01*
X-1335695Y5625433D01*
X-1336225Y5613895D01*
X-1333985Y5588103D01*
X-1329057Y5540598D01*
X-1381689Y5538103D01*
X-1413219Y5538615D01*
X-1470641Y5551224D01*
X-1521245Y5578642D01*
X-1563961Y5620191D01*
X-1597720Y5675191D01*
X-1605261Y5690194D01*
X-1615923Y5707880D01*
X-1622799Y5714774D01*
X-1623641Y5714696D01*
X-1637551Y5708944D01*
X-1663460Y5694732D01*
X-1699867Y5672980D01*
X-1745268Y5644605D01*
X-1798159Y5610526D01*
X-1857038Y5571661D01*
X-1860193Y5569557D01*
X-1905235Y5539866D01*
X-1939251Y5518433D01*
X-1964686Y5503982D01*
X-1983982Y5495239D01*
X-1999581Y5490928D01*
X-2013927Y5489774D01*
X-2048099Y5489774D01*
X-2024543Y5509450D01*
X-2012152Y5518903D01*
X-1986473Y5537110D01*
X-1951691Y5561002D01*
X-1910524Y5588781D01*
X-1865685Y5618652D01*
X-1819890Y5648817D01*
X-1775856Y5677479D01*
X-1736296Y5702841D01*
X-1703928Y5723106D01*
X-1681465Y5736478D01*
X-1662683Y5748110D01*
X-1646737Y5760788D01*
X-1641939Y5768941D01*
X-1643618Y5774411D01*
X-1648686Y5793912D01*
X-1655851Y5823260D01*
X-1664140Y5858524D01*
X-1669843Y5881968D01*
X-1678102Y5911778D01*
X-1685066Y5932199D01*
X-1689651Y5939774D01*
X-1690383Y5939650D01*
X-1698939Y5931441D01*
X-1709550Y5914331D01*
X-1732312Y5880779D01*
X-1760516Y5860613D01*
X-1792863Y5856561D01*
X-1829462Y5868583D01*
X-1836005Y5872614D01*
X-1851031Y5888446D01*
X-1864017Y5913631D01*
X-1875597Y5949996D01*
X-1886402Y5999368D01*
X-1897067Y6063572D01*
X-1897656Y6067495D01*
X-1903663Y6106313D01*
X-1908933Y6138300D01*
X-1912916Y6160234D01*
X-1915063Y6168894D01*
X-1915133Y6168941D01*
X-1924755Y6167884D01*
X-1948183Y6163095D01*
X-1983219Y6155130D01*
X-2027666Y6144549D01*
X-2079326Y6131907D01*
X-2135999Y6117762D01*
X-2195490Y6102672D01*
X-2255598Y6087194D01*
X-2314127Y6071885D01*
X-2368878Y6057303D01*
X-2417654Y6044005D01*
X-2458256Y6032548D01*
X-2488487Y6023489D01*
X-2540909Y6006462D01*
X-2641851Y5971477D01*
X-2746108Y5932873D01*
X-2847160Y5893099D01*
X-2938487Y5854600D01*
X-2948291Y5850268D01*
X-3014478Y5820017D01*
X-3087707Y5785080D01*
X-3165198Y5746899D01*
X-3244171Y5706915D01*
X-3321846Y5666568D01*
X-3395444Y5627300D01*
X-3462183Y5590551D01*
X-3519285Y5557763D01*
X-3563970Y5530376D01*
X-3570855Y5525961D01*
X-3601739Y5507294D01*
X-3625004Y5496333D01*
X-3645515Y5491190D01*
X-3668137Y5489978D01*
X-3709321Y5490182D01*
X-3625987Y5544348D01*
X-3621446Y5547280D01*
X-3577393Y5574396D01*
X-3521381Y5607064D01*
X-3456132Y5643791D01*
X-3384364Y5683087D01*
X-3308795Y5723460D01*
X-3232146Y5763419D01*
X-3157135Y5801472D01*
X-3081414Y5838297D01*
X-2885203Y5925302D01*
X-2682956Y6003678D01*
X-2479623Y6071587D01*
X-2280154Y6127189D01*
X-2263873Y6131252D01*
X-2219004Y6142488D01*
X-2178623Y6152654D01*
X-2146626Y6160768D01*
X-2126908Y6165845D01*
X-2094496Y6174376D01*
X-2116014Y6187462D01*
X-1801185Y6187462D01*
X-1800398Y6176671D01*
X-1797995Y6154459D01*
X-1794514Y6125142D01*
X-1790492Y6093035D01*
X-1786468Y6062450D01*
X-1782980Y6037703D01*
X-1780566Y6023108D01*
X-1780115Y6023230D01*
X-1775224Y6032655D01*
X-1766199Y6053171D01*
X-1754531Y6081441D01*
X-1748519Y6096021D01*
X-1732405Y6129883D01*
X-1717448Y6150949D01*
X-1701462Y6161738D01*
X-1682258Y6164774D01*
X-1679409Y6164595D01*
X-1658455Y6155474D01*
X-1636447Y6135683D01*
X-1617391Y6109559D01*
X-1605294Y6081441D01*
X-1600251Y6062070D01*
X-1586977Y6009343D01*
X-1574168Y5956277D01*
X-1563126Y5908347D01*
X-1555157Y5871024D01*
X-1550369Y5849889D01*
X-1544456Y5830562D01*
X-1539924Y5823108D01*
X-1532074Y5826372D01*
X-1512473Y5836402D01*
X-1484387Y5851580D01*
X-1450931Y5870254D01*
X-1411944Y5891686D01*
X-1359180Y5919484D01*
X-1299093Y5950209D01*
X-1234442Y5982524D01*
X-1167986Y6015092D01*
X-1102482Y6046574D01*
X-1040689Y6075634D01*
X-985364Y6100935D01*
X-939266Y6121138D01*
X-905154Y6134906D01*
X-865682Y6148888D01*
X-816306Y6165365D01*
X-763471Y6182229D01*
X-713487Y6197422D01*
X-708673Y6198840D01*
X-636414Y6220564D01*
X-579844Y6238517D01*
X-538490Y6252874D01*
X-511878Y6263810D01*
X-499536Y6271501D01*
X-500989Y6276122D01*
X-501746Y6276369D01*
X-517130Y6278268D01*
X-546370Y6279681D01*
X-586949Y6280622D01*
X-636348Y6281107D01*
X-692051Y6281151D01*
X-751540Y6280769D01*
X-812297Y6279976D01*
X-871804Y6278788D01*
X-927545Y6277219D01*
X-977001Y6275285D01*
X-1017654Y6273002D01*
X-1046139Y6271012D01*
X-1163731Y6262357D01*
X-1268333Y6253836D01*
X-1362943Y6245159D01*
X-1450558Y6236039D01*
X-1534175Y6226187D01*
X-1616791Y6215314D01*
X-1641533Y6211879D01*
X-1692177Y6204724D01*
X-1735840Y6198389D01*
X-1770140Y6193230D01*
X-1792692Y6189602D01*
X-1801113Y6187860D01*
X-1801185Y6187462D01*
X-2116014Y6187462D01*
X-2119239Y6189423D01*
X-2133107Y6199242D01*
X-2134175Y6200460D01*
X-2000747Y6200460D01*
X-1990864Y6198961D01*
X-1971711Y6201501D01*
X-1948298Y6206462D01*
X-1927740Y6212171D01*
X-1916846Y6216972D01*
X-1916679Y6217189D01*
X-1915046Y6228046D01*
X-1914508Y6250622D01*
X-1915185Y6280345D01*
X-1917654Y6339590D01*
X-1952103Y6287599D01*
X-1953180Y6285972D01*
X-1971443Y6257784D01*
X-1986843Y6233014D01*
X-1996146Y6216858D01*
X-1999594Y6209676D01*
X-2000747Y6200460D01*
X-2134175Y6200460D01*
X-2147239Y6215357D01*
X-2156447Y6237091D01*
X-2161385Y6267167D01*
X-2162707Y6308306D01*
X-2161893Y6335608D01*
X-2056339Y6335608D01*
X-2027016Y6381441D01*
X-2013396Y6402506D01*
X-1991234Y6436143D01*
X-1971933Y6464774D01*
X-1962808Y6478226D01*
X-1943129Y6507725D01*
X-1919831Y6543053D01*
X-1896219Y6579214D01*
X-1879118Y6604683D01*
X-1858377Y6633309D01*
X-1841294Y6654397D01*
X-1830423Y6664630D01*
X-1817017Y6670230D01*
X-1788236Y6671008D01*
X-1762688Y6655642D01*
X-1754097Y6644145D01*
X-1748892Y6625013D01*
X-1750652Y6598782D01*
X-1759617Y6562890D01*
X-1776032Y6514774D01*
X-1785031Y6488476D01*
X-1792458Y6460207D01*
X-1797471Y6429512D01*
X-1800818Y6391645D01*
X-1803246Y6341858D01*
X-1803445Y6336653D01*
X-1804821Y6292460D01*
X-1804914Y6262308D01*
X-1804062Y6250622D01*
X-1803567Y6243838D01*
X-1800621Y6234694D01*
X-1795919Y6232520D01*
X-1794975Y6232621D01*
X-1780767Y6234476D01*
X-1753240Y6238253D01*
X-1715086Y6243578D01*
X-1668994Y6250076D01*
X-1617654Y6257371D01*
X-1483815Y6274956D01*
X-1227653Y6300792D01*
X-969861Y6317009D01*
X-717654Y6323081D01*
X-657438Y6323341D01*
X-607479Y6323776D01*
X-570983Y6324487D01*
X-546296Y6325593D01*
X-531759Y6327213D01*
X-525718Y6329465D01*
X-526514Y6332468D01*
X-532491Y6336341D01*
X-541507Y6341655D01*
X-564496Y6356373D01*
X-594304Y6376290D01*
X-626762Y6398650D01*
X-643492Y6410119D01*
X-681609Y6434914D01*
X-718452Y6457353D01*
X-747945Y6473676D01*
X-798027Y6498957D01*
X-831678Y6468556D01*
X-866784Y6441184D01*
X-924198Y6412019D01*
X-984224Y6398268D01*
X-1044943Y6399799D01*
X-1104435Y6416479D01*
X-1160782Y6448176D01*
X-1212066Y6494758D01*
X-1232857Y6519937D01*
X-1259514Y6556371D01*
X-1280972Y6590055D01*
X-1295781Y6616023D01*
X-1311675Y6643815D01*
X-1317636Y6654188D01*
X-1229417Y6654188D01*
X-1217785Y6631696D01*
X-1198082Y6599712D01*
X-1165849Y6559563D01*
X-1129677Y6523929D01*
X-1094627Y6498292D01*
X-1066501Y6484456D01*
X-1019263Y6472950D01*
X-972503Y6477583D01*
X-923904Y6498355D01*
X-904021Y6510229D01*
X-886786Y6521670D01*
X-880154Y6527739D01*
X-880329Y6528369D01*
X-889933Y6535274D01*
X-912251Y6546092D01*
X-944545Y6559776D01*
X-984076Y6575282D01*
X-1028103Y6591561D01*
X-1073887Y6607567D01*
X-1118690Y6622254D01*
X-1159773Y6634574D01*
X-1229417Y6654188D01*
X-1317636Y6654188D01*
X-1323032Y6663578D01*
X-1327404Y6670298D01*
X-1340419Y6682608D01*
X-1361099Y6692387D01*
X-1393865Y6702037D01*
X-1416680Y6707863D01*
X-1463506Y6719534D01*
X-1509625Y6730704D01*
X-1551178Y6740457D01*
X-1584307Y6747882D01*
X-1605154Y6752064D01*
X-1610202Y6752914D01*
X-1631790Y6756562D01*
X-1664771Y6762141D01*
X-1705664Y6769062D01*
X-1750987Y6776736D01*
X-1772043Y6780261D01*
X-1815366Y6787241D01*
X-1852457Y6792862D01*
X-1879922Y6796618D01*
X-1894365Y6798007D01*
X-1899030Y6797483D01*
X-1911743Y6790116D01*
X-1926826Y6772199D01*
X-1946445Y6741379D01*
X-1982350Y6673087D01*
X-2014407Y6589171D01*
X-2036933Y6497278D01*
X-2050971Y6393941D01*
X-2056339Y6335608D01*
X-2161893Y6335608D01*
X-2161070Y6363230D01*
X-2160522Y6374230D01*
X-2150325Y6481010D01*
X-2131052Y6578174D01*
X-2101529Y6670391D01*
X-2060579Y6762328D01*
X-2030310Y6822382D01*
X-2057315Y6827065D01*
X-2061391Y6827746D01*
X-2100493Y6832804D01*
X-2151438Y6837545D01*
X-2209968Y6841701D01*
X-2271824Y6845003D01*
X-2332750Y6847182D01*
X-2388487Y6847970D01*
X-2480906Y6845505D01*
X-2644795Y6829092D01*
X-2811997Y6797082D01*
X-2813480Y6796733D01*
X-2863701Y6785563D01*
X-2899316Y6779142D01*
X-2921607Y6777285D01*
X-2931853Y6779807D01*
X-2936084Y6784808D01*
X-2938397Y6795165D01*
X-2929707Y6804981D01*
X-2908643Y6815003D01*
X-2873833Y6825978D01*
X-2823908Y6838653D01*
X-2802210Y6843671D01*
X-2668610Y6868777D01*
X-2535147Y6884398D01*
X-2505893Y6885635D01*
X-2137368Y6885635D01*
X-2134321Y6881661D01*
X-2124799Y6879057D01*
X-2100533Y6874626D01*
X-2071493Y6870945D01*
X-2054990Y6869514D01*
X-2033488Y6869736D01*
X-2019109Y6874966D01*
X-2005783Y6886653D01*
X-1998227Y6895358D01*
X-1991571Y6909060D01*
X-1997639Y6914029D01*
X-2015583Y6908382D01*
X-2032473Y6903097D01*
X-2060347Y6897672D01*
X-2092654Y6893480D01*
X-2094661Y6893281D01*
X-2124225Y6889487D01*
X-2137368Y6885635D01*
X-2505893Y6885635D01*
X-2408010Y6889774D01*
X-2306202Y6889774D01*
X-2310899Y6918720D01*
X-2311784Y6924892D01*
X-2311361Y6942421D01*
X-2303375Y6958101D01*
X-2285146Y6978116D01*
X-2254696Y7008566D01*
X-2271591Y7043468D01*
X-2273003Y7046436D01*
X-2284489Y7076983D01*
X-2288526Y7101664D01*
X-2285027Y7117510D01*
X-2273904Y7121550D01*
X-2264697Y7116309D01*
X-2256737Y7100711D01*
X-2255905Y7096099D01*
X-2247547Y7077577D01*
X-2235141Y7070220D01*
X-2222369Y7076614D01*
X-2219763Y7080163D01*
X-2218377Y7091418D01*
X-2229596Y7105884D01*
X-2243995Y7124027D01*
X-2244519Y7135724D01*
X-2230626Y7139774D01*
X-2225667Y7139130D01*
X-2208183Y7128312D01*
X-2194204Y7108762D01*
X-2188487Y7086493D01*
X-2188698Y7083157D01*
X-2196437Y7063430D01*
X-2211300Y7046782D01*
X-2227771Y7039774D01*
X-2232686Y7038782D01*
X-2234336Y7031466D01*
X-2233488Y7030510D01*
X-2222424Y7030277D01*
X-2205080Y7037296D01*
X-2186840Y7048381D01*
X-2173090Y7060345D01*
X-2169214Y7070003D01*
X-2168994Y7073403D01*
X-2135970Y7073403D01*
X-2130528Y7076038D01*
X-2116211Y7083820D01*
X-2109960Y7087569D01*
X-2102970Y7096490D01*
X-2109033Y7108848D01*
X-2116448Y7117237D01*
X-2122123Y7114855D01*
X-2128792Y7098431D01*
X-2129420Y7096619D01*
X-2134709Y7080048D01*
X-2135970Y7073403D01*
X-2168994Y7073403D01*
X-2168439Y7081987D01*
X-2160238Y7099705D01*
X-2153079Y7116500D01*
X-2152514Y7130543D01*
X-2089850Y7130543D01*
X-2085020Y7121227D01*
X-2079997Y7115306D01*
X-2072060Y7112449D01*
X-2059458Y7117362D01*
X-2037716Y7130969D01*
X-2027333Y7138038D01*
X-1995964Y7161332D01*
X-1967654Y7184621D01*
X-1934321Y7214149D01*
X-1970151Y7214462D01*
X-1976077Y7214674D01*
X-2006168Y7219299D01*
X-2031525Y7227984D01*
X-2046391Y7234507D01*
X-2060677Y7234585D01*
X-2069749Y7222145D01*
X-2071123Y7216592D01*
X-2076437Y7195114D01*
X-2077927Y7186821D01*
X-2079516Y7170886D01*
X-2075051Y7166249D01*
X-2062502Y7169123D01*
X-2048722Y7175439D01*
X-2035990Y7186699D01*
X-2035083Y7188124D01*
X-2023294Y7196803D01*
X-2010898Y7196535D01*
X-2005154Y7187201D01*
X-2010343Y7169527D01*
X-2029611Y7152245D01*
X-2060791Y7141759D01*
X-2066658Y7140696D01*
X-2084722Y7136191D01*
X-2089850Y7130543D01*
X-2152514Y7130543D01*
X-2152222Y7137798D01*
X-2152917Y7140271D01*
X-2160794Y7151848D01*
X-2176938Y7151291D01*
X-2177778Y7151084D01*
X-2192642Y7150465D01*
X-2196821Y7159966D01*
X-2195301Y7166987D01*
X-2184021Y7178542D01*
X-2177813Y7181555D01*
X-2175866Y7188506D01*
X-2184021Y7202988D01*
X-2188322Y7211662D01*
X-2147847Y7211662D01*
X-2144812Y7201312D01*
X-2132711Y7182444D01*
X-2129268Y7177372D01*
X-2115395Y7157588D01*
X-2108218Y7150391D01*
X-2105510Y7154751D01*
X-2105040Y7169636D01*
X-2103770Y7189803D01*
X-2099901Y7212691D01*
X-2099078Y7216592D01*
X-2102401Y7229295D01*
X-2116028Y7231236D01*
X-2137468Y7221810D01*
X-2142426Y7218546D01*
X-2147847Y7211662D01*
X-2188322Y7211662D01*
X-2192319Y7219724D01*
X-2196821Y7239481D01*
X-2195547Y7246945D01*
X-2187140Y7255566D01*
X-2176783Y7254091D01*
X-2171521Y7241858D01*
X-2170575Y7235486D01*
X-2165183Y7235933D01*
X-2152771Y7249067D01*
X-2133079Y7266012D01*
X-2111404Y7276309D01*
X-2102545Y7278795D01*
X-2093172Y7285255D01*
X-2089268Y7298641D01*
X-2088487Y7323814D01*
X-2088154Y7326441D01*
X-2063487Y7326441D01*
X-2062666Y7313892D01*
X-2054587Y7291522D01*
X-2035154Y7268108D01*
X-2024207Y7257893D01*
X-2001753Y7243764D01*
X-1977460Y7239774D01*
X-1962609Y7241326D01*
X-1930641Y7255358D01*
X-1904544Y7281284D01*
X-1888215Y7315787D01*
X-1883818Y7336872D01*
X-1885819Y7355884D01*
X-1896986Y7377542D01*
X-1921959Y7410909D01*
X-1947308Y7429611D01*
X-1971800Y7431763D01*
X-1995332Y7417324D01*
X-1996500Y7416125D01*
X-1999022Y7410083D01*
X-1990076Y7407186D01*
X-1967084Y7406441D01*
X-1941180Y7404314D01*
X-1919889Y7394259D01*
X-1908843Y7373598D01*
X-1905684Y7339774D01*
X-1907485Y7313582D01*
X-1917255Y7288304D01*
X-1937763Y7273605D01*
X-1971530Y7266686D01*
X-1977332Y7266153D01*
X-1999972Y7265250D01*
X-2010747Y7268314D01*
X-2013487Y7276214D01*
X-2010217Y7284713D01*
X-1994737Y7289888D01*
X-1966067Y7293128D01*
X-1941813Y7305979D01*
X-1931033Y7328633D01*
X-1933703Y7361114D01*
X-1937077Y7371277D01*
X-1946492Y7379586D01*
X-1965856Y7379864D01*
X-1971836Y7379138D01*
X-1988851Y7372739D01*
X-1995317Y7358524D01*
X-1999812Y7346868D01*
X-2010997Y7339774D01*
X-2018054Y7341945D01*
X-2021161Y7352430D01*
X-2019328Y7375191D01*
X-2018208Y7383904D01*
X-2016913Y7400091D01*
X-2019414Y7402844D01*
X-2026564Y7394432D01*
X-2033852Y7382253D01*
X-2038487Y7367348D01*
X-2039921Y7362291D01*
X-2050987Y7356441D01*
X-2052693Y7356320D01*
X-2060930Y7348341D01*
X-2063487Y7326441D01*
X-2088154Y7326441D01*
X-2083266Y7364959D01*
X-2064881Y7406051D01*
X-2034824Y7437401D01*
X-1994738Y7456676D01*
X-1963489Y7465416D01*
X-2012112Y7538012D01*
X-2054172Y7602581D01*
X-2156921Y7778460D01*
X-2245293Y7959177D01*
X-2319803Y8146119D01*
X-2380967Y8340670D01*
X-2429299Y8544217D01*
X-2465314Y8758147D01*
X-2465717Y8761182D01*
X-2469794Y8804318D01*
X-2472913Y8860894D01*
X-2475091Y8927971D01*
X-2476346Y9002608D01*
X-2476697Y9081865D01*
X-2476161Y9162802D01*
X-2474757Y9242478D01*
X-2472502Y9317954D01*
X-2469415Y9386288D01*
X-2465514Y9444542D01*
X-2460817Y9489774D01*
X-2436118Y9648682D01*
X-2393220Y9856879D01*
X-2339869Y10055167D01*
X-2276424Y10242257D01*
X-2203242Y10416858D01*
X-2169403Y10489774D01*
X-2041018Y10489774D01*
X-2081544Y10411177D01*
X-2124653Y10321236D01*
X-2179101Y10187608D01*
X-2228433Y10042742D01*
X-2271854Y9889516D01*
X-2308569Y9730807D01*
X-2337783Y9569492D01*
X-2358700Y9408448D01*
X-2361713Y9375294D01*
X-2366260Y9304547D01*
X-2369432Y9225232D01*
X-2371194Y9141544D01*
X-2371511Y9057674D01*
X-2370347Y8977816D01*
X-2367668Y8906163D01*
X-2363437Y8846907D01*
X-2360057Y8814332D01*
X-2337352Y8652723D01*
X-2305155Y8489992D01*
X-2264697Y8331722D01*
X-2217208Y8183494D01*
X-2208123Y8159093D01*
X-2181881Y8094884D01*
X-2149622Y8022229D01*
X-2113291Y7945093D01*
X-2074830Y7867443D01*
X-2036184Y7793247D01*
X-1999297Y7726470D01*
X-1966112Y7671080D01*
X-1960306Y7661991D01*
X-1934552Y7622815D01*
X-1906350Y7581408D01*
X-1877374Y7540067D01*
X-1849297Y7501089D01*
X-1823793Y7466773D01*
X-1802535Y7439417D01*
X-1787197Y7421318D01*
X-1779452Y7414774D01*
X-1777408Y7413825D01*
X-1767886Y7403140D01*
X-1755546Y7384401D01*
X-1743883Y7357557D01*
X-1741071Y7336872D01*
X-1739723Y7326959D01*
X-1745567Y7301378D01*
X-1761170Y7285147D01*
X-1764349Y7283039D01*
X-1778335Y7267319D01*
X-1795652Y7241016D01*
X-1810336Y7214149D01*
X-1813820Y7207775D01*
X-1827224Y7182166D01*
G37*
G36*
X-837307Y8469622D02*
G01*
X-800154Y8461930D01*
X-765963Y8452407D01*
X-731405Y8438493D01*
X-711523Y8423334D01*
X-705154Y8406249D01*
X-706867Y8397060D01*
X-717324Y8390588D01*
X-738374Y8394334D01*
X-771273Y8408338D01*
X-775803Y8410491D01*
X-802817Y8420357D01*
X-833192Y8425299D01*
X-873478Y8426482D01*
X-874880Y8426472D01*
X-910091Y8425224D01*
X-937510Y8420904D01*
X-964514Y8411704D01*
X-998478Y8395813D01*
X-1034921Y8376482D01*
X-1081092Y8346104D01*
X-1120319Y8310844D01*
X-1158351Y8266035D01*
X-1173111Y8245284D01*
X-1192320Y8215466D01*
X-1212561Y8181924D01*
X-1231815Y8148200D01*
X-1248066Y8117838D01*
X-1259296Y8094382D01*
X-1263487Y8081374D01*
X-1263701Y8079719D01*
X-1268005Y8065792D01*
X-1276099Y8044959D01*
X-1289287Y8022663D01*
X-1305266Y8014774D01*
X-1311651Y8015711D01*
X-1320052Y8024991D01*
X-1319963Y8044868D01*
X-1311191Y8076156D01*
X-1293542Y8119668D01*
X-1266821Y8176220D01*
X-1243806Y8219097D01*
X-1191085Y8296385D01*
X-1130797Y8360609D01*
X-1063908Y8410972D01*
X-991386Y8446677D01*
X-914195Y8466929D01*
X-904207Y8468409D01*
X-868758Y8471639D01*
X-837307Y8469622D01*
G37*
G36*
X-176703Y5854688D02*
G01*
X-186316Y5774314D01*
X-193738Y5725872D01*
X-210493Y5663276D01*
X-234603Y5614022D01*
X-267089Y5576695D01*
X-308972Y5549884D01*
X-361274Y5532175D01*
X-380219Y5528900D01*
X-412935Y5525566D01*
X-447345Y5523945D01*
X-476498Y5524108D01*
X-496546Y5526883D01*
X-510837Y5533975D01*
X-524972Y5547048D01*
X-546414Y5577540D01*
X-564948Y5626195D01*
X-576300Y5687874D01*
X-580067Y5759686D01*
X-500569Y5759686D01*
X-499721Y5720123D01*
X-496861Y5687272D01*
X-491247Y5661475D01*
X-482115Y5637691D01*
X-470055Y5614469D01*
X-458432Y5601975D01*
X-445033Y5599075D01*
X-431253Y5599882D01*
X-414471Y5602667D01*
X-404282Y5609884D01*
X-399040Y5624593D01*
X-397101Y5649852D01*
X-396821Y5688719D01*
X-396820Y5689148D01*
X-395944Y5732202D01*
X-392707Y5761231D01*
X-386157Y5778796D01*
X-375345Y5787457D01*
X-359321Y5789774D01*
X-352021Y5789389D01*
X-337098Y5783785D01*
X-327850Y5769466D01*
X-323138Y5743831D01*
X-321821Y5704283D01*
X-320827Y5669524D01*
X-317410Y5649514D01*
X-311115Y5645534D01*
X-301489Y5657317D01*
X-288079Y5684600D01*
X-281828Y5701587D01*
X-273539Y5732448D01*
X-266292Y5767933D01*
X-260706Y5803889D01*
X-257396Y5836160D01*
X-256981Y5860592D01*
X-260078Y5873032D01*
X-261731Y5874354D01*
X-278235Y5881465D01*
X-306243Y5889423D01*
X-341619Y5897174D01*
X-380231Y5903663D01*
X-395097Y5904685D01*
X-416064Y5899676D01*
X-439768Y5884208D01*
X-447643Y5878158D01*
X-469438Y5862160D01*
X-485525Y5851353D01*
X-490442Y5847667D01*
X-495875Y5838908D01*
X-499007Y5823562D01*
X-500388Y5798273D01*
X-500569Y5759686D01*
X-580067Y5759686D01*
X-580154Y5761350D01*
X-580154Y5848108D01*
X-604864Y5848108D01*
X-615950Y5849420D01*
X-647652Y5861605D01*
X-688188Y5886123D01*
X-736574Y5922419D01*
X-743579Y5928342D01*
X-765626Y5953789D01*
X-771766Y5976666D01*
X-761821Y5996441D01*
X-761712Y5996549D01*
X-745316Y6005315D01*
X-723291Y6003127D01*
X-693871Y5989442D01*
X-655287Y5963718D01*
X-632489Y5947336D01*
X-610299Y5933063D01*
X-593232Y5925773D01*
X-576660Y5923659D01*
X-555957Y5924914D01*
X-553944Y5925117D01*
X-516401Y5934227D01*
X-483269Y5955137D01*
X-465395Y5968687D01*
X-448056Y5977013D01*
X-426601Y5980644D01*
X-394769Y5981441D01*
X-362546Y5979618D01*
X-316956Y5973259D01*
X-273751Y5963717D01*
X-225448Y5950735D01*
X-189516Y5942135D01*
X-162813Y5937599D01*
X-141971Y5936746D01*
X-123622Y5939194D01*
X-104395Y5944564D01*
X-93795Y5948363D01*
X-67185Y5960828D01*
X-48100Y5973705D01*
X-46803Y5974952D01*
X-29069Y5997771D01*
X-10601Y6029741D01*
X5265Y6064441D01*
X15188Y6095449D01*
X22584Y6116927D01*
X32378Y6131467D01*
X37550Y6134722D01*
X58890Y6138535D01*
X81724Y6133872D01*
X97529Y6121977D01*
X100528Y6109897D01*
X97362Y6083460D01*
X86656Y6048387D01*
X69391Y6007711D01*
X46549Y5964465D01*
X33705Y5943361D01*
X15688Y5919652D01*
X-4681Y5902429D01*
X-32860Y5886323D01*
X-71975Y5869873D01*
X-117053Y5860592D01*
X-128958Y5858141D01*
X-176703Y5854688D01*
G37*
G36*
X1911096Y6911440D02*
G01*
X1909325Y6881503D01*
X1905233Y6823543D01*
X1900449Y6766393D01*
X1895432Y6715334D01*
X1890641Y6675646D01*
X1886602Y6646497D01*
X1882246Y6614035D01*
X1879277Y6590625D01*
X1878179Y6579991D01*
X1879043Y6579307D01*
X1891857Y6577330D01*
X1918112Y6575627D01*
X1955373Y6574291D01*
X2001207Y6573420D01*
X2053179Y6573108D01*
X2228179Y6573108D01*
X2228179Y6531441D01*
X2047805Y6531441D01*
X1989206Y6531402D01*
X1945105Y6531139D01*
X1913379Y6530435D01*
X1891903Y6529073D01*
X1878551Y6526835D01*
X1871201Y6523504D01*
X1867728Y6518862D01*
X1867191Y6516936D01*
X1866006Y6512691D01*
X1862781Y6498047D01*
X1856790Y6470749D01*
X1848948Y6434969D01*
X1840124Y6394666D01*
X1831338Y6355546D01*
X1822826Y6319585D01*
X1815833Y6292013D01*
X1811328Y6276787D01*
X1809942Y6272949D01*
X1809012Y6265686D01*
X1813740Y6260579D01*
X1826852Y6256628D01*
X1851074Y6252828D01*
X1889134Y6248177D01*
X1895048Y6247473D01*
X1938057Y6242093D01*
X1990442Y6235218D01*
X2040214Y6228460D01*
X2046121Y6227658D01*
X2099013Y6220222D01*
X2224013Y6202274D01*
X2226679Y6179053D01*
X2227481Y6167729D01*
X2223612Y6159117D01*
X2210012Y6160028D01*
X2187147Y6164429D01*
X2151216Y6170361D01*
X2107384Y6176937D01*
X2058361Y6183817D01*
X2006857Y6190660D01*
X1955583Y6197126D01*
X1907248Y6202874D01*
X1864562Y6207564D01*
X1830236Y6210855D01*
X1806980Y6212406D01*
X1797503Y6211876D01*
X1797470Y6211841D01*
X1793278Y6202496D01*
X1785075Y6180606D01*
X1774032Y6149399D01*
X1761319Y6112103D01*
X1755414Y6094712D01*
X1719131Y5996069D01*
X1678888Y5898857D01*
X1635937Y5805551D01*
X1591531Y5718626D01*
X1546922Y5640558D01*
X1503364Y5573822D01*
X1462109Y5520893D01*
X1434786Y5489774D01*
X1180170Y5489774D01*
X1119045Y5560978D01*
X1102844Y5580030D01*
X1022149Y5681439D01*
X949828Y5784768D01*
X882641Y5894916D01*
X817344Y6016778D01*
X772105Y6106212D01*
X767698Y6029243D01*
X764904Y5992001D01*
X758171Y5945233D01*
X747778Y5910619D01*
X732813Y5885487D01*
X712364Y5867162D01*
X707854Y5864382D01*
X674861Y5852493D01*
X634787Y5847743D01*
X594557Y5850422D01*
X561099Y5860822D01*
X558707Y5862048D01*
X542956Y5869432D01*
X536513Y5871174D01*
X536407Y5870021D01*
X532536Y5855714D01*
X524167Y5830662D01*
X512780Y5798839D01*
X499853Y5764214D01*
X486862Y5730762D01*
X475285Y5702453D01*
X466601Y5683259D01*
X449113Y5654572D01*
X420904Y5621621D01*
X390142Y5596921D01*
X360830Y5584221D01*
X351355Y5581403D01*
X338064Y5568643D01*
X338655Y5547246D01*
X353088Y5516858D01*
X369601Y5489774D01*
X302878Y5489774D01*
X281647Y5489868D01*
X256117Y5490901D01*
X241072Y5493944D01*
X232607Y5500049D01*
X226818Y5510268D01*
X224451Y5515144D01*
X215133Y5525546D01*
X202545Y5522768D01*
X201482Y5522235D01*
X182154Y5516948D01*
X157515Y5514774D01*
X141323Y5516742D01*
X113852Y5529590D01*
X94093Y5551064D01*
X86513Y5577233D01*
X82104Y5598591D01*
X68615Y5622553D01*
X50121Y5640832D01*
X30803Y5648108D01*
X23004Y5646634D01*
X2367Y5636579D01*
X-19713Y5620144D01*
X-27217Y5613562D01*
X-62793Y5586991D01*
X-92114Y5574447D01*
X-116804Y5575513D01*
X-138487Y5589774D01*
X-152729Y5610231D01*
X-153963Y5632688D01*
X-140787Y5658028D01*
X-112731Y5688051D01*
X-105786Y5694406D01*
X-69740Y5724293D01*
X-38528Y5743148D01*
X-7891Y5753054D01*
X26428Y5756092D01*
X26502Y5756092D01*
X77669Y5749330D01*
X120969Y5727936D01*
X157209Y5691514D01*
X170279Y5674440D01*
X179909Y5665087D01*
X186756Y5666176D01*
X194709Y5676110D01*
X205285Y5694384D01*
X215679Y5718757D01*
X219140Y5726944D01*
X237013Y5746810D01*
X261153Y5755604D01*
X286891Y5753422D01*
X309559Y5740359D01*
X324487Y5716513D01*
X333295Y5689442D01*
X350509Y5708358D01*
X354817Y5713645D01*
X371027Y5741208D01*
X388252Y5780063D01*
X405215Y5826208D01*
X420635Y5875639D01*
X433233Y5924352D01*
X441730Y5968342D01*
X444846Y6003608D01*
X445287Y6013779D01*
X453982Y6045240D01*
X472475Y6065766D01*
X499013Y6073108D01*
X507331Y6072080D01*
X528756Y6062077D01*
X546062Y6045538D01*
X553179Y6027564D01*
X554415Y6022462D01*
X563813Y6005655D01*
X579423Y5985464D01*
X589558Y5974671D01*
X608696Y5960677D01*
X627013Y5958091D01*
X633088Y5959449D01*
X645681Y5968995D01*
X654136Y5988529D01*
X658748Y6019658D01*
X659817Y6063983D01*
X657639Y6123108D01*
X656301Y6148365D01*
X653895Y6191131D01*
X650757Y6220696D01*
X645256Y6239362D01*
X636749Y6248384D01*
X847210Y6248384D01*
X863530Y6196162D01*
X865010Y6191501D01*
X891441Y6122206D01*
X928043Y6044816D01*
X972907Y5962345D01*
X1024120Y5877811D01*
X1079773Y5794229D01*
X1137956Y5714616D01*
X1196757Y5641987D01*
X1254266Y5579358D01*
X1260861Y5572792D01*
X1283185Y5551726D01*
X1300634Y5536989D01*
X1309887Y5531441D01*
X1315606Y5533390D01*
X1332133Y5546305D01*
X1354445Y5569140D01*
X1380286Y5599337D01*
X1407398Y5634338D01*
X1433524Y5671583D01*
X1485847Y5757358D01*
X1545366Y5872597D01*
X1602310Y6002469D01*
X1656183Y6145919D01*
X1684914Y6228460D01*
X1566963Y6238832D01*
X1552754Y6239970D01*
X1511739Y6242539D01*
X1460603Y6245029D01*
X1401577Y6247393D01*
X1336892Y6249582D01*
X1268780Y6251551D01*
X1199472Y6253252D01*
X1131199Y6254637D01*
X1066192Y6255659D01*
X1006683Y6256270D01*
X954903Y6256424D01*
X913083Y6256072D01*
X883455Y6255168D01*
X868249Y6253664D01*
X847210Y6248384D01*
X636749Y6248384D01*
X635760Y6249433D01*
X620641Y6253211D01*
X598267Y6252998D01*
X567008Y6251098D01*
X543703Y6249676D01*
X482505Y6245022D01*
X409088Y6238451D01*
X326385Y6230246D01*
X237328Y6220693D01*
X144846Y6210077D01*
X124692Y6207611D01*
X77587Y6200871D01*
X42407Y6193860D01*
X15663Y6185788D01*
X-6134Y6175865D01*
X-34552Y6162987D01*
X-61235Y6157812D01*
X-78308Y6163839D01*
X-84321Y6180976D01*
X-82976Y6189503D01*
X-76485Y6199191D01*
X-62318Y6210193D01*
X-37983Y6224385D01*
X-987Y6243640D01*
X30874Y6260583D01*
X163774Y6260583D01*
X167869Y6257819D01*
X186513Y6257895D01*
X192510Y6258200D01*
X218544Y6260491D01*
X253206Y6264387D01*
X290679Y6269252D01*
X313370Y6272137D01*
X361045Y6277184D01*
X413027Y6281730D01*
X461513Y6285053D01*
X494553Y6286926D01*
X542876Y6289937D01*
X577879Y6292865D01*
X601707Y6296205D01*
X616507Y6300454D01*
X624422Y6306109D01*
X627598Y6313665D01*
X628179Y6323618D01*
X630877Y6340883D01*
X637404Y6348108D01*
X641398Y6349743D01*
X641995Y6360183D01*
X640903Y6366920D01*
X648594Y6367949D01*
X659767Y6367888D01*
X667268Y6378916D01*
X665656Y6398182D01*
X659567Y6406914D01*
X646562Y6413961D01*
X633883Y6414765D01*
X628179Y6407647D01*
X627103Y6406158D01*
X614481Y6400431D01*
X590663Y6393200D01*
X559429Y6385672D01*
X547901Y6383056D01*
X510004Y6373544D01*
X463054Y6360860D01*
X411931Y6346342D01*
X361513Y6331332D01*
X334211Y6323018D01*
X291012Y6310003D01*
X253998Y6299022D01*
X226416Y6291035D01*
X211513Y6287002D01*
X195929Y6281680D01*
X174013Y6269568D01*
X172134Y6268142D01*
X163774Y6260583D01*
X30874Y6260583D01*
X38514Y6264646D01*
X86691Y6291783D01*
X136674Y6321146D01*
X182346Y6349213D01*
X199664Y6359816D01*
X286513Y6359816D01*
X287087Y6358102D01*
X293209Y6357365D01*
X308622Y6361052D01*
X336513Y6369798D01*
X345108Y6372470D01*
X372814Y6380476D01*
X410920Y6391019D01*
X455564Y6403037D01*
X502882Y6415471D01*
X530974Y6422821D01*
X547609Y6427274D01*
X762783Y6427274D01*
X781488Y6378916D01*
X787764Y6362691D01*
X812744Y6298108D01*
X1047545Y6297749D01*
X1100600Y6297502D01*
X1172743Y6296718D01*
X1244357Y6295490D01*
X1311407Y6293901D01*
X1369859Y6292037D01*
X1415679Y6289984D01*
X1434191Y6288939D01*
X1487767Y6285750D01*
X1540361Y6282410D01*
X1586755Y6279257D01*
X1621725Y6276630D01*
X1657678Y6274189D01*
X1680772Y6274146D01*
X1693412Y6276778D01*
X1698652Y6282311D01*
X1699372Y6284415D01*
X1704726Y6303153D01*
X1712250Y6332489D01*
X1721054Y6368599D01*
X1730249Y6407659D01*
X1738949Y6445847D01*
X1746262Y6479338D01*
X1751302Y6504308D01*
X1753179Y6516936D01*
X1753077Y6519692D01*
X1749476Y6527193D01*
X1737686Y6529519D01*
X1713596Y6527800D01*
X1693800Y6526048D01*
X1659292Y6523588D01*
X1617645Y6521029D01*
X1574013Y6518705D01*
X1501226Y6514492D01*
X1419582Y6508591D01*
X1332799Y6501341D01*
X1243597Y6493032D01*
X1154701Y6483955D01*
X1068831Y6474400D01*
X988710Y6464657D01*
X917060Y6455017D01*
X903958Y6453013D01*
X856605Y6445770D01*
X810065Y6437207D01*
X762783Y6427274D01*
X547609Y6427274D01*
X571455Y6433657D01*
X604205Y6442726D01*
X626415Y6449246D01*
X635282Y6452432D01*
X635656Y6453013D01*
X635246Y6464532D01*
X630691Y6484658D01*
X623793Y6507368D01*
X616352Y6526636D01*
X610169Y6536438D01*
X608917Y6536518D01*
X596146Y6531906D01*
X572294Y6520761D01*
X539952Y6504499D01*
X501712Y6484532D01*
X460164Y6462274D01*
X417900Y6439141D01*
X377510Y6416545D01*
X341585Y6395901D01*
X312717Y6378622D01*
X293496Y6366122D01*
X286513Y6359816D01*
X199664Y6359816D01*
X319445Y6433152D01*
X517681Y6544529D01*
X538660Y6556135D01*
X568040Y6574209D01*
X583896Y6586047D01*
X718111Y6586047D01*
X718719Y6572627D01*
X723287Y6555715D01*
X730212Y6533524D01*
X732304Y6526489D01*
X741560Y6497772D01*
X750850Y6481341D01*
X764267Y6474864D01*
X785901Y6476008D01*
X819846Y6482441D01*
X820827Y6482637D01*
X866426Y6490594D01*
X925805Y6499253D01*
X996183Y6508305D01*
X1074778Y6517441D01*
X1158807Y6526352D01*
X1245488Y6534729D01*
X1332040Y6542262D01*
X1415679Y6548642D01*
X1422643Y6549131D01*
X1487340Y6553756D01*
X1549043Y6558299D01*
X1605026Y6562548D01*
X1652561Y6566294D01*
X1688923Y6569327D01*
X1711383Y6571436D01*
X1765419Y6577274D01*
X1775113Y6635608D01*
X1777696Y6652808D01*
X1782891Y6694940D01*
X1788366Y6747270D01*
X1793747Y6805630D01*
X1798660Y6865850D01*
X1802731Y6923760D01*
X1805586Y6975191D01*
X1806115Y6999171D01*
X1804167Y7023323D01*
X1798888Y7031441D01*
X1794689Y7030751D01*
X1776647Y7025883D01*
X1748962Y7017374D01*
X1715668Y7006437D01*
X1698041Y7000612D01*
X1667257Y6991131D01*
X1644196Y6984948D01*
X1632855Y6983186D01*
X1624266Y6982430D01*
X1607346Y6975879D01*
X1604026Y6974373D01*
X1585704Y6967551D01*
X1555054Y6957013D01*
X1514640Y6943615D01*
X1467024Y6928211D01*
X1414771Y6911657D01*
X1366124Y6895994D01*
X1196954Y6834704D01*
X1030364Y6763198D01*
X861084Y6679263D01*
X830586Y6663250D01*
X787344Y6640511D01*
X756079Y6623206D01*
X735187Y6609551D01*
X723066Y6597760D01*
X718111Y6586047D01*
X583896Y6586047D01*
X587593Y6588807D01*
X594699Y6598108D01*
X594698Y6598217D01*
X592700Y6611115D01*
X587395Y6636469D01*
X579578Y6670662D01*
X570047Y6710077D01*
X561470Y6746282D01*
X548863Y6803871D01*
X536755Y6863481D01*
X526888Y6916784D01*
X508396Y7024022D01*
X489294Y6938148D01*
X480450Y6900725D01*
X452383Y6804497D01*
X419324Y6718940D01*
X381927Y6645235D01*
X340849Y6584564D01*
X296744Y6538108D01*
X250267Y6507048D01*
X222214Y6497110D01*
X177002Y6490330D01*
X130845Y6491693D01*
X91332Y6501465D01*
X90330Y6501887D01*
X43688Y6530213D01*
X-613Y6573838D01*
X-41986Y6631514D01*
X-79840Y6701989D01*
X-113589Y6784016D01*
X-142643Y6876345D01*
X-166415Y6977725D01*
X-180293Y7062369D01*
X-100981Y7062369D01*
X-99871Y7039889D01*
X-94928Y7006522D01*
X-86608Y6964844D01*
X-75367Y6917431D01*
X-61664Y6866858D01*
X-60008Y6861202D01*
X-51024Y6833403D01*
X-43290Y6813838D01*
X-38327Y6806441D01*
X-23589Y6812417D01*
X-4797Y6830516D01*
X13605Y6856955D01*
X28460Y6887881D01*
X37259Y6917613D01*
X43647Y6961951D01*
X43862Y7007129D01*
X38408Y7049727D01*
X27789Y7086324D01*
X12510Y7113501D01*
X-6925Y7127837D01*
X-20657Y7127269D01*
X-41895Y7119933D01*
X-64029Y7108424D01*
X-81435Y7095712D01*
X-88487Y7084768D01*
X-89000Y7081263D01*
X-97923Y7071351D01*
X-100981Y7062369D01*
X-180293Y7062369D01*
X-184316Y7086907D01*
X-185022Y7092456D01*
X-190764Y7154174D01*
X-194559Y7227302D01*
X-194962Y7244725D01*
X-121821Y7244725D01*
X-89127Y7276650D01*
X-88151Y7277601D01*
X-69232Y7294586D01*
X-52303Y7304392D01*
X-31146Y7309500D01*
X457Y7312390D01*
X5731Y7312737D01*
X35191Y7313851D01*
X55130Y7311564D01*
X71730Y7304414D01*
X91174Y7290938D01*
X96359Y7286827D01*
X124925Y7256289D01*
X149320Y7217604D01*
X156531Y7202880D01*
X164450Y7183579D01*
X169745Y7163605D01*
X173112Y7138961D01*
X175248Y7105648D01*
X176850Y7059667D01*
X176951Y7056163D01*
X177886Y7009015D01*
X177857Y7007129D01*
X177340Y6974081D01*
X174958Y6947208D01*
X170384Y6924244D01*
X163262Y6901036D01*
X156154Y6879785D01*
X145105Y6844736D01*
X136684Y6815682D01*
X129981Y6794673D01*
X100842Y6739295D01*
X57874Y6691355D01*
X27258Y6664475D01*
X45481Y6638884D01*
X51142Y6631666D01*
X72693Y6609423D01*
X97192Y6589033D01*
X107592Y6582110D01*
X147243Y6566478D01*
X187186Y6567206D01*
X226836Y6584075D01*
X265606Y6616869D01*
X302911Y6665370D01*
X313112Y6681777D01*
X354975Y6764556D01*
X390296Y6861789D01*
X418813Y6972649D01*
X440262Y7096311D01*
X444108Y7129158D01*
X449358Y7199569D01*
X452260Y7278899D01*
X452814Y7362242D01*
X451019Y7444689D01*
X446874Y7521332D01*
X440377Y7587264D01*
X424379Y7686734D01*
X403279Y7779738D01*
X377805Y7864025D01*
X348538Y7938459D01*
X316060Y8001905D01*
X280953Y8053229D01*
X243800Y8091294D01*
X205181Y8114965D01*
X165679Y8123108D01*
X153027Y8122294D01*
X113441Y8109222D01*
X75314Y8081186D01*
X39133Y8039467D01*
X5386Y7985347D01*
X-25442Y7920104D01*
X-52862Y7845021D01*
X-76389Y7761379D01*
X-95535Y7670457D01*
X-109813Y7573536D01*
X-118738Y7471898D01*
X-121821Y7366823D01*
X-121821Y7244725D01*
X-194962Y7244725D01*
X-196406Y7307180D01*
X-196305Y7389146D01*
X-194256Y7468541D01*
X-190260Y7540704D01*
X-184316Y7600976D01*
X-184004Y7603344D01*
X-165974Y7712375D01*
X-142085Y7813578D01*
X-112925Y7905702D01*
X-79084Y7987499D01*
X-41149Y8057718D01*
X290Y8115111D01*
X44647Y8158427D01*
X91332Y8186418D01*
X119209Y8194391D01*
X164320Y8197998D01*
X210535Y8193390D01*
X250267Y8180834D01*
X291590Y8153943D01*
X335533Y8109360D01*
X376680Y8050552D01*
X414385Y7978767D01*
X448001Y7895252D01*
X476883Y7801254D01*
X500384Y7698020D01*
X507777Y7662531D01*
X514517Y7638871D01*
X521184Y7626609D01*
X528775Y7623108D01*
X529016Y7623107D01*
X541704Y7620677D01*
X551338Y7612115D01*
X558521Y7595315D01*
X563857Y7568169D01*
X567951Y7528571D01*
X571407Y7474413D01*
X573614Y7437430D01*
X579712Y7362242D01*
X583190Y7319368D01*
X596623Y7195783D01*
X613282Y7071110D01*
X632539Y6949784D01*
X653764Y6836239D01*
X676328Y6734912D01*
X699013Y6642549D01*
X819846Y6707612D01*
X844005Y6720520D01*
X941359Y6770285D01*
X1037277Y6815323D01*
X1135339Y6857101D01*
X1239124Y6897086D01*
X1352211Y6936746D01*
X1478179Y6977550D01*
X1507871Y6986856D01*
X1570470Y7006492D01*
X1628524Y7024721D01*
X1679761Y7040830D01*
X1721908Y7054104D01*
X1752694Y7063828D01*
X1769846Y7069288D01*
X1807346Y7081382D01*
X1804999Y7162662D01*
X1802422Y7218084D01*
X1794972Y7309767D01*
X1783811Y7407572D01*
X1769638Y7505640D01*
X1753150Y7598108D01*
X1721370Y7736709D01*
X1662743Y7929291D01*
X1588211Y8118041D01*
X1498102Y8302242D01*
X1392740Y8481178D01*
X1272453Y8654133D01*
X1243558Y8692944D01*
X1222029Y8723242D01*
X1207891Y8745672D01*
X1199646Y8762904D01*
X1195797Y8777605D01*
X1194846Y8792444D01*
X1194440Y8804128D01*
X1190165Y8824019D01*
X1179025Y8843855D01*
X1158324Y8869311D01*
X1116905Y8909263D01*
X1063147Y8942365D01*
X1003987Y8959925D01*
X938853Y8962101D01*
X867176Y8949049D01*
X820398Y8933599D01*
X761003Y8908844D01*
X699725Y8878768D01*
X642430Y8846062D01*
X610847Y8826451D01*
X659097Y8807059D01*
X681313Y8797806D01*
X742615Y8768760D01*
X797459Y8737644D01*
X843434Y8706057D01*
X878132Y8675595D01*
X899142Y8647858D01*
X910610Y8611465D01*
X907579Y8574403D01*
X890182Y8540839D01*
X859592Y8512979D01*
X816979Y8493030D01*
X803392Y8489524D01*
X765675Y8483502D01*
X716936Y8478880D01*
X660906Y8475776D01*
X601317Y8474309D01*
X541897Y8474599D01*
X486379Y8476765D01*
X438493Y8480927D01*
X425633Y8482592D01*
X377316Y8490346D01*
X327016Y8500360D01*
X278429Y8511721D01*
X235255Y8523515D01*
X201191Y8534831D01*
X179936Y8544754D01*
X169576Y8553325D01*
X163222Y8567905D01*
X163141Y8592153D01*
X168980Y8619760D01*
X183728Y8637073D01*
X208327Y8641756D01*
X243909Y8634399D01*
X280128Y8623358D01*
X337767Y8608386D01*
X393979Y8597781D01*
X453260Y8590929D01*
X520106Y8587219D01*
X599013Y8586038D01*
X632729Y8586144D01*
X687083Y8587090D01*
X730705Y8588926D01*
X761619Y8591555D01*
X777851Y8594879D01*
X783310Y8597366D01*
X790161Y8602280D01*
X788265Y8608469D01*
X775894Y8618558D01*
X751320Y8635171D01*
X742807Y8640662D01*
X690572Y8669690D01*
X622246Y8701302D01*
X537742Y8735535D01*
X436971Y8772424D01*
X319846Y8812007D01*
X279296Y8825359D01*
X228075Y8842550D01*
X183500Y8857882D01*
X147876Y8870546D01*
X123509Y8879733D01*
X112705Y8884636D01*
X109825Y8887576D01*
X104625Y8904543D01*
X105385Y8934799D01*
X108070Y8954242D01*
X116188Y8977169D01*
X131276Y8993769D01*
X140658Y9001814D01*
X151367Y9017201D01*
X147927Y9032571D01*
X130263Y9052214D01*
X123948Y9057677D01*
X85173Y9080145D01*
X33276Y9096692D01*
X-29519Y9106763D01*
X-100987Y9109806D01*
X-199289Y9102403D01*
X-311219Y9079458D01*
X-426880Y9041359D01*
X-545542Y8988477D01*
X-666476Y8921180D01*
X-788955Y8839836D01*
X-912248Y8744816D01*
X-1035627Y8636489D01*
X-1059708Y8614449D01*
X-1084177Y8593029D01*
X-1102088Y8578475D01*
X-1110692Y8573108D01*
X-1114729Y8568172D01*
X-1123216Y8550274D01*
X-1134301Y8522367D01*
X-1146622Y8487691D01*
X-1148347Y8482644D01*
X-1172004Y8420940D01*
X-1202727Y8350833D01*
X-1238148Y8277076D01*
X-1275899Y8204423D01*
X-1313614Y8137627D01*
X-1348925Y8081441D01*
X-1360030Y8065083D01*
X-1380449Y8036029D01*
X-1395456Y8017428D01*
X-1407604Y8006810D01*
X-1419449Y8001708D01*
X-1433544Y7999653D01*
X-1462428Y8000708D01*
X-1482288Y8011148D01*
X-1489449Y8031537D01*
X-1483915Y8062088D01*
X-1465685Y8103014D01*
X-1434762Y8154530D01*
X-1367768Y8265962D01*
X-1294466Y8416436D01*
X-1235757Y8574491D01*
X-1191887Y8739443D01*
X-1163101Y8910608D01*
X-1162086Y8919611D01*
X-1158259Y8969584D01*
X-1155767Y9030736D01*
X-1154607Y9098608D01*
X-1154779Y9168740D01*
X-1156280Y9236673D01*
X-1159108Y9297949D01*
X-1163263Y9348108D01*
X-1164016Y9354769D01*
X-1194780Y9554053D01*
X-1241494Y9755161D01*
X-1303758Y9956794D01*
X-1381174Y10157654D01*
X-1473341Y10356441D01*
X-1491161Y10391890D01*
X-1510025Y10429608D01*
X-1525002Y10459775D01*
X-1534881Y10479950D01*
X-1538452Y10487691D01*
X-1538177Y10487888D01*
X-1527916Y10488846D01*
X-1505807Y10489520D01*
X-1475916Y10489774D01*
X-1413345Y10489774D01*
X-1359910Y10379358D01*
X-1298532Y10246382D01*
X-1219040Y10049434D01*
X-1154384Y9854400D01*
X-1103949Y9659353D01*
X-1067120Y9462367D01*
X-1062788Y9431240D01*
X-1054180Y9346486D01*
X-1048567Y9253843D01*
X-1045957Y9157359D01*
X-1046360Y9061078D01*
X-1049784Y8969046D01*
X-1056238Y8885308D01*
X-1065730Y8813911D01*
X-1076656Y8750548D01*
X-1017988Y8801551D01*
X-974093Y8838796D01*
X-836556Y8943898D01*
X-697225Y9033060D01*
X-556435Y9106105D01*
X-414521Y9162849D01*
X-271821Y9203114D01*
X-249753Y9207361D01*
X-197753Y9213803D01*
X-139502Y9217403D01*
X-79535Y9218160D01*
X-22385Y9216069D01*
X27412Y9211129D01*
X65324Y9203335D01*
X115754Y9185029D01*
X168302Y9158261D01*
X211046Y9127528D01*
X241710Y9094514D01*
X258018Y9060899D01*
X259635Y9051499D01*
X260298Y9021862D01*
X257022Y8989803D01*
X250541Y8964774D01*
X250192Y8963687D01*
X252572Y8957619D01*
X263442Y8950411D01*
X284692Y8941226D01*
X318212Y8929224D01*
X365891Y8913567D01*
X486577Y8874859D01*
X554734Y8920478D01*
X612099Y8956867D01*
X705784Y9006901D01*
X800823Y9045504D01*
X820221Y9051961D01*
X850262Y9060177D01*
X880075Y9065129D01*
X915284Y9067620D01*
X961513Y9068453D01*
X984842Y9068521D01*
X1020386Y9067979D01*
X1046416Y9065856D01*
X1067668Y9061326D01*
X1088877Y9053563D01*
X1114775Y9041744D01*
X1127245Y9035550D01*
X1176184Y9004257D01*
X1223108Y8961515D01*
X1226683Y8957703D01*
X1248682Y8931476D01*
X1273890Y8897847D01*
X1300414Y8859774D01*
X1326361Y8820215D01*
X1349837Y8782126D01*
X1368950Y8748466D01*
X1381807Y8722191D01*
X1386513Y8706260D01*
X1387502Y8702372D01*
X1395781Y8685262D01*
X1411102Y8658533D01*
X1431819Y8624990D01*
X1456285Y8587440D01*
X1509346Y8505179D01*
X1604410Y8339930D01*
X1686704Y8169761D01*
X1758706Y7989774D01*
X1793844Y7883790D01*
X1826760Y7765422D01*
X1855327Y7642370D01*
X1878814Y7518497D01*
X1896494Y7397663D01*
X1907637Y7283729D01*
X1911513Y7180558D01*
X1911612Y7164603D01*
X1912418Y7134784D01*
X1913859Y7114150D01*
X1915724Y7106441D01*
X1917171Y7106633D01*
X1931224Y7109275D01*
X1957497Y7114537D01*
X1992933Y7121801D01*
X2034474Y7130449D01*
X2042902Y7132208D01*
X2088322Y7141471D01*
X2130686Y7149779D01*
X2165582Y7156280D01*
X2188596Y7160126D01*
X2206031Y7162438D01*
X2221216Y7162585D01*
X2227159Y7157272D01*
X2228179Y7144829D01*
X2226656Y7132823D01*
X2217810Y7123813D01*
X2196930Y7118316D01*
X2185587Y7116268D01*
X2150415Y7109639D01*
X2109601Y7101654D01*
X2066286Y7092961D01*
X2023614Y7084209D01*
X1984729Y7076048D01*
X1952773Y7069126D01*
X1930890Y7064092D01*
X1922223Y7061596D01*
X1921004Y7054646D01*
X1919003Y7033430D01*
X1916549Y7000672D01*
X1916451Y6999171D01*
X1913846Y6959100D01*
X1911096Y6911440D01*
G37*
G36*
X292626Y8436276D02*
G01*
X344119Y8430919D01*
X384885Y8421023D01*
X432590Y8398381D01*
X485818Y8356920D01*
X530270Y8301862D01*
X565272Y8233909D01*
X567562Y8228023D01*
X579436Y8191908D01*
X592433Y8145068D01*
X605437Y8092245D01*
X617329Y8038180D01*
X626992Y7987612D01*
X633308Y7945283D01*
X633768Y7941331D01*
X636280Y7915949D01*
X635467Y7902973D01*
X630203Y7898706D01*
X619365Y7899450D01*
X611786Y7901466D01*
X605291Y7906982D01*
X599571Y7918508D01*
X593693Y7938642D01*
X586721Y7969982D01*
X577720Y8015125D01*
X573363Y8036957D01*
X554441Y8120121D01*
X534195Y8188768D01*
X511666Y8244636D01*
X485897Y8289466D01*
X455930Y8324997D01*
X420808Y8352969D01*
X379574Y8375121D01*
X336264Y8388422D01*
X281131Y8395302D01*
X221128Y8394724D01*
X161513Y8386415D01*
X151070Y8384214D01*
X111610Y8376616D01*
X85416Y8373452D01*
X70146Y8374852D01*
X63460Y8380944D01*
X63017Y8391858D01*
X63353Y8393860D01*
X67610Y8403214D01*
X78307Y8410512D01*
X98775Y8417366D01*
X132346Y8425386D01*
X178809Y8433006D01*
X235744Y8437002D01*
X292626Y8436276D01*
G37*
G36*
X-1385675Y9072078D02*
G01*
X-1387499Y9000163D01*
X-1389792Y8932766D01*
X-1392543Y8871847D01*
X-1395742Y8819363D01*
X-1399379Y8777274D01*
X-1420302Y8597380D01*
X-1452130Y8371090D01*
X-1490316Y8145619D01*
X-1535716Y7916002D01*
X-1589186Y7677274D01*
X-1598057Y7640325D01*
X-1609308Y7595233D01*
X-1619374Y7556799D01*
X-1627414Y7528219D01*
X-1632584Y7512691D01*
X-1643255Y7497075D01*
X-1658151Y7489774D01*
X-1675759Y7496883D01*
X-1699398Y7517409D01*
X-1727702Y7549657D01*
X-1759470Y7591928D01*
X-1793499Y7642523D01*
X-1828587Y7699745D01*
X-1863530Y7761895D01*
X-1897128Y7827274D01*
X-1965782Y7985543D01*
X-2020744Y8152764D01*
X-2060464Y8324810D01*
X-2084934Y8500696D01*
X-2094146Y8679436D01*
X-2090987Y8773690D01*
X-2051112Y8773690D01*
X-2050345Y8596765D01*
X-2033632Y8423108D01*
X-2021474Y8349195D01*
X-1988396Y8201663D01*
X-1944608Y8057351D01*
X-1891227Y7919318D01*
X-1829369Y7790622D01*
X-1760151Y7674321D01*
X-1741187Y7646155D01*
X-1718446Y7613255D01*
X-1699183Y7586321D01*
X-1686214Y7569349D01*
X-1665718Y7544758D01*
X-1630849Y7688891D01*
X-1607335Y7788958D01*
X-1557486Y8023017D01*
X-1514163Y8258869D01*
X-1477999Y8492569D01*
X-1449630Y8720174D01*
X-1429693Y8937737D01*
X-1428314Y8958625D01*
X-1425499Y9020910D01*
X-1423746Y9092575D01*
X-1423007Y9170726D01*
X-1423231Y9252473D01*
X-1424369Y9334920D01*
X-1426371Y9415177D01*
X-1429187Y9490349D01*
X-1432768Y9557545D01*
X-1437064Y9613871D01*
X-1442026Y9656434D01*
X-1452081Y9717429D01*
X-1472988Y9818348D01*
X-1496816Y9903526D01*
X-1523495Y9972727D01*
X-1552955Y10025718D01*
X-1553574Y10026615D01*
X-1568641Y10045796D01*
X-1581143Y10053306D01*
X-1596009Y10052177D01*
X-1596171Y10052136D01*
X-1615190Y10042226D01*
X-1637303Y10023785D01*
X-1658305Y10001309D01*
X-1673991Y9979293D01*
X-1680154Y9962233D01*
X-1680350Y9960488D01*
X-1685867Y9944647D01*
X-1697831Y9918291D01*
X-1714709Y9884647D01*
X-1734969Y9846939D01*
X-1822378Y9675715D01*
X-1898502Y9496001D01*
X-1959627Y9315038D01*
X-2005563Y9133730D01*
X-2036122Y8952979D01*
X-2051112Y8773690D01*
X-2090987Y8773690D01*
X-2088093Y8860044D01*
X-2066767Y9041535D01*
X-2030160Y9222921D01*
X-1978264Y9403219D01*
X-1911071Y9581441D01*
X-1899277Y9609303D01*
X-1881827Y9650505D01*
X-1866138Y9687523D01*
X-1854577Y9714774D01*
X-1845538Y9735386D01*
X-1836020Y9755424D01*
X-1830549Y9764812D01*
X-1830241Y9765142D01*
X-1823738Y9775498D01*
X-1812212Y9796190D01*
X-1797941Y9823145D01*
X-1783596Y9850291D01*
X-1752598Y9906127D01*
X-1718870Y9963790D01*
X-1683628Y10021466D01*
X-1648086Y10077340D01*
X-1613459Y10129596D01*
X-1580964Y10176421D01*
X-1551816Y10216000D01*
X-1527229Y10246517D01*
X-1508420Y10266158D01*
X-1496603Y10273108D01*
X-1486511Y10271163D01*
X-1480902Y10261132D01*
X-1486049Y10241779D01*
X-1502238Y10212226D01*
X-1529756Y10171598D01*
X-1547520Y10146463D01*
X-1562764Y10123278D01*
X-1569903Y10108938D01*
X-1570094Y10100957D01*
X-1564493Y10096849D01*
X-1550089Y10087621D01*
X-1528985Y10066327D01*
X-1507396Y10038117D01*
X-1489050Y10007412D01*
X-1483980Y9996640D01*
X-1470670Y9962359D01*
X-1456696Y9919372D01*
X-1442781Y9870751D01*
X-1429647Y9819568D01*
X-1418015Y9768892D01*
X-1408608Y9721795D01*
X-1402148Y9681348D01*
X-1399356Y9650623D01*
X-1400954Y9632689D01*
X-1401678Y9624212D01*
X-1394881Y9608274D01*
X-1392129Y9599438D01*
X-1389252Y9575003D01*
X-1386940Y9537458D01*
X-1385182Y9488761D01*
X-1383968Y9430870D01*
X-1383286Y9365745D01*
X-1383126Y9295345D01*
X-1383478Y9221628D01*
X-1384057Y9170726D01*
X-1384332Y9146552D01*
X-1385675Y9072078D01*
G37*
G36*
X-118798Y6393792D02*
G01*
X-149484Y6352542D01*
X-184444Y6315132D01*
X-217654Y6288786D01*
X-219994Y6287404D01*
X-247208Y6277246D01*
X-277421Y6273139D01*
X-287249Y6273340D01*
X-306433Y6276808D01*
X-322597Y6287217D01*
X-342004Y6307941D01*
X-353551Y6322395D01*
X-366701Y6342222D01*
X-371821Y6355071D01*
X-372243Y6358088D01*
X-379417Y6374508D01*
X-392654Y6394682D01*
X-397257Y6400876D01*
X-408846Y6418315D01*
X-413487Y6428450D01*
X-415848Y6433332D01*
X-427098Y6447724D01*
X-444492Y6466657D01*
X-446652Y6468941D01*
X-339464Y6468941D01*
X-305642Y6423686D01*
X-288880Y6399803D01*
X-276536Y6379328D01*
X-271821Y6367436D01*
X-271304Y6363099D01*
X-265571Y6356754D01*
X-264906Y6356838D01*
X-252994Y6363424D01*
X-235504Y6377380D01*
X-217163Y6394360D01*
X-202693Y6410017D01*
X-196820Y6420004D01*
X-194854Y6426680D01*
X-184321Y6439774D01*
X-177659Y6446932D01*
X-171821Y6460668D01*
X-172037Y6461926D01*
X-181978Y6468846D01*
X-203780Y6474024D01*
X-233347Y6477012D01*
X-266583Y6477362D01*
X-299392Y6474625D01*
X-339464Y6468941D01*
X-446652Y6468941D01*
X-461336Y6484470D01*
X-469530Y6496882D01*
X-469108Y6507404D01*
X-461688Y6521175D01*
X-455472Y6530393D01*
X-446564Y6538094D01*
X-432685Y6542779D01*
X-409940Y6545639D01*
X-374433Y6547866D01*
X-363197Y6548412D01*
X-316467Y6549963D01*
X-264982Y6550831D01*
X-217991Y6550842D01*
X-210673Y6550755D01*
X-174855Y6549972D01*
X-151275Y6548138D01*
X-136126Y6544390D01*
X-125606Y6537865D01*
X-115908Y6527702D01*
X-103017Y6506153D01*
X-96101Y6470372D01*
X-97419Y6460668D01*
X-101394Y6431388D01*
X-118798Y6393792D01*
G37*
%TD*%
M02*
